<svg xmlns="http://www.w3.org/2000/svg" width="1240" height="860" viewBox="0 0 1240 860" fill="none">
  <style>
    .title { font: 700 34px Inter, Arial, sans-serif; fill: #111111; }
    .track { fill: none; stroke-linejoin: round; stroke-linecap: round; }
    .sector { fill: none; stroke-linejoin: round; stroke-linecap: butt; }
    .marker { fill: #2e3448; stroke: #2e3448; stroke-width: 1.5; }
    .marker-text { font: 700 15px Inter, Arial, sans-serif; fill: #ffffff; text-anchor: middle; dominant-baseline: middle; }
    .label { font: 600 18px Inter, Arial, sans-serif; fill: #111111; paint-order: stroke; stroke: #ffffff; stroke-width: 5px; stroke-linejoin: round; }
    .start-line-outline { stroke: #121528; stroke-width: 8; stroke-linecap: round; }
    .start-line-inner { stroke: #ffffff; stroke-width: 4; stroke-linecap: round; }
    .arrow-shaft { stroke: #121528; stroke-width: 4; stroke-linecap: round; }
    .arrow-head { fill: #121528; }
  </style>
  <rect width="1240" height="860" fill="#ffffff"/>
  <text class="title" x="96" y="62">Brands Hatch</text>
  <path class="track" d="M 782.03 327.72 L 782.71 329.26 L 783.40 330.80 L 784.09 332.34 L 784.77 333.88 L 785.45 335.42 L 786.13 336.96 L 786.81 338.50 L 787.49 340.04 L 788.17 341.59 L 788.85 343.13 L 789.52 344.67 L 790.19 346.22 L 790.86 347.76 L 791.53 349.31 L 792.20 350.86 L 792.86 352.41 L 793.53 353.96 L 794.19 355.51 L 794.84 357.06 L 795.50 358.61 L 796.15 360.16 L 796.80 361.72 L 797.45 363.28 L 798.09 364.83 L 798.73 366.39 L 799.37 367.95 L 800.01 369.51 L 800.64 371.07 L 801.26 372.64 L 801.89 374.20 L 802.50 375.77 L 803.12 377.34 L 803.72 378.91 L 804.33 380.49 L 804.92 382.06 L 805.52 383.64 L 806.10 385.22 L 806.68 386.80 L 807.25 388.39 L 807.82 389.97 L 808.37 391.56 L 808.92 393.16 L 809.47 394.75 L 810.00 396.35 L 810.53 397.95 L 811.04 399.55 L 811.55 401.16 L 812.05 402.77 L 812.54 404.38 L 813.02 406.00 L 813.49 407.62 L 813.95 409.24 L 814.40 410.86 L 814.84 412.49 L 815.27 414.12 L 815.68 415.75 L 816.09 417.39 L 816.48 419.03 L 816.86 420.67 L 817.22 422.31 L 817.58 423.96 L 817.92 425.61 L 818.25 427.26 L 818.56 428.92 L 818.86 430.58 L 819.14 432.24 L 819.41 433.90 L 819.67 435.57 L 819.91 437.23 L 820.13 438.90 L 820.34 440.58 L 820.53 442.25 L 820.70 443.93 L 820.86 445.60 L 821.00 447.28 L 821.13 448.96 L 821.23 450.65 L 821.32 452.33 L 821.39 454.01 L 821.44 455.70 L 821.47 457.38 L 821.48 459.07 L 821.47 460.75 L 821.44 462.44 L 821.39 464.12 L 821.32 465.80 L 821.23 467.49 L 821.12 469.17 L 820.99 470.85 L 820.83 472.53 L 820.65 474.20 L 820.45 475.87 L 820.23 477.54 L 819.98 479.21 L 819.71 480.87 L 819.42 482.53 L 819.10 484.19 L 818.76 485.84 L 818.39 487.48 L 818.00 489.12 L 817.58 490.75 L 817.14 492.38 L 816.67 494.00 L 816.18 495.61 L 815.66 497.21 L 815.11 498.81 L 814.53 500.39 L 813.93 501.96 L 813.30 503.53 L 812.65 505.08 L 811.96 506.62 L 811.25 508.15 L 810.51 509.66 L 809.74 511.16 L 808.95 512.64 L 808.12 514.11 L 807.27 515.57 L 806.39 517.00 L 805.47 518.42 L 804.53 519.82 L 803.56 521.19 L 802.56 522.55 L 801.53 523.88 L 800.48 525.20 L 799.39 526.49 L 798.28 527.75 L 797.14 529.00 L 795.98 530.21 L 794.79 531.41 L 793.58 532.58 L 792.35 533.73 L 791.09 534.86 L 789.82 535.96 L 788.52 537.03 L 787.21 538.09 L 785.87 539.12 L 784.52 540.12 L 783.15 541.10 L 781.77 542.06 L 780.37 543.00 L 778.95 543.91 L 777.52 544.80 L 776.07 545.67 L 774.61 546.51 L 773.14 547.33 L 771.66 548.13 L 770.16 548.90 L 768.65 549.66 L 767.14 550.39 L 765.61 551.10 L 764.07 551.79 L 762.52 552.45 L 760.97 553.10 L 759.40 553.72 L 757.83 554.33 L 756.25 554.91 L 754.66 555.47 L 753.06 556.02 L 751.46 556.54 L 749.85 557.04 L 748.24 557.53 L 746.62 557.99 L 745.00 558.44 L 743.37 558.87 L 741.73 559.28 L 740.09 559.67 L 738.45 560.04 L 736.80 560.40 L 735.15 560.74 L 733.50 561.06 L 731.84 561.37 L 730.18 561.66 L 728.52 561.94 L 726.86 562.19 L 725.19 562.44 L 723.52 562.67 L 721.85 562.88 L 720.17 563.08 L 718.50 563.26 L 716.82 563.43 L 715.14 563.59 L 713.47 563.73 L 711.79 563.87 L 710.11 563.98 L 708.42 564.09 L 706.74 564.18 L 705.06 564.27 L 703.37 564.34 L 701.69 564.40 L 700.01 564.44 L 698.32 564.48 L 696.64 564.51 L 694.95 564.53 L 693.27 564.54 L 691.58 564.54 L 689.90 564.53 L 688.21 564.51 L 686.53 564.48 L 684.84 564.44 L 683.16 564.40 L 681.47 564.35 L 679.79 564.29 L 678.11 564.23 L 676.42 564.15 L 674.74 564.08 L 673.06 563.99 L 671.37 563.90 L 669.69 563.80 L 668.01 563.70 L 666.33 563.60 L 664.65 563.49 L 662.97 563.37 L 661.28 563.25 L 659.60 563.13 L 657.92 563.00 L 656.24 562.87 L 654.56 562.73 L 652.88 562.60 L 651.21 562.46 L 649.53 562.31 L 647.85 562.17 L 646.17 562.03 L 644.49 561.88 L 642.81 561.73 L 641.13 561.58 L 639.46 561.43 L 637.78 561.28 L 636.10 561.13 L 634.42 560.97 L 632.74 560.81 L 631.07 560.64 L 629.39 560.46 L 627.72 560.27 L 626.04 560.07 L 624.37 559.86 L 622.70 559.64 L 621.04 559.39 L 619.37 559.13 L 617.71 558.85 L 616.05 558.54 L 614.40 558.21 L 612.75 557.86 L 611.11 557.47 L 609.48 557.06 L 607.85 556.62 L 606.24 556.14 L 604.63 555.64 L 603.04 555.09 L 601.45 554.51 L 599.89 553.89 L 598.34 553.23 L 596.81 552.53 L 595.29 551.78 L 593.80 550.99 L 592.34 550.16 L 590.90 549.28 L 589.49 548.35 L 588.12 547.38 L 586.78 546.36 L 585.48 545.29 L 584.22 544.17 L 583.01 543.00 L 581.85 541.78 L 580.74 540.51 L 579.69 539.19 L 578.70 537.82 L 577.78 536.41 L 576.94 534.96 L 576.17 533.46 L 575.48 531.92 L 574.89 530.34 L 574.40 528.73 L 574.00 527.09 L 573.72 525.43 L 573.56 523.75 L 573.52 522.07 L 573.61 520.39 L 573.84 518.72 L 574.19 517.07 L 574.67 515.46 L 575.27 513.88 L 575.98 512.35 L 576.79 510.87 L 577.68 509.45 L 578.67 508.08 L 579.72 506.77 L 580.85 505.52 L 582.05 504.33 L 583.30 503.20 L 584.60 502.13 L 585.95 501.12 L 587.34 500.18 L 588.78 499.29 L 590.24 498.46 L 591.74 497.69 L 593.27 496.97 L 594.82 496.31 L 596.39 495.70 L 597.98 495.14 L 599.58 494.63 L 601.20 494.17 L 602.84 493.76 L 604.48 493.38 L 606.13 493.05 L 607.79 492.76 L 609.46 492.50 L 611.13 492.28 L 612.80 492.09 L 614.48 491.93 L 616.16 491.79 L 617.84 491.69 L 619.52 491.61 L 621.21 491.54 L 622.89 491.50 L 624.58 491.47 L 626.26 491.46 L 627.95 491.46 L 629.63 491.47 L 631.32 491.50 L 633.00 491.53 L 634.68 491.56 L 636.37 491.61 L 638.05 491.66 L 639.74 491.71 L 641.42 491.77 L 643.11 491.83 L 644.79 491.89 L 646.47 491.95 L 648.16 492.02 L 649.84 492.08 L 651.52 492.14 L 653.21 492.19 L 654.89 492.25 L 656.58 492.30 L 658.26 492.34 L 659.95 492.37 L 661.63 492.40 L 663.32 492.42 L 665.00 492.43 L 666.69 492.43 L 668.37 492.42 L 670.06 492.39 L 671.74 492.35 L 673.42 492.30 L 675.11 492.23 L 676.79 492.15 L 678.47 492.05 L 680.15 491.93 L 681.83 491.79 L 683.51 491.63 L 685.19 491.45 L 686.86 491.25 L 688.53 491.02 L 690.20 490.78 L 691.86 490.50 L 693.52 490.21 L 695.17 489.88 L 696.82 489.53 L 698.46 489.15 L 700.09 488.74 L 701.72 488.30 L 703.34 487.83 L 704.95 487.32 L 706.54 486.79 L 708.13 486.22 L 709.70 485.61 L 711.26 484.98 L 712.81 484.30 L 714.34 483.59 L 715.85 482.84 L 717.34 482.06 L 718.81 481.24 L 720.25 480.37 L 721.68 479.47 L 723.07 478.53 L 724.44 477.55 L 725.78 476.52 L 727.09 475.46 L 728.36 474.36 L 729.60 473.21 L 730.80 472.03 L 731.95 470.80 L 733.06 469.53 L 734.13 468.23 L 735.14 466.88 L 736.11 465.50 L 737.02 464.09 L 737.88 462.64 L 738.69 461.16 L 739.45 459.66 L 740.16 458.13 L 740.83 456.58 L 741.44 455.01 L 742.00 453.42 L 742.52 451.82 L 743.00 450.20 L 743.43 448.57 L 743.82 446.93 L 744.16 445.29 L 744.47 443.63 L 744.73 441.96 L 744.95 440.29 L 745.14 438.62 L 745.29 436.94 L 745.41 435.26 L 745.49 433.58 L 745.54 431.89 L 745.56 430.21 L 745.54 428.52 L 745.50 426.84 L 745.43 425.16 L 745.33 423.47 L 745.21 421.79 L 745.06 420.11 L 744.88 418.44 L 744.69 416.76 L 744.47 415.09 L 744.24 413.42 L 743.98 411.76 L 743.71 410.10 L 743.42 408.44 L 743.11 406.78 L 742.79 405.13 L 742.46 403.47 L 742.11 401.82 L 741.76 400.18 L 741.39 398.53 L 741.01 396.89 L 740.62 395.25 L 740.23 393.61 L 739.83 391.98 L 739.42 390.34 L 739.00 388.71 L 738.58 387.08 L 738.15 385.45 L 737.71 383.82 L 737.27 382.20 L 736.82 380.57 L 736.36 378.95 L 735.89 377.33 L 735.42 375.71 L 734.94 374.10 L 734.46 372.49 L 733.96 370.87 L 733.46 369.26 L 732.96 367.66 L 732.45 366.05 L 731.93 364.45 L 731.41 362.85 L 730.87 361.25 L 730.34 359.65 L 729.79 358.06 L 729.24 356.46 L 728.69 354.87 L 728.13 353.28 L 727.56 351.70 L 726.99 350.11 L 726.41 348.53 L 725.82 346.95 L 725.23 345.37 L 724.63 343.80 L 724.03 342.22 L 723.42 340.65 L 722.81 339.08 L 722.19 337.51 L 721.57 335.95 L 720.94 334.39 L 720.30 332.82 L 719.66 331.27 L 719.02 329.71 L 718.37 328.15 L 717.71 326.60 L 717.05 325.05 L 716.39 323.50 L 715.72 321.96 L 715.04 320.41 L 714.36 318.87 L 713.68 317.33 L 712.99 315.79 L 712.30 314.26 L 711.60 312.72 L 710.90 311.19 L 710.19 309.66 L 709.48 308.13 L 708.77 306.61 L 708.05 305.08 L 707.33 303.56 L 706.60 302.04 L 705.87 300.52 L 705.14 299.01 L 704.40 297.49 L 703.65 295.98 L 702.90 294.47 L 702.14 292.97 L 701.38 291.47 L 700.61 289.97 L 699.83 288.47 L 699.04 286.99 L 698.24 285.50 L 697.43 284.02 L 696.62 282.55 L 695.79 281.08 L 694.95 279.62 L 694.10 278.16 L 693.24 276.72 L 692.36 275.27 L 691.48 273.84 L 690.58 272.42 L 689.66 271.00 L 688.73 269.60 L 687.79 268.20 L 686.83 266.81 L 685.86 265.44 L 684.87 264.08 L 683.86 262.72 L 682.84 261.38 L 681.80 260.06 L 680.74 258.75 L 679.67 257.45 L 678.57 256.17 L 677.46 254.90 L 676.33 253.65 L 675.18 252.42 L 674.01 251.21 L 672.83 250.01 L 671.62 248.83 L 670.39 247.68 L 669.14 246.55 L 667.88 245.44 L 666.59 244.35 L 665.28 243.29 L 663.95 242.25 L 662.61 241.24 L 661.24 240.25 L 659.85 239.30 L 658.44 238.37 L 657.02 237.48 L 655.57 236.61 L 654.10 235.78 L 652.62 234.99 L 651.11 234.23 L 649.59 233.51 L 648.05 232.82 L 646.49 232.18 L 644.92 231.57 L 643.33 231.01 L 641.73 230.49 L 640.11 230.02 L 638.48 229.59 L 636.84 229.21 L 635.19 228.89 L 633.53 228.61 L 631.86 228.39 L 630.18 228.22 L 628.50 228.10 L 626.81 228.05 L 625.13 228.05 L 623.45 228.11 L 621.76 228.23 L 620.09 228.40 L 618.42 228.64 L 616.76 228.93 L 615.11 229.28 L 613.48 229.68 L 611.86 230.15 L 610.26 230.67 L 608.67 231.25 L 607.11 231.88 L 605.57 232.57 L 604.06 233.30 L 602.57 234.09 L 601.10 234.92 L 599.66 235.80 L 598.25 236.72 L 596.87 237.68 L 595.51 238.68 L 594.18 239.71 L 592.88 240.78 L 591.61 241.89 L 590.36 243.02 L 589.15 244.19 L 587.96 245.39 L 586.80 246.61 L 585.67 247.86 L 584.57 249.13 L 583.49 250.43 L 582.44 251.75 L 581.42 253.09 L 580.43 254.45 L 579.46 255.83 L 578.52 257.23 L 577.60 258.64 L 576.71 260.07 L 575.84 261.51 L 574.99 262.97 L 574.17 264.44 L 573.37 265.92 L 572.60 267.42 L 571.84 268.93 L 571.11 270.44 L 570.39 271.97 L 569.70 273.50 L 569.02 275.05 L 568.36 276.60 L 567.72 278.16 L 567.10 279.72 L 566.49 281.29 L 565.89 282.87 L 565.31 284.45 L 564.75 286.04 L 564.20 287.63 L 563.66 289.23 L 563.13 290.83 L 562.61 292.43 L 562.10 294.04 L 561.60 295.65 L 561.11 297.26 L 560.63 298.87 L 560.15 300.49 L 559.68 302.11 L 559.21 303.73 L 558.75 305.35 L 558.29 306.97 L 557.84 308.59 L 557.39 310.21 L 556.95 311.84 L 556.50 313.47 L 556.06 315.09 L 555.62 316.72 L 555.19 318.35 L 554.76 319.98 L 554.33 321.60 L 553.90 323.23 L 553.47 324.86 L 553.04 326.49 L 552.62 328.13 L 552.20 329.76 L 551.77 331.39 L 551.35 333.02 L 550.93 334.65 L 550.51 336.28 L 550.09 337.91 L 549.66 339.54 L 549.24 341.17 L 548.82 342.81 L 548.39 344.44 L 547.97 346.07 L 547.54 347.70 L 547.11 349.33 L 546.68 350.96 L 546.25 352.58 L 545.81 354.21 L 545.37 355.84 L 544.94 357.47 L 544.49 359.09 L 544.05 360.72 L 543.60 362.34 L 543.15 363.96 L 542.70 365.59 L 542.24 367.21 L 541.78 368.83 L 541.32 370.45 L 540.85 372.07 L 540.38 373.69 L 539.91 375.31 L 539.43 376.92 L 538.95 378.54 L 538.47 380.15 L 537.98 381.77 L 537.49 383.38 L 537.00 384.99 L 536.50 386.60 L 536.00 388.21 L 535.49 389.81 L 534.98 391.42 L 534.47 393.02 L 533.95 394.63 L 533.43 396.23 L 532.90 397.83 L 532.37 399.43 L 531.84 401.03 L 531.31 402.63 L 530.77 404.22 L 530.22 405.82 L 529.68 407.41 L 529.13 409.01 L 528.57 410.60 L 528.01 412.19 L 527.45 413.78 L 526.89 415.36 L 526.32 416.95 L 525.75 418.54 L 525.18 420.12 L 524.60 421.70 L 524.02 423.28 L 523.44 424.87 L 522.85 426.44 L 522.26 428.02 L 521.66 429.60 L 521.07 431.18 L 520.47 432.75 L 519.87 434.32 L 519.26 435.90 L 518.65 437.47 L 518.04 439.04 L 517.42 440.61 L 516.81 442.17 L 516.19 443.74 L 515.56 445.31 L 514.94 446.87 L 514.31 448.43 L 513.68 450.00 L 513.04 451.56 L 512.40 453.12 L 511.76 454.67 L 511.12 456.23 L 510.47 457.79 L 509.83 459.34 L 509.18 460.90 L 508.52 462.45 L 507.87 464.00 L 507.21 465.56 L 506.55 467.11 L 505.88 468.65 L 505.22 470.20 L 504.55 471.75 L 503.88 473.29 L 503.21 474.84 L 502.53 476.38 L 501.85 477.93 L 501.17 479.47 L 500.49 481.01 L 499.81 482.55 L 499.12 484.09 L 498.43 485.62 L 497.74 487.16 L 497.05 488.70 L 496.35 490.23 L 495.65 491.77 L 494.95 493.30 L 494.25 494.83 L 493.55 496.36 L 492.84 497.89 L 492.14 499.42 L 491.43 500.95 L 490.72 502.48 L 490.00 504.00 L 489.29 505.53 L 488.57 507.06 L 487.85 508.58 L 487.13 510.10 L 486.41 511.63 L 485.69 513.15 L 484.96 514.67 L 484.23 516.19 L 483.50 517.71 L 482.77 519.22 L 482.04 520.74 L 481.31 522.26 L 480.57 523.78 L 479.83 525.29 L 479.10 526.81 L 478.36 528.32 L 477.62 529.83 L 476.87 531.35 L 476.13 532.86 L 475.38 534.37 L 474.64 535.88 L 473.89 537.39 L 473.14 538.90 L 472.39 540.41 L 471.63 541.91 L 470.88 543.42 L 470.13 544.93 L 469.37 546.43 L 468.61 547.94 L 467.86 549.44 L 467.10 550.95 L 466.34 552.45 L 465.57 553.95 L 464.81 555.46 L 464.05 556.96 L 463.28 558.46 L 462.52 559.96 L 461.75 561.46 L 460.99 562.96 L 460.22 564.46 L 459.45 565.96 L 458.68 567.46 L 457.91 568.96 L 457.14 570.46 L 456.36 571.96 L 455.59 573.45 L 454.82 574.95 L 454.04 576.45 L 453.27 577.94 L 452.49 579.44 L 451.72 580.93 L 450.94 582.43 L 450.16 583.92 L 449.39 585.42 L 448.61 586.91 L 447.83 588.41 L 447.05 589.90 L 446.27 591.40 L 445.49 592.89 L 444.71 594.38 L 443.93 595.88 L 443.15 597.37 L 442.37 598.86 L 441.58 600.35 L 440.80 601.85 L 440.02 603.34 L 439.23 604.83 L 438.45 606.32 L 437.67 607.81 L 436.88 609.31 L 436.10 610.80 L 435.31 612.29 L 434.53 613.78 L 433.74 615.27 L 432.96 616.76 L 432.17 618.25 L 431.39 619.74 L 430.60 621.23 L 429.81 622.72 L 429.03 624.21 L 428.24 625.70 L 427.45 627.19 L 426.67 628.68 L 425.88 630.17 L 425.09 631.66 L 424.30 633.15 L 423.51 634.64 L 422.72 636.13 L 421.93 637.61 L 421.13 639.10 L 420.33 640.58 L 419.53 642.06 L 418.73 643.55 L 417.92 645.02 L 417.11 646.50 L 416.30 647.98 L 415.48 649.45 L 414.66 650.92 L 413.83 652.39 L 413.00 653.86 L 412.16 655.32 L 411.32 656.78 L 410.47 658.24 L 409.62 659.69 L 408.76 661.14 L 407.90 662.58 L 407.03 664.03 L 406.15 665.46 L 405.26 666.90 L 404.37 668.33 L 403.47 669.75 L 402.56 671.17 L 401.64 672.58 L 400.72 673.99 L 399.78 675.39 L 398.84 676.79 L 397.89 678.18 L 396.93 679.57 L 395.96 680.94 L 394.98 682.31 L 393.99 683.68 L 392.99 685.03 L 391.98 686.38 L 390.96 687.72 L 389.93 689.06 L 388.88 690.38 L 387.83 691.70 L 386.77 693.00 L 385.69 694.30 L 384.60 695.59 L 383.51 696.86 L 382.40 698.13 L 381.27 699.39 L 380.14 700.63 L 378.99 701.87 L 377.83 703.09 L 376.66 704.30 L 375.47 705.50 L 374.28 706.69 L 373.07 707.86 L 371.84 709.02 L 370.61 710.16 L 369.36 711.29 L 368.09 712.41 L 366.82 713.51 L 365.53 714.59 L 364.23 715.66 L 362.91 716.71 L 361.58 717.75 L 360.24 718.77 L 358.88 719.77 L 357.51 720.75 L 356.13 721.71 L 354.73 722.65 L 353.32 723.58 L 351.90 724.48 L 350.46 725.36 L 349.02 726.22 L 347.55 727.06 L 346.08 727.87 L 344.59 728.67 L 343.09 729.43 L 341.58 730.18 L 340.06 730.90 L 338.52 731.59 L 336.97 732.26 L 335.41 732.90 L 333.84 733.51 L 332.26 734.09 L 330.67 734.65 L 329.07 735.17 L 327.46 735.67 L 325.84 736.14 L 324.22 736.58 L 322.58 736.99 L 320.94 737.37 L 319.29 737.72 L 317.64 738.05 L 315.98 738.35 L 314.32 738.63 L 312.65 738.87 L 310.98 739.10 L 309.31 739.29 L 307.63 739.46 L 305.95 739.61 L 304.27 739.73 L 302.59 739.83 L 300.91 739.91 L 299.22 739.96 L 297.54 739.99 L 295.85 740.00 L 294.17 739.99 L 292.48 739.95 L 290.80 739.90 L 289.12 739.82 L 287.44 739.72 L 285.75 739.61 L 284.07 739.47 L 282.40 739.31 L 280.72 739.14 L 279.05 738.95 L 277.37 738.74 L 275.70 738.51 L 274.04 738.27 L 272.37 738.01 L 270.71 737.73 L 269.05 737.44 L 267.39 737.13 L 265.74 736.81 L 264.09 736.48 L 262.44 736.12 L 260.80 735.76 L 259.15 735.38 L 257.52 734.99 L 255.88 734.58 L 254.25 734.16 L 252.62 733.73 L 250.99 733.29 L 249.37 732.84 L 247.75 732.38 L 246.13 731.90 L 244.52 731.42 L 242.91 730.92 L 241.30 730.42 L 239.70 729.90 L 238.09 729.38 L 236.50 728.85 L 234.90 728.31 L 233.31 727.76 L 231.72 727.20 L 230.13 726.64 L 228.54 726.07 L 226.96 725.49 L 225.38 724.91 L 223.80 724.32 L 222.22 723.73 L 220.65 723.13 L 219.07 722.52 L 217.50 721.91 L 215.94 721.30 L 214.37 720.68 L 212.80 720.06 L 211.24 719.43 L 209.67 718.80 L 208.11 718.17 L 206.55 717.53 L 204.99 716.90 L 203.43 716.26 L 201.87 715.62 L 200.32 714.97 L 198.76 714.33 L 197.20 713.68 L 195.65 713.04 L 194.09 712.39 L 192.54 711.74 L 190.99 711.08 L 189.43 710.43 L 187.88 709.77 L 186.33 709.10 L 184.79 708.44 L 183.24 707.76 L 181.70 707.09 L 180.16 706.41 L 178.62 705.72 L 177.08 705.03 L 175.55 704.33 L 174.02 703.62 L 172.49 702.90 L 170.97 702.18 L 169.46 701.45 L 167.94 700.71 L 166.43 699.96 L 164.93 699.19 L 163.43 698.42 L 161.94 697.64 L 160.45 696.85 L 158.97 696.04 L 157.50 695.23 L 156.03 694.40 L 154.57 693.56 L 153.12 692.70 L 151.68 691.83 L 150.24 690.95 L 148.81 690.05 L 147.40 689.14 L 145.99 688.21 L 144.59 687.27 L 143.21 686.31 L 141.83 685.34 L 140.47 684.35 L 139.12 683.35 L 137.78 682.32 L 136.45 681.28 L 135.14 680.23 L 133.84 679.15 L 132.56 678.06 L 131.29 676.95 L 130.04 675.82 L 128.80 674.67 L 127.59 673.51 L 126.39 672.32 L 125.21 671.12 L 124.04 669.90 L 122.90 668.66 L 121.78 667.40 L 120.68 666.13 L 119.61 664.83 L 118.56 663.51 L 117.53 662.18 L 116.52 660.83 L 115.55 659.45 L 114.59 658.06 L 113.66 656.66 L 112.76 655.23 L 111.89 653.80 L 111.03 652.34 L 110.21 650.87 L 109.40 649.39 L 108.63 647.90 L 107.88 646.39 L 107.15 644.87 L 106.45 643.34 L 105.77 641.79 L 105.12 640.24 L 104.49 638.68 L 103.88 637.10 L 103.30 635.52 L 102.74 633.93 L 102.21 632.33 L 101.70 630.73 L 101.21 629.12 L 100.75 627.50 L 100.31 625.87 L 99.89 624.24 L 99.49 622.60 L 99.12 620.96 L 98.77 619.31 L 98.44 617.66 L 98.13 616.00 L 97.85 614.34 L 97.59 612.67 L 97.34 611.01 L 97.12 609.34 L 96.92 607.66 L 96.74 605.99 L 96.58 604.31 L 96.44 602.63 L 96.32 600.95 L 96.22 599.27 L 96.14 597.59 L 96.07 595.90 L 96.03 594.22 L 96.01 592.53 L 96.00 590.85 L 96.01 589.16 L 96.04 587.48 L 96.09 585.79 L 96.16 584.11 L 96.24 582.43 L 96.34 580.74 L 96.46 579.06 L 96.60 577.38 L 96.75 575.71 L 96.91 574.03 L 97.10 572.35 L 97.30 570.68 L 97.51 569.01 L 97.75 567.34 L 97.99 565.67 L 98.25 564.01 L 98.53 562.35 L 98.82 560.69 L 99.13 559.03 L 99.45 557.38 L 99.78 555.72 L 100.13 554.08 L 100.49 552.43 L 100.86 550.79 L 101.25 549.15 L 101.65 547.51 L 102.07 545.88 L 102.49 544.25 L 102.93 542.62 L 103.39 541.00 L 103.85 539.38 L 104.32 537.76 L 104.81 536.15 L 105.31 534.54 L 105.82 532.93 L 106.34 531.33 L 106.87 529.73 L 107.41 528.13 L 107.97 526.54 L 108.53 524.96 L 109.10 523.37 L 109.69 521.79 L 110.28 520.21 L 110.88 518.64 L 111.50 517.07 L 112.12 515.50 L 112.75 513.94 L 113.39 512.38 L 114.04 510.83 L 114.70 509.28 L 115.36 507.73 L 116.04 506.19 L 116.73 504.65 L 117.43 503.11 L 118.13 501.58 L 118.85 500.06 L 119.58 498.54 L 120.32 497.02 L 121.06 495.51 L 121.82 494.01 L 122.59 492.51 L 123.37 491.02 L 124.16 489.53 L 124.97 488.05 L 125.78 486.57 L 126.61 485.10 L 127.44 483.64 L 128.29 482.19 L 129.15 480.74 L 130.02 479.29 L 130.91 477.86 L 131.80 476.43 L 132.71 475.01 L 133.63 473.60 L 134.56 472.20 L 135.51 470.80 L 136.46 469.41 L 137.43 468.04 L 138.41 466.67 L 139.41 465.31 L 140.42 463.96 L 141.44 462.61 L 142.47 461.28 L 143.51 459.96 L 144.57 458.65 L 145.64 457.35 L 146.73 456.06 L 147.83 454.78 L 148.94 453.52 L 150.06 452.26 L 151.20 451.02 L 152.35 449.79 L 153.51 448.57 L 154.69 447.36 L 155.88 446.17 L 157.09 444.99 L 158.30 443.83 L 159.53 442.67 L 160.78 441.54 L 162.03 440.42 L 163.30 439.31 L 164.59 438.22 L 165.88 437.14 L 167.19 436.08 L 168.51 435.03 L 169.85 434.01 L 171.20 433.00 L 172.56 432.00 L 173.93 431.03 L 175.32 430.07 L 176.72 429.13 L 178.13 428.21 L 179.56 427.31 L 180.99 426.43 L 182.44 425.57 L 183.90 424.73 L 185.38 423.91 L 186.86 423.12 L 188.36 422.34 L 189.86 421.59 L 191.38 420.86 L 192.91 420.15 L 194.45 419.47 L 196.00 418.81 L 197.56 418.17 L 199.13 417.56 L 200.71 416.97 L 202.30 416.42 L 203.90 415.88 L 205.51 415.38 L 207.12 414.90 L 208.75 414.45 L 210.38 414.03 L 212.02 413.64 L 213.66 413.27 L 215.32 412.94 L 216.97 412.64 L 218.64 412.37 L 220.30 412.13 L 221.98 411.92 L 223.65 411.74 L 225.33 411.60 L 227.01 411.48 L 228.69 411.39 L 230.38 411.33 L 232.06 411.29 L 233.75 411.28 L 235.43 411.30 L 237.12 411.34 L 238.80 411.41 L 240.48 411.50 L 242.16 411.62 L 243.84 411.75 L 245.52 411.91 L 247.20 412.09 L 248.87 412.29 L 250.54 412.51 L 252.21 412.74 L 253.87 413.00 L 255.54 413.27 L 257.20 413.56 L 258.85 413.87 L 260.51 414.19 L 262.16 414.52 L 263.81 414.87 L 265.45 415.24 L 267.10 415.61 L 268.74 416.00 L 270.37 416.40 L 272.01 416.81 L 273.64 417.24 L 275.27 417.67 L 276.89 418.11 L 278.52 418.56 L 280.14 419.01 L 281.76 419.47 L 283.38 419.94 L 284.99 420.42 L 286.61 420.90 L 288.22 421.39 L 289.84 421.88 L 291.45 422.37 L 293.06 422.86 L 294.67 423.36 L 296.28 423.86 L 297.88 424.36 L 299.49 424.86 L 301.10 425.37 L 302.71 425.87 L 304.32 426.36 L 305.93 426.86 L 307.54 427.36 L 309.15 427.85 L 310.77 428.33 L 312.38 428.82 L 314.00 429.29 L 315.61 429.77 L 317.23 430.23 L 318.86 430.69 L 320.48 431.14 L 322.10 431.59 L 323.73 432.02 L 325.36 432.45 L 327.00 432.86 L 328.63 433.26 L 330.27 433.66 L 331.91 434.03 L 333.56 434.40 L 335.21 434.75 L 336.86 435.08 L 338.51 435.40 L 340.17 435.70 L 341.83 435.98 L 343.50 436.24 L 345.16 436.49 L 346.83 436.71 L 348.51 436.91 L 350.18 437.09 L 351.86 437.25 L 353.54 437.38 L 355.22 437.49 L 356.90 437.57 L 358.59 437.63 L 360.27 437.66 L 361.96 437.66 L 363.64 437.63 L 365.33 437.57 L 367.01 437.48 L 368.69 437.35 L 370.37 437.20 L 372.04 437.01 L 373.71 436.78 L 375.38 436.52 L 377.04 436.23 L 378.69 435.90 L 380.33 435.52 L 381.97 435.11 L 383.59 434.66 L 385.20 434.17 L 386.80 433.64 L 388.39 433.07 L 389.95 432.45 L 391.50 431.80 L 393.04 431.09 L 394.55 430.35 L 396.04 429.56 L 397.50 428.73 L 398.95 427.86 L 400.36 426.95 L 401.76 426.01 L 403.13 425.03 L 404.48 424.01 L 405.80 422.97 L 407.09 421.89 L 408.36 420.78 L 409.61 419.65 L 410.83 418.48 L 412.02 417.30 L 413.19 416.08 L 414.34 414.85 L 415.46 413.59 L 416.56 412.31 L 417.63 411.02 L 418.68 409.70 L 419.71 408.36 L 420.72 407.01 L 421.70 405.64 L 422.66 404.25 L 423.60 402.86 L 424.51 401.44 L 425.41 400.02 L 426.29 398.58 L 427.15 397.13 L 427.98 395.67 L 428.81 394.19 L 429.61 392.71 L 430.40 391.22 L 431.17 389.72 L 431.92 388.22 L 432.66 386.70 L 433.38 385.18 L 434.10 383.65 L 434.79 382.12 L 435.48 380.58 L 436.15 379.04 L 436.82 377.49 L 437.47 375.94 L 438.12 374.38 L 438.75 372.82 L 439.38 371.25 L 440.00 369.69 L 440.61 368.12 L 441.22 366.55 L 441.82 364.97 L 442.42 363.40 L 443.00 361.82 L 443.59 360.24 L 444.16 358.65 L 444.73 357.07 L 445.30 355.48 L 445.86 353.89 L 446.41 352.30 L 446.96 350.71 L 447.50 349.11 L 448.04 347.51 L 448.58 345.92 L 449.11 344.32 L 449.63 342.71 L 450.15 341.11 L 450.66 339.51 L 451.18 337.90 L 451.68 336.29 L 452.18 334.69 L 452.68 333.08 L 453.18 331.47 L 453.67 329.85 L 454.16 328.24 L 454.64 326.63 L 455.12 325.01 L 455.60 323.40 L 456.08 321.78 L 456.55 320.16 L 457.02 318.54 L 457.49 316.93 L 457.95 315.31 L 458.41 313.68 L 458.87 312.06 L 459.33 310.44 L 459.78 308.82 L 460.24 307.20 L 460.69 305.57 L 461.14 303.95 L 461.59 302.33 L 462.04 300.70 L 462.48 299.08 L 462.93 297.45 L 463.37 295.83 L 463.82 294.20 L 464.26 292.57 L 464.70 290.95 L 465.14 289.32 L 465.59 287.70 L 466.03 286.07 L 466.47 284.44 L 466.91 282.82 L 467.36 281.19 L 467.80 279.57 L 468.24 277.94 L 468.69 276.32 L 469.13 274.69 L 469.58 273.07 L 470.02 271.44 L 470.47 269.82 L 470.92 268.19 L 471.37 266.57 L 471.83 264.95 L 472.28 263.32 L 472.74 261.70 L 473.20 260.08 L 473.66 258.46 L 474.12 256.84 L 474.59 255.22 L 475.05 253.60 L 475.53 251.98 L 476.00 250.37 L 476.48 248.75 L 476.95 247.14 L 477.44 245.52 L 477.92 243.91 L 478.41 242.30 L 478.91 240.68 L 479.40 239.07 L 479.90 237.46 L 480.41 235.86 L 480.92 234.25 L 481.43 232.65 L 481.95 231.04 L 482.47 229.44 L 482.99 227.84 L 483.53 226.24 L 484.06 224.64 L 484.60 223.05 L 485.15 221.45 L 485.70 219.86 L 486.26 218.27 L 486.82 216.68 L 487.39 215.09 L 487.96 213.51 L 488.54 211.93 L 489.12 210.35 L 489.71 208.77 L 490.31 207.19 L 490.91 205.62 L 491.52 204.05 L 492.14 202.48 L 492.76 200.92 L 493.39 199.35 L 494.03 197.79 L 494.67 196.24 L 495.33 194.68 L 495.99 193.13 L 496.66 191.59 L 497.34 190.05 L 498.03 188.51 L 498.73 186.98 L 499.44 185.45 L 500.16 183.92 L 500.90 182.41 L 501.64 180.90 L 502.40 179.39 L 503.17 177.89 L 503.95 176.40 L 504.75 174.92 L 505.56 173.44 L 506.39 171.97 L 507.23 170.51 L 508.09 169.06 L 508.96 167.62 L 509.85 166.19 L 510.75 164.76 L 511.67 163.35 L 512.61 161.95 L 513.56 160.56 L 514.53 159.19 L 515.52 157.82 L 516.53 156.47 L 517.55 155.13 L 518.60 153.81 L 519.66 152.50 L 520.74 151.21 L 521.84 149.93 L 522.96 148.67 L 524.10 147.43 L 525.26 146.21 L 526.44 145.00 L 527.63 143.82 L 528.85 142.66 L 530.09 141.51 L 531.35 140.39 L 532.63 139.29 L 533.92 138.22 L 535.24 137.17 L 536.58 136.15 L 537.94 135.15 L 539.32 134.18 L 540.71 133.24 L 542.13 132.33 L 543.57 131.45 L 545.02 130.60 L 546.50 129.78 L 547.99 128.99 L 549.50 128.24 L 551.02 127.52 L 552.56 126.84 L 554.12 126.19 L 555.68 125.58 L 557.27 125.00 L 558.86 124.45 L 560.46 123.93 L 562.08 123.45 L 563.70 123.00 L 565.34 122.59 L 566.98 122.21 L 568.62 121.85 L 570.28 121.53 L 571.94 121.25 L 573.60 120.99 L 575.27 120.76 L 576.95 120.56 L 578.62 120.40 L 580.30 120.26 L 581.98 120.15 L 583.67 120.07 L 585.35 120.02 L 587.04 120.00 L 588.72 120.01 L 590.41 120.04 L 592.09 120.10 L 593.77 120.19 L 595.45 120.30 L 597.13 120.44 L 598.81 120.60 L 600.48 120.80 L 602.16 121.01 L 603.82 121.25 L 605.49 121.52 L 607.15 121.81 L 608.80 122.12 L 610.45 122.46 L 612.10 122.82 L 613.74 123.20 L 615.38 123.60 L 617.01 124.03 L 618.63 124.48 L 620.25 124.95 L 621.86 125.44 L 623.47 125.95 L 625.07 126.49 L 626.66 127.04 L 628.24 127.61 L 629.82 128.20 L 631.39 128.82 L 632.95 129.45 L 634.51 130.10 L 636.05 130.76 L 637.59 131.45 L 639.12 132.15 L 640.65 132.88 L 642.16 133.61 L 643.67 134.37 L 645.16 135.14 L 646.65 135.93 L 648.13 136.74 L 649.60 137.56 L 651.07 138.39 L 652.52 139.25 L 653.97 140.11 L 655.40 141.00 L 656.83 141.89 L 658.25 142.80 L 659.65 143.73 L 661.05 144.67 L 662.44 145.62 L 663.82 146.59 L 665.19 147.57 L 666.56 148.56 L 667.91 149.56 L 669.25 150.58 L 670.59 151.61 L 671.91 152.65 L 673.23 153.70 L 674.53 154.77 L 675.83 155.85 L 677.11 156.93 L 678.39 158.03 L 679.66 159.14 L 680.92 160.26 L 682.17 161.39 L 683.41 162.53 L 684.64 163.68 L 685.86 164.85 L 687.07 166.02 L 688.28 167.20 L 689.47 168.38 L 690.65 169.58 L 691.83 170.79 L 693.00 172.01 L 694.16 173.23 L 695.30 174.46 L 696.44 175.70 L 697.57 176.95 L 698.70 178.21 L 699.81 179.47 L 700.91 180.75 L 702.01 182.03 L 703.10 183.31 L 704.18 184.61 L 705.25 185.91 L 706.31 187.22 L 707.36 188.54 L 708.41 189.86 L 709.44 191.19 L 710.47 192.52 L 711.49 193.86 L 712.50 195.21 L 713.51 196.56 L 714.50 197.92 L 715.49 199.28 L 716.47 200.65 L 717.45 202.03 L 718.41 203.41 L 719.37 204.80 L 720.32 206.19 L 721.27 207.58 L 722.20 208.98 L 723.13 210.39 L 724.05 211.80 L 724.97 213.22 L 725.88 214.64 L 726.78 216.06 L 727.67 217.49 L 728.56 218.92 L 729.44 220.35 L 730.32 221.79 L 731.18 223.24 L 732.05 224.69 L 732.90 226.14 L 733.75 227.59 L 734.60 229.05 L 735.44 230.51 L 736.27 231.98 L 737.10 233.44 L 737.92 234.92 L 738.74 236.39 L 739.55 237.87 L 740.35 239.35 L 741.15 240.83 L 741.95 242.31 L 742.74 243.80 L 743.53 245.29 L 744.31 246.79 L 745.08 248.28 L 745.86 249.78 L 746.62 251.28 L 747.39 252.78 L 748.15 254.28 L 748.90 255.79 L 749.65 257.30 L 750.40 258.81 L 751.15 260.32 L 751.89 261.83 L 752.63 263.35 L 753.36 264.87 L 754.09 266.38 L 754.82 267.90 L 755.54 269.42 L 756.27 270.95 L 756.98 272.47 L 757.70 274.00 L 758.42 275.52 L 759.13 277.05 L 759.84 278.58 L 760.54 280.11 L 761.25 281.64 L 761.95 283.17 L 762.66 284.70 L 763.36 286.23 L 764.05 287.77 L 764.75 289.30 L 765.45 290.83 L 766.14 292.37 L 766.84 293.91 L 767.53 295.44 L 768.22 296.98 L 768.91 298.51 L 769.61 300.05 L 770.30 301.59 L 770.99 303.12 L 771.68 304.66 L 772.37 306.20 L 773.06 307.74 L 773.75 309.27 L 774.44 310.81 L 775.13 312.35 L 775.82 313.88 L 776.51 315.42 L 777.20 316.96 L 777.89 318.49 L 778.58 320.03 L 779.27 321.57 L 779.96 323.11 L 780.65 324.64 L 781.34 326.18 L 782.03 327.72" stroke="#121528" stroke-width="34"/>
  <path class="track" d="M 782.03 327.72 L 782.71 329.26 L 783.40 330.80 L 784.09 332.34 L 784.77 333.88 L 785.45 335.42 L 786.13 336.96 L 786.81 338.50 L 787.49 340.04 L 788.17 341.59 L 788.85 343.13 L 789.52 344.67 L 790.19 346.22 L 790.86 347.76 L 791.53 349.31 L 792.20 350.86 L 792.86 352.41 L 793.53 353.96 L 794.19 355.51 L 794.84 357.06 L 795.50 358.61 L 796.15 360.16 L 796.80 361.72 L 797.45 363.28 L 798.09 364.83 L 798.73 366.39 L 799.37 367.95 L 800.01 369.51 L 800.64 371.07 L 801.26 372.64 L 801.89 374.20 L 802.50 375.77 L 803.12 377.34 L 803.72 378.91 L 804.33 380.49 L 804.92 382.06 L 805.52 383.64 L 806.10 385.22 L 806.68 386.80 L 807.25 388.39 L 807.82 389.97 L 808.37 391.56 L 808.92 393.16 L 809.47 394.75 L 810.00 396.35 L 810.53 397.95 L 811.04 399.55 L 811.55 401.16 L 812.05 402.77 L 812.54 404.38 L 813.02 406.00 L 813.49 407.62 L 813.95 409.24 L 814.40 410.86 L 814.84 412.49 L 815.27 414.12 L 815.68 415.75 L 816.09 417.39 L 816.48 419.03 L 816.86 420.67 L 817.22 422.31 L 817.58 423.96 L 817.92 425.61 L 818.25 427.26 L 818.56 428.92 L 818.86 430.58 L 819.14 432.24 L 819.41 433.90 L 819.67 435.57 L 819.91 437.23 L 820.13 438.90 L 820.34 440.58 L 820.53 442.25 L 820.70 443.93 L 820.86 445.60 L 821.00 447.28 L 821.13 448.96 L 821.23 450.65 L 821.32 452.33 L 821.39 454.01 L 821.44 455.70 L 821.47 457.38 L 821.48 459.07 L 821.47 460.75 L 821.44 462.44 L 821.39 464.12 L 821.32 465.80 L 821.23 467.49 L 821.12 469.17 L 820.99 470.85 L 820.83 472.53 L 820.65 474.20 L 820.45 475.87 L 820.23 477.54 L 819.98 479.21 L 819.71 480.87 L 819.42 482.53 L 819.10 484.19 L 818.76 485.84 L 818.39 487.48 L 818.00 489.12 L 817.58 490.75 L 817.14 492.38 L 816.67 494.00 L 816.18 495.61 L 815.66 497.21 L 815.11 498.81 L 814.53 500.39 L 813.93 501.96 L 813.30 503.53 L 812.65 505.08 L 811.96 506.62 L 811.25 508.15 L 810.51 509.66 L 809.74 511.16 L 808.95 512.64 L 808.12 514.11 L 807.27 515.57 L 806.39 517.00 L 805.47 518.42 L 804.53 519.82 L 803.56 521.19 L 802.56 522.55 L 801.53 523.88 L 800.48 525.20 L 799.39 526.49 L 798.28 527.75 L 797.14 529.00 L 795.98 530.21 L 794.79 531.41 L 793.58 532.58 L 792.35 533.73 L 791.09 534.86 L 789.82 535.96 L 788.52 537.03 L 787.21 538.09 L 785.87 539.12 L 784.52 540.12 L 783.15 541.10 L 781.77 542.06 L 780.37 543.00 L 778.95 543.91 L 777.52 544.80 L 776.07 545.67 L 774.61 546.51 L 773.14 547.33 L 771.66 548.13 L 770.16 548.90 L 768.65 549.66 L 767.14 550.39 L 765.61 551.10 L 764.07 551.79 L 762.52 552.45 L 760.97 553.10 L 759.40 553.72 L 757.83 554.33 L 756.25 554.91 L 754.66 555.47 L 753.06 556.02 L 751.46 556.54 L 749.85 557.04 L 748.24 557.53 L 746.62 557.99 L 745.00 558.44 L 743.37 558.87 L 741.73 559.28 L 740.09 559.67 L 738.45 560.04 L 736.80 560.40 L 735.15 560.74 L 733.50 561.06 L 731.84 561.37 L 730.18 561.66 L 728.52 561.94 L 726.86 562.19 L 725.19 562.44 L 723.52 562.67 L 721.85 562.88 L 720.17 563.08 L 718.50 563.26 L 716.82 563.43 L 715.14 563.59 L 713.47 563.73 L 711.79 563.87 L 710.11 563.98 L 708.42 564.09 L 706.74 564.18 L 705.06 564.27 L 703.37 564.34 L 701.69 564.40 L 700.01 564.44 L 698.32 564.48 L 696.64 564.51 L 694.95 564.53 L 693.27 564.54 L 691.58 564.54 L 689.90 564.53 L 688.21 564.51 L 686.53 564.48 L 684.84 564.44 L 683.16 564.40 L 681.47 564.35 L 679.79 564.29 L 678.11 564.23 L 676.42 564.15 L 674.74 564.08 L 673.06 563.99 L 671.37 563.90 L 669.69 563.80 L 668.01 563.70 L 666.33 563.60 L 664.65 563.49 L 662.97 563.37 L 661.28 563.25 L 659.60 563.13 L 657.92 563.00 L 656.24 562.87 L 654.56 562.73 L 652.88 562.60 L 651.21 562.46 L 649.53 562.31 L 647.85 562.17 L 646.17 562.03 L 644.49 561.88 L 642.81 561.73 L 641.13 561.58 L 639.46 561.43 L 637.78 561.28 L 636.10 561.13 L 634.42 560.97 L 632.74 560.81 L 631.07 560.64 L 629.39 560.46 L 627.72 560.27 L 626.04 560.07 L 624.37 559.86 L 622.70 559.64 L 621.04 559.39 L 619.37 559.13 L 617.71 558.85 L 616.05 558.54 L 614.40 558.21 L 612.75 557.86 L 611.11 557.47 L 609.48 557.06 L 607.85 556.62 L 606.24 556.14 L 604.63 555.64 L 603.04 555.09 L 601.45 554.51 L 599.89 553.89 L 598.34 553.23 L 596.81 552.53 L 595.29 551.78 L 593.80 550.99 L 592.34 550.16 L 590.90 549.28 L 589.49 548.35 L 588.12 547.38 L 586.78 546.36 L 585.48 545.29 L 584.22 544.17 L 583.01 543.00 L 581.85 541.78 L 580.74 540.51 L 579.69 539.19 L 578.70 537.82 L 577.78 536.41 L 576.94 534.96 L 576.17 533.46 L 575.48 531.92 L 574.89 530.34 L 574.40 528.73 L 574.00 527.09 L 573.72 525.43 L 573.56 523.75 L 573.52 522.07 L 573.61 520.39 L 573.84 518.72 L 574.19 517.07 L 574.67 515.46 L 575.27 513.88 L 575.98 512.35 L 576.79 510.87 L 577.68 509.45 L 578.67 508.08 L 579.72 506.77 L 580.85 505.52 L 582.05 504.33 L 583.30 503.20 L 584.60 502.13 L 585.95 501.12 L 587.34 500.18 L 588.78 499.29 L 590.24 498.46 L 591.74 497.69 L 593.27 496.97 L 594.82 496.31 L 596.39 495.70 L 597.98 495.14 L 599.58 494.63 L 601.20 494.17 L 602.84 493.76 L 604.48 493.38 L 606.13 493.05 L 607.79 492.76 L 609.46 492.50 L 611.13 492.28 L 612.80 492.09 L 614.48 491.93 L 616.16 491.79 L 617.84 491.69 L 619.52 491.61 L 621.21 491.54 L 622.89 491.50 L 624.58 491.47 L 626.26 491.46 L 627.95 491.46 L 629.63 491.47 L 631.32 491.50 L 633.00 491.53 L 634.68 491.56 L 636.37 491.61 L 638.05 491.66 L 639.74 491.71 L 641.42 491.77 L 643.11 491.83 L 644.79 491.89 L 646.47 491.95 L 648.16 492.02 L 649.84 492.08 L 651.52 492.14 L 653.21 492.19 L 654.89 492.25 L 656.58 492.30 L 658.26 492.34 L 659.95 492.37 L 661.63 492.40 L 663.32 492.42 L 665.00 492.43 L 666.69 492.43 L 668.37 492.42 L 670.06 492.39 L 671.74 492.35 L 673.42 492.30 L 675.11 492.23 L 676.79 492.15 L 678.47 492.05 L 680.15 491.93 L 681.83 491.79 L 683.51 491.63 L 685.19 491.45 L 686.86 491.25 L 688.53 491.02 L 690.20 490.78 L 691.86 490.50 L 693.52 490.21 L 695.17 489.88 L 696.82 489.53 L 698.46 489.15 L 700.09 488.74 L 701.72 488.30 L 703.34 487.83 L 704.95 487.32 L 706.54 486.79 L 708.13 486.22 L 709.70 485.61 L 711.26 484.98 L 712.81 484.30 L 714.34 483.59 L 715.85 482.84 L 717.34 482.06 L 718.81 481.24 L 720.25 480.37 L 721.68 479.47 L 723.07 478.53 L 724.44 477.55 L 725.78 476.52 L 727.09 475.46 L 728.36 474.36 L 729.60 473.21 L 730.80 472.03 L 731.95 470.80 L 733.06 469.53 L 734.13 468.23 L 735.14 466.88 L 736.11 465.50 L 737.02 464.09 L 737.88 462.64 L 738.69 461.16 L 739.45 459.66 L 740.16 458.13 L 740.83 456.58 L 741.44 455.01 L 742.00 453.42 L 742.52 451.82 L 743.00 450.20 L 743.43 448.57 L 743.82 446.93 L 744.16 445.29 L 744.47 443.63 L 744.73 441.96 L 744.95 440.29 L 745.14 438.62 L 745.29 436.94 L 745.41 435.26 L 745.49 433.58 L 745.54 431.89 L 745.56 430.21 L 745.54 428.52 L 745.50 426.84 L 745.43 425.16 L 745.33 423.47 L 745.21 421.79 L 745.06 420.11 L 744.88 418.44 L 744.69 416.76 L 744.47 415.09 L 744.24 413.42 L 743.98 411.76 L 743.71 410.10 L 743.42 408.44 L 743.11 406.78 L 742.79 405.13 L 742.46 403.47 L 742.11 401.82 L 741.76 400.18 L 741.39 398.53 L 741.01 396.89 L 740.62 395.25 L 740.23 393.61 L 739.83 391.98 L 739.42 390.34 L 739.00 388.71 L 738.58 387.08 L 738.15 385.45 L 737.71 383.82 L 737.27 382.20 L 736.82 380.57 L 736.36 378.95 L 735.89 377.33 L 735.42 375.71 L 734.94 374.10 L 734.46 372.49 L 733.96 370.87 L 733.46 369.26 L 732.96 367.66 L 732.45 366.05 L 731.93 364.45 L 731.41 362.85 L 730.87 361.25 L 730.34 359.65 L 729.79 358.06 L 729.24 356.46 L 728.69 354.87 L 728.13 353.28 L 727.56 351.70 L 726.99 350.11 L 726.41 348.53 L 725.82 346.95 L 725.23 345.37 L 724.63 343.80 L 724.03 342.22 L 723.42 340.65 L 722.81 339.08 L 722.19 337.51 L 721.57 335.95 L 720.94 334.39 L 720.30 332.82 L 719.66 331.27 L 719.02 329.71 L 718.37 328.15 L 717.71 326.60 L 717.05 325.05 L 716.39 323.50 L 715.72 321.96 L 715.04 320.41 L 714.36 318.87 L 713.68 317.33 L 712.99 315.79 L 712.30 314.26 L 711.60 312.72 L 710.90 311.19 L 710.19 309.66 L 709.48 308.13 L 708.77 306.61 L 708.05 305.08 L 707.33 303.56 L 706.60 302.04 L 705.87 300.52 L 705.14 299.01 L 704.40 297.49 L 703.65 295.98 L 702.90 294.47 L 702.14 292.97 L 701.38 291.47 L 700.61 289.97 L 699.83 288.47 L 699.04 286.99 L 698.24 285.50 L 697.43 284.02 L 696.62 282.55 L 695.79 281.08 L 694.95 279.62 L 694.10 278.16 L 693.24 276.72 L 692.36 275.27 L 691.48 273.84 L 690.58 272.42 L 689.66 271.00 L 688.73 269.60 L 687.79 268.20 L 686.83 266.81 L 685.86 265.44 L 684.87 264.08 L 683.86 262.72 L 682.84 261.38 L 681.80 260.06 L 680.74 258.75 L 679.67 257.45 L 678.57 256.17 L 677.46 254.90 L 676.33 253.65 L 675.18 252.42 L 674.01 251.21 L 672.83 250.01 L 671.62 248.83 L 670.39 247.68 L 669.14 246.55 L 667.88 245.44 L 666.59 244.35 L 665.28 243.29 L 663.95 242.25 L 662.61 241.24 L 661.24 240.25 L 659.85 239.30 L 658.44 238.37 L 657.02 237.48 L 655.57 236.61 L 654.10 235.78 L 652.62 234.99 L 651.11 234.23 L 649.59 233.51 L 648.05 232.82 L 646.49 232.18 L 644.92 231.57 L 643.33 231.01 L 641.73 230.49 L 640.11 230.02 L 638.48 229.59 L 636.84 229.21 L 635.19 228.89 L 633.53 228.61 L 631.86 228.39 L 630.18 228.22 L 628.50 228.10 L 626.81 228.05 L 625.13 228.05 L 623.45 228.11 L 621.76 228.23 L 620.09 228.40 L 618.42 228.64 L 616.76 228.93 L 615.11 229.28 L 613.48 229.68 L 611.86 230.15 L 610.26 230.67 L 608.67 231.25 L 607.11 231.88 L 605.57 232.57 L 604.06 233.30 L 602.57 234.09 L 601.10 234.92 L 599.66 235.80 L 598.25 236.72 L 596.87 237.68 L 595.51 238.68 L 594.18 239.71 L 592.88 240.78 L 591.61 241.89 L 590.36 243.02 L 589.15 244.19 L 587.96 245.39 L 586.80 246.61 L 585.67 247.86 L 584.57 249.13 L 583.49 250.43 L 582.44 251.75 L 581.42 253.09 L 580.43 254.45 L 579.46 255.83 L 578.52 257.23 L 577.60 258.64 L 576.71 260.07 L 575.84 261.51 L 574.99 262.97 L 574.17 264.44 L 573.37 265.92 L 572.60 267.42 L 571.84 268.93 L 571.11 270.44 L 570.39 271.97 L 569.70 273.50 L 569.02 275.05 L 568.36 276.60 L 567.72 278.16 L 567.10 279.72 L 566.49 281.29 L 565.89 282.87 L 565.31 284.45 L 564.75 286.04 L 564.20 287.63 L 563.66 289.23 L 563.13 290.83 L 562.61 292.43 L 562.10 294.04 L 561.60 295.65 L 561.11 297.26 L 560.63 298.87 L 560.15 300.49 L 559.68 302.11 L 559.21 303.73 L 558.75 305.35 L 558.29 306.97 L 557.84 308.59 L 557.39 310.21 L 556.95 311.84 L 556.50 313.47 L 556.06 315.09 L 555.62 316.72 L 555.19 318.35 L 554.76 319.98 L 554.33 321.60 L 553.90 323.23 L 553.47 324.86 L 553.04 326.49 L 552.62 328.13 L 552.20 329.76 L 551.77 331.39 L 551.35 333.02 L 550.93 334.65 L 550.51 336.28 L 550.09 337.91 L 549.66 339.54 L 549.24 341.17 L 548.82 342.81 L 548.39 344.44 L 547.97 346.07 L 547.54 347.70 L 547.11 349.33 L 546.68 350.96 L 546.25 352.58 L 545.81 354.21 L 545.37 355.84 L 544.94 357.47 L 544.49 359.09 L 544.05 360.72 L 543.60 362.34 L 543.15 363.96 L 542.70 365.59 L 542.24 367.21 L 541.78 368.83 L 541.32 370.45 L 540.85 372.07 L 540.38 373.69 L 539.91 375.31 L 539.43 376.92 L 538.95 378.54 L 538.47 380.15 L 537.98 381.77 L 537.49 383.38 L 537.00 384.99 L 536.50 386.60 L 536.00 388.21 L 535.49 389.81 L 534.98 391.42 L 534.47 393.02 L 533.95 394.63 L 533.43 396.23 L 532.90 397.83 L 532.37 399.43 L 531.84 401.03 L 531.31 402.63 L 530.77 404.22 L 530.22 405.82 L 529.68 407.41 L 529.13 409.01 L 528.57 410.60 L 528.01 412.19 L 527.45 413.78 L 526.89 415.36 L 526.32 416.95 L 525.75 418.54 L 525.18 420.12 L 524.60 421.70 L 524.02 423.28 L 523.44 424.87 L 522.85 426.44 L 522.26 428.02 L 521.66 429.60 L 521.07 431.18 L 520.47 432.75 L 519.87 434.32 L 519.26 435.90 L 518.65 437.47 L 518.04 439.04 L 517.42 440.61 L 516.81 442.17 L 516.19 443.74 L 515.56 445.31 L 514.94 446.87 L 514.31 448.43 L 513.68 450.00 L 513.04 451.56 L 512.40 453.12 L 511.76 454.67 L 511.12 456.23 L 510.47 457.79 L 509.83 459.34 L 509.18 460.90 L 508.52 462.45 L 507.87 464.00 L 507.21 465.56 L 506.55 467.11 L 505.88 468.65 L 505.22 470.20 L 504.55 471.75 L 503.88 473.29 L 503.21 474.84 L 502.53 476.38 L 501.85 477.93 L 501.17 479.47 L 500.49 481.01 L 499.81 482.55 L 499.12 484.09 L 498.43 485.62 L 497.74 487.16 L 497.05 488.70 L 496.35 490.23 L 495.65 491.77 L 494.95 493.30 L 494.25 494.83 L 493.55 496.36 L 492.84 497.89 L 492.14 499.42 L 491.43 500.95 L 490.72 502.48 L 490.00 504.00 L 489.29 505.53 L 488.57 507.06 L 487.85 508.58 L 487.13 510.10 L 486.41 511.63 L 485.69 513.15 L 484.96 514.67 L 484.23 516.19 L 483.50 517.71 L 482.77 519.22 L 482.04 520.74 L 481.31 522.26 L 480.57 523.78 L 479.83 525.29 L 479.10 526.81 L 478.36 528.32 L 477.62 529.83 L 476.87 531.35 L 476.13 532.86 L 475.38 534.37 L 474.64 535.88 L 473.89 537.39 L 473.14 538.90 L 472.39 540.41 L 471.63 541.91 L 470.88 543.42 L 470.13 544.93 L 469.37 546.43 L 468.61 547.94 L 467.86 549.44 L 467.10 550.95 L 466.34 552.45 L 465.57 553.95 L 464.81 555.46 L 464.05 556.96 L 463.28 558.46 L 462.52 559.96 L 461.75 561.46 L 460.99 562.96 L 460.22 564.46 L 459.45 565.96 L 458.68 567.46 L 457.91 568.96 L 457.14 570.46 L 456.36 571.96 L 455.59 573.45 L 454.82 574.95 L 454.04 576.45 L 453.27 577.94 L 452.49 579.44 L 451.72 580.93 L 450.94 582.43 L 450.16 583.92 L 449.39 585.42 L 448.61 586.91 L 447.83 588.41 L 447.05 589.90 L 446.27 591.40 L 445.49 592.89 L 444.71 594.38 L 443.93 595.88 L 443.15 597.37 L 442.37 598.86 L 441.58 600.35 L 440.80 601.85 L 440.02 603.34 L 439.23 604.83 L 438.45 606.32 L 437.67 607.81 L 436.88 609.31 L 436.10 610.80 L 435.31 612.29 L 434.53 613.78 L 433.74 615.27 L 432.96 616.76 L 432.17 618.25 L 431.39 619.74 L 430.60 621.23 L 429.81 622.72 L 429.03 624.21 L 428.24 625.70 L 427.45 627.19 L 426.67 628.68 L 425.88 630.17 L 425.09 631.66 L 424.30 633.15 L 423.51 634.64 L 422.72 636.13 L 421.93 637.61 L 421.13 639.10 L 420.33 640.58 L 419.53 642.06 L 418.73 643.55 L 417.92 645.02 L 417.11 646.50 L 416.30 647.98 L 415.48 649.45 L 414.66 650.92 L 413.83 652.39 L 413.00 653.86 L 412.16 655.32 L 411.32 656.78 L 410.47 658.24 L 409.62 659.69 L 408.76 661.14 L 407.90 662.58 L 407.03 664.03 L 406.15 665.46 L 405.26 666.90 L 404.37 668.33 L 403.47 669.75 L 402.56 671.17 L 401.64 672.58 L 400.72 673.99 L 399.78 675.39 L 398.84 676.79 L 397.89 678.18 L 396.93 679.57 L 395.96 680.94 L 394.98 682.31 L 393.99 683.68 L 392.99 685.03 L 391.98 686.38 L 390.96 687.72 L 389.93 689.06 L 388.88 690.38 L 387.83 691.70 L 386.77 693.00 L 385.69 694.30 L 384.60 695.59 L 383.51 696.86 L 382.40 698.13 L 381.27 699.39 L 380.14 700.63 L 378.99 701.87 L 377.83 703.09 L 376.66 704.30 L 375.47 705.50 L 374.28 706.69 L 373.07 707.86 L 371.84 709.02 L 370.61 710.16 L 369.36 711.29 L 368.09 712.41 L 366.82 713.51 L 365.53 714.59 L 364.23 715.66 L 362.91 716.71 L 361.58 717.75 L 360.24 718.77 L 358.88 719.77 L 357.51 720.75 L 356.13 721.71 L 354.73 722.65 L 353.32 723.58 L 351.90 724.48 L 350.46 725.36 L 349.02 726.22 L 347.55 727.06 L 346.08 727.87 L 344.59 728.67 L 343.09 729.43 L 341.58 730.18 L 340.06 730.90 L 338.52 731.59 L 336.97 732.26 L 335.41 732.90 L 333.84 733.51 L 332.26 734.09 L 330.67 734.65 L 329.07 735.17 L 327.46 735.67 L 325.84 736.14 L 324.22 736.58 L 322.58 736.99 L 320.94 737.37 L 319.29 737.72 L 317.64 738.05 L 315.98 738.35 L 314.32 738.63 L 312.65 738.87 L 310.98 739.10 L 309.31 739.29 L 307.63 739.46 L 305.95 739.61 L 304.27 739.73 L 302.59 739.83 L 300.91 739.91 L 299.22 739.96 L 297.54 739.99 L 295.85 740.00 L 294.17 739.99 L 292.48 739.95 L 290.80 739.90 L 289.12 739.82 L 287.44 739.72 L 285.75 739.61 L 284.07 739.47 L 282.40 739.31 L 280.72 739.14 L 279.05 738.95 L 277.37 738.74 L 275.70 738.51 L 274.04 738.27 L 272.37 738.01 L 270.71 737.73 L 269.05 737.44 L 267.39 737.13 L 265.74 736.81 L 264.09 736.48 L 262.44 736.12 L 260.80 735.76 L 259.15 735.38 L 257.52 734.99 L 255.88 734.58 L 254.25 734.16 L 252.62 733.73 L 250.99 733.29 L 249.37 732.84 L 247.75 732.38 L 246.13 731.90 L 244.52 731.42 L 242.91 730.92 L 241.30 730.42 L 239.70 729.90 L 238.09 729.38 L 236.50 728.85 L 234.90 728.31 L 233.31 727.76 L 231.72 727.20 L 230.13 726.64 L 228.54 726.07 L 226.96 725.49 L 225.38 724.91 L 223.80 724.32 L 222.22 723.73 L 220.65 723.13 L 219.07 722.52 L 217.50 721.91 L 215.94 721.30 L 214.37 720.68 L 212.80 720.06 L 211.24 719.43 L 209.67 718.80 L 208.11 718.17 L 206.55 717.53 L 204.99 716.90 L 203.43 716.26 L 201.87 715.62 L 200.32 714.97 L 198.76 714.33 L 197.20 713.68 L 195.65 713.04 L 194.09 712.39 L 192.54 711.74 L 190.99 711.08 L 189.43 710.43 L 187.88 709.77 L 186.33 709.10 L 184.79 708.44 L 183.24 707.76 L 181.70 707.09 L 180.16 706.41 L 178.62 705.72 L 177.08 705.03 L 175.55 704.33 L 174.02 703.62 L 172.49 702.90 L 170.97 702.18 L 169.46 701.45 L 167.94 700.71 L 166.43 699.96 L 164.93 699.19 L 163.43 698.42 L 161.94 697.64 L 160.45 696.85 L 158.97 696.04 L 157.50 695.23 L 156.03 694.40 L 154.57 693.56 L 153.12 692.70 L 151.68 691.83 L 150.24 690.95 L 148.81 690.05 L 147.40 689.14 L 145.99 688.21 L 144.59 687.27 L 143.21 686.31 L 141.83 685.34 L 140.47 684.35 L 139.12 683.35 L 137.78 682.32 L 136.45 681.28 L 135.14 680.23 L 133.84 679.15 L 132.56 678.06 L 131.29 676.95 L 130.04 675.82 L 128.80 674.67 L 127.59 673.51 L 126.39 672.32 L 125.21 671.12 L 124.04 669.90 L 122.90 668.66 L 121.78 667.40 L 120.68 666.13 L 119.61 664.83 L 118.56 663.51 L 117.53 662.18 L 116.52 660.83 L 115.55 659.45 L 114.59 658.06 L 113.66 656.66 L 112.76 655.23 L 111.89 653.80 L 111.03 652.34 L 110.21 650.87 L 109.40 649.39 L 108.63 647.90 L 107.88 646.39 L 107.15 644.87 L 106.45 643.34 L 105.77 641.79 L 105.12 640.24 L 104.49 638.68 L 103.88 637.10 L 103.30 635.52 L 102.74 633.93 L 102.21 632.33 L 101.70 630.73 L 101.21 629.12 L 100.75 627.50 L 100.31 625.87 L 99.89 624.24 L 99.49 622.60 L 99.12 620.96 L 98.77 619.31 L 98.44 617.66 L 98.13 616.00 L 97.85 614.34 L 97.59 612.67 L 97.34 611.01 L 97.12 609.34 L 96.92 607.66 L 96.74 605.99 L 96.58 604.31 L 96.44 602.63 L 96.32 600.95 L 96.22 599.27 L 96.14 597.59 L 96.07 595.90 L 96.03 594.22 L 96.01 592.53 L 96.00 590.85 L 96.01 589.16 L 96.04 587.48 L 96.09 585.79 L 96.16 584.11 L 96.24 582.43 L 96.34 580.74 L 96.46 579.06 L 96.60 577.38 L 96.75 575.71 L 96.91 574.03 L 97.10 572.35 L 97.30 570.68 L 97.51 569.01 L 97.75 567.34 L 97.99 565.67 L 98.25 564.01 L 98.53 562.35 L 98.82 560.69 L 99.13 559.03 L 99.45 557.38 L 99.78 555.72 L 100.13 554.08 L 100.49 552.43 L 100.86 550.79 L 101.25 549.15 L 101.65 547.51 L 102.07 545.88 L 102.49 544.25 L 102.93 542.62 L 103.39 541.00 L 103.85 539.38 L 104.32 537.76 L 104.81 536.15 L 105.31 534.54 L 105.82 532.93 L 106.34 531.33 L 106.87 529.73 L 107.41 528.13 L 107.97 526.54 L 108.53 524.96 L 109.10 523.37 L 109.69 521.79 L 110.28 520.21 L 110.88 518.64 L 111.50 517.07 L 112.12 515.50 L 112.75 513.94 L 113.39 512.38 L 114.04 510.83 L 114.70 509.28 L 115.36 507.73 L 116.04 506.19 L 116.73 504.65 L 117.43 503.11 L 118.13 501.58 L 118.85 500.06 L 119.58 498.54 L 120.32 497.02 L 121.06 495.51 L 121.82 494.01 L 122.59 492.51 L 123.37 491.02 L 124.16 489.53 L 124.97 488.05 L 125.78 486.57 L 126.61 485.10 L 127.44 483.64 L 128.29 482.19 L 129.15 480.74 L 130.02 479.29 L 130.91 477.86 L 131.80 476.43 L 132.71 475.01 L 133.63 473.60 L 134.56 472.20 L 135.51 470.80 L 136.46 469.41 L 137.43 468.04 L 138.41 466.67 L 139.41 465.31 L 140.42 463.96 L 141.44 462.61 L 142.47 461.28 L 143.51 459.96 L 144.57 458.65 L 145.64 457.35 L 146.73 456.06 L 147.83 454.78 L 148.94 453.52 L 150.06 452.26 L 151.20 451.02 L 152.35 449.79 L 153.51 448.57 L 154.69 447.36 L 155.88 446.17 L 157.09 444.99 L 158.30 443.83 L 159.53 442.67 L 160.78 441.54 L 162.03 440.42 L 163.30 439.31 L 164.59 438.22 L 165.88 437.14 L 167.19 436.08 L 168.51 435.03 L 169.85 434.01 L 171.20 433.00 L 172.56 432.00 L 173.93 431.03 L 175.32 430.07 L 176.72 429.13 L 178.13 428.21 L 179.56 427.31 L 180.99 426.43 L 182.44 425.57 L 183.90 424.73 L 185.38 423.91 L 186.86 423.12 L 188.36 422.34 L 189.86 421.59 L 191.38 420.86 L 192.91 420.15 L 194.45 419.47 L 196.00 418.81 L 197.56 418.17 L 199.13 417.56 L 200.71 416.97 L 202.30 416.42 L 203.90 415.88 L 205.51 415.38 L 207.12 414.90 L 208.75 414.45 L 210.38 414.03 L 212.02 413.64 L 213.66 413.27 L 215.32 412.94 L 216.97 412.64 L 218.64 412.37 L 220.30 412.13 L 221.98 411.92 L 223.65 411.74 L 225.33 411.60 L 227.01 411.48 L 228.69 411.39 L 230.38 411.33 L 232.06 411.29 L 233.75 411.28 L 235.43 411.30 L 237.12 411.34 L 238.80 411.41 L 240.48 411.50 L 242.16 411.62 L 243.84 411.75 L 245.52 411.91 L 247.20 412.09 L 248.87 412.29 L 250.54 412.51 L 252.21 412.74 L 253.87 413.00 L 255.54 413.27 L 257.20 413.56 L 258.85 413.87 L 260.51 414.19 L 262.16 414.52 L 263.81 414.87 L 265.45 415.24 L 267.10 415.61 L 268.74 416.00 L 270.37 416.40 L 272.01 416.81 L 273.64 417.24 L 275.27 417.67 L 276.89 418.11 L 278.52 418.56 L 280.14 419.01 L 281.76 419.47 L 283.38 419.94 L 284.99 420.42 L 286.61 420.90 L 288.22 421.39 L 289.84 421.88 L 291.45 422.37 L 293.06 422.86 L 294.67 423.36 L 296.28 423.86 L 297.88 424.36 L 299.49 424.86 L 301.10 425.37 L 302.71 425.87 L 304.32 426.36 L 305.93 426.86 L 307.54 427.36 L 309.15 427.85 L 310.77 428.33 L 312.38 428.82 L 314.00 429.29 L 315.61 429.77 L 317.23 430.23 L 318.86 430.69 L 320.48 431.14 L 322.10 431.59 L 323.73 432.02 L 325.36 432.45 L 327.00 432.86 L 328.63 433.26 L 330.27 433.66 L 331.91 434.03 L 333.56 434.40 L 335.21 434.75 L 336.86 435.08 L 338.51 435.40 L 340.17 435.70 L 341.83 435.98 L 343.50 436.24 L 345.16 436.49 L 346.83 436.71 L 348.51 436.91 L 350.18 437.09 L 351.86 437.25 L 353.54 437.38 L 355.22 437.49 L 356.90 437.57 L 358.59 437.63 L 360.27 437.66 L 361.96 437.66 L 363.64 437.63 L 365.33 437.57 L 367.01 437.48 L 368.69 437.35 L 370.37 437.20 L 372.04 437.01 L 373.71 436.78 L 375.38 436.52 L 377.04 436.23 L 378.69 435.90 L 380.33 435.52 L 381.97 435.11 L 383.59 434.66 L 385.20 434.17 L 386.80 433.64 L 388.39 433.07 L 389.95 432.45 L 391.50 431.80 L 393.04 431.09 L 394.55 430.35 L 396.04 429.56 L 397.50 428.73 L 398.95 427.86 L 400.36 426.95 L 401.76 426.01 L 403.13 425.03 L 404.48 424.01 L 405.80 422.97 L 407.09 421.89 L 408.36 420.78 L 409.61 419.65 L 410.83 418.48 L 412.02 417.30 L 413.19 416.08 L 414.34 414.85 L 415.46 413.59 L 416.56 412.31 L 417.63 411.02 L 418.68 409.70 L 419.71 408.36 L 420.72 407.01 L 421.70 405.64 L 422.66 404.25 L 423.60 402.86 L 424.51 401.44 L 425.41 400.02 L 426.29 398.58 L 427.15 397.13 L 427.98 395.67 L 428.81 394.19 L 429.61 392.71 L 430.40 391.22 L 431.17 389.72 L 431.92 388.22 L 432.66 386.70 L 433.38 385.18 L 434.10 383.65 L 434.79 382.12 L 435.48 380.58 L 436.15 379.04 L 436.82 377.49 L 437.47 375.94 L 438.12 374.38 L 438.75 372.82 L 439.38 371.25 L 440.00 369.69 L 440.61 368.12 L 441.22 366.55 L 441.82 364.97 L 442.42 363.40 L 443.00 361.82 L 443.59 360.24 L 444.16 358.65 L 444.73 357.07 L 445.30 355.48 L 445.86 353.89 L 446.41 352.30 L 446.96 350.71 L 447.50 349.11 L 448.04 347.51 L 448.58 345.92 L 449.11 344.32 L 449.63 342.71 L 450.15 341.11 L 450.66 339.51 L 451.18 337.90 L 451.68 336.29 L 452.18 334.69 L 452.68 333.08 L 453.18 331.47 L 453.67 329.85 L 454.16 328.24 L 454.64 326.63 L 455.12 325.01 L 455.60 323.40 L 456.08 321.78 L 456.55 320.16 L 457.02 318.54 L 457.49 316.93 L 457.95 315.31 L 458.41 313.68 L 458.87 312.06 L 459.33 310.44 L 459.78 308.82 L 460.24 307.20 L 460.69 305.57 L 461.14 303.95 L 461.59 302.33 L 462.04 300.70 L 462.48 299.08 L 462.93 297.45 L 463.37 295.83 L 463.82 294.20 L 464.26 292.57 L 464.70 290.95 L 465.14 289.32 L 465.59 287.70 L 466.03 286.07 L 466.47 284.44 L 466.91 282.82 L 467.36 281.19 L 467.80 279.57 L 468.24 277.94 L 468.69 276.32 L 469.13 274.69 L 469.58 273.07 L 470.02 271.44 L 470.47 269.82 L 470.92 268.19 L 471.37 266.57 L 471.83 264.95 L 472.28 263.32 L 472.74 261.70 L 473.20 260.08 L 473.66 258.46 L 474.12 256.84 L 474.59 255.22 L 475.05 253.60 L 475.53 251.98 L 476.00 250.37 L 476.48 248.75 L 476.95 247.14 L 477.44 245.52 L 477.92 243.91 L 478.41 242.30 L 478.91 240.68 L 479.40 239.07 L 479.90 237.46 L 480.41 235.86 L 480.92 234.25 L 481.43 232.65 L 481.95 231.04 L 482.47 229.44 L 482.99 227.84 L 483.53 226.24 L 484.06 224.64 L 484.60 223.05 L 485.15 221.45 L 485.70 219.86 L 486.26 218.27 L 486.82 216.68 L 487.39 215.09 L 487.96 213.51 L 488.54 211.93 L 489.12 210.35 L 489.71 208.77 L 490.31 207.19 L 490.91 205.62 L 491.52 204.05 L 492.14 202.48 L 492.76 200.92 L 493.39 199.35 L 494.03 197.79 L 494.67 196.24 L 495.33 194.68 L 495.99 193.13 L 496.66 191.59 L 497.34 190.05 L 498.03 188.51 L 498.73 186.98 L 499.44 185.45 L 500.16 183.92 L 500.90 182.41 L 501.64 180.90 L 502.40 179.39 L 503.17 177.89 L 503.95 176.40 L 504.75 174.92 L 505.56 173.44 L 506.39 171.97 L 507.23 170.51 L 508.09 169.06 L 508.96 167.62 L 509.85 166.19 L 510.75 164.76 L 511.67 163.35 L 512.61 161.95 L 513.56 160.56 L 514.53 159.19 L 515.52 157.82 L 516.53 156.47 L 517.55 155.13 L 518.60 153.81 L 519.66 152.50 L 520.74 151.21 L 521.84 149.93 L 522.96 148.67 L 524.10 147.43 L 525.26 146.21 L 526.44 145.00 L 527.63 143.82 L 528.85 142.66 L 530.09 141.51 L 531.35 140.39 L 532.63 139.29 L 533.92 138.22 L 535.24 137.17 L 536.58 136.15 L 537.94 135.15 L 539.32 134.18 L 540.71 133.24 L 542.13 132.33 L 543.57 131.45 L 545.02 130.60 L 546.50 129.78 L 547.99 128.99 L 549.50 128.24 L 551.02 127.52 L 552.56 126.84 L 554.12 126.19 L 555.68 125.58 L 557.27 125.00 L 558.86 124.45 L 560.46 123.93 L 562.08 123.45 L 563.70 123.00 L 565.34 122.59 L 566.98 122.21 L 568.62 121.85 L 570.28 121.53 L 571.94 121.25 L 573.60 120.99 L 575.27 120.76 L 576.95 120.56 L 578.62 120.40 L 580.30 120.26 L 581.98 120.15 L 583.67 120.07 L 585.35 120.02 L 587.04 120.00 L 588.72 120.01 L 590.41 120.04 L 592.09 120.10 L 593.77 120.19 L 595.45 120.30 L 597.13 120.44 L 598.81 120.60 L 600.48 120.80 L 602.16 121.01 L 603.82 121.25 L 605.49 121.52 L 607.15 121.81 L 608.80 122.12 L 610.45 122.46 L 612.10 122.82 L 613.74 123.20 L 615.38 123.60 L 617.01 124.03 L 618.63 124.48 L 620.25 124.95 L 621.86 125.44 L 623.47 125.95 L 625.07 126.49 L 626.66 127.04 L 628.24 127.61 L 629.82 128.20 L 631.39 128.82 L 632.95 129.45 L 634.51 130.10 L 636.05 130.76 L 637.59 131.45 L 639.12 132.15 L 640.65 132.88 L 642.16 133.61 L 643.67 134.37 L 645.16 135.14 L 646.65 135.93 L 648.13 136.74 L 649.60 137.56 L 651.07 138.39 L 652.52 139.25 L 653.97 140.11 L 655.40 141.00 L 656.83 141.89 L 658.25 142.80 L 659.65 143.73 L 661.05 144.67 L 662.44 145.62 L 663.82 146.59 L 665.19 147.57 L 666.56 148.56 L 667.91 149.56 L 669.25 150.58 L 670.59 151.61 L 671.91 152.65 L 673.23 153.70 L 674.53 154.77 L 675.83 155.85 L 677.11 156.93 L 678.39 158.03 L 679.66 159.14 L 680.92 160.26 L 682.17 161.39 L 683.41 162.53 L 684.64 163.68 L 685.86 164.85 L 687.07 166.02 L 688.28 167.20 L 689.47 168.38 L 690.65 169.58 L 691.83 170.79 L 693.00 172.01 L 694.16 173.23 L 695.30 174.46 L 696.44 175.70 L 697.57 176.95 L 698.70 178.21 L 699.81 179.47 L 700.91 180.75 L 702.01 182.03 L 703.10 183.31 L 704.18 184.61 L 705.25 185.91 L 706.31 187.22 L 707.36 188.54 L 708.41 189.86 L 709.44 191.19 L 710.47 192.52 L 711.49 193.86 L 712.50 195.21 L 713.51 196.56 L 714.50 197.92 L 715.49 199.28 L 716.47 200.65 L 717.45 202.03 L 718.41 203.41 L 719.37 204.80 L 720.32 206.19 L 721.27 207.58 L 722.20 208.98 L 723.13 210.39 L 724.05 211.80 L 724.97 213.22 L 725.88 214.64 L 726.78 216.06 L 727.67 217.49 L 728.56 218.92 L 729.44 220.35 L 730.32 221.79 L 731.18 223.24 L 732.05 224.69 L 732.90 226.14 L 733.75 227.59 L 734.60 229.05 L 735.44 230.51 L 736.27 231.98 L 737.10 233.44 L 737.92 234.92 L 738.74 236.39 L 739.55 237.87 L 740.35 239.35 L 741.15 240.83 L 741.95 242.31 L 742.74 243.80 L 743.53 245.29 L 744.31 246.79 L 745.08 248.28 L 745.86 249.78 L 746.62 251.28 L 747.39 252.78 L 748.15 254.28 L 748.90 255.79 L 749.65 257.30 L 750.40 258.81 L 751.15 260.32 L 751.89 261.83 L 752.63 263.35 L 753.36 264.87 L 754.09 266.38 L 754.82 267.90 L 755.54 269.42 L 756.27 270.95 L 756.98 272.47 L 757.70 274.00 L 758.42 275.52 L 759.13 277.05 L 759.84 278.58 L 760.54 280.11 L 761.25 281.64 L 761.95 283.17 L 762.66 284.70 L 763.36 286.23 L 764.05 287.77 L 764.75 289.30 L 765.45 290.83 L 766.14 292.37 L 766.84 293.91 L 767.53 295.44 L 768.22 296.98 L 768.91 298.51 L 769.61 300.05 L 770.30 301.59 L 770.99 303.12 L 771.68 304.66 L 772.37 306.20 L 773.06 307.74 L 773.75 309.27 L 774.44 310.81 L 775.13 312.35 L 775.82 313.88 L 776.51 315.42 L 777.20 316.96 L 777.89 318.49 L 778.58 320.03 L 779.27 321.57 L 779.96 323.11 L 780.65 324.64 L 781.34 326.18 L 782.03 327.72" stroke="#2e3448" stroke-width="24"/>
  <path class="sector" d="M 782.03 327.72 L 782.71 329.26 L 783.40 330.80 L 784.09 332.34 L 784.77 333.88 L 785.45 335.42 L 786.13 336.96 L 786.81 338.50 L 787.49 340.04 L 788.17 341.59 L 788.85 343.13 L 789.52 344.67 L 790.19 346.22 L 790.86 347.76 L 791.53 349.31 L 792.20 350.86 L 792.86 352.41 L 793.53 353.96 L 794.19 355.51 L 794.84 357.06 L 795.50 358.61 L 796.15 360.16 L 796.80 361.72 L 797.45 363.28 L 798.09 364.83 L 798.73 366.39 L 799.37 367.95 L 800.01 369.51 L 800.64 371.07 L 801.26 372.64 L 801.89 374.20 L 802.50 375.77 L 803.12 377.34 L 803.72 378.91 L 804.33 380.49 L 804.92 382.06 L 805.52 383.64 L 806.10 385.22 L 806.68 386.80 L 807.25 388.39 L 807.82 389.97 L 808.37 391.56 L 808.92 393.16 L 809.47 394.75 L 810.00 396.35 L 810.53 397.95 L 811.04 399.55 L 811.55 401.16 L 812.05 402.77 L 812.54 404.38 L 813.02 406.00 L 813.49 407.62 L 813.95 409.24 L 814.40 410.86 L 814.84 412.49 L 815.27 414.12 L 815.68 415.75 L 816.09 417.39 L 816.48 419.03 L 816.86 420.67 L 817.22 422.31 L 817.58 423.96 L 817.92 425.61 L 818.25 427.26 L 818.56 428.92 L 818.86 430.58 L 819.14 432.24 L 819.41 433.90 L 819.67 435.57 L 819.91 437.23 L 820.13 438.90 L 820.34 440.58 L 820.53 442.25 L 820.70 443.93 L 820.86 445.60 L 821.00 447.28 L 821.13 448.96 L 821.23 450.65 L 821.32 452.33 L 821.39 454.01 L 821.44 455.70 L 821.47 457.38 L 821.48 459.07 L 821.47 460.75 L 821.44 462.44 L 821.39 464.12 L 821.32 465.80 L 821.23 467.49 L 821.12 469.17 L 820.99 470.85 L 820.83 472.53 L 820.65 474.20 L 820.45 475.87 L 820.23 477.54 L 819.98 479.21 L 819.71 480.87 L 819.42 482.53 L 819.10 484.19 L 818.76 485.84 L 818.39 487.48 L 818.00 489.12 L 817.58 490.75 L 817.14 492.38 L 816.67 494.00 L 816.18 495.61 L 815.66 497.21 L 815.11 498.81 L 814.53 500.39 L 813.93 501.96 L 813.30 503.53 L 812.65 505.08 L 811.96 506.62 L 811.25 508.15 L 810.51 509.66 L 809.74 511.16 L 808.95 512.64 L 808.12 514.11 L 807.27 515.57 L 806.39 517.00 L 805.47 518.42 L 804.53 519.82 L 803.56 521.19 L 802.56 522.55 L 801.53 523.88 L 800.48 525.20 L 799.39 526.49 L 798.28 527.75 L 797.14 529.00 L 795.98 530.21 L 794.79 531.41 L 793.58 532.58 L 792.35 533.73 L 791.09 534.86 L 789.82 535.96 L 788.52 537.03 L 787.21 538.09 L 785.87 539.12 L 784.52 540.12 L 783.15 541.10 L 781.77 542.06 L 780.37 543.00 L 778.95 543.91 L 777.52 544.80 L 776.07 545.67 L 774.61 546.51 L 773.14 547.33 L 771.66 548.13 L 770.16 548.90 L 768.65 549.66 L 767.14 550.39 L 765.61 551.10 L 764.07 551.79 L 762.52 552.45 L 760.97 553.10 L 759.40 553.72 L 757.83 554.33 L 756.25 554.91 L 754.66 555.47 L 753.06 556.02 L 751.46 556.54 L 749.85 557.04 L 748.24 557.53 L 746.62 557.99 L 745.00 558.44 L 743.37 558.87 L 741.73 559.28 L 740.09 559.67 L 738.45 560.04 L 736.80 560.40 L 735.15 560.74 L 733.50 561.06 L 731.84 561.37 L 730.18 561.66 L 728.52 561.94 L 726.86 562.19 L 725.19 562.44 L 723.52 562.67 L 721.85 562.88 L 720.17 563.08 L 718.50 563.26 L 716.82 563.43 L 715.14 563.59 L 713.47 563.73 L 711.79 563.87 L 710.11 563.98 L 708.42 564.09 L 706.74 564.18 L 705.06 564.27 L 703.37 564.34 L 701.69 564.40 L 700.01 564.44 L 698.32 564.48 L 696.64 564.51 L 694.95 564.53 L 693.27 564.54 L 691.58 564.54 L 689.90 564.53 L 688.21 564.51 L 686.53 564.48 L 684.84 564.44 L 683.16 564.40 L 681.47 564.35 L 679.79 564.29 L 678.11 564.23 L 676.42 564.15 L 674.74 564.08 L 673.06 563.99 L 671.37 563.90 L 669.69 563.80 L 668.01 563.70 L 666.33 563.60 L 664.65 563.49 L 662.97 563.37 L 661.28 563.25 L 659.60 563.13 L 657.92 563.00 L 656.24 562.87 L 654.56 562.73 L 652.88 562.60 L 651.21 562.46 L 649.53 562.31 L 647.85 562.17 L 646.17 562.03 L 644.49 561.88 L 642.81 561.73 L 641.13 561.58 L 639.46 561.43 L 637.78 561.28 L 636.10 561.13 L 634.42 560.97 L 632.74 560.81 L 631.07 560.64 L 629.39 560.46 L 627.72 560.27 L 626.04 560.07 L 624.37 559.86 L 622.70 559.64 L 621.04 559.39 L 619.37 559.13 L 617.71 558.85 L 616.05 558.54 L 614.40 558.21 L 612.75 557.86 L 611.11 557.47 L 609.48 557.06 L 607.85 556.62 L 606.24 556.14 L 604.63 555.64 L 603.04 555.09 L 601.45 554.51 L 599.89 553.89 L 598.34 553.23 L 596.81 552.53 L 595.29 551.78 L 593.80 550.99 L 592.34 550.16 L 590.90 549.28 L 589.49 548.35 L 588.12 547.38 L 586.78 546.36 L 585.48 545.29 L 584.22 544.17 L 583.01 543.00 L 581.85 541.78 L 580.74 540.51 L 579.69 539.19 L 578.70 537.82 L 577.78 536.41 L 576.94 534.96 L 576.17 533.46 L 575.48 531.92 L 574.89 530.34 L 574.40 528.73 L 574.00 527.09 L 573.72 525.43 L 573.56 523.75 L 573.52 522.07 L 573.61 520.39 L 573.84 518.72 L 574.19 517.07 L 574.67 515.46 L 575.27 513.88 L 575.98 512.35 L 576.79 510.87 L 577.68 509.45 L 578.67 508.08 L 579.72 506.77 L 580.85 505.52 L 582.05 504.33 L 583.30 503.20 L 584.60 502.13 L 585.95 501.12 L 587.34 500.18 L 588.78 499.29 L 590.24 498.46 L 591.74 497.69 L 593.27 496.97 L 594.82 496.31 L 596.39 495.70 L 597.98 495.14 L 599.58 494.63 L 601.20 494.17 L 602.84 493.76 L 604.48 493.38 L 606.13 493.05 L 607.79 492.76 L 609.46 492.50 L 611.13 492.28 L 612.80 492.09 L 614.48 491.93 L 616.16 491.79 L 617.84 491.69 L 619.52 491.61 L 621.21 491.54 L 622.89 491.50 L 624.58 491.47 L 626.26 491.46 L 627.95 491.46 L 629.63 491.47 L 631.32 491.50 L 633.00 491.53 L 634.68 491.56 L 636.37 491.61 L 638.05 491.66 L 639.74 491.71 L 641.42 491.77 L 643.11 491.83 L 644.79 491.89 L 646.47 491.95 L 648.16 492.02 L 649.84 492.08 L 651.52 492.14 L 653.21 492.19 L 654.89 492.25 L 656.58 492.30 L 658.26 492.34 L 659.95 492.37 L 661.63 492.40 L 663.32 492.42 L 665.00 492.43 L 666.69 492.43 L 668.37 492.42 L 670.06 492.39 L 671.74 492.35 L 673.42 492.30 L 675.11 492.23 L 676.79 492.15 L 678.47 492.05 L 680.15 491.93 L 681.83 491.79 L 683.51 491.63 L 685.19 491.45 L 686.86 491.25 L 688.53 491.02 L 690.20 490.78 L 691.86 490.50 L 693.52 490.21 L 695.17 489.88 L 696.82 489.53 L 698.46 489.15 L 700.09 488.74 L 701.72 488.30 L 703.34 487.83 L 704.95 487.32 L 706.54 486.79 L 708.13 486.22 L 709.70 485.61 L 711.26 484.98 L 712.81 484.30 L 714.34 483.59 L 715.85 482.84 L 717.34 482.06 L 718.81 481.24 L 720.25 480.37 L 721.68 479.47 L 723.07 478.53 L 724.44 477.55 L 725.78 476.52 L 727.09 475.46 L 728.36 474.36 L 729.60 473.21 L 730.80 472.03 L 731.95 470.80 L 733.06 469.53 L 734.13 468.23 L 735.14 466.88 L 736.11 465.50 L 737.02 464.09 L 737.88 462.64 L 738.69 461.16 L 739.45 459.66 L 740.16 458.13 L 740.83 456.58 L 741.44 455.01 L 742.00 453.42 L 742.52 451.82 L 743.00 450.20 L 743.43 448.57 L 743.82 446.93 L 744.16 445.29 L 744.47 443.63 L 744.73 441.96 L 744.95 440.29 L 745.14 438.62 L 745.29 436.94 L 745.41 435.26 L 745.49 433.58 L 745.54 431.89 L 745.56 430.21 L 745.54 428.52 L 745.50 426.84 L 745.43 425.16 L 745.33 423.47 L 745.21 421.79 L 745.06 420.11 L 744.88 418.44 L 744.69 416.76 L 744.47 415.09 L 744.24 413.42 L 743.98 411.76 L 743.71 410.10 L 743.42 408.44 L 743.11 406.78 L 742.79 405.13 L 742.46 403.47 L 742.11 401.82 L 741.76 400.18 L 741.39 398.53 L 741.01 396.89 L 740.62 395.25 L 740.23 393.61 L 739.83 391.98 L 739.42 390.34 L 739.00 388.71 L 738.58 387.08 L 738.15 385.45 L 737.71 383.82 L 737.27 382.20 L 736.82 380.57 L 736.36 378.95 L 735.89 377.33 L 735.42 375.71 L 734.94 374.10 L 734.46 372.49 L 733.96 370.87 L 733.46 369.26 L 732.96 367.66 L 732.45 366.05 L 731.93 364.45 L 731.41 362.85 L 730.87 361.25 L 730.34 359.65 L 729.79 358.06 L 729.24 356.46 L 728.69 354.87 L 728.13 353.28 L 727.56 351.70 L 726.99 350.11 L 726.41 348.53 L 725.82 346.95 L 725.23 345.37 L 724.63 343.80 L 724.03 342.22 L 723.42 340.65 L 722.81 339.08 L 722.19 337.51 L 721.57 335.95 L 720.94 334.39 L 720.30 332.82 L 719.66 331.27 L 719.02 329.71 L 718.37 328.15 L 717.71 326.60 L 717.05 325.05 L 716.39 323.50 L 715.72 321.96 L 715.04 320.41 L 714.36 318.87 L 713.68 317.33 L 712.99 315.79 L 712.30 314.26 L 711.60 312.72 L 710.90 311.19 L 710.19 309.66 L 709.48 308.13 L 708.77 306.61 L 708.05 305.08 L 707.33 303.56 L 706.60 302.04 L 705.87 300.52 L 705.14 299.01 L 704.40 297.49 L 703.65 295.98 L 702.90 294.47 L 702.14 292.97 L 701.38 291.47 L 700.61 289.97 L 699.83 288.47 L 699.04 286.99 L 698.24 285.50 L 697.43 284.02 L 696.62 282.55 L 695.79 281.08 L 694.95 279.62 L 694.10 278.16 L 693.24 276.72 L 692.36 275.27 L 691.48 273.84 L 690.58 272.42 L 689.66 271.00 L 688.73 269.60 L 687.79 268.20 L 686.83 266.81 L 685.86 265.44 L 684.87 264.08 L 683.86 262.72 L 682.84 261.38 L 681.80 260.06 L 680.74 258.75 L 679.67 257.45 L 678.57 256.17 L 677.46 254.90 L 676.33 253.65 L 675.18 252.42 L 674.01 251.21 L 672.83 250.01 L 671.62 248.83 L 670.39 247.68 L 669.14 246.55 L 667.88 245.44 L 666.59 244.35 L 665.28 243.29 L 663.95 242.25 L 662.61 241.24 L 661.24 240.25 L 659.85 239.30 L 658.44 238.37 L 657.02 237.48 L 655.57 236.61 L 654.10 235.78 L 652.62 234.99 L 651.11 234.23 L 649.59 233.51 L 648.05 232.82 L 646.49 232.18 L 644.92 231.57 L 643.33 231.01 L 641.73 230.49 L 640.11 230.02 L 638.48 229.59 L 636.84 229.21 L 635.19 228.89 L 633.53 228.61 L 631.86 228.39 L 630.18 228.22 L 628.50 228.10 L 626.81 228.05 L 625.13 228.05 L 623.45 228.11 L 621.76 228.23 L 620.09 228.40 L 618.42 228.64 L 616.76 228.93 L 615.11 229.28 L 613.48 229.68 L 611.86 230.15 L 610.26 230.67 L 608.67 231.25 L 607.11 231.88 L 605.57 232.57 L 604.06 233.30 L 602.57 234.09 L 601.10 234.92 L 599.66 235.80 L 598.25 236.72 L 596.87 237.68 L 595.51 238.68 L 594.18 239.71 L 592.88 240.78 L 591.61 241.89 L 590.36 243.02 L 589.15 244.19 L 587.96 245.39 L 586.80 246.61 L 585.67 247.86 L 584.57 249.13 L 584.56 249.14" stroke="#fd0000" stroke-width="10"/>
  <path class="sector" d="M 584.56 249.14 L 583.49 250.43 L 582.44 251.75 L 581.42 253.09 L 580.43 254.45 L 579.46 255.83 L 578.52 257.23 L 577.60 258.64 L 576.71 260.07 L 575.84 261.51 L 574.99 262.97 L 574.17 264.44 L 573.37 265.92 L 572.60 267.42 L 571.84 268.93 L 571.11 270.44 L 570.39 271.97 L 569.70 273.50 L 569.02 275.05 L 568.36 276.60 L 567.72 278.16 L 567.10 279.72 L 566.49 281.29 L 565.89 282.87 L 565.31 284.45 L 564.75 286.04 L 564.20 287.63 L 563.66 289.23 L 563.13 290.83 L 562.61 292.43 L 562.10 294.04 L 561.60 295.65 L 561.11 297.26 L 560.63 298.87 L 560.15 300.49 L 559.68 302.11 L 559.21 303.73 L 558.75 305.35 L 558.29 306.97 L 557.84 308.59 L 557.39 310.21 L 556.95 311.84 L 556.50 313.47 L 556.06 315.09 L 555.62 316.72 L 555.19 318.35 L 554.76 319.98 L 554.33 321.60 L 553.90 323.23 L 553.47 324.86 L 553.04 326.49 L 552.62 328.13 L 552.20 329.76 L 551.77 331.39 L 551.35 333.02 L 550.93 334.65 L 550.51 336.28 L 550.09 337.91 L 549.66 339.54 L 549.24 341.17 L 548.82 342.81 L 548.39 344.44 L 547.97 346.07 L 547.54 347.70 L 547.11 349.33 L 546.68 350.96 L 546.25 352.58 L 545.81 354.21 L 545.37 355.84 L 544.94 357.47 L 544.49 359.09 L 544.05 360.72 L 543.60 362.34 L 543.15 363.96 L 542.70 365.59 L 542.24 367.21 L 541.78 368.83 L 541.32 370.45 L 540.85 372.07 L 540.38 373.69 L 539.91 375.31 L 539.43 376.92 L 538.95 378.54 L 538.47 380.15 L 537.98 381.77 L 537.49 383.38 L 537.00 384.99 L 536.50 386.60 L 536.00 388.21 L 535.49 389.81 L 534.98 391.42 L 534.47 393.02 L 533.95 394.63 L 533.43 396.23 L 532.90 397.83 L 532.37 399.43 L 531.84 401.03 L 531.31 402.63 L 530.77 404.22 L 530.22 405.82 L 529.68 407.41 L 529.13 409.01 L 528.57 410.60 L 528.01 412.19 L 527.45 413.78 L 526.89 415.36 L 526.32 416.95 L 525.75 418.54 L 525.18 420.12 L 524.60 421.70 L 524.02 423.28 L 523.44 424.87 L 522.85 426.44 L 522.26 428.02 L 521.66 429.60 L 521.07 431.18 L 520.47 432.75 L 519.87 434.32 L 519.26 435.90 L 518.65 437.47 L 518.04 439.04 L 517.42 440.61 L 516.81 442.17 L 516.19 443.74 L 515.56 445.31 L 514.94 446.87 L 514.31 448.43 L 513.68 450.00 L 513.04 451.56 L 512.40 453.12 L 511.76 454.67 L 511.12 456.23 L 510.47 457.79 L 509.83 459.34 L 509.18 460.90 L 508.52 462.45 L 507.87 464.00 L 507.21 465.56 L 506.55 467.11 L 505.88 468.65 L 505.22 470.20 L 504.55 471.75 L 503.88 473.29 L 503.21 474.84 L 502.53 476.38 L 501.85 477.93 L 501.17 479.47 L 500.49 481.01 L 499.81 482.55 L 499.12 484.09 L 498.43 485.62 L 497.74 487.16 L 497.05 488.70 L 496.35 490.23 L 495.65 491.77 L 494.95 493.30 L 494.25 494.83 L 493.55 496.36 L 492.84 497.89 L 492.14 499.42 L 491.43 500.95 L 490.72 502.48 L 490.00 504.00 L 489.29 505.53 L 488.57 507.06 L 487.85 508.58 L 487.13 510.10 L 486.41 511.63 L 485.69 513.15 L 484.96 514.67 L 484.23 516.19 L 483.50 517.71 L 482.77 519.22 L 482.04 520.74 L 481.31 522.26 L 480.57 523.78 L 479.83 525.29 L 479.10 526.81 L 478.36 528.32 L 477.62 529.83 L 476.87 531.35 L 476.13 532.86 L 475.38 534.37 L 474.64 535.88 L 473.89 537.39 L 473.14 538.90 L 472.39 540.41 L 471.63 541.91 L 470.88 543.42 L 470.13 544.93 L 469.37 546.43 L 468.61 547.94 L 467.86 549.44 L 467.10 550.95 L 466.34 552.45 L 465.57 553.95 L 464.81 555.46 L 464.05 556.96 L 463.28 558.46 L 462.52 559.96 L 461.75 561.46 L 460.99 562.96 L 460.22 564.46 L 459.45 565.96 L 458.68 567.46 L 457.91 568.96 L 457.14 570.46 L 456.36 571.96 L 455.59 573.45 L 454.82 574.95 L 454.04 576.45 L 453.27 577.94 L 452.49 579.44 L 451.72 580.93 L 450.94 582.43 L 450.16 583.92 L 449.39 585.42 L 448.61 586.91 L 447.83 588.41 L 447.05 589.90 L 446.27 591.40 L 445.49 592.89 L 444.71 594.38 L 443.93 595.88 L 443.15 597.37 L 442.37 598.86 L 441.58 600.35 L 440.80 601.85 L 440.02 603.34 L 439.23 604.83 L 438.45 606.32 L 437.67 607.81 L 436.88 609.31 L 436.10 610.80 L 435.31 612.29 L 434.53 613.78 L 433.74 615.27 L 432.96 616.76 L 432.17 618.25 L 431.39 619.74 L 430.60 621.23 L 429.81 622.72 L 429.03 624.21 L 428.24 625.70 L 427.45 627.19 L 426.67 628.68 L 425.88 630.17 L 425.09 631.66 L 424.30 633.15 L 423.51 634.64 L 422.72 636.13 L 421.93 637.61 L 421.13 639.10 L 420.33 640.58 L 419.53 642.06 L 418.73 643.55 L 417.92 645.02 L 417.11 646.50 L 416.30 647.98 L 415.48 649.45 L 414.66 650.92 L 413.83 652.39 L 413.00 653.86 L 412.16 655.32 L 411.32 656.78 L 410.47 658.24 L 409.62 659.69 L 408.76 661.14 L 407.90 662.58 L 407.03 664.03 L 406.15 665.46 L 405.26 666.90 L 404.37 668.33 L 403.47 669.75 L 402.56 671.17 L 401.64 672.58 L 400.72 673.99 L 399.78 675.39 L 398.84 676.79 L 397.89 678.18 L 396.93 679.57 L 395.96 680.94 L 394.98 682.31 L 393.99 683.68 L 392.99 685.03 L 391.98 686.38 L 390.96 687.72 L 389.93 689.06 L 388.88 690.38 L 387.83 691.70 L 386.77 693.00 L 385.69 694.30 L 384.60 695.59 L 383.51 696.86 L 382.40 698.13 L 381.27 699.39 L 380.14 700.63 L 378.99 701.87 L 377.83 703.09 L 376.66 704.30 L 375.47 705.50 L 374.28 706.69 L 373.07 707.86 L 371.84 709.02 L 370.61 710.16 L 369.36 711.29 L 368.09 712.41 L 366.82 713.51 L 365.53 714.59 L 364.23 715.66 L 362.91 716.71 L 361.58 717.75 L 360.24 718.77 L 358.88 719.77 L 357.51 720.75 L 356.13 721.71 L 354.73 722.65 L 353.32 723.58 L 351.90 724.48 L 350.46 725.36 L 349.02 726.22 L 347.55 727.06 L 346.08 727.87 L 344.59 728.67 L 343.09 729.43 L 341.58 730.18 L 340.06 730.90 L 338.52 731.59 L 336.97 732.26 L 335.41 732.90 L 333.84 733.51 L 332.26 734.09 L 330.67 734.65 L 329.07 735.17 L 327.46 735.67 L 325.84 736.14 L 324.22 736.58 L 322.58 736.99 L 320.94 737.37 L 319.29 737.72 L 317.64 738.05 L 315.98 738.35 L 314.32 738.63 L 312.65 738.87 L 310.98 739.10 L 309.31 739.29 L 307.63 739.46 L 305.95 739.61 L 304.27 739.73 L 302.59 739.83 L 300.91 739.91 L 299.22 739.96 L 297.54 739.99 L 295.85 740.00 L 294.17 739.99 L 292.48 739.95 L 290.80 739.90 L 289.12 739.82 L 287.44 739.72 L 285.75 739.61 L 284.07 739.47 L 282.40 739.31 L 280.72 739.14 L 279.05 738.95 L 277.37 738.74 L 275.70 738.51 L 274.04 738.27 L 272.37 738.01 L 270.71 737.73 L 269.05 737.44 L 267.39 737.13 L 265.74 736.81 L 264.09 736.48 L 262.44 736.12 L 260.80 735.76 L 259.15 735.38 L 257.52 734.99 L 255.88 734.58 L 254.25 734.16 L 252.62 733.73 L 250.99 733.29 L 249.37 732.84 L 247.75 732.38 L 246.13 731.90 L 244.52 731.42 L 242.91 730.92 L 241.30 730.42 L 239.70 729.90 L 238.09 729.38 L 236.50 728.85 L 234.90 728.31 L 233.31 727.76 L 231.72 727.20 L 230.13 726.64 L 228.54 726.07 L 226.96 725.49 L 225.38 724.91 L 223.80 724.32 L 222.22 723.73 L 220.65 723.13 L 219.07 722.52 L 217.50 721.91 L 215.94 721.30 L 214.37 720.68 L 212.80 720.06 L 211.24 719.43 L 209.67 718.80 L 208.11 718.17 L 206.55 717.53 L 204.99 716.90 L 203.43 716.26 L 201.87 715.62 L 200.32 714.97 L 198.76 714.33 L 197.20 713.68 L 195.65 713.04 L 194.09 712.39 L 192.54 711.74 L 190.99 711.08 L 189.43 710.43 L 187.88 709.77 L 186.33 709.10 L 184.79 708.44 L 183.24 707.76 L 181.70 707.09 L 180.16 706.41 L 178.62 705.72 L 177.08 705.03 L 175.55 704.33 L 174.02 703.62 L 172.49 702.90 L 170.97 702.18 L 169.46 701.45 L 167.94 700.71 L 166.43 699.96 L 164.93 699.19 L 163.43 698.42 L 161.94 697.64 L 160.45 696.85 L 158.97 696.04 L 157.50 695.23 L 156.03 694.40 L 154.57 693.56 L 153.12 692.70 L 151.68 691.83 L 150.24 690.95 L 148.81 690.05 L 147.40 689.14 L 145.99 688.21 L 144.59 687.27 L 143.21 686.31 L 141.83 685.34 L 140.47 684.35 L 139.12 683.35 L 137.78 682.32 L 136.45 681.28 L 135.14 680.23 L 133.84 679.15 L 132.56 678.06 L 131.29 676.95 L 130.04 675.82 L 128.80 674.67 L 127.59 673.51 L 126.39 672.32 L 125.21 671.12 L 124.04 669.90 L 122.90 668.66 L 121.78 667.40 L 120.68 666.13 L 119.61 664.83 L 118.56 663.51 L 117.53 662.18 L 116.52 660.83 L 115.55 659.45 L 114.59 658.06 L 113.66 656.66 L 112.76 655.23 L 111.89 653.80 L 111.03 652.34 L 110.21 650.87 L 109.40 649.39 L 108.63 647.90 L 107.88 646.39 L 107.15 644.87 L 106.45 643.34 L 105.77 641.79 L 105.12 640.24 L 104.49 638.68 L 103.88 637.10 L 103.30 635.52 L 102.74 633.93 L 102.21 632.33 L 101.70 630.73 L 101.21 629.12 L 100.75 627.50 L 100.31 625.87 L 99.89 624.24 L 99.49 622.60 L 99.12 620.96 L 98.77 619.31 L 98.44 617.66 L 98.13 616.00 L 97.85 614.34 L 97.59 612.67 L 97.34 611.01 L 97.12 609.34 L 96.92 607.66 L 96.74 605.99 L 96.58 604.31 L 96.44 602.63 L 96.32 600.95 L 96.22 599.27 L 96.14 597.59 L 96.07 595.90 L 96.03 594.22 L 96.01 592.53 L 96.00 590.85 L 96.01 589.16 L 96.04 587.48 L 96.09 585.79 L 96.16 584.11 L 96.24 582.43 L 96.34 580.74 L 96.46 579.06 L 96.60 577.38 L 96.75 575.71 L 96.91 574.03 L 97.10 572.35 L 97.30 570.68 L 97.51 569.01 L 97.75 567.34 L 97.99 565.67 L 98.25 564.01 L 98.53 562.35 L 98.82 560.69 L 99.13 559.03 L 99.45 557.38 L 99.78 555.72 L 100.13 554.08 L 100.49 552.43 L 100.86 550.79 L 101.25 549.15 L 101.65 547.51 L 102.07 545.88 L 102.49 544.25 L 102.93 542.62 L 103.39 541.00 L 103.85 539.38 L 104.32 537.76 L 104.81 536.15 L 105.31 534.54 L 105.82 532.93 L 106.34 531.33 L 106.87 529.73 L 107.41 528.13 L 107.97 526.54 L 108.53 524.96 L 109.10 523.37 L 109.69 521.79 L 110.28 520.21 L 110.88 518.64 L 111.50 517.07 L 112.12 515.50 L 112.75 513.94 L 113.39 512.38 L 114.04 510.83 L 114.70 509.28 L 115.36 507.73 L 116.04 506.19 L 116.73 504.65 L 117.43 503.11 L 118.13 501.58 L 118.85 500.06 L 119.58 498.54 L 120.32 497.02 L 121.06 495.51 L 121.82 494.01 L 122.59 492.51 L 123.37 491.02 L 124.16 489.53 L 124.97 488.05 L 125.78 486.57 L 126.61 485.10 L 127.44 483.64 L 128.29 482.19 L 129.15 480.74 L 129.15 480.73" stroke="#02a5d5" stroke-width="10"/>
  <path class="sector" d="M 129.15 480.73 L 130.02 479.29 L 130.91 477.86 L 131.80 476.43 L 132.71 475.01 L 133.63 473.60 L 134.56 472.20 L 135.51 470.80 L 136.46 469.41 L 137.43 468.04 L 138.41 466.67 L 139.41 465.31 L 140.42 463.96 L 141.44 462.61 L 142.47 461.28 L 143.51 459.96 L 144.57 458.65 L 145.64 457.35 L 146.73 456.06 L 147.83 454.78 L 148.94 453.52 L 150.06 452.26 L 151.20 451.02 L 152.35 449.79 L 153.51 448.57 L 154.69 447.36 L 155.88 446.17 L 157.09 444.99 L 158.30 443.83 L 159.53 442.67 L 160.78 441.54 L 162.03 440.42 L 163.30 439.31 L 164.59 438.22 L 165.88 437.14 L 167.19 436.08 L 168.51 435.03 L 169.85 434.01 L 171.20 433.00 L 172.56 432.00 L 173.93 431.03 L 175.32 430.07 L 176.72 429.13 L 178.13 428.21 L 179.56 427.31 L 180.99 426.43 L 182.44 425.57 L 183.90 424.73 L 185.38 423.91 L 186.86 423.12 L 188.36 422.34 L 189.86 421.59 L 191.38 420.86 L 192.91 420.15 L 194.45 419.47 L 196.00 418.81 L 197.56 418.17 L 199.13 417.56 L 200.71 416.97 L 202.30 416.42 L 203.90 415.88 L 205.51 415.38 L 207.12 414.90 L 208.75 414.45 L 210.38 414.03 L 212.02 413.64 L 213.66 413.27 L 215.32 412.94 L 216.97 412.64 L 218.64 412.37 L 220.30 412.13 L 221.98 411.92 L 223.65 411.74 L 225.33 411.60 L 227.01 411.48 L 228.69 411.39 L 230.38 411.33 L 232.06 411.29 L 233.75 411.28 L 235.43 411.30 L 237.12 411.34 L 238.80 411.41 L 240.48 411.50 L 242.16 411.62 L 243.84 411.75 L 245.52 411.91 L 247.20 412.09 L 248.87 412.29 L 250.54 412.51 L 252.21 412.74 L 253.87 413.00 L 255.54 413.27 L 257.20 413.56 L 258.85 413.87 L 260.51 414.19 L 262.16 414.52 L 263.81 414.87 L 265.45 415.24 L 267.10 415.61 L 268.74 416.00 L 270.37 416.40 L 272.01 416.81 L 273.64 417.24 L 275.27 417.67 L 276.89 418.11 L 278.52 418.56 L 280.14 419.01 L 281.76 419.47 L 283.38 419.94 L 284.99 420.42 L 286.61 420.90 L 288.22 421.39 L 289.84 421.88 L 291.45 422.37 L 293.06 422.86 L 294.67 423.36 L 296.28 423.86 L 297.88 424.36 L 299.49 424.86 L 301.10 425.37 L 302.71 425.87 L 304.32 426.36 L 305.93 426.86 L 307.54 427.36 L 309.15 427.85 L 310.77 428.33 L 312.38 428.82 L 314.00 429.29 L 315.61 429.77 L 317.23 430.23 L 318.86 430.69 L 320.48 431.14 L 322.10 431.59 L 323.73 432.02 L 325.36 432.45 L 327.00 432.86 L 328.63 433.26 L 330.27 433.66 L 331.91 434.03 L 333.56 434.40 L 335.21 434.75 L 336.86 435.08 L 338.51 435.40 L 340.17 435.70 L 341.83 435.98 L 343.50 436.24 L 345.16 436.49 L 346.83 436.71 L 348.51 436.91 L 350.18 437.09 L 351.86 437.25 L 353.54 437.38 L 355.22 437.49 L 356.90 437.57 L 358.59 437.63 L 360.27 437.66 L 361.96 437.66 L 363.64 437.63 L 365.33 437.57 L 367.01 437.48 L 368.69 437.35 L 370.37 437.20 L 372.04 437.01 L 373.71 436.78 L 375.38 436.52 L 377.04 436.23 L 378.69 435.90 L 380.33 435.52 L 381.97 435.11 L 383.59 434.66 L 385.20 434.17 L 386.80 433.64 L 388.39 433.07 L 389.95 432.45 L 391.50 431.80 L 393.04 431.09 L 394.55 430.35 L 396.04 429.56 L 397.50 428.73 L 398.95 427.86 L 400.36 426.95 L 401.76 426.01 L 403.13 425.03 L 404.48 424.01 L 405.80 422.97 L 407.09 421.89 L 408.36 420.78 L 409.61 419.65 L 410.83 418.48 L 412.02 417.30 L 413.19 416.08 L 414.34 414.85 L 415.46 413.59 L 416.56 412.31 L 417.63 411.02 L 418.68 409.70 L 419.71 408.36 L 420.72 407.01 L 421.70 405.64 L 422.66 404.25 L 423.60 402.86 L 424.51 401.44 L 425.41 400.02 L 426.29 398.58 L 427.15 397.13 L 427.98 395.67 L 428.81 394.19 L 429.61 392.71 L 430.40 391.22 L 431.17 389.72 L 431.92 388.22 L 432.66 386.70 L 433.38 385.18 L 434.10 383.65 L 434.79 382.12 L 435.48 380.58 L 436.15 379.04 L 436.82 377.49 L 437.47 375.94 L 438.12 374.38 L 438.75 372.82 L 439.38 371.25 L 440.00 369.69 L 440.61 368.12 L 441.22 366.55 L 441.82 364.97 L 442.42 363.40 L 443.00 361.82 L 443.59 360.24 L 444.16 358.65 L 444.73 357.07 L 445.30 355.48 L 445.86 353.89 L 446.41 352.30 L 446.96 350.71 L 447.50 349.11 L 448.04 347.51 L 448.58 345.92 L 449.11 344.32 L 449.63 342.71 L 450.15 341.11 L 450.66 339.51 L 451.18 337.90 L 451.68 336.29 L 452.18 334.69 L 452.68 333.08 L 453.18 331.47 L 453.67 329.85 L 454.16 328.24 L 454.64 326.63 L 455.12 325.01 L 455.60 323.40 L 456.08 321.78 L 456.55 320.16 L 457.02 318.54 L 457.49 316.93 L 457.95 315.31 L 458.41 313.68 L 458.87 312.06 L 459.33 310.44 L 459.78 308.82 L 460.24 307.20 L 460.69 305.57 L 461.14 303.95 L 461.59 302.33 L 462.04 300.70 L 462.48 299.08 L 462.93 297.45 L 463.37 295.83 L 463.82 294.20 L 464.26 292.57 L 464.70 290.95 L 465.14 289.32 L 465.59 287.70 L 466.03 286.07 L 466.47 284.44 L 466.91 282.82 L 467.36 281.19 L 467.80 279.57 L 468.24 277.94 L 468.69 276.32 L 469.13 274.69 L 469.58 273.07 L 470.02 271.44 L 470.47 269.82 L 470.92 268.19 L 471.37 266.57 L 471.83 264.95 L 472.28 263.32 L 472.74 261.70 L 473.20 260.08 L 473.66 258.46 L 474.12 256.84 L 474.59 255.22 L 475.05 253.60 L 475.53 251.98 L 476.00 250.37 L 476.48 248.75 L 476.95 247.14 L 477.44 245.52 L 477.92 243.91 L 478.41 242.30 L 478.91 240.68 L 479.40 239.07 L 479.90 237.46 L 480.41 235.86 L 480.92 234.25 L 481.43 232.65 L 481.95 231.04 L 482.47 229.44 L 482.99 227.84 L 483.53 226.24 L 484.06 224.64 L 484.60 223.05 L 485.15 221.45 L 485.70 219.86 L 486.26 218.27 L 486.82 216.68 L 487.39 215.09 L 487.96 213.51 L 488.54 211.93 L 489.12 210.35 L 489.71 208.77 L 490.31 207.19 L 490.91 205.62 L 491.52 204.05 L 492.14 202.48 L 492.76 200.92 L 493.39 199.35 L 494.03 197.79 L 494.67 196.24 L 495.33 194.68 L 495.99 193.13 L 496.66 191.59 L 497.34 190.05 L 498.03 188.51 L 498.73 186.98 L 499.44 185.45 L 500.16 183.92 L 500.90 182.41 L 501.64 180.90 L 502.40 179.39 L 503.17 177.89 L 503.95 176.40 L 504.75 174.92 L 505.56 173.44 L 506.39 171.97 L 507.23 170.51 L 508.09 169.06 L 508.96 167.62 L 509.85 166.19 L 510.75 164.76 L 511.67 163.35 L 512.61 161.95 L 513.56 160.56 L 514.53 159.19 L 515.52 157.82 L 516.53 156.47 L 517.55 155.13 L 518.60 153.81 L 519.66 152.50 L 520.74 151.21 L 521.84 149.93 L 522.96 148.67 L 524.10 147.43 L 525.26 146.21 L 526.44 145.00 L 527.63 143.82 L 528.85 142.66 L 530.09 141.51 L 531.35 140.39 L 532.63 139.29 L 533.92 138.22 L 535.24 137.17 L 536.58 136.15 L 537.94 135.15 L 539.32 134.18 L 540.71 133.24 L 542.13 132.33 L 543.57 131.45 L 545.02 130.60 L 546.50 129.78 L 547.99 128.99 L 549.50 128.24 L 551.02 127.52 L 552.56 126.84 L 554.12 126.19 L 555.68 125.58 L 557.27 125.00 L 558.86 124.45 L 560.46 123.93 L 562.08 123.45 L 563.70 123.00 L 565.34 122.59 L 566.98 122.21 L 568.62 121.85 L 570.28 121.53 L 571.94 121.25 L 573.60 120.99 L 575.27 120.76 L 576.95 120.56 L 578.62 120.40 L 580.30 120.26 L 581.98 120.15 L 583.67 120.07 L 585.35 120.02 L 587.04 120.00 L 588.72 120.01 L 590.41 120.04 L 592.09 120.10 L 593.77 120.19 L 595.45 120.30 L 597.13 120.44 L 598.81 120.60 L 600.48 120.80 L 602.16 121.01 L 603.82 121.25 L 605.49 121.52 L 607.15 121.81 L 608.80 122.12 L 610.45 122.46 L 612.10 122.82 L 613.74 123.20 L 615.38 123.60 L 617.01 124.03 L 618.63 124.48 L 620.25 124.95 L 621.86 125.44 L 623.47 125.95 L 625.07 126.49 L 626.66 127.04 L 628.24 127.61 L 629.82 128.20 L 631.39 128.82 L 632.95 129.45 L 634.51 130.10 L 636.05 130.76 L 637.59 131.45 L 639.12 132.15 L 640.65 132.88 L 642.16 133.61 L 643.67 134.37 L 645.16 135.14 L 646.65 135.93 L 648.13 136.74 L 649.60 137.56 L 651.07 138.39 L 652.52 139.25 L 653.97 140.11 L 655.40 141.00 L 656.83 141.89 L 658.25 142.80 L 659.65 143.73 L 661.05 144.67 L 662.44 145.62 L 663.82 146.59 L 665.19 147.57 L 666.56 148.56 L 667.91 149.56 L 669.25 150.58 L 670.59 151.61 L 671.91 152.65 L 673.23 153.70 L 674.53 154.77 L 675.83 155.85 L 677.11 156.93 L 678.39 158.03 L 679.66 159.14 L 680.92 160.26 L 682.17 161.39 L 683.41 162.53 L 684.64 163.68 L 685.86 164.85 L 687.07 166.02 L 688.28 167.20 L 689.47 168.38 L 690.65 169.58 L 691.83 170.79 L 693.00 172.01 L 694.16 173.23 L 695.30 174.46 L 696.44 175.70 L 697.57 176.95 L 698.70 178.21 L 699.81 179.47 L 700.91 180.75 L 702.01 182.03 L 703.10 183.31 L 704.18 184.61 L 705.25 185.91 L 706.31 187.22 L 707.36 188.54 L 708.41 189.86 L 709.44 191.19 L 710.47 192.52 L 711.49 193.86 L 712.50 195.21 L 713.51 196.56 L 714.50 197.92 L 715.49 199.28 L 716.47 200.65 L 717.45 202.03 L 718.41 203.41 L 719.37 204.80 L 720.32 206.19 L 721.27 207.58 L 722.20 208.98 L 723.13 210.39 L 724.05 211.80 L 724.97 213.22 L 725.88 214.64 L 726.78 216.06 L 727.67 217.49 L 728.56 218.92 L 729.44 220.35 L 730.32 221.79 L 731.18 223.24 L 732.05 224.69 L 732.90 226.14 L 733.75 227.59 L 734.60 229.05 L 735.44 230.51 L 736.27 231.98 L 737.10 233.44 L 737.92 234.92 L 738.74 236.39 L 739.55 237.87 L 740.35 239.35 L 741.15 240.83 L 741.95 242.31 L 742.74 243.80 L 743.53 245.29 L 744.31 246.79 L 745.08 248.28 L 745.86 249.78 L 746.62 251.28 L 747.39 252.78 L 748.15 254.28 L 748.90 255.79 L 749.65 257.30 L 750.40 258.81 L 751.15 260.32 L 751.89 261.83 L 752.63 263.35 L 753.36 264.87 L 754.09 266.38 L 754.82 267.90 L 755.54 269.42 L 756.27 270.95 L 756.98 272.47 L 757.70 274.00 L 758.42 275.52 L 759.13 277.05 L 759.84 278.58 L 760.54 280.11 L 761.25 281.64 L 761.95 283.17 L 762.66 284.70 L 763.36 286.23 L 764.05 287.77 L 764.75 289.30 L 765.45 290.83 L 766.14 292.37 L 766.84 293.91 L 767.53 295.44 L 768.22 296.98 L 768.91 298.51 L 769.61 300.05 L 770.30 301.59 L 770.99 303.12 L 771.68 304.66 L 772.37 306.20 L 773.06 307.74 L 773.75 309.27 L 774.44 310.81 L 775.13 312.35 L 775.82 313.88 L 776.51 315.42 L 777.20 316.96 L 777.89 318.49 L 778.58 320.03 L 779.27 321.57 L 779.96 323.11 L 780.65 324.64 L 781.34 326.18 L 782.03 327.72" stroke="#eecc03" stroke-width="10"/>
  <line class="start-line-outline" x1="802.12" y1="318.75" x2="761.94" y2="336.69"/>
  <line class="start-line-inner" x1="802.12" y1="318.75" x2="761.94" y2="336.69"/>
  <line class="arrow-shaft" x1="750.98" y1="341.58" x2="757.67" y2="356.56"/>
  <polygon class="arrow-head" points="760.76,363.50 751.66,358.80 763.35,353.58"/>
  <circle class="marker" cx="830.99" cy="500.68" r="18"/>
  <text class="marker-text" x="830.99" y="501.18">01</text>
  <circle class="marker" cx="536.28" cy="523.97" r="18"/>
  <text class="marker-text" x="536.28" y="524.47">02</text>
  <circle class="marker" cx="765.48" cy="444.84" r="18"/>
  <text class="marker-text" x="765.48" y="445.34">03</text>
  <circle class="marker" cx="609.61" cy="265.74" r="18"/>
  <text class="marker-text" x="609.61" y="266.24">04</text>
  <circle class="marker" cx="342.70" cy="699.13" r="18"/>
  <text class="marker-text" x="342.70" y="699.63">05</text>
  <circle class="marker" cx="84.82" cy="637.95" r="18"/>
  <text class="marker-text" x="84.82" y="638.45">06</text>
  <circle class="marker" cx="208.28" cy="449.77" r="18"/>
  <text class="marker-text" x="208.28" y="450.27">07</text>
  <circle class="marker" cx="409.16" cy="397.24" r="18"/>
  <text class="marker-text" x="409.16" y="397.74">08</text>
  <circle class="marker" cx="533.15" cy="161.99" r="18"/>
  <text class="marker-text" x="533.15" y="162.49">09</text>
  <text class="label" x="749.76" y="564.66">Paddock Hill Bend</text>
  <text class="label" x="593.22" y="518.50">Druids</text>
  <text class="label" x="685.23" y="503.16">Graham Hill Bend</text>
  <text class="label" x="616.76" y="228.93">Surtees</text>
  <text class="label" x="330.67" y="734.65">Hawthorn Bend</text>
  <text class="label" x="159.21" y="690.02">Westfield Bend</text>
  <text class="label" x="215.32" y="412.94">Sheene Curve</text>
  <text class="label" x="393.04" y="431.09">Stirling's</text>
  <text class="label" x="549.50" y="128.24">Clark Curve</text>
</svg>
