<svg xmlns="http://www.w3.org/2000/svg" width="1240" height="860" viewBox="0 0 1240 860" fill="none">
  <style>
    .title { font: 700 34px Inter, Arial, sans-serif; fill: #111111; }
    .track { fill: none; stroke-linejoin: round; stroke-linecap: round; }
    .sector { fill: none; stroke-linejoin: round; stroke-linecap: butt; }
    .marker { fill: #2e3448; stroke: #2e3448; stroke-width: 1.5; }
    .marker-text { font: 700 15px Inter, Arial, sans-serif; fill: #ffffff; text-anchor: middle; dominant-baseline: middle; }
    .label { font: 600 18px Inter, Arial, sans-serif; fill: #111111; paint-order: stroke; stroke: #ffffff; stroke-width: 5px; stroke-linejoin: round; }
    .start-line-outline { stroke: #121528; stroke-width: 8; stroke-linecap: round; }
    .start-line-inner { stroke: #ffffff; stroke-width: 4; stroke-linecap: round; }
    .arrow-shaft { stroke: #121528; stroke-width: 4; stroke-linecap: round; }
    .arrow-head { fill: #121528; }
  </style>
  <rect width="1240" height="860" fill="#ffffff"/>
  <text class="title" x="96" y="62">Brands Hatch</text>
  <path class="track" d="M 763.25 333.83 L 764.80 337.28 L 766.32 340.74 L 767.83 344.21 L 769.33 347.69 L 770.81 351.17 L 772.28 354.66 L 773.74 358.15 L 775.20 361.64 L 776.66 365.13 L 778.12 368.63 L 779.58 372.12 L 781.05 375.61 L 782.52 379.10 L 784.01 382.58 L 785.50 386.07 L 786.98 389.55 L 788.45 393.04 L 789.92 396.53 L 791.35 400.03 L 792.77 403.54 L 794.15 407.06 L 795.49 410.60 L 796.78 414.15 L 798.03 417.71 L 799.22 421.30 L 800.34 424.91 L 801.41 428.55 L 802.41 432.20 L 803.36 435.86 L 804.25 439.55 L 805.08 443.25 L 805.86 446.96 L 806.54 450.68 L 807.06 454.41 L 807.34 458.16 L 807.40 461.93 L 807.36 465.71 L 807.35 469.50 L 807.41 473.30 L 807.50 477.10 L 807.56 480.90 L 807.55 484.69 L 807.43 488.46 L 807.13 492.20 L 806.65 495.91 L 805.96 499.61 L 805.06 503.29 L 803.96 506.95 L 802.65 510.54 L 801.14 514.03 L 799.45 517.40 L 797.56 520.64 L 795.48 523.75 L 793.21 526.73 L 790.75 529.57 L 788.10 532.27 L 785.27 534.83 L 782.29 537.23 L 779.20 539.45 L 776.02 541.47 L 772.73 543.27 L 769.33 544.83 L 765.80 546.14 L 762.18 547.30 L 758.53 548.39 L 754.89 549.48 L 751.25 550.52 L 747.59 551.46 L 743.90 552.23 L 740.18 552.86 L 736.43 553.36 L 732.67 553.76 L 728.89 554.07 L 725.11 554.32 L 721.33 554.53 L 717.55 554.70 L 713.77 554.85 L 709.98 554.98 L 706.20 555.12 L 702.42 555.26 L 698.64 555.41 L 694.85 555.57 L 691.07 555.73 L 687.29 555.86 L 683.51 555.96 L 679.73 556.01 L 675.95 555.99 L 672.17 555.92 L 668.39 555.78 L 664.61 555.60 L 660.83 555.37 L 657.05 555.11 L 653.27 554.82 L 649.50 554.50 L 645.72 554.16 L 641.95 553.82 L 638.18 553.46 L 634.41 553.11 L 630.65 552.77 L 626.88 552.43 L 623.12 552.09 L 619.35 551.76 L 615.59 551.43 L 611.83 551.09 L 608.06 550.74 L 604.29 550.39 L 600.52 550.02 L 596.75 549.64 L 592.97 549.24 L 589.18 548.82 L 585.39 548.38 L 581.63 547.84 L 577.96 547.04 L 574.44 545.83 L 571.16 544.10 L 568.16 541.90 L 565.51 539.25 L 563.22 536.24 L 561.22 532.96 L 559.47 529.52 L 557.99 525.99 L 557.00 522.41 L 556.75 518.79 L 557.33 515.19 L 558.66 511.73 L 560.64 508.50 L 563.17 505.60 L 566.13 503.11 L 569.38 501.12 L 572.81 499.68 L 576.38 498.71 L 580.05 498.12 L 583.81 497.81 L 587.60 497.69 L 591.42 497.65 L 595.23 497.62 L 599.03 497.59 L 602.82 497.56 L 606.61 497.53 L 610.39 497.51 L 614.16 497.49 L 617.94 497.47 L 621.72 497.46 L 625.49 497.46 L 629.27 497.47 L 633.05 497.49 L 636.84 497.52 L 640.63 497.56 L 644.43 497.58 L 648.22 497.58 L 652.01 497.53 L 655.80 497.40 L 659.58 497.17 L 663.34 496.83 L 667.09 496.37 L 670.82 495.77 L 674.51 495.02 L 678.17 494.13 L 681.78 493.08 L 685.34 491.87 L 688.87 490.52 L 692.37 489.09 L 695.86 487.61 L 699.37 486.13 L 702.90 484.70 L 706.47 483.36 L 710.05 482.05 L 713.59 480.68 L 717.02 479.16 L 720.30 477.40 L 723.37 475.29 L 726.17 472.76 L 728.63 469.84 L 730.64 466.59 L 732.13 463.12 L 733.07 459.48 L 733.49 455.76 L 733.42 452.01 L 732.94 448.28 L 732.21 444.55 L 731.36 440.84 L 730.52 437.14 L 729.69 433.45 L 728.86 429.76 L 728.01 426.08 L 727.14 422.39 L 726.27 418.71 L 725.40 415.03 L 724.52 411.35 L 723.64 407.67 L 722.77 403.99 L 721.91 400.30 L 721.06 396.62 L 720.22 392.92 L 719.40 389.22 L 718.60 385.52 L 717.81 381.81 L 717.02 378.10 L 716.19 374.41 L 715.31 370.73 L 714.36 367.07 L 713.31 363.44 L 712.15 359.85 L 710.89 356.29 L 709.53 352.76 L 708.10 349.26 L 706.62 345.77 L 705.09 342.31 L 703.53 338.86 L 701.95 335.42 L 700.35 331.99 L 698.73 328.57 L 697.10 325.15 L 695.45 321.75 L 693.79 318.35 L 692.13 314.95 L 690.46 311.55 L 688.79 308.16 L 687.12 304.76 L 685.45 301.36 L 683.79 297.96 L 682.14 294.55 L 680.48 291.14 L 678.82 287.74 L 677.14 284.34 L 675.45 280.96 L 673.74 277.58 L 671.99 274.22 L 670.22 270.88 L 668.40 267.56 L 666.54 264.27 L 664.63 261.00 L 662.67 257.76 L 660.64 254.57 L 658.52 251.43 L 656.29 248.40 L 653.92 245.48 L 651.39 242.72 L 648.67 240.13 L 645.76 237.72 L 642.68 235.50 L 639.47 233.44 L 636.16 231.53 L 632.77 229.74 L 629.34 228.07 L 625.89 226.55 L 622.37 225.36 L 618.77 224.66 L 615.06 224.56 L 611.28 224.92 L 607.48 225.51 L 603.71 226.16 L 600.01 226.92 L 596.40 227.93 L 592.92 229.34 L 589.61 231.15 L 586.50 233.31 L 583.63 235.77 L 581.02 238.47 L 578.65 241.40 L 576.51 244.52 L 574.61 247.78 L 572.92 251.17 L 571.45 254.64 L 570.16 258.19 L 569.01 261.79 L 567.96 265.42 L 566.97 269.08 L 566.00 272.75 L 565.02 276.41 L 564.01 280.06 L 562.99 283.71 L 561.96 287.35 L 560.91 290.99 L 559.85 294.62 L 558.80 298.26 L 557.74 301.89 L 556.69 305.52 L 555.64 309.16 L 554.61 312.80 L 553.59 316.44 L 552.59 320.09 L 551.61 323.75 L 550.64 327.41 L 549.68 331.07 L 548.74 334.74 L 547.80 338.41 L 546.86 342.08 L 545.92 345.74 L 544.97 349.41 L 544.01 353.07 L 543.05 356.73 L 542.07 360.39 L 541.06 364.04 L 540.05 367.68 L 539.01 371.32 L 537.96 374.95 L 536.90 378.58 L 535.83 382.22 L 534.75 385.85 L 533.66 389.48 L 532.52 393.09 L 531.26 396.66 L 529.86 400.17 L 528.34 403.64 L 526.75 407.07 L 525.12 410.48 L 523.46 413.88 L 521.77 417.26 L 520.05 420.63 L 518.32 423.99 L 516.56 427.35 L 514.79 430.69 L 513.01 434.03 L 511.22 437.37 L 509.42 440.70 L 507.61 444.03 L 505.81 447.36 L 504.00 450.69 L 502.20 454.02 L 500.40 457.35 L 498.60 460.68 L 496.81 464.01 L 495.01 467.34 L 493.22 470.68 L 491.43 474.01 L 489.63 477.34 L 487.85 480.68 L 486.06 484.02 L 484.27 487.35 L 482.49 490.69 L 480.70 494.03 L 478.92 497.37 L 477.14 500.71 L 475.36 504.05 L 473.58 507.39 L 471.81 510.73 L 470.03 514.07 L 468.26 517.42 L 466.49 520.76 L 464.72 524.11 L 462.95 527.45 L 461.18 530.80 L 459.41 534.15 L 457.65 537.50 L 455.89 540.85 L 454.12 544.20 L 452.36 547.55 L 450.60 550.90 L 448.84 554.25 L 447.08 557.60 L 445.32 560.95 L 443.56 564.30 L 441.80 567.66 L 440.04 571.01 L 438.29 574.36 L 436.53 577.71 L 434.77 581.07 L 433.01 584.42 L 431.25 587.77 L 429.49 591.12 L 427.73 594.47 L 425.97 597.82 L 424.21 601.18 L 422.45 604.53 L 420.69 607.88 L 418.93 611.22 L 417.16 614.57 L 415.40 617.92 L 413.63 621.27 L 411.86 624.61 L 410.09 627.96 L 408.31 631.30 L 406.54 634.64 L 404.76 637.98 L 402.98 641.32 L 401.19 644.65 L 399.40 647.99 L 397.60 651.32 L 395.80 654.65 L 394.00 657.98 L 392.19 661.30 L 390.38 664.63 L 388.56 667.95 L 386.73 671.26 L 384.90 674.58 L 383.07 677.89 L 381.22 681.20 L 379.37 684.50 L 377.51 687.80 L 375.65 691.10 L 373.77 694.39 L 371.86 697.66 L 369.88 700.88 L 367.82 704.03 L 365.63 707.10 L 363.30 710.06 L 360.80 712.90 L 358.15 715.62 L 355.40 718.25 L 352.59 720.82 L 349.76 723.33 L 346.84 725.72 L 343.81 727.95 L 340.64 730.00 L 337.36 731.86 L 333.98 733.53 L 330.50 735.02 L 326.95 736.31 L 323.32 737.41 L 319.64 738.32 L 315.92 739.03 L 312.16 739.55 L 308.39 739.87 L 304.61 740.00 L 300.83 739.93 L 297.07 739.66 L 293.32 739.21 L 289.60 738.59 L 285.90 737.81 L 282.23 736.90 L 278.59 735.86 L 274.99 734.70 L 271.42 733.46 L 267.87 732.13 L 264.34 730.75 L 260.82 729.34 L 257.32 727.90 L 253.81 726.47 L 250.30 725.04 L 246.80 723.62 L 243.29 722.20 L 239.79 720.78 L 236.28 719.36 L 232.78 717.94 L 229.27 716.52 L 225.77 715.10 L 222.26 713.68 L 218.75 712.26 L 215.25 710.83 L 211.74 709.40 L 208.23 707.97 L 204.73 706.53 L 201.22 705.08 L 197.72 703.64 L 194.22 702.18 L 190.72 700.73 L 187.22 699.26 L 183.73 697.80 L 180.24 696.33 L 176.76 694.85 L 173.28 693.37 L 169.81 691.88 L 166.34 690.39 L 162.87 688.89 L 159.41 687.39 L 155.95 685.89 L 152.48 684.39 L 149.01 682.89 L 145.53 681.40 L 142.05 679.90 L 138.56 678.41 L 135.06 676.93 L 131.54 675.45 L 128.01 673.98 L 124.50 672.48 L 121.05 670.89 L 117.73 669.14 L 114.59 667.16 L 111.68 664.88 L 109.06 662.23 L 106.79 659.19 L 104.94 655.83 L 103.58 652.27 L 102.75 648.60 L 102.29 644.86 L 101.99 641.09 L 101.67 637.32 L 101.33 633.54 L 100.97 629.77 L 100.59 626.00 L 100.20 622.23 L 99.81 618.46 L 99.41 614.71 L 99.02 610.95 L 98.61 607.20 L 98.21 603.44 L 97.79 599.68 L 97.37 595.91 L 96.95 592.14 L 96.56 588.35 L 96.24 584.57 L 96.05 580.79 L 96.00 577.01 L 96.15 573.25 L 96.53 569.51 L 97.15 565.80 L 98.01 562.13 L 99.11 558.52 L 100.39 554.96 L 101.79 551.44 L 103.22 547.93 L 104.66 544.42 L 106.11 540.92 L 107.55 537.42 L 109.01 533.92 L 110.46 530.43 L 111.90 526.93 L 113.34 523.43 L 114.77 519.92 L 116.18 516.42 L 117.59 512.90 L 118.97 509.38 L 120.34 505.85 L 121.69 502.32 L 123.06 498.79 L 124.45 495.27 L 125.88 491.76 L 127.37 488.28 L 128.93 484.83 L 130.57 481.42 L 132.31 478.06 L 134.15 474.75 L 136.09 471.51 L 138.15 468.35 L 140.32 465.27 L 142.62 462.28 L 145.03 459.38 L 147.54 456.56 L 150.14 453.81 L 152.82 451.13 L 155.56 448.51 L 158.37 445.95 L 161.23 443.44 L 164.12 440.98 L 167.04 438.57 L 169.98 436.18 L 172.93 433.83 L 175.88 431.50 L 178.83 429.18 L 181.77 426.85 L 184.71 424.49 L 187.64 422.08 L 190.57 419.62 L 193.49 417.11 L 196.43 414.62 L 199.44 412.25 L 202.54 410.11 L 205.78 408.29 L 209.18 406.90 L 212.77 406.00 L 216.50 405.55 L 220.29 405.45 L 224.07 405.62 L 227.85 405.96 L 231.62 406.34 L 235.40 406.67 L 239.19 406.97 L 242.97 407.26 L 246.75 407.57 L 250.51 407.93 L 254.27 408.38 L 258.00 408.94 L 261.71 409.61 L 265.40 410.37 L 269.08 411.21 L 272.75 412.13 L 276.40 413.10 L 280.05 414.12 L 283.69 415.18 L 287.33 416.27 L 290.96 417.36 L 294.59 418.46 L 298.22 419.55 L 301.86 420.61 L 305.50 421.66 L 309.15 422.68 L 312.80 423.69 L 316.45 424.68 L 320.10 425.67 L 323.75 426.65 L 327.40 427.62 L 331.06 428.60 L 334.71 429.58 L 338.36 430.57 L 342.00 431.56 L 345.65 432.57 L 349.29 433.59 L 352.94 434.59 L 356.60 435.57 L 360.28 436.50 L 363.98 437.37 L 367.70 438.17 L 371.44 438.84 L 375.19 439.31 L 378.92 439.48 L 382.61 439.25 L 386.23 438.54 L 389.76 437.26 L 393.14 435.36 L 396.23 432.97 L 398.88 430.17 L 401.01 427.08 L 402.77 423.80 L 404.35 420.41 L 405.88 416.99 L 407.39 413.54 L 408.87 410.06 L 410.33 406.57 L 411.77 403.07 L 413.21 399.56 L 414.64 396.05 L 416.07 392.54 L 417.49 389.03 L 418.91 385.52 L 420.33 382.00 L 421.74 378.49 L 423.15 374.97 L 424.55 371.46 L 425.96 367.94 L 427.36 364.42 L 428.76 360.91 L 430.15 357.39 L 431.55 353.87 L 432.94 350.35 L 434.34 346.83 L 435.73 343.32 L 437.13 339.80 L 438.52 336.28 L 439.91 332.76 L 441.31 329.24 L 442.70 325.73 L 444.10 322.21 L 445.50 318.69 L 446.90 315.18 L 448.30 311.66 L 449.71 308.15 L 451.12 304.64 L 452.53 301.12 L 453.94 297.61 L 455.35 294.10 L 456.77 290.59 L 458.18 287.08 L 459.60 283.57 L 461.02 280.06 L 462.44 276.55 L 463.86 273.04 L 465.28 269.53 L 466.70 266.02 L 468.12 262.51 L 469.54 259.00 L 470.97 255.49 L 472.39 251.99 L 473.81 248.48 L 475.23 244.97 L 476.66 241.46 L 478.08 237.95 L 479.50 234.45 L 480.92 230.94 L 482.34 227.43 L 483.76 223.92 L 485.18 220.41 L 486.60 216.90 L 488.01 213.39 L 489.43 209.88 L 490.84 206.37 L 492.26 202.86 L 493.67 199.35 L 495.09 195.84 L 496.50 192.33 L 497.91 188.82 L 499.32 185.31 L 500.73 181.79 L 502.13 178.28 L 503.53 174.76 L 504.92 171.24 L 506.29 167.71 L 507.65 164.17 L 509.00 160.63 L 510.39 157.10 L 511.85 153.62 L 513.43 150.19 L 515.17 146.85 L 517.13 143.62 L 519.32 140.53 L 521.76 137.64 L 524.44 135.01 L 527.37 132.69 L 530.49 130.64 L 533.77 128.80 L 537.16 127.10 L 540.63 125.55 L 544.17 124.16 L 547.77 122.95 L 551.42 121.93 L 555.12 121.12 L 558.84 120.54 L 562.59 120.17 L 566.34 120.00 L 570.11 120.02 L 573.88 120.22 L 577.64 120.57 L 581.40 121.07 L 585.13 121.69 L 588.86 122.41 L 592.57 123.21 L 596.26 124.06 L 599.94 124.93 L 603.61 125.83 L 607.25 126.77 L 610.86 127.83 L 614.43 129.07 L 617.95 130.49 L 621.42 132.04 L 624.84 133.68 L 628.20 135.40 L 631.53 137.16 L 634.85 138.97 L 638.16 140.81 L 641.46 142.68 L 644.74 144.59 L 647.98 146.55 L 651.18 148.56 L 654.33 150.63 L 657.42 152.79 L 660.45 155.04 L 663.40 157.40 L 666.27 159.86 L 669.06 162.42 L 671.79 165.06 L 674.44 167.78 L 677.03 170.56 L 679.56 173.39 L 682.02 176.27 L 684.43 179.19 L 686.78 182.15 L 689.07 185.16 L 691.31 188.19 L 693.50 191.27 L 695.64 194.38 L 697.74 197.52 L 699.78 200.69 L 701.79 203.89 L 703.75 207.12 L 705.68 210.38 L 707.57 213.65 L 709.42 216.96 L 711.24 220.28 L 713.02 223.62 L 714.78 226.98 L 716.51 230.35 L 718.22 233.74 L 719.90 237.13 L 721.56 240.54 L 723.20 243.96 L 724.82 247.39 L 726.43 250.82 L 728.02 254.25 L 729.60 257.69 L 731.16 261.13 L 732.72 264.58 L 734.26 268.03 L 735.80 271.48 L 737.32 274.94 L 738.84 278.40 L 740.35 281.87 L 741.85 285.34 L 743.34 288.82 L 744.83 292.30 L 746.32 295.78 L 747.80 299.27 L 749.28 302.75 L 750.78 306.24 L 752.29 309.71 L 753.81 313.18 L 755.36 316.64 L 756.93 320.08 L 758.51 323.52 L 760.10 326.95 L 761.68 330.39 L 763.25 333.83" stroke="#121528" stroke-width="34"/>
  <path class="track" d="M 763.25 333.83 L 764.80 337.28 L 766.32 340.74 L 767.83 344.21 L 769.33 347.69 L 770.81 351.17 L 772.28 354.66 L 773.74 358.15 L 775.20 361.64 L 776.66 365.13 L 778.12 368.63 L 779.58 372.12 L 781.05 375.61 L 782.52 379.10 L 784.01 382.58 L 785.50 386.07 L 786.98 389.55 L 788.45 393.04 L 789.92 396.53 L 791.35 400.03 L 792.77 403.54 L 794.15 407.06 L 795.49 410.60 L 796.78 414.15 L 798.03 417.71 L 799.22 421.30 L 800.34 424.91 L 801.41 428.55 L 802.41 432.20 L 803.36 435.86 L 804.25 439.55 L 805.08 443.25 L 805.86 446.96 L 806.54 450.68 L 807.06 454.41 L 807.34 458.16 L 807.40 461.93 L 807.36 465.71 L 807.35 469.50 L 807.41 473.30 L 807.50 477.10 L 807.56 480.90 L 807.55 484.69 L 807.43 488.46 L 807.13 492.20 L 806.65 495.91 L 805.96 499.61 L 805.06 503.29 L 803.96 506.95 L 802.65 510.54 L 801.14 514.03 L 799.45 517.40 L 797.56 520.64 L 795.48 523.75 L 793.21 526.73 L 790.75 529.57 L 788.10 532.27 L 785.27 534.83 L 782.29 537.23 L 779.20 539.45 L 776.02 541.47 L 772.73 543.27 L 769.33 544.83 L 765.80 546.14 L 762.18 547.30 L 758.53 548.39 L 754.89 549.48 L 751.25 550.52 L 747.59 551.46 L 743.90 552.23 L 740.18 552.86 L 736.43 553.36 L 732.67 553.76 L 728.89 554.07 L 725.11 554.32 L 721.33 554.53 L 717.55 554.70 L 713.77 554.85 L 709.98 554.98 L 706.20 555.12 L 702.42 555.26 L 698.64 555.41 L 694.85 555.57 L 691.07 555.73 L 687.29 555.86 L 683.51 555.96 L 679.73 556.01 L 675.95 555.99 L 672.17 555.92 L 668.39 555.78 L 664.61 555.60 L 660.83 555.37 L 657.05 555.11 L 653.27 554.82 L 649.50 554.50 L 645.72 554.16 L 641.95 553.82 L 638.18 553.46 L 634.41 553.11 L 630.65 552.77 L 626.88 552.43 L 623.12 552.09 L 619.35 551.76 L 615.59 551.43 L 611.83 551.09 L 608.06 550.74 L 604.29 550.39 L 600.52 550.02 L 596.75 549.64 L 592.97 549.24 L 589.18 548.82 L 585.39 548.38 L 581.63 547.84 L 577.96 547.04 L 574.44 545.83 L 571.16 544.10 L 568.16 541.90 L 565.51 539.25 L 563.22 536.24 L 561.22 532.96 L 559.47 529.52 L 557.99 525.99 L 557.00 522.41 L 556.75 518.79 L 557.33 515.19 L 558.66 511.73 L 560.64 508.50 L 563.17 505.60 L 566.13 503.11 L 569.38 501.12 L 572.81 499.68 L 576.38 498.71 L 580.05 498.12 L 583.81 497.81 L 587.60 497.69 L 591.42 497.65 L 595.23 497.62 L 599.03 497.59 L 602.82 497.56 L 606.61 497.53 L 610.39 497.51 L 614.16 497.49 L 617.94 497.47 L 621.72 497.46 L 625.49 497.46 L 629.27 497.47 L 633.05 497.49 L 636.84 497.52 L 640.63 497.56 L 644.43 497.58 L 648.22 497.58 L 652.01 497.53 L 655.80 497.40 L 659.58 497.17 L 663.34 496.83 L 667.09 496.37 L 670.82 495.77 L 674.51 495.02 L 678.17 494.13 L 681.78 493.08 L 685.34 491.87 L 688.87 490.52 L 692.37 489.09 L 695.86 487.61 L 699.37 486.13 L 702.90 484.70 L 706.47 483.36 L 710.05 482.05 L 713.59 480.68 L 717.02 479.16 L 720.30 477.40 L 723.37 475.29 L 726.17 472.76 L 728.63 469.84 L 730.64 466.59 L 732.13 463.12 L 733.07 459.48 L 733.49 455.76 L 733.42 452.01 L 732.94 448.28 L 732.21 444.55 L 731.36 440.84 L 730.52 437.14 L 729.69 433.45 L 728.86 429.76 L 728.01 426.08 L 727.14 422.39 L 726.27 418.71 L 725.40 415.03 L 724.52 411.35 L 723.64 407.67 L 722.77 403.99 L 721.91 400.30 L 721.06 396.62 L 720.22 392.92 L 719.40 389.22 L 718.60 385.52 L 717.81 381.81 L 717.02 378.10 L 716.19 374.41 L 715.31 370.73 L 714.36 367.07 L 713.31 363.44 L 712.15 359.85 L 710.89 356.29 L 709.53 352.76 L 708.10 349.26 L 706.62 345.77 L 705.09 342.31 L 703.53 338.86 L 701.95 335.42 L 700.35 331.99 L 698.73 328.57 L 697.10 325.15 L 695.45 321.75 L 693.79 318.35 L 692.13 314.95 L 690.46 311.55 L 688.79 308.16 L 687.12 304.76 L 685.45 301.36 L 683.79 297.96 L 682.14 294.55 L 680.48 291.14 L 678.82 287.74 L 677.14 284.34 L 675.45 280.96 L 673.74 277.58 L 671.99 274.22 L 670.22 270.88 L 668.40 267.56 L 666.54 264.27 L 664.63 261.00 L 662.67 257.76 L 660.64 254.57 L 658.52 251.43 L 656.29 248.40 L 653.92 245.48 L 651.39 242.72 L 648.67 240.13 L 645.76 237.72 L 642.68 235.50 L 639.47 233.44 L 636.16 231.53 L 632.77 229.74 L 629.34 228.07 L 625.89 226.55 L 622.37 225.36 L 618.77 224.66 L 615.06 224.56 L 611.28 224.92 L 607.48 225.51 L 603.71 226.16 L 600.01 226.92 L 596.40 227.93 L 592.92 229.34 L 589.61 231.15 L 586.50 233.31 L 583.63 235.77 L 581.02 238.47 L 578.65 241.40 L 576.51 244.52 L 574.61 247.78 L 572.92 251.17 L 571.45 254.64 L 570.16 258.19 L 569.01 261.79 L 567.96 265.42 L 566.97 269.08 L 566.00 272.75 L 565.02 276.41 L 564.01 280.06 L 562.99 283.71 L 561.96 287.35 L 560.91 290.99 L 559.85 294.62 L 558.80 298.26 L 557.74 301.89 L 556.69 305.52 L 555.64 309.16 L 554.61 312.80 L 553.59 316.44 L 552.59 320.09 L 551.61 323.75 L 550.64 327.41 L 549.68 331.07 L 548.74 334.74 L 547.80 338.41 L 546.86 342.08 L 545.92 345.74 L 544.97 349.41 L 544.01 353.07 L 543.05 356.73 L 542.07 360.39 L 541.06 364.04 L 540.05 367.68 L 539.01 371.32 L 537.96 374.95 L 536.90 378.58 L 535.83 382.22 L 534.75 385.85 L 533.66 389.48 L 532.52 393.09 L 531.26 396.66 L 529.86 400.17 L 528.34 403.64 L 526.75 407.07 L 525.12 410.48 L 523.46 413.88 L 521.77 417.26 L 520.05 420.63 L 518.32 423.99 L 516.56 427.35 L 514.79 430.69 L 513.01 434.03 L 511.22 437.37 L 509.42 440.70 L 507.61 444.03 L 505.81 447.36 L 504.00 450.69 L 502.20 454.02 L 500.40 457.35 L 498.60 460.68 L 496.81 464.01 L 495.01 467.34 L 493.22 470.68 L 491.43 474.01 L 489.63 477.34 L 487.85 480.68 L 486.06 484.02 L 484.27 487.35 L 482.49 490.69 L 480.70 494.03 L 478.92 497.37 L 477.14 500.71 L 475.36 504.05 L 473.58 507.39 L 471.81 510.73 L 470.03 514.07 L 468.26 517.42 L 466.49 520.76 L 464.72 524.11 L 462.95 527.45 L 461.18 530.80 L 459.41 534.15 L 457.65 537.50 L 455.89 540.85 L 454.12 544.20 L 452.36 547.55 L 450.60 550.90 L 448.84 554.25 L 447.08 557.60 L 445.32 560.95 L 443.56 564.30 L 441.80 567.66 L 440.04 571.01 L 438.29 574.36 L 436.53 577.71 L 434.77 581.07 L 433.01 584.42 L 431.25 587.77 L 429.49 591.12 L 427.73 594.47 L 425.97 597.82 L 424.21 601.18 L 422.45 604.53 L 420.69 607.88 L 418.93 611.22 L 417.16 614.57 L 415.40 617.92 L 413.63 621.27 L 411.86 624.61 L 410.09 627.96 L 408.31 631.30 L 406.54 634.64 L 404.76 637.98 L 402.98 641.32 L 401.19 644.65 L 399.40 647.99 L 397.60 651.32 L 395.80 654.65 L 394.00 657.98 L 392.19 661.30 L 390.38 664.63 L 388.56 667.95 L 386.73 671.26 L 384.90 674.58 L 383.07 677.89 L 381.22 681.20 L 379.37 684.50 L 377.51 687.80 L 375.65 691.10 L 373.77 694.39 L 371.86 697.66 L 369.88 700.88 L 367.82 704.03 L 365.63 707.10 L 363.30 710.06 L 360.80 712.90 L 358.15 715.62 L 355.40 718.25 L 352.59 720.82 L 349.76 723.33 L 346.84 725.72 L 343.81 727.95 L 340.64 730.00 L 337.36 731.86 L 333.98 733.53 L 330.50 735.02 L 326.95 736.31 L 323.32 737.41 L 319.64 738.32 L 315.92 739.03 L 312.16 739.55 L 308.39 739.87 L 304.61 740.00 L 300.83 739.93 L 297.07 739.66 L 293.32 739.21 L 289.60 738.59 L 285.90 737.81 L 282.23 736.90 L 278.59 735.86 L 274.99 734.70 L 271.42 733.46 L 267.87 732.13 L 264.34 730.75 L 260.82 729.34 L 257.32 727.90 L 253.81 726.47 L 250.30 725.04 L 246.80 723.62 L 243.29 722.20 L 239.79 720.78 L 236.28 719.36 L 232.78 717.94 L 229.27 716.52 L 225.77 715.10 L 222.26 713.68 L 218.75 712.26 L 215.25 710.83 L 211.74 709.40 L 208.23 707.97 L 204.73 706.53 L 201.22 705.08 L 197.72 703.64 L 194.22 702.18 L 190.72 700.73 L 187.22 699.26 L 183.73 697.80 L 180.24 696.33 L 176.76 694.85 L 173.28 693.37 L 169.81 691.88 L 166.34 690.39 L 162.87 688.89 L 159.41 687.39 L 155.95 685.89 L 152.48 684.39 L 149.01 682.89 L 145.53 681.40 L 142.05 679.90 L 138.56 678.41 L 135.06 676.93 L 131.54 675.45 L 128.01 673.98 L 124.50 672.48 L 121.05 670.89 L 117.73 669.14 L 114.59 667.16 L 111.68 664.88 L 109.06 662.23 L 106.79 659.19 L 104.94 655.83 L 103.58 652.27 L 102.75 648.60 L 102.29 644.86 L 101.99 641.09 L 101.67 637.32 L 101.33 633.54 L 100.97 629.77 L 100.59 626.00 L 100.20 622.23 L 99.81 618.46 L 99.41 614.71 L 99.02 610.95 L 98.61 607.20 L 98.21 603.44 L 97.79 599.68 L 97.37 595.91 L 96.95 592.14 L 96.56 588.35 L 96.24 584.57 L 96.05 580.79 L 96.00 577.01 L 96.15 573.25 L 96.53 569.51 L 97.15 565.80 L 98.01 562.13 L 99.11 558.52 L 100.39 554.96 L 101.79 551.44 L 103.22 547.93 L 104.66 544.42 L 106.11 540.92 L 107.55 537.42 L 109.01 533.92 L 110.46 530.43 L 111.90 526.93 L 113.34 523.43 L 114.77 519.92 L 116.18 516.42 L 117.59 512.90 L 118.97 509.38 L 120.34 505.85 L 121.69 502.32 L 123.06 498.79 L 124.45 495.27 L 125.88 491.76 L 127.37 488.28 L 128.93 484.83 L 130.57 481.42 L 132.31 478.06 L 134.15 474.75 L 136.09 471.51 L 138.15 468.35 L 140.32 465.27 L 142.62 462.28 L 145.03 459.38 L 147.54 456.56 L 150.14 453.81 L 152.82 451.13 L 155.56 448.51 L 158.37 445.95 L 161.23 443.44 L 164.12 440.98 L 167.04 438.57 L 169.98 436.18 L 172.93 433.83 L 175.88 431.50 L 178.83 429.18 L 181.77 426.85 L 184.71 424.49 L 187.64 422.08 L 190.57 419.62 L 193.49 417.11 L 196.43 414.62 L 199.44 412.25 L 202.54 410.11 L 205.78 408.29 L 209.18 406.90 L 212.77 406.00 L 216.50 405.55 L 220.29 405.45 L 224.07 405.62 L 227.85 405.96 L 231.62 406.34 L 235.40 406.67 L 239.19 406.97 L 242.97 407.26 L 246.75 407.57 L 250.51 407.93 L 254.27 408.38 L 258.00 408.94 L 261.71 409.61 L 265.40 410.37 L 269.08 411.21 L 272.75 412.13 L 276.40 413.10 L 280.05 414.12 L 283.69 415.18 L 287.33 416.27 L 290.96 417.36 L 294.59 418.46 L 298.22 419.55 L 301.86 420.61 L 305.50 421.66 L 309.15 422.68 L 312.80 423.69 L 316.45 424.68 L 320.10 425.67 L 323.75 426.65 L 327.40 427.62 L 331.06 428.60 L 334.71 429.58 L 338.36 430.57 L 342.00 431.56 L 345.65 432.57 L 349.29 433.59 L 352.94 434.59 L 356.60 435.57 L 360.28 436.50 L 363.98 437.37 L 367.70 438.17 L 371.44 438.84 L 375.19 439.31 L 378.92 439.48 L 382.61 439.25 L 386.23 438.54 L 389.76 437.26 L 393.14 435.36 L 396.23 432.97 L 398.88 430.17 L 401.01 427.08 L 402.77 423.80 L 404.35 420.41 L 405.88 416.99 L 407.39 413.54 L 408.87 410.06 L 410.33 406.57 L 411.77 403.07 L 413.21 399.56 L 414.64 396.05 L 416.07 392.54 L 417.49 389.03 L 418.91 385.52 L 420.33 382.00 L 421.74 378.49 L 423.15 374.97 L 424.55 371.46 L 425.96 367.94 L 427.36 364.42 L 428.76 360.91 L 430.15 357.39 L 431.55 353.87 L 432.94 350.35 L 434.34 346.83 L 435.73 343.32 L 437.13 339.80 L 438.52 336.28 L 439.91 332.76 L 441.31 329.24 L 442.70 325.73 L 444.10 322.21 L 445.50 318.69 L 446.90 315.18 L 448.30 311.66 L 449.71 308.15 L 451.12 304.64 L 452.53 301.12 L 453.94 297.61 L 455.35 294.10 L 456.77 290.59 L 458.18 287.08 L 459.60 283.57 L 461.02 280.06 L 462.44 276.55 L 463.86 273.04 L 465.28 269.53 L 466.70 266.02 L 468.12 262.51 L 469.54 259.00 L 470.97 255.49 L 472.39 251.99 L 473.81 248.48 L 475.23 244.97 L 476.66 241.46 L 478.08 237.95 L 479.50 234.45 L 480.92 230.94 L 482.34 227.43 L 483.76 223.92 L 485.18 220.41 L 486.60 216.90 L 488.01 213.39 L 489.43 209.88 L 490.84 206.37 L 492.26 202.86 L 493.67 199.35 L 495.09 195.84 L 496.50 192.33 L 497.91 188.82 L 499.32 185.31 L 500.73 181.79 L 502.13 178.28 L 503.53 174.76 L 504.92 171.24 L 506.29 167.71 L 507.65 164.17 L 509.00 160.63 L 510.39 157.10 L 511.85 153.62 L 513.43 150.19 L 515.17 146.85 L 517.13 143.62 L 519.32 140.53 L 521.76 137.64 L 524.44 135.01 L 527.37 132.69 L 530.49 130.64 L 533.77 128.80 L 537.16 127.10 L 540.63 125.55 L 544.17 124.16 L 547.77 122.95 L 551.42 121.93 L 555.12 121.12 L 558.84 120.54 L 562.59 120.17 L 566.34 120.00 L 570.11 120.02 L 573.88 120.22 L 577.64 120.57 L 581.40 121.07 L 585.13 121.69 L 588.86 122.41 L 592.57 123.21 L 596.26 124.06 L 599.94 124.93 L 603.61 125.83 L 607.25 126.77 L 610.86 127.83 L 614.43 129.07 L 617.95 130.49 L 621.42 132.04 L 624.84 133.68 L 628.20 135.40 L 631.53 137.16 L 634.85 138.97 L 638.16 140.81 L 641.46 142.68 L 644.74 144.59 L 647.98 146.55 L 651.18 148.56 L 654.33 150.63 L 657.42 152.79 L 660.45 155.04 L 663.40 157.40 L 666.27 159.86 L 669.06 162.42 L 671.79 165.06 L 674.44 167.78 L 677.03 170.56 L 679.56 173.39 L 682.02 176.27 L 684.43 179.19 L 686.78 182.15 L 689.07 185.16 L 691.31 188.19 L 693.50 191.27 L 695.64 194.38 L 697.74 197.52 L 699.78 200.69 L 701.79 203.89 L 703.75 207.12 L 705.68 210.38 L 707.57 213.65 L 709.42 216.96 L 711.24 220.28 L 713.02 223.62 L 714.78 226.98 L 716.51 230.35 L 718.22 233.74 L 719.90 237.13 L 721.56 240.54 L 723.20 243.96 L 724.82 247.39 L 726.43 250.82 L 728.02 254.25 L 729.60 257.69 L 731.16 261.13 L 732.72 264.58 L 734.26 268.03 L 735.80 271.48 L 737.32 274.94 L 738.84 278.40 L 740.35 281.87 L 741.85 285.34 L 743.34 288.82 L 744.83 292.30 L 746.32 295.78 L 747.80 299.27 L 749.28 302.75 L 750.78 306.24 L 752.29 309.71 L 753.81 313.18 L 755.36 316.64 L 756.93 320.08 L 758.51 323.52 L 760.10 326.95 L 761.68 330.39 L 763.25 333.83" stroke="#2e3448" stroke-width="24"/>
  <path class="sector" d="M 763.25 333.83 L 764.80 337.28 L 766.32 340.74 L 767.83 344.21 L 769.33 347.69 L 770.81 351.17 L 772.28 354.66 L 773.74 358.15 L 775.20 361.64 L 776.66 365.13 L 778.12 368.63 L 779.58 372.12 L 781.05 375.61 L 782.52 379.10 L 784.01 382.58 L 785.50 386.07 L 786.98 389.55 L 788.45 393.04 L 789.92 396.53 L 791.35 400.03 L 792.77 403.54 L 794.15 407.06 L 795.49 410.60 L 796.78 414.15 L 798.03 417.71 L 799.22 421.30 L 800.34 424.91 L 801.41 428.55 L 802.41 432.20 L 803.36 435.86 L 804.25 439.55 L 805.08 443.25 L 805.86 446.96 L 806.54 450.68 L 807.06 454.41 L 807.34 458.16 L 807.40 461.93 L 807.36 465.71 L 807.35 469.50 L 807.41 473.30 L 807.50 477.10 L 807.56 480.90 L 807.55 484.69 L 807.43 488.46 L 807.13 492.20 L 806.65 495.91 L 805.96 499.61 L 805.06 503.29 L 803.96 506.95 L 802.65 510.54 L 801.14 514.03 L 799.45 517.40 L 797.56 520.64 L 795.48 523.75 L 793.21 526.73 L 790.75 529.57 L 788.10 532.27 L 785.27 534.83 L 782.29 537.23 L 779.20 539.45 L 776.02 541.47 L 772.73 543.27 L 769.33 544.83 L 765.80 546.14 L 762.18 547.30 L 758.53 548.39 L 754.89 549.48 L 751.25 550.52 L 747.59 551.46 L 743.90 552.23 L 740.18 552.86 L 736.43 553.36 L 732.67 553.76 L 728.89 554.07 L 725.11 554.32 L 721.33 554.53 L 717.55 554.70 L 713.77 554.85 L 709.98 554.98 L 706.20 555.12 L 702.42 555.26 L 698.64 555.41 L 694.85 555.57 L 691.07 555.73 L 687.29 555.86 L 683.51 555.96 L 679.73 556.01 L 675.95 555.99 L 672.17 555.92 L 668.39 555.78 L 664.61 555.60 L 660.83 555.37 L 657.05 555.11 L 653.27 554.82 L 649.50 554.50 L 645.72 554.16 L 641.95 553.82 L 638.18 553.46 L 634.41 553.11 L 630.65 552.77 L 626.88 552.43 L 623.12 552.09 L 619.35 551.76 L 615.59 551.43 L 611.83 551.09 L 608.06 550.74 L 604.29 550.39 L 600.52 550.02 L 596.75 549.64 L 592.97 549.24 L 589.18 548.82 L 585.39 548.38 L 581.63 547.84 L 577.96 547.04 L 574.44 545.83 L 571.16 544.10 L 568.16 541.90 L 565.51 539.25 L 563.22 536.24 L 561.22 532.96 L 559.47 529.52 L 557.99 525.99 L 557.00 522.41 L 556.75 518.79 L 557.33 515.19 L 558.66 511.73 L 560.64 508.50 L 563.17 505.60 L 566.13 503.11 L 569.38 501.12 L 572.81 499.68 L 576.38 498.71 L 580.05 498.12 L 583.81 497.81 L 587.60 497.69 L 591.42 497.65 L 595.23 497.62 L 599.03 497.59 L 602.82 497.56 L 606.61 497.53 L 610.39 497.51 L 614.16 497.49 L 617.94 497.47 L 621.72 497.46 L 625.49 497.46 L 629.27 497.47 L 633.05 497.49 L 636.84 497.52 L 640.63 497.56 L 644.43 497.58 L 648.22 497.58 L 652.01 497.53 L 655.80 497.40 L 659.58 497.17 L 663.34 496.83 L 667.09 496.37 L 670.82 495.77 L 674.51 495.02 L 678.17 494.13 L 681.78 493.08 L 685.34 491.87 L 688.87 490.52 L 692.37 489.09 L 695.86 487.61 L 699.37 486.13 L 702.90 484.70 L 706.47 483.36 L 710.05 482.05 L 713.59 480.68 L 717.02 479.16 L 720.30 477.40 L 723.37 475.29 L 726.17 472.76 L 728.63 469.84 L 730.64 466.59 L 732.13 463.12 L 733.07 459.48 L 733.49 455.76 L 733.42 452.01 L 732.94 448.28 L 732.21 444.55 L 731.36 440.84 L 730.52 437.14 L 729.69 433.45 L 728.86 429.76 L 728.01 426.08 L 727.14 422.39 L 726.27 418.71 L 725.40 415.03 L 724.52 411.35 L 723.64 407.67 L 722.77 403.99 L 721.91 400.30 L 721.06 396.62 L 720.22 392.92 L 719.40 389.22 L 718.60 385.52 L 717.81 381.81 L 717.02 378.10 L 716.19 374.41 L 715.31 370.73 L 714.36 367.07 L 713.31 363.44 L 712.15 359.85 L 710.89 356.29 L 709.53 352.76 L 708.10 349.26 L 706.62 345.77 L 705.09 342.31 L 703.53 338.86 L 701.95 335.42 L 700.35 331.99 L 698.73 328.57 L 697.10 325.15 L 695.45 321.75 L 693.79 318.35 L 692.13 314.95 L 690.46 311.55 L 688.79 308.16 L 687.12 304.76 L 685.45 301.36 L 683.79 297.96 L 682.14 294.55 L 680.48 291.14 L 678.82 287.74 L 677.14 284.34 L 675.45 280.96 L 673.74 277.58 L 671.99 274.22 L 670.22 270.88 L 668.40 267.56 L 666.54 264.27 L 664.63 261.00 L 662.67 257.76 L 660.64 254.57 L 658.52 251.43 L 656.29 248.40 L 653.92 245.48 L 651.39 242.72 L 648.67 240.13 L 645.76 237.72 L 642.68 235.50 L 639.47 233.44 L 636.16 231.53 L 632.77 229.74 L 629.34 228.07 L 625.89 226.55 L 622.37 225.36 L 618.77 224.66 L 615.06 224.56 L 611.28 224.92 L 607.48 225.51 L 603.71 226.16 L 600.01 226.92 L 596.40 227.93 L 592.92 229.34 L 589.61 231.15 L 586.50 233.31 L 583.63 235.77 L 581.02 238.47 L 578.65 241.40 L 577.67 242.82" stroke="#fd0000" stroke-width="10"/>
  <path class="sector" d="M 577.67 242.82 L 576.51 244.52 L 574.61 247.78 L 572.92 251.17 L 571.45 254.64 L 570.16 258.19 L 569.01 261.79 L 567.96 265.42 L 566.97 269.08 L 566.00 272.75 L 565.02 276.41 L 564.01 280.06 L 562.99 283.71 L 561.96 287.35 L 560.91 290.99 L 559.85 294.62 L 558.80 298.26 L 557.74 301.89 L 556.69 305.52 L 555.64 309.16 L 554.61 312.80 L 553.59 316.44 L 552.59 320.09 L 551.61 323.75 L 550.64 327.41 L 549.68 331.07 L 548.74 334.74 L 547.80 338.41 L 546.86 342.08 L 545.92 345.74 L 544.97 349.41 L 544.01 353.07 L 543.05 356.73 L 542.07 360.39 L 541.06 364.04 L 540.05 367.68 L 539.01 371.32 L 537.96 374.95 L 536.90 378.58 L 535.83 382.22 L 534.75 385.85 L 533.66 389.48 L 532.52 393.09 L 531.26 396.66 L 529.86 400.17 L 528.34 403.64 L 526.75 407.07 L 525.12 410.48 L 523.46 413.88 L 521.77 417.26 L 520.05 420.63 L 518.32 423.99 L 516.56 427.35 L 514.79 430.69 L 513.01 434.03 L 511.22 437.37 L 509.42 440.70 L 507.61 444.03 L 505.81 447.36 L 504.00 450.69 L 502.20 454.02 L 500.40 457.35 L 498.60 460.68 L 496.81 464.01 L 495.01 467.34 L 493.22 470.68 L 491.43 474.01 L 489.63 477.34 L 487.85 480.68 L 486.06 484.02 L 484.27 487.35 L 482.49 490.69 L 480.70 494.03 L 478.92 497.37 L 477.14 500.71 L 475.36 504.05 L 473.58 507.39 L 471.81 510.73 L 470.03 514.07 L 468.26 517.42 L 466.49 520.76 L 464.72 524.11 L 462.95 527.45 L 461.18 530.80 L 459.41 534.15 L 457.65 537.50 L 455.89 540.85 L 454.12 544.20 L 452.36 547.55 L 450.60 550.90 L 448.84 554.25 L 447.08 557.60 L 445.32 560.95 L 443.56 564.30 L 441.80 567.66 L 440.04 571.01 L 438.29 574.36 L 436.53 577.71 L 434.77 581.07 L 433.01 584.42 L 431.25 587.77 L 429.49 591.12 L 427.73 594.47 L 425.97 597.82 L 424.21 601.18 L 422.45 604.53 L 420.69 607.88 L 418.93 611.22 L 417.16 614.57 L 415.40 617.92 L 413.63 621.27 L 411.86 624.61 L 410.09 627.96 L 408.31 631.30 L 406.54 634.64 L 404.76 637.98 L 402.98 641.32 L 401.19 644.65 L 399.40 647.99 L 397.60 651.32 L 395.80 654.65 L 394.00 657.98 L 392.19 661.30 L 390.38 664.63 L 388.56 667.95 L 386.73 671.26 L 384.90 674.58 L 383.07 677.89 L 381.22 681.20 L 379.37 684.50 L 377.51 687.80 L 375.65 691.10 L 373.77 694.39 L 371.86 697.66 L 369.88 700.88 L 367.82 704.03 L 365.63 707.10 L 363.30 710.06 L 360.80 712.90 L 358.15 715.62 L 355.40 718.25 L 352.59 720.82 L 349.76 723.33 L 346.84 725.72 L 343.81 727.95 L 340.64 730.00 L 337.36 731.86 L 333.98 733.53 L 330.50 735.02 L 326.95 736.31 L 323.32 737.41 L 319.64 738.32 L 315.92 739.03 L 312.16 739.55 L 308.39 739.87 L 304.61 740.00 L 300.83 739.93 L 297.07 739.66 L 293.32 739.21 L 289.60 738.59 L 285.90 737.81 L 282.23 736.90 L 278.59 735.86 L 274.99 734.70 L 271.42 733.46 L 267.87 732.13 L 264.34 730.75 L 260.82 729.34 L 257.32 727.90 L 253.81 726.47 L 250.30 725.04 L 246.80 723.62 L 243.29 722.20 L 239.79 720.78 L 236.28 719.36 L 232.78 717.94 L 229.27 716.52 L 225.77 715.10 L 222.26 713.68 L 218.75 712.26 L 215.25 710.83 L 211.74 709.40 L 208.23 707.97 L 204.73 706.53 L 201.22 705.08 L 197.72 703.64 L 194.22 702.18 L 190.72 700.73 L 187.22 699.26 L 183.73 697.80 L 180.24 696.33 L 176.76 694.85 L 173.28 693.37 L 169.81 691.88 L 166.34 690.39 L 162.87 688.89 L 159.41 687.39 L 155.95 685.89 L 152.48 684.39 L 149.01 682.89 L 145.53 681.40 L 142.05 679.90 L 138.56 678.41 L 135.06 676.93 L 131.54 675.45 L 128.01 673.98 L 124.50 672.48 L 121.05 670.89 L 117.73 669.14 L 114.59 667.16 L 111.68 664.88 L 109.06 662.23 L 106.79 659.19 L 104.94 655.83 L 103.58 652.27 L 102.75 648.60 L 102.29 644.86 L 101.99 641.09 L 101.67 637.32 L 101.33 633.54 L 100.97 629.77 L 100.59 626.00 L 100.20 622.23 L 99.81 618.46 L 99.41 614.71 L 99.02 610.95 L 98.61 607.20 L 98.21 603.44 L 97.79 599.68 L 97.37 595.91 L 96.95 592.14 L 96.56 588.35 L 96.24 584.57 L 96.05 580.79 L 96.00 577.01 L 96.15 573.25 L 96.53 569.51 L 97.15 565.80 L 98.01 562.13 L 99.11 558.52 L 100.39 554.96 L 101.79 551.44 L 103.22 547.93 L 104.66 544.42 L 106.11 540.92 L 107.55 537.42 L 109.01 533.92 L 110.46 530.43 L 111.90 526.93 L 113.34 523.43 L 114.77 519.92 L 116.18 516.42 L 117.59 512.90 L 118.97 509.38 L 120.34 505.85 L 121.69 502.32 L 123.06 498.79 L 124.45 495.27 L 125.88 491.76 L 127.37 488.28 L 128.93 484.83 L 130.05 482.50" stroke="#02a5d5" stroke-width="10"/>
  <path class="sector" d="M 130.05 482.50 L 130.57 481.42 L 132.31 478.06 L 134.15 474.75 L 136.09 471.51 L 138.15 468.35 L 140.32 465.27 L 142.62 462.28 L 145.03 459.38 L 147.54 456.56 L 150.14 453.81 L 152.82 451.13 L 155.56 448.51 L 158.37 445.95 L 161.23 443.44 L 164.12 440.98 L 167.04 438.57 L 169.98 436.18 L 172.93 433.83 L 175.88 431.50 L 178.83 429.18 L 181.77 426.85 L 184.71 424.49 L 187.64 422.08 L 190.57 419.62 L 193.49 417.11 L 196.43 414.62 L 199.44 412.25 L 202.54 410.11 L 205.78 408.29 L 209.18 406.90 L 212.77 406.00 L 216.50 405.55 L 220.29 405.45 L 224.07 405.62 L 227.85 405.96 L 231.62 406.34 L 235.40 406.67 L 239.19 406.97 L 242.97 407.26 L 246.75 407.57 L 250.51 407.93 L 254.27 408.38 L 258.00 408.94 L 261.71 409.61 L 265.40 410.37 L 269.08 411.21 L 272.75 412.13 L 276.40 413.10 L 280.05 414.12 L 283.69 415.18 L 287.33 416.27 L 290.96 417.36 L 294.59 418.46 L 298.22 419.55 L 301.86 420.61 L 305.50 421.66 L 309.15 422.68 L 312.80 423.69 L 316.45 424.68 L 320.10 425.67 L 323.75 426.65 L 327.40 427.62 L 331.06 428.60 L 334.71 429.58 L 338.36 430.57 L 342.00 431.56 L 345.65 432.57 L 349.29 433.59 L 352.94 434.59 L 356.60 435.57 L 360.28 436.50 L 363.98 437.37 L 367.70 438.17 L 371.44 438.84 L 375.19 439.31 L 378.92 439.48 L 382.61 439.25 L 386.23 438.54 L 389.76 437.26 L 393.14 435.36 L 396.23 432.97 L 398.88 430.17 L 401.01 427.08 L 402.77 423.80 L 404.35 420.41 L 405.88 416.99 L 407.39 413.54 L 408.87 410.06 L 410.33 406.57 L 411.77 403.07 L 413.21 399.56 L 414.64 396.05 L 416.07 392.54 L 417.49 389.03 L 418.91 385.52 L 420.33 382.00 L 421.74 378.49 L 423.15 374.97 L 424.55 371.46 L 425.96 367.94 L 427.36 364.42 L 428.76 360.91 L 430.15 357.39 L 431.55 353.87 L 432.94 350.35 L 434.34 346.83 L 435.73 343.32 L 437.13 339.80 L 438.52 336.28 L 439.91 332.76 L 441.31 329.24 L 442.70 325.73 L 444.10 322.21 L 445.50 318.69 L 446.90 315.18 L 448.30 311.66 L 449.71 308.15 L 451.12 304.64 L 452.53 301.12 L 453.94 297.61 L 455.35 294.10 L 456.77 290.59 L 458.18 287.08 L 459.60 283.57 L 461.02 280.06 L 462.44 276.55 L 463.86 273.04 L 465.28 269.53 L 466.70 266.02 L 468.12 262.51 L 469.54 259.00 L 470.97 255.49 L 472.39 251.99 L 473.81 248.48 L 475.23 244.97 L 476.66 241.46 L 478.08 237.95 L 479.50 234.45 L 480.92 230.94 L 482.34 227.43 L 483.76 223.92 L 485.18 220.41 L 486.60 216.90 L 488.01 213.39 L 489.43 209.88 L 490.84 206.37 L 492.26 202.86 L 493.67 199.35 L 495.09 195.84 L 496.50 192.33 L 497.91 188.82 L 499.32 185.31 L 500.73 181.79 L 502.13 178.28 L 503.53 174.76 L 504.92 171.24 L 506.29 167.71 L 507.65 164.17 L 509.00 160.63 L 510.39 157.10 L 511.85 153.62 L 513.43 150.19 L 515.17 146.85 L 517.13 143.62 L 519.32 140.53 L 521.76 137.64 L 524.44 135.01 L 527.37 132.69 L 530.49 130.64 L 533.77 128.80 L 537.16 127.10 L 540.63 125.55 L 544.17 124.16 L 547.77 122.95 L 551.42 121.93 L 555.12 121.12 L 558.84 120.54 L 562.59 120.17 L 566.34 120.00 L 570.11 120.02 L 573.88 120.22 L 577.64 120.57 L 581.40 121.07 L 585.13 121.69 L 588.86 122.41 L 592.57 123.21 L 596.26 124.06 L 599.94 124.93 L 603.61 125.83 L 607.25 126.77 L 610.86 127.83 L 614.43 129.07 L 617.95 130.49 L 621.42 132.04 L 624.84 133.68 L 628.20 135.40 L 631.53 137.16 L 634.85 138.97 L 638.16 140.81 L 641.46 142.68 L 644.74 144.59 L 647.98 146.55 L 651.18 148.56 L 654.33 150.63 L 657.42 152.79 L 660.45 155.04 L 663.40 157.40 L 666.27 159.86 L 669.06 162.42 L 671.79 165.06 L 674.44 167.78 L 677.03 170.56 L 679.56 173.39 L 682.02 176.27 L 684.43 179.19 L 686.78 182.15 L 689.07 185.16 L 691.31 188.19 L 693.50 191.27 L 695.64 194.38 L 697.74 197.52 L 699.78 200.69 L 701.79 203.89 L 703.75 207.12 L 705.68 210.38 L 707.57 213.65 L 709.42 216.96 L 711.24 220.28 L 713.02 223.62 L 714.78 226.98 L 716.51 230.35 L 718.22 233.74 L 719.90 237.13 L 721.56 240.54 L 723.20 243.96 L 724.82 247.39 L 726.43 250.82 L 728.02 254.25 L 729.60 257.69 L 731.16 261.13 L 732.72 264.58 L 734.26 268.03 L 735.80 271.48 L 737.32 274.94 L 738.84 278.40 L 740.35 281.87 L 741.85 285.34 L 743.34 288.82 L 744.83 292.30 L 746.32 295.78 L 747.80 299.27 L 749.28 302.75 L 750.78 306.24 L 752.29 309.71 L 753.81 313.18 L 755.36 316.64 L 756.93 320.08 L 758.51 323.52 L 760.10 326.95 L 761.68 330.39 L 763.25 333.83" stroke="#eecc03" stroke-width="10"/>
  <circle class="marker" cx="799.94" cy="508.21" r="18"/>
  <text class="marker-text" x="799.94" y="508.71">01</text>
  <circle class="marker" cx="524.56" cy="527.35" r="18"/>
  <text class="marker-text" x="524.56" y="527.85">02</text>
  <circle class="marker" cx="763.96" cy="449.38" r="18"/>
  <text class="marker-text" x="763.96" y="449.88">03</text>
  <circle class="marker" cx="564.02" cy="263.33" r="18"/>
  <text class="marker-text" x="564.02" y="263.83">04</text>
  <circle class="marker" cx="355.00" cy="698.76" r="18"/>
  <text class="marker-text" x="355.00" y="699.26">05</text>
  <circle class="marker" cx="75.15" cy="639.06" r="18"/>
  <text class="marker-text" x="75.15" y="639.56">06</text>
  <circle class="marker" cx="197.58" cy="442.56" r="18"/>
  <text class="marker-text" x="197.58" y="443.06">07</text>
  <circle class="marker" cx="413.74" cy="404.03" r="18"/>
  <text class="marker-text" x="413.74" y="404.53">08</text>
  <circle class="marker" cx="494.58" cy="163.48" r="18"/>
  <text class="marker-text" x="494.58" y="163.98">09</text>
  <text class="label" x="742.74" y="594.34" text-anchor="middle">Paddock Hill Bend</text>
  <text class="label" x="576.57" y="503.53" text-anchor="middle">Druids</text>
  <text class="label" x="675.83" y="494.91" text-anchor="middle">Graham Hill Bend</text>
  <text class="label" x="600.82" y="214.18" text-anchor="middle">Surtees</text>
  <text class="label" x="337.36" y="731.86" text-anchor="middle">Hawthorn Bend</text>
  <text class="label" x="151.77" y="687.79" text-anchor="middle">Westfield Bend</text>
  <text class="label" x="209.18" y="406.90" text-anchor="middle">Sheene Curve</text>
  <text class="label" x="373.09" y="465.86" text-anchor="middle">Stirling's</text>
  <text class="label" x="551.25" y="109.60" text-anchor="middle">Clark Curve</text>
  <line class="start-line-outline" x1="783.32" y1="324.83" x2="743.18" y2="342.84"/>
  <line class="start-line-inner" x1="783.32" y1="324.83" x2="743.18" y2="342.84"/>
  <line class="arrow-shaft" x1="732.23" y1="347.75" x2="738.94" y2="362.72"/>
  <polygon class="arrow-head" points="742.05,369.65 732.94,364.97 744.62,359.73"/>
</svg>
