<svg xmlns="http://www.w3.org/2000/svg" width="1240" height="860" viewBox="0 0 1240 860" fill="none">
  <style>
    .title { font: 700 34px Inter, Arial, sans-serif; fill: #111111; }
    .track { fill: none; stroke-linejoin: round; stroke-linecap: round; }
    .sector { fill: none; stroke-linejoin: round; stroke-linecap: butt; }
    .marker { fill: #2e3448; stroke: #2e3448; stroke-width: 1.5; }
    .marker-text { font: 700 15px Inter, Arial, sans-serif; fill: #ffffff; text-anchor: middle; dominant-baseline: middle; }
    .label { font: 600 18px Inter, Arial, sans-serif; fill: #111111; paint-order: stroke; stroke: #ffffff; stroke-width: 5px; stroke-linejoin: round; }
    .start-line-outline { stroke: #121528; stroke-width: 8; stroke-linecap: round; }
    .start-line-inner { stroke: #ffffff; stroke-width: 4; stroke-linecap: round; }
    .arrow-shaft { stroke: #121528; stroke-width: 4; stroke-linecap: round; }
    .arrow-head { fill: #121528; }
  </style>
  <rect width="1240" height="860" fill="#ffffff"/>
  <text class="title" x="96" y="62">Imola</text>
  <path class="track" d="M 862.14 184.54 L 824.84 183.67 L 758.63 183.31 L 743.15 183.01 L 736.25 181.81 L 730.81 180.58 L 637.74 160.70 L 626.12 158.22 L 618.32 157.01 L 610.76 155.86 L 603.75 155.15 L 596.69 154.43 L 587.40 153.79 L 579.12 153.37 L 572.74 153.16 L 564.51 153.16 L 555.28 153.47 L 531.71 155.48 L 498.31 158.26 L 481.87 159.67 L 442.70 163.33 L 438.62 164.07 L 434.14 165.06 L 381.90 177.69 L 379.14 178.46 L 376.00 179.77 L 374.01 181.20 L 372.41 182.92 L 371.01 184.74 L 370.01 186.80 L 369.36 188.67 L 368.57 192.05 L 367.41 198.23 L 366.24 204.40 L 364.88 209.52 L 363.55 212.89 L 362.16 215.50 L 360.33 217.78 L 358.31 219.47 L 355.99 221.34 L 353.05 223.48 L 331.14 233.89 L 309.52 243.75 L 306.41 245.33 L 303.45 246.90 L 301.31 248.11 L 298.67 250.09 L 296.17 252.31 L 294.08 254.18 L 292.41 256.26 L 291.40 257.89 L 290.27 259.98 L 289.10 262.41 L 287.53 266.34 L 203.46 474.08 L 202.90 475.34 L 202.23 477.62 L 201.80 479.53 L 201.59 481.67 L 201.47 484.24 L 201.82 486.95 L 202.34 489.51 L 203.01 492.16 L 206.74 506.15 L 210.46 520.14 L 210.88 521.67 L 211.32 524.17 L 211.21 526.60 L 210.97 528.57 L 210.64 530.78 L 209.78 532.95 L 208.58 535.12 L 207.08 536.93 L 204.86 539.20 L 202.85 541.03 L 201.01 542.55 L 198.99 544.37 L 170.90 567.65 L 147.52 587.64 L 110.61 619.04 L 105.54 624.05 L 101.58 628.30 L 99.05 631.28 L 97.28 634.86 L 96.30 638.06 L 96.00 641.72 L 96.47 644.98 L 97.27 647.86 L 98.57 651.01 L 100.46 654.17 L 102.93 657.10 L 105.30 659.04 L 107.99 660.41 L 110.87 661.67 L 114.23 662.26 L 117.15 662.49 L 122.42 662.38 L 213.32 649.65 L 244.52 645.00 L 288.82 639.41 L 295.14 638.63 L 304.33 638.06 L 314.46 637.72 L 322.68 637.96 L 330.86 638.29 L 339.57 639.18 L 348.64 640.36 L 416.63 652.60 L 425.25 653.88 L 429.80 654.00 L 433.58 653.66 L 437.22 652.68 L 440.63 651.05 L 444.18 648.97 L 448.30 645.84 L 451.76 642.22 L 454.37 638.68 L 456.28 635.60 L 458.66 631.65 L 468.24 611.70 L 471.85 604.45 L 474.38 598.33 L 476.99 591.11 L 478.65 584.67 L 480.32 577.44 L 481.43 569.60 L 481.70 562.29 L 481.79 555.94 L 481.46 549.81 L 480.19 541.57 L 478.80 534.38 L 476.85 526.71 L 458.91 444.83 L 458.47 442.15 L 458.40 438.97 L 458.81 435.74 L 459.60 433.21 L 460.44 431.14 L 461.99 428.48 L 464.10 425.23 L 476.51 405.72 L 488.92 386.22 L 490.03 384.74 L 491.66 383.41 L 493.35 382.53 L 495.22 382.01 L 496.74 381.83 L 499.10 381.95 L 501.12 382.36 L 504.19 383.42 L 512.59 386.98 L 521.00 390.54 L 524.01 391.81 L 527.27 392.73 L 531.05 393.44 L 534.98 393.66 L 542.71 393.52 L 771.30 391.79 L 775.74 392.13 L 777.80 392.46 L 779.21 393.15 L 780.49 394.36 L 781.58 396.40 L 783.58 402.96 L 784.32 405.24 L 785.59 406.82 L 786.59 407.89 L 787.89 408.75 L 789.78 409.14 L 791.80 409.34 L 793.74 408.90 L 796.11 407.92 L 884.63 371.72 L 890.22 369.17 L 896.20 366.16 L 903.01 362.19 L 909.17 358.40 L 914.68 354.69 L 939.18 336.87 L 946.41 331.16 L 953.85 324.97 L 957.63 321.65 L 963.49 316.30 L 970.14 309.78 L 1033.90 246.42 L 1037.77 242.65 L 1045.24 236.60 L 1053.54 230.79 L 1057.97 228.08 L 1061.99 226.01 L 1072.52 221.01 L 1076.29 219.36 L 1102.50 207.90 L 1129.18 196.68 L 1134.48 194.37 L 1136.55 193.06 L 1138.86 191.72 L 1140.56 190.18 L 1142.04 187.88 L 1143.08 185.88 L 1143.56 184.44 L 1143.98 182.85 L 1144.00 180.74 L 1143.85 178.63 L 1143.68 176.90 L 1143.07 174.80 L 1141.93 171.90 L 1133.19 151.83 L 1124.45 131.77 L 1122.61 128.93 L 1120.94 126.69 L 1118.48 124.45 L 1115.49 122.48 L 1113.11 121.37 L 1110.46 120.56 L 1107.49 120.02 L 1104.92 120.00 L 1102.07 120.30 L 1099.52 120.89 L 1095.92 122.10 L 1058.57 135.95 L 965.48 173.48 L 955.12 177.24 L 946.05 179.85 L 938.45 181.83 L 934.64 182.50 L 930.28 183.24 L 925.37 184.01 L 921.08 184.65 L 916.59 185.24 L 911.46 185.68 L 890.84 185.21 L 862.14 184.54" stroke="#121528" stroke-width="34"/>
  <path class="track" d="M 862.14 184.54 L 824.84 183.67 L 758.63 183.31 L 743.15 183.01 L 736.25 181.81 L 730.81 180.58 L 637.74 160.70 L 626.12 158.22 L 618.32 157.01 L 610.76 155.86 L 603.75 155.15 L 596.69 154.43 L 587.40 153.79 L 579.12 153.37 L 572.74 153.16 L 564.51 153.16 L 555.28 153.47 L 531.71 155.48 L 498.31 158.26 L 481.87 159.67 L 442.70 163.33 L 438.62 164.07 L 434.14 165.06 L 381.90 177.69 L 379.14 178.46 L 376.00 179.77 L 374.01 181.20 L 372.41 182.92 L 371.01 184.74 L 370.01 186.80 L 369.36 188.67 L 368.57 192.05 L 367.41 198.23 L 366.24 204.40 L 364.88 209.52 L 363.55 212.89 L 362.16 215.50 L 360.33 217.78 L 358.31 219.47 L 355.99 221.34 L 353.05 223.48 L 331.14 233.89 L 309.52 243.75 L 306.41 245.33 L 303.45 246.90 L 301.31 248.11 L 298.67 250.09 L 296.17 252.31 L 294.08 254.18 L 292.41 256.26 L 291.40 257.89 L 290.27 259.98 L 289.10 262.41 L 287.53 266.34 L 203.46 474.08 L 202.90 475.34 L 202.23 477.62 L 201.80 479.53 L 201.59 481.67 L 201.47 484.24 L 201.82 486.95 L 202.34 489.51 L 203.01 492.16 L 206.74 506.15 L 210.46 520.14 L 210.88 521.67 L 211.32 524.17 L 211.21 526.60 L 210.97 528.57 L 210.64 530.78 L 209.78 532.95 L 208.58 535.12 L 207.08 536.93 L 204.86 539.20 L 202.85 541.03 L 201.01 542.55 L 198.99 544.37 L 170.90 567.65 L 147.52 587.64 L 110.61 619.04 L 105.54 624.05 L 101.58 628.30 L 99.05 631.28 L 97.28 634.86 L 96.30 638.06 L 96.00 641.72 L 96.47 644.98 L 97.27 647.86 L 98.57 651.01 L 100.46 654.17 L 102.93 657.10 L 105.30 659.04 L 107.99 660.41 L 110.87 661.67 L 114.23 662.26 L 117.15 662.49 L 122.42 662.38 L 213.32 649.65 L 244.52 645.00 L 288.82 639.41 L 295.14 638.63 L 304.33 638.06 L 314.46 637.72 L 322.68 637.96 L 330.86 638.29 L 339.57 639.18 L 348.64 640.36 L 416.63 652.60 L 425.25 653.88 L 429.80 654.00 L 433.58 653.66 L 437.22 652.68 L 440.63 651.05 L 444.18 648.97 L 448.30 645.84 L 451.76 642.22 L 454.37 638.68 L 456.28 635.60 L 458.66 631.65 L 468.24 611.70 L 471.85 604.45 L 474.38 598.33 L 476.99 591.11 L 478.65 584.67 L 480.32 577.44 L 481.43 569.60 L 481.70 562.29 L 481.79 555.94 L 481.46 549.81 L 480.19 541.57 L 478.80 534.38 L 476.85 526.71 L 458.91 444.83 L 458.47 442.15 L 458.40 438.97 L 458.81 435.74 L 459.60 433.21 L 460.44 431.14 L 461.99 428.48 L 464.10 425.23 L 476.51 405.72 L 488.92 386.22 L 490.03 384.74 L 491.66 383.41 L 493.35 382.53 L 495.22 382.01 L 496.74 381.83 L 499.10 381.95 L 501.12 382.36 L 504.19 383.42 L 512.59 386.98 L 521.00 390.54 L 524.01 391.81 L 527.27 392.73 L 531.05 393.44 L 534.98 393.66 L 542.71 393.52 L 771.30 391.79 L 775.74 392.13 L 777.80 392.46 L 779.21 393.15 L 780.49 394.36 L 781.58 396.40 L 783.58 402.96 L 784.32 405.24 L 785.59 406.82 L 786.59 407.89 L 787.89 408.75 L 789.78 409.14 L 791.80 409.34 L 793.74 408.90 L 796.11 407.92 L 884.63 371.72 L 890.22 369.17 L 896.20 366.16 L 903.01 362.19 L 909.17 358.40 L 914.68 354.69 L 939.18 336.87 L 946.41 331.16 L 953.85 324.97 L 957.63 321.65 L 963.49 316.30 L 970.14 309.78 L 1033.90 246.42 L 1037.77 242.65 L 1045.24 236.60 L 1053.54 230.79 L 1057.97 228.08 L 1061.99 226.01 L 1072.52 221.01 L 1076.29 219.36 L 1102.50 207.90 L 1129.18 196.68 L 1134.48 194.37 L 1136.55 193.06 L 1138.86 191.72 L 1140.56 190.18 L 1142.04 187.88 L 1143.08 185.88 L 1143.56 184.44 L 1143.98 182.85 L 1144.00 180.74 L 1143.85 178.63 L 1143.68 176.90 L 1143.07 174.80 L 1141.93 171.90 L 1133.19 151.83 L 1124.45 131.77 L 1122.61 128.93 L 1120.94 126.69 L 1118.48 124.45 L 1115.49 122.48 L 1113.11 121.37 L 1110.46 120.56 L 1107.49 120.02 L 1104.92 120.00 L 1102.07 120.30 L 1099.52 120.89 L 1095.92 122.10 L 1058.57 135.95 L 965.48 173.48 L 955.12 177.24 L 946.05 179.85 L 938.45 181.83 L 934.64 182.50 L 930.28 183.24 L 925.37 184.01 L 921.08 184.65 L 916.59 185.24 L 911.46 185.68 L 890.84 185.21 L 862.14 184.54" stroke="#2e3448" stroke-width="24"/>
  <path class="sector" d="M 862.14 184.54 L 824.84 183.67 L 758.63 183.31 L 743.15 183.01 L 736.25 181.81 L 730.81 180.58 L 637.74 160.70 L 626.12 158.22 L 618.32 157.01 L 610.76 155.86 L 603.75 155.15 L 596.69 154.43 L 587.40 153.79 L 579.12 153.37 L 572.74 153.16 L 564.51 153.16 L 555.28 153.47 L 531.71 155.48 L 498.31 158.26 L 481.87 159.67 L 442.70 163.33 L 438.62 164.07 L 434.14 165.06 L 381.90 177.69 L 379.14 178.46 L 376.00 179.77 L 374.01 181.20 L 372.41 182.92 L 371.01 184.74 L 370.01 186.80 L 369.36 188.67 L 368.57 192.05 L 367.41 198.23 L 366.24 204.40 L 364.88 209.52 L 363.55 212.89 L 362.16 215.50 L 360.33 217.78 L 358.31 219.47 L 355.99 221.34 L 353.05 223.48 L 331.14 233.89 L 309.52 243.75 L 306.41 245.33 L 303.45 246.90 L 301.31 248.11 L 298.67 250.09 L 296.17 252.31 L 294.08 254.18 L 292.41 256.26 L 291.40 257.89 L 290.27 259.98 L 289.10 262.41 L 287.53 266.34 L 203.46 474.08 L 202.90 475.34 L 202.23 477.62 L 201.80 479.53 L 201.59 481.67 L 201.47 484.24 L 201.82 486.95 L 202.34 489.51 L 203.01 492.16 L 206.74 506.15 L 210.46 520.14 L 210.88 521.67 L 211.32 524.17 L 211.21 526.60 L 210.97 528.57 L 210.64 530.78 L 209.78 532.95 L 208.58 535.12 L 207.08 536.93 L 204.86 539.20 L 202.85 541.03 L 201.01 542.55 L 198.99 544.37 L 170.90 567.65 L 147.52 587.64 L 110.61 619.04 L 105.54 624.05 L 101.58 628.30 L 99.05 631.28 L 97.28 634.86 L 96.30 638.06 L 96.00 641.72 L 96.47 644.98 L 97.27 647.86 L 98.57 651.01 L 100.46 654.17 L 102.93 657.10 L 105.30 659.04 L 107.99 660.41 L 108.10 660.45" stroke="#fd0000" stroke-width="10"/>
  <path class="sector" d="M 108.10 660.45 L 110.87 661.67 L 114.23 662.26 L 117.15 662.49 L 122.42 662.38 L 213.32 649.65 L 244.52 645.00 L 288.82 639.41 L 295.14 638.63 L 304.33 638.06 L 314.46 637.72 L 322.68 637.96 L 330.86 638.29 L 339.57 639.18 L 348.64 640.36 L 416.63 652.60 L 425.25 653.88 L 429.80 654.00 L 433.58 653.66 L 437.22 652.68 L 440.63 651.05 L 444.18 648.97 L 448.30 645.84 L 451.76 642.22 L 454.37 638.68 L 456.28 635.60 L 458.66 631.65 L 468.24 611.70 L 471.85 604.45 L 474.38 598.33 L 476.99 591.11 L 478.65 584.67 L 480.32 577.44 L 481.43 569.60 L 481.70 562.29 L 481.79 555.94 L 481.46 549.81 L 480.19 541.57 L 478.80 534.38 L 476.85 526.71 L 458.91 444.83 L 458.47 442.15 L 458.40 438.97 L 458.81 435.74 L 459.60 433.21 L 460.44 431.14 L 461.99 428.48 L 464.10 425.23 L 476.51 405.72 L 488.92 386.22 L 490.03 384.74 L 491.66 383.41 L 493.35 382.53 L 495.22 382.01 L 496.74 381.83 L 499.10 381.95 L 501.12 382.36 L 504.19 383.42 L 512.59 386.98 L 521.00 390.54 L 524.01 391.81 L 527.27 392.73 L 531.05 393.44 L 534.98 393.66 L 542.71 393.52 L 771.30 391.79 L 772.63 391.89" stroke="#02a5d5" stroke-width="10"/>
  <path class="sector" d="M 772.63 391.89 L 775.74 392.13 L 777.80 392.46 L 779.21 393.15 L 780.49 394.36 L 781.58 396.40 L 783.58 402.96 L 784.32 405.24 L 785.59 406.82 L 786.59 407.89 L 787.89 408.75 L 789.78 409.14 L 791.80 409.34 L 793.74 408.90 L 796.11 407.92 L 884.63 371.72 L 890.22 369.17 L 896.20 366.16 L 903.01 362.19 L 909.17 358.40 L 914.68 354.69 L 939.18 336.87 L 946.41 331.16 L 953.85 324.97 L 957.63 321.65 L 963.49 316.30 L 970.14 309.78 L 1033.90 246.42 L 1037.77 242.65 L 1045.24 236.60 L 1053.54 230.79 L 1057.97 228.08 L 1061.99 226.01 L 1072.52 221.01 L 1076.29 219.36 L 1102.50 207.90 L 1129.18 196.68 L 1134.48 194.37 L 1136.55 193.06 L 1138.86 191.72 L 1140.56 190.18 L 1142.04 187.88 L 1143.08 185.88 L 1143.56 184.44 L 1143.98 182.85 L 1144.00 180.74 L 1143.85 178.63 L 1143.68 176.90 L 1143.07 174.80 L 1141.93 171.90 L 1133.19 151.83 L 1124.45 131.77 L 1122.61 128.93 L 1120.94 126.69 L 1118.48 124.45 L 1115.49 122.48 L 1113.11 121.37 L 1110.46 120.56 L 1107.49 120.02 L 1104.92 120.00 L 1102.07 120.30 L 1099.52 120.89 L 1095.92 122.10 L 1058.57 135.95 L 965.48 173.48 L 955.12 177.24 L 946.05 179.85 L 938.45 181.83 L 934.64 182.50 L 930.28 183.24 L 925.37 184.01 L 921.08 184.65 L 916.59 185.24 L 911.46 185.68 L 862.14 184.54" stroke="#eecc03" stroke-width="10"/>
  <line class="start-line-outline" x1="862.37" y1="210.32" x2="861.74" y2="166.32"/>
  <line class="start-line-inner" x1="862.37" y1="210.32" x2="861.74" y2="166.32"/>
  <line class="arrow-shaft" x1="861.57" y1="154.33" x2="845.17" y2="154.56"/>
  <polygon class="arrow-head" points="837.57,154.67 845.48,148.15 845.66,160.95"/>
  <circle class="marker" cx="726.33" cy="222.07" r="18"/>
  <text class="marker-text" x="726.33" y="222.57">01</text>
  <circle class="marker" cx="368.96" cy="143.19" r="18"/>
  <text class="marker-text" x="368.96" y="143.69">02</text>
  <circle class="marker" cx="393.97" cy="229.35" r="18"/>
  <text class="marker-text" x="393.97" y="229.85">03</text>
  <circle class="marker" cx="268.83" cy="227.96" r="18"/>
  <text class="marker-text" x="268.83" y="228.46">04</text>
  <circle class="marker" cx="162.82" cy="473.53" r="18"/>
  <text class="marker-text" x="162.82" y="474.03">05</text>
  <circle class="marker" cx="239.14" cy="544.92" r="18"/>
  <text class="marker-text" x="239.14" y="545.42">06</text>
  <circle class="marker" cx="59.12" cy="646.87" r="18"/>
  <text class="marker-text" x="59.12" y="647.37">07</text>
  <circle class="marker" cx="301.11" cy="600.24" r="18"/>
  <text class="marker-text" x="301.11" y="600.74">08</text>
  <circle class="marker" cx="472.14" cy="669.42" r="18"/>
  <text class="marker-text" x="472.14" y="669.92">09</text>
  <circle class="marker" cx="439.31" cy="565.78" r="18"/>
  <text class="marker-text" x="439.31" y="566.28">10</text>
  <circle class="marker" cx="423.06" cy="423.64" r="18"/>
  <text class="marker-text" x="423.06" y="424.14">11</text>
  <circle class="marker" cx="469.22" cy="353.65" r="18"/>
  <text class="marker-text" x="469.22" y="354.15">12</text>
  <circle class="marker" cx="529.12" cy="429.54" r="18"/>
  <text class="marker-text" x="529.12" y="430.04">13</text>
  <circle class="marker" cx="785.11" cy="358.60" r="18"/>
  <text class="marker-text" x="785.11" y="359.10">14</text>
  <circle class="marker" cx="793.65" cy="448.00" r="18"/>
  <text class="marker-text" x="793.65" y="448.50">15</text>
  <circle class="marker" cx="1072.82" cy="266.20" r="18"/>
  <text class="marker-text" x="1072.82" y="266.70">16</text>
  <circle class="marker" cx="1179.21" cy="196.69" r="18"/>
  <text class="marker-text" x="1179.21" y="197.19">17</text>
  <circle class="marker" cx="1099.82" cy="87.17" r="18"/>
  <text class="marker-text" x="1099.82" y="87.67">18</text>
  <circle class="marker" cx="954.76" cy="218.99" r="18"/>
  <text class="marker-text" x="954.76" y="219.49">19</text>
  <text class="label" x="500.91" y="128.36">Tamburello</text>
  <text class="label" x="162.22" y="409.33">Villeneuve</text>
  <text class="label" x="78.07" y="701.92">Tosa</text>
  <text class="label" x="356.12" y="557.28">Piratella</text>
  <text class="label" x="603.35" y="481.85">Acque Minerali</text>
  <text class="label" x="838.78" y="290.64">Variante Alta</text>
  <text class="label" x="1007.39" y="152.76">Rivazza</text>
</svg>
