<svg xmlns="http://www.w3.org/2000/svg" width="1240" height="860" viewBox="0 0 1240 860" fill="none">
  <style>
    .title { font: 600 36px Space Grotesk, sans-serif; fill: #FDFDFC; }
    .track { fill: none; stroke-linejoin: round; stroke-linecap: round; }
    .sector { fill: none; stroke-linejoin: round; stroke-linecap: round; }
    .marker { fill: #1B1B1D; stroke: #E4FF5C; stroke-width: 1.5; }
    .marker-text { font: 700 15px Noto Sans, sans-serif; fill: #FDFDFC; text-anchor: middle; dominant-baseline: middle; }
    .label { font: 500 18px Noto Sans, sans-serif; fill: #FDFDFC; paint-order: stroke; stroke: #FDFDFC; stroke-width: 0px; stroke-linejoin: round; }
    .sector-label { font: 700 16px Space Grotesk, sans-serif; paint-order: stroke fill; stroke-linejoin: round; stroke-linecap: round; letter-spacing: 0.06px; }
    .start-line-outline { stroke: #E4FF5C; stroke-width: 8; stroke-linecap: round; }
    .start-line-inner { stroke: #FDFDFC; stroke-width: 4; stroke-linecap: round; }
    .arrow-shaft { stroke: #E4FF5C; stroke-width: 4; stroke-linecap: round; }
    .arrow-head { fill: #E4FF5C; }
  </style>
  <rect width="1240" height="860" fill="#101012"/>
  <path class="track" d="M 438.47 172.41 L 438.54 172.46 L 441.00 174.24 L 443.46 176.02 L 445.92 177.80 L 448.38 179.58 L 450.85 181.36 L 453.31 183.14 L 455.77 184.92 L 458.23 186.70 L 460.69 188.48 L 463.16 190.26 L 465.62 192.04 L 468.08 193.82 L 470.54 195.60 L 473.01 197.38 L 475.47 199.16 L 477.93 200.94 L 480.39 202.72 L 482.86 204.50 L 485.32 206.28 L 487.78 208.06 L 490.24 209.84 L 492.71 211.62 L 495.17 213.40 L 497.63 215.18 L 500.09 216.96 L 502.55 218.74 L 505.02 220.52 L 507.48 222.30 L 509.94 224.08 L 512.40 225.86 L 514.87 227.64 L 517.33 229.42 L 519.79 231.20 L 522.25 232.98 L 524.71 234.76 L 527.18 236.55 L 529.64 238.33 L 532.10 240.11 L 534.56 241.89 L 537.02 243.67 L 539.49 245.45 L 541.95 247.23 L 544.41 249.01 L 546.87 250.79 L 549.33 252.57 L 551.79 254.35 L 554.26 256.13 L 556.72 257.91 L 559.18 259.69 L 561.65 261.47 L 564.11 263.24 L 566.58 265.02 L 569.05 266.79 L 571.52 268.56 L 573.99 270.33 L 576.46 272.10 L 578.93 273.86 L 581.41 275.63 L 583.88 277.39 L 586.36 279.14 L 588.84 280.90 L 591.32 282.66 L 593.80 284.42 L 596.27 286.19 L 598.72 287.97 L 601.17 289.76 L 603.64 291.53 L 606.16 293.27 L 608.62 295.06 L 610.85 297.09 L 612.75 299.41 L 614.28 301.99 L 615.46 304.76 L 616.43 307.65 L 617.34 310.57 L 618.19 313.51 L 618.96 316.46 L 619.61 319.42 L 620.12 322.40 L 620.47 325.39 L 620.69 328.40 L 620.80 331.42 L 620.82 334.45 L 620.77 337.49 L 620.66 340.53 L 620.54 343.58 L 620.40 346.63 L 620.29 349.68 L 620.20 352.72 L 620.13 355.76 L 620.08 358.80 L 620.03 361.83 L 619.98 364.87 L 619.91 367.90 L 619.82 370.93 L 619.70 373.95 L 619.54 376.98 L 619.33 380.01 L 619.08 383.03 L 618.81 386.06 L 618.51 389.09 L 618.21 392.11 L 617.90 395.14 L 617.60 398.17 L 617.32 401.20 L 617.07 404.23 L 616.86 407.27 L 616.70 410.30 L 616.62 413.34 L 616.64 416.37 L 616.77 419.39 L 617.02 422.41 L 617.39 425.41 L 617.83 428.42 L 618.33 431.42 L 618.87 434.41 L 619.45 437.40 L 620.10 440.37 L 620.85 443.30 L 621.74 446.19 L 622.80 449.03 L 624.01 451.82 L 625.35 454.55 L 626.79 457.23 L 628.33 459.86 L 629.93 462.44 L 631.59 464.98 L 633.31 467.48 L 635.07 469.95 L 636.88 472.39 L 638.73 474.80 L 640.61 477.19 L 642.50 479.56 L 644.42 481.91 L 646.35 484.26 L 648.29 486.60 L 650.24 488.92 L 652.20 491.25 L 654.17 493.56 L 656.15 495.87 L 658.13 498.17 L 660.11 500.47 L 662.10 502.76 L 664.10 505.06 L 666.09 507.35 L 668.08 509.64 L 670.08 511.93 L 672.07 514.23 L 674.06 516.52 L 676.05 518.82 L 678.03 521.13 L 680.01 523.43 L 681.98 525.75 L 683.95 528.07 L 685.91 530.39 L 687.88 532.71 L 689.85 535.02 L 691.82 537.33 L 693.80 539.63 L 695.79 541.92 L 697.80 544.20 L 699.82 546.46 L 701.83 548.73 L 703.79 551.04 L 705.68 553.43 L 707.44 555.92 L 709.03 558.56 L 710.33 561.32 L 711.21 564.17 L 711.51 567.09 L 711.10 570.05 L 709.99 572.94 L 708.38 575.62 L 706.41 577.93 L 704.13 579.84 L 701.53 581.32 L 698.72 582.48 L 695.82 583.49 L 692.94 584.47 L 690.07 585.45 L 687.20 586.42 L 684.32 587.39 L 681.44 588.36 L 678.56 589.33 L 675.68 590.29 L 672.79 591.25 L 669.91 592.21 L 667.02 593.16 L 664.14 594.11 L 661.25 595.06 L 658.37 596.01 L 655.48 596.97 L 652.61 597.95 L 649.74 598.95 L 646.90 600.01 L 644.13 601.21 L 641.49 602.67 L 639.03 604.49 L 636.83 606.73 L 635.26 609.32 L 634.73 612.12 L 635.30 614.97 L 636.65 617.70 L 638.45 620.19 L 640.52 622.48 L 642.69 624.62 L 644.96 626.60 L 647.41 628.32 L 650.04 629.79 L 652.79 631.06 L 655.63 632.20 L 658.51 633.26 L 661.38 634.30 L 664.24 635.32 L 667.10 636.32 L 669.97 637.29 L 672.85 638.22 L 675.75 639.11 L 678.67 639.95 L 681.60 640.75 L 684.54 641.51 L 687.50 642.22 L 690.47 642.89 L 693.45 643.50 L 696.44 644.07 L 699.43 644.60 L 702.43 645.07 L 705.44 645.49 L 708.45 645.87 L 711.46 646.20 L 714.49 646.49 L 717.51 646.72 L 720.54 646.92 L 723.58 647.07 L 726.62 647.17 L 729.66 647.22 L 732.69 647.20 L 735.72 647.05 L 738.75 646.76 L 741.76 646.29 L 744.74 645.57 L 747.54 644.45 L 750.06 642.83 L 752.38 640.87 L 754.61 638.80 L 756.78 636.68 L 758.90 634.51 L 760.98 632.29 L 763.02 630.04 L 765.03 627.77 L 767.02 625.48 L 769.00 623.17 L 770.97 620.86 L 772.94 618.54 L 774.91 616.23 L 776.89 613.93 L 778.87 611.62 L 780.85 609.32 L 782.83 607.01 L 784.81 604.71 L 786.80 602.41 L 788.78 600.11 L 790.76 597.80 L 792.74 595.50 L 794.73 593.20 L 796.71 590.90 L 798.69 588.59 L 800.67 586.29 L 802.65 583.99 L 804.63 581.68 L 806.61 579.38 L 808.59 577.07 L 810.57 574.77 L 812.55 572.46 L 814.53 570.16 L 816.51 567.85 L 818.49 565.55 L 820.47 563.24 L 822.45 560.94 L 824.43 558.63 L 826.41 556.33 L 828.39 554.02 L 830.37 551.71 L 832.34 549.41 L 834.32 547.10 L 836.30 544.80 L 838.28 542.49 L 840.26 540.19 L 842.24 537.88 L 844.22 535.58 L 846.20 533.27 L 848.18 530.96 L 850.16 528.66 L 852.14 526.35 L 854.12 524.05 L 856.10 521.75 L 858.08 519.44 L 860.06 517.14 L 862.04 514.83 L 864.02 512.53 L 866.00 510.23 L 867.98 507.92 L 869.96 505.62 L 871.94 503.32 L 873.93 501.01 L 875.91 498.71 L 877.89 496.41 L 879.87 494.11 L 881.86 491.80 L 883.84 489.50 L 885.82 487.20 L 887.80 484.90 L 889.79 482.59 L 891.77 480.29 L 893.75 477.99 L 895.73 475.69 L 897.72 473.38 L 899.70 471.08 L 901.68 468.78 L 903.66 466.48 L 905.64 464.17 L 907.63 461.87 L 909.61 459.57 L 911.59 457.26 L 913.57 454.96 L 915.55 452.65 L 917.53 450.35 L 919.51 448.04 L 921.49 445.74 L 923.47 443.43 L 925.44 441.13 L 927.42 438.82 L 929.40 436.51 L 931.38 434.21 L 933.35 431.90 L 935.33 429.59 L 937.30 427.28 L 939.28 424.97 L 941.25 422.66 L 943.23 420.35 L 945.20 418.04 L 947.17 415.73 L 949.14 413.42 L 951.11 411.10 L 953.08 408.79 L 955.05 406.47 L 957.02 404.16 L 958.98 401.84 L 960.95 399.53 L 962.91 397.21 L 964.88 394.89 L 966.84 392.57 L 968.80 390.25 L 970.76 387.93 L 972.72 385.61 L 974.68 383.28 L 976.64 380.96 L 978.60 378.64 L 980.56 376.32 L 982.52 374.00 L 984.48 371.68 L 986.45 369.36 L 988.42 367.05 L 990.39 364.74 L 992.37 362.43 L 994.35 360.13 L 996.32 357.82 L 998.29 355.50 L 1000.25 353.18 L 1002.20 350.85 L 1004.13 348.50 L 1006.04 346.14 L 1007.93 343.76 L 1009.76 341.34 L 1011.41 338.81 L 1012.77 336.11 L 1013.86 333.27 L 1014.79 330.37 L 1015.62 327.44 L 1016.31 324.49 L 1016.85 321.50 L 1017.23 318.49 L 1017.45 315.46 L 1017.52 312.42 L 1017.41 309.39 L 1017.11 306.38 L 1016.60 303.38 L 1015.88 300.42 L 1014.91 297.53 L 1013.67 294.77 L 1012.14 292.18 L 1010.29 289.79 L 1008.15 287.64 L 1005.76 285.76 L 1003.17 284.18 L 1000.42 282.93 L 997.55 282.01 L 994.60 281.38 L 991.58 280.97 L 988.54 280.68 L 985.50 280.47 L 982.46 280.27 L 979.43 280.09 L 976.41 279.92 L 973.38 279.75 L 970.36 279.57 L 967.34 279.37 L 964.31 279.16 L 961.28 278.91 L 958.23 278.63 L 955.19 278.30 L 952.16 277.88 L 949.16 277.35 L 946.21 276.67 L 943.33 275.82 L 940.54 274.77 L 937.85 273.48 L 935.28 271.92 L 932.85 270.07 L 930.58 267.93 L 928.50 265.61 L 926.63 263.24 L 924.97 260.79 L 923.55 258.18 L 922.38 255.36 L 921.49 252.41 L 920.90 249.39 L 920.65 246.37 L 920.76 243.39 L 921.21 240.45 L 922.01 237.53 L 923.11 234.64 L 924.45 231.86 L 925.99 229.24 L 927.71 226.79 L 929.63 224.51 L 931.74 222.40 L 934.05 220.47 L 936.54 218.74 L 939.19 217.21 L 941.96 215.90 L 944.83 214.82 L 947.78 213.99 L 950.78 213.42 L 953.79 213.13 L 956.81 213.12 L 959.80 213.42 L 962.75 214.00 L 965.66 214.81 L 968.53 215.80 L 971.36 216.92 L 974.16 218.12 L 976.94 219.37 L 979.69 220.65 L 982.43 221.96 L 985.18 223.26 L 987.92 224.56 L 990.67 225.85 L 993.43 227.13 L 996.19 228.40 L 998.95 229.67 L 1001.71 230.93 L 1004.48 232.19 L 1007.25 233.45 L 1010.02 234.70 L 1012.78 235.95 L 1015.55 237.20 L 1018.32 238.45 L 1021.09 239.71 L 1023.85 240.96 L 1026.62 242.22 L 1029.38 243.49 L 1032.14 244.76 L 1034.90 246.03 L 1037.66 247.32 L 1040.40 248.63 L 1043.13 249.97 L 1045.84 251.34 L 1048.51 252.77 L 1051.15 254.26 L 1053.74 255.82 L 1056.28 257.46 L 1058.76 259.20 L 1061.18 261.04 L 1063.53 262.97 L 1065.85 264.96 L 1068.13 266.99 L 1070.40 269.03 L 1072.65 271.07 L 1074.88 273.12 L 1077.09 275.19 L 1079.26 277.30 L 1081.39 279.46 L 1083.47 281.67 L 1085.54 283.89 L 1087.61 286.12 L 1089.72 288.33 L 1091.87 290.49 L 1094.03 292.65 L 1096.11 294.85 L 1098.05 297.16 L 1099.76 299.63 L 1101.26 302.25 L 1102.63 304.97 L 1103.94 307.70 L 1105.22 310.45 L 1106.45 313.23 L 1107.62 316.04 L 1108.71 318.88 L 1109.73 321.74 L 1110.66 324.63 L 1111.49 327.54 L 1112.25 330.48 L 1112.93 333.43 L 1113.55 336.40 L 1114.12 339.38 L 1114.64 342.37 L 1115.13 345.37 L 1115.60 348.37 L 1116.05 351.38 L 1116.49 354.38 L 1116.94 357.39 L 1117.38 360.40 L 1117.81 363.41 L 1118.24 366.42 L 1118.67 369.43 L 1119.09 372.44 L 1119.51 375.45 L 1119.93 378.46 L 1120.34 381.47 L 1120.76 384.48 L 1121.16 387.49 L 1121.57 390.50 L 1121.97 393.51 L 1122.37 396.52 L 1122.77 399.54 L 1123.16 402.55 L 1123.55 405.56 L 1123.94 408.57 L 1124.33 411.59 L 1124.71 414.60 L 1125.10 417.61 L 1125.48 420.63 L 1125.86 423.64 L 1126.24 426.66 L 1126.61 429.67 L 1126.99 432.68 L 1127.36 435.70 L 1127.73 438.71 L 1128.10 441.73 L 1128.47 444.75 L 1128.84 447.76 L 1129.20 450.78 L 1129.57 453.79 L 1129.93 456.81 L 1130.30 459.83 L 1130.66 462.84 L 1131.02 465.86 L 1131.39 468.88 L 1131.75 471.89 L 1132.11 474.91 L 1132.47 477.93 L 1132.82 480.95 L 1133.18 483.97 L 1133.53 486.98 L 1133.88 490.00 L 1134.23 493.02 L 1134.57 496.04 L 1134.92 499.06 L 1135.25 502.08 L 1135.59 505.10 L 1135.92 508.12 L 1136.24 511.14 L 1136.56 514.16 L 1136.88 517.18 L 1137.19 520.20 L 1137.50 523.23 L 1137.80 526.25 L 1138.10 529.27 L 1138.40 532.29 L 1138.69 535.32 L 1138.98 538.34 L 1139.28 541.36 L 1139.57 544.39 L 1139.87 547.41 L 1140.17 550.43 L 1140.47 553.46 L 1140.78 556.48 L 1141.09 559.51 L 1141.41 562.53 L 1141.73 565.55 L 1142.06 568.58 L 1142.40 571.60 L 1142.75 574.63 L 1143.09 577.65 L 1143.40 580.67 L 1143.61 583.69 L 1143.69 586.71 L 1143.57 589.72 L 1143.23 592.72 L 1142.71 595.71 L 1142.07 598.69 L 1141.33 601.65 L 1140.54 604.59 L 1139.71 607.51 L 1138.83 610.40 L 1137.87 613.27 L 1136.83 616.12 L 1135.70 618.94 L 1134.48 621.72 L 1133.15 624.46 L 1131.73 627.14 L 1130.20 629.77 L 1128.58 632.32 L 1126.84 634.80 L 1125.00 637.21 L 1123.04 639.55 L 1120.97 641.79 L 1118.74 643.86 L 1116.30 645.64 L 1113.67 647.14 L 1110.95 648.48 L 1108.19 649.76 L 1105.41 650.97 L 1102.61 652.13 L 1099.78 653.25 L 1096.94 654.33 L 1094.09 655.37 L 1091.23 656.38 L 1088.35 657.37 L 1085.48 658.35 L 1082.59 659.32 L 1079.71 660.27 L 1076.82 661.22 L 1073.93 662.15 L 1071.03 663.07 L 1068.13 663.98 L 1065.23 664.87 L 1062.32 665.76 L 1059.41 666.63 L 1056.49 667.48 L 1053.57 668.33 L 1050.65 669.15 L 1047.72 669.97 L 1044.79 670.77 L 1041.86 671.55 L 1038.92 672.32 L 1035.98 673.07 L 1033.03 673.80 L 1030.08 674.52 L 1027.12 675.22 L 1024.16 675.91 L 1021.20 676.58 L 1018.23 677.23 L 1015.26 677.86 L 1012.29 678.48 L 1009.31 679.08 L 1006.33 679.66 L 1003.34 680.23 L 1000.35 680.78 L 997.36 681.31 L 994.37 681.82 L 991.37 682.32 L 988.37 682.80 L 985.36 683.26 L 982.36 683.70 L 979.35 684.13 L 976.34 684.54 L 973.33 684.93 L 970.31 685.30 L 967.29 685.66 L 964.27 686.00 L 961.25 686.32 L 958.23 686.64 L 955.21 686.94 L 952.18 687.23 L 949.16 687.51 L 946.13 687.78 L 943.10 688.03 L 940.07 688.29 L 937.05 688.53 L 934.02 688.77 L 930.99 689.00 L 927.96 689.22 L 924.93 689.44 L 921.90 689.66 L 918.87 689.88 L 915.84 690.09 L 912.81 690.31 L 909.78 690.52 L 906.75 690.73 L 903.72 690.93 L 900.69 691.14 L 897.66 691.34 L 894.63 691.55 L 891.60 691.75 L 888.57 691.95 L 885.54 692.15 L 882.50 692.36 L 879.47 692.56 L 876.44 692.76 L 873.40 692.96 L 870.37 693.16 L 867.33 693.36 L 864.29 693.56 L 861.25 693.78 L 858.22 694.01 L 855.19 694.27 L 852.17 694.57 L 849.15 694.92 L 846.15 695.34 L 843.17 695.83 L 840.20 696.41 L 837.25 697.08 L 834.32 697.86 L 831.42 698.73 L 828.53 699.69 L 825.68 700.74 L 822.85 701.87 L 820.05 703.07 L 817.29 704.34 L 814.55 705.67 L 811.85 707.06 L 809.18 708.51 L 806.55 710.02 L 803.96 711.59 L 801.41 713.23 L 798.91 714.94 L 796.43 716.69 L 793.93 718.42 L 791.38 720.07 L 788.75 721.56 L 785.99 722.84 L 783.12 723.89 L 780.18 724.70 L 777.19 725.24 L 774.17 725.50 L 771.15 725.49 L 768.14 725.23 L 765.14 724.75 L 762.17 724.10 L 759.24 723.29 L 756.34 722.38 L 753.46 721.41 L 750.58 720.41 L 747.71 719.44 L 744.82 718.51 L 741.92 717.61 L 739.02 716.73 L 736.12 715.82 L 733.23 714.87 L 730.35 713.88 L 727.47 712.88 L 724.59 711.88 L 721.71 710.92 L 718.82 710.00 L 715.93 709.14 L 713.01 708.35 L 710.08 707.61 L 707.12 706.93 L 704.13 706.32 L 701.12 705.80 L 698.10 705.36 L 695.06 705.04 L 692.02 704.83 L 688.99 704.75 L 685.96 704.81 L 682.94 705.03 L 679.95 705.42 L 676.98 705.98 L 674.04 706.71 L 671.15 707.60 L 668.30 708.65 L 665.51 709.85 L 662.78 711.20 L 660.12 712.68 L 657.54 714.30 L 655.04 716.04 L 652.64 717.90 L 650.30 719.84 L 648.00 721.84 L 645.73 723.86 L 643.45 725.88 L 641.15 727.86 L 638.81 729.76 L 636.39 731.56 L 633.88 733.23 L 631.25 734.74 L 628.52 736.07 L 625.70 737.22 L 622.81 738.18 L 619.85 738.94 L 616.86 739.51 L 613.83 739.86 L 610.80 740.00 L 607.77 739.92 L 604.76 739.61 L 601.79 739.08 L 598.86 738.33 L 595.99 737.38 L 593.18 736.23 L 590.45 734.90 L 587.81 733.39 L 585.27 731.72 L 582.84 729.89 L 580.53 727.92 L 578.33 725.82 L 576.25 723.61 L 574.25 721.31 L 572.34 718.95 L 570.48 716.55 L 568.69 714.12 L 566.94 711.65 L 565.23 709.15 L 563.55 706.63 L 561.90 704.08 L 560.28 701.51 L 558.69 698.92 L 557.12 696.31 L 555.59 693.68 L 554.07 691.05 L 552.55 688.42 L 551.00 685.82 L 549.40 683.26 L 547.72 680.75 L 545.94 678.31 L 544.02 675.96 L 542.09 673.60 L 540.14 671.27 L 538.05 669.07 L 535.84 667.01 L 533.51 665.10 L 531.07 663.32 L 528.53 661.67 L 525.92 660.12 L 523.24 658.66 L 520.54 657.25 L 517.82 655.87 L 515.10 654.50 L 512.39 653.13 L 509.68 651.75 L 506.98 650.38 L 504.27 649.01 L 501.57 647.63 L 498.86 646.25 L 496.15 644.87 L 493.45 643.49 L 490.74 642.11 L 488.04 640.73 L 485.33 639.35 L 482.62 637.97 L 479.91 636.59 L 477.20 635.21 L 474.50 633.84 L 471.79 632.46 L 469.07 631.09 L 466.36 629.71 L 463.65 628.34 L 460.94 626.97 L 458.23 625.60 L 455.52 624.23 L 452.80 622.86 L 450.09 621.50 L 447.38 620.13 L 444.66 618.76 L 441.95 617.40 L 439.24 616.03 L 436.52 614.66 L 433.81 613.30 L 431.09 611.93 L 428.38 610.57 L 425.66 609.21 L 422.95 607.84 L 420.23 606.48 L 417.52 605.11 L 414.80 603.75 L 412.09 602.38 L 409.38 601.02 L 406.66 599.65 L 403.95 598.29 L 401.23 596.92 L 398.52 595.55 L 395.81 594.19 L 393.09 592.82 L 390.38 591.45 L 387.67 590.08 L 384.96 588.71 L 382.25 587.34 L 379.53 585.97 L 376.82 584.59 L 374.11 583.22 L 371.40 581.85 L 368.70 580.47 L 365.99 579.09 L 363.28 577.72 L 360.57 576.34 L 357.86 574.96 L 355.15 573.58 L 352.45 572.21 L 349.74 570.83 L 347.03 569.45 L 344.32 568.07 L 341.62 566.69 L 338.91 565.31 L 336.20 563.93 L 333.50 562.55 L 330.79 561.17 L 328.08 559.79 L 325.37 558.41 L 322.67 557.03 L 319.96 555.65 L 317.25 554.28 L 314.54 552.90 L 311.83 551.52 L 309.13 550.14 L 306.42 548.77 L 303.71 547.39 L 301.00 546.02 L 298.29 544.64 L 295.58 543.27 L 292.87 541.90 L 290.15 540.53 L 287.44 539.16 L 284.73 537.79 L 282.02 536.42 L 279.30 535.05 L 276.59 533.69 L 273.87 532.33 L 271.16 530.96 L 268.44 529.60 L 265.72 528.25 L 263.00 526.89 L 260.28 525.54 L 257.56 524.19 L 254.84 522.84 L 252.11 521.50 L 249.39 520.16 L 246.66 518.82 L 243.93 517.49 L 241.20 516.16 L 238.46 514.83 L 235.72 513.51 L 232.98 512.20 L 230.24 510.89 L 227.50 509.57 L 224.77 508.25 L 222.04 506.91 L 219.34 505.53 L 216.65 504.12 L 213.98 502.66 L 211.33 501.19 L 208.69 499.69 L 206.04 498.19 L 203.40 496.70 L 200.75 495.20 L 198.11 493.70 L 195.47 492.19 L 192.83 490.68 L 190.20 489.16 L 187.57 487.63 L 184.96 486.08 L 182.35 484.52 L 179.76 482.94 L 177.17 481.35 L 174.60 479.74 L 172.03 478.12 L 169.47 476.48 L 166.92 474.84 L 164.37 473.19 L 161.82 471.54 L 159.28 469.88 L 156.73 468.22 L 154.19 466.56 L 151.65 464.90 L 149.10 463.24 L 146.55 461.58 L 144.00 459.93 L 141.44 458.29 L 138.87 456.65 L 136.30 455.03 L 133.72 453.42 L 131.13 451.81 L 128.56 450.19 L 126.00 448.55 L 123.48 446.86 L 120.99 445.13 L 118.56 443.33 L 116.19 441.45 L 113.89 439.48 L 111.68 437.41 L 109.57 435.22 L 107.58 432.92 L 105.74 430.50 L 104.07 427.97 L 102.59 425.33 L 101.30 422.58 L 100.17 419.75 L 99.20 416.87 L 98.36 413.95 L 97.64 411.00 L 97.04 408.03 L 96.58 405.04 L 96.24 402.03 L 96.05 399.00 L 96.00 395.95 L 96.12 392.91 L 96.43 389.89 L 96.94 386.91 L 97.67 383.98 L 98.60 381.11 L 99.73 378.30 L 101.03 375.56 L 102.50 372.90 L 104.13 370.32 L 105.89 367.84 L 107.79 365.44 L 109.79 363.15 L 111.90 360.97 L 114.11 358.90 L 116.43 356.96 L 118.85 355.17 L 121.38 353.52 L 124.01 352.03 L 126.71 350.65 L 129.47 349.33 L 132.23 348.05 L 134.99 346.75 L 137.73 345.43 L 140.45 344.08 L 143.16 342.70 L 145.84 341.30 L 148.52 339.88 L 151.18 338.43 L 153.84 336.97 L 156.48 335.48 L 159.12 333.97 L 161.75 332.44 L 164.37 330.89 L 166.97 329.31 L 169.55 327.70 L 172.10 326.06 L 174.64 324.39 L 177.15 322.69 L 179.64 320.96 L 182.11 319.20 L 184.56 317.41 L 186.99 315.60 L 189.41 313.75 L 191.80 311.88 L 194.18 309.99 L 196.54 308.07 L 198.88 306.13 L 201.20 304.16 L 203.50 302.18 L 205.78 300.17 L 208.05 298.15 L 210.29 296.11 L 212.53 294.05 L 214.75 291.98 L 216.95 289.89 L 219.15 287.79 L 221.34 285.69 L 223.52 283.57 L 225.69 281.45 L 227.86 279.32 L 230.03 277.19 L 232.19 275.06 L 234.35 272.92 L 236.51 270.78 L 238.68 268.65 L 240.85 266.52 L 243.02 264.40 L 245.20 262.28 L 247.38 260.17 L 249.58 258.06 L 251.78 255.97 L 253.99 253.88 L 256.21 251.80 L 258.43 249.74 L 260.67 247.68 L 262.91 245.64 L 265.17 243.61 L 267.43 241.59 L 269.71 239.58 L 271.99 237.58 L 274.28 235.58 L 276.58 233.59 L 278.88 231.61 L 281.19 229.62 L 283.50 227.63 L 285.82 225.64 L 288.11 223.63 L 290.33 221.56 L 292.32 219.35 L 293.67 216.80 L 294.21 213.89 L 294.05 210.78 L 293.40 207.71 L 292.38 204.86 L 290.98 202.27 L 289.20 199.90 L 287.14 197.70 L 284.94 195.56 L 282.74 193.40 L 280.68 191.14 L 278.83 188.73 L 277.21 186.19 L 275.81 183.51 L 274.63 180.71 L 273.73 177.80 L 273.24 174.83 L 273.35 171.82 L 274.06 168.86 L 275.25 166.05 L 276.78 163.45 L 278.60 161.04 L 280.61 158.78 L 282.77 156.63 L 285.00 154.54 L 287.26 152.50 L 289.55 150.49 L 291.88 148.53 L 294.23 146.62 L 296.63 144.76 L 299.06 142.95 L 301.53 141.20 L 304.04 139.50 L 306.59 137.86 L 309.18 136.28 L 311.82 134.76 L 314.49 133.31 L 317.20 131.92 L 319.94 130.60 L 322.72 129.34 L 325.52 128.16 L 328.34 127.05 L 331.19 126.01 L 334.06 125.04 L 336.95 124.14 L 339.86 123.30 L 342.80 122.52 L 345.75 121.78 L 348.72 121.11 L 351.72 120.55 L 354.73 120.16 L 357.76 120.00 L 360.80 120.13 L 363.78 120.63 L 366.64 121.59 L 369.33 122.97 L 371.92 124.59 L 374.46 126.28 L 376.96 128.00 L 379.45 129.75 L 381.91 131.51 L 384.38 133.29 L 386.84 135.06 L 389.30 136.83 L 391.76 138.61 L 394.23 140.39 L 396.69 142.17 L 399.15 143.95 L 401.61 145.74 L 404.07 147.52 L 406.53 149.30 L 409.00 151.08 L 411.46 152.87 L 413.92 154.65 L 416.38 156.43 L 418.84 158.21 L 421.30 159.99 L 423.77 161.77 L 426.23 163.55 L 428.69 165.34 L 431.15 167.12 L 433.61 168.90 L 436.07 170.68 L 438.47 172.41" stroke="#8C7E2F" stroke-width="31"/>
  <path class="track" d="M 438.47 172.41 L 438.54 172.46 L 441.00 174.24 L 443.46 176.02 L 445.92 177.80 L 448.38 179.58 L 450.85 181.36 L 453.31 183.14 L 455.77 184.92 L 458.23 186.70 L 460.69 188.48 L 463.16 190.26 L 465.62 192.04 L 468.08 193.82 L 470.54 195.60 L 473.01 197.38 L 475.47 199.16 L 477.93 200.94 L 480.39 202.72 L 482.86 204.50 L 485.32 206.28 L 487.78 208.06 L 490.24 209.84 L 492.71 211.62 L 495.17 213.40 L 497.63 215.18 L 500.09 216.96 L 502.55 218.74 L 505.02 220.52 L 507.48 222.30 L 509.94 224.08 L 512.40 225.86 L 514.87 227.64 L 517.33 229.42 L 519.79 231.20 L 522.25 232.98 L 524.71 234.76 L 527.18 236.55 L 529.64 238.33 L 532.10 240.11 L 534.56 241.89 L 537.02 243.67 L 539.49 245.45 L 541.95 247.23 L 544.41 249.01 L 546.87 250.79 L 549.33 252.57 L 551.79 254.35 L 554.26 256.13 L 556.72 257.91 L 559.18 259.69 L 561.65 261.47 L 564.11 263.24 L 566.58 265.02 L 569.05 266.79 L 571.52 268.56 L 573.99 270.33 L 576.46 272.10 L 578.93 273.86 L 581.41 275.63 L 583.88 277.39 L 586.36 279.14 L 588.84 280.90 L 591.32 282.66 L 593.80 284.42 L 596.27 286.19 L 598.72 287.97 L 601.17 289.76 L 603.64 291.53 L 606.16 293.27 L 608.62 295.06 L 610.85 297.09 L 612.75 299.41 L 614.28 301.99 L 615.46 304.76 L 616.43 307.65 L 617.34 310.57 L 618.19 313.51 L 618.96 316.46 L 619.61 319.42 L 620.12 322.40 L 620.47 325.39 L 620.69 328.40 L 620.80 331.42 L 620.82 334.45 L 620.77 337.49 L 620.66 340.53 L 620.54 343.58 L 620.40 346.63 L 620.29 349.68 L 620.20 352.72 L 620.13 355.76 L 620.08 358.80 L 620.03 361.83 L 619.98 364.87 L 619.91 367.90 L 619.82 370.93 L 619.70 373.95 L 619.54 376.98 L 619.33 380.01 L 619.08 383.03 L 618.81 386.06 L 618.51 389.09 L 618.21 392.11 L 617.90 395.14 L 617.60 398.17 L 617.32 401.20 L 617.07 404.23 L 616.86 407.27 L 616.70 410.30 L 616.62 413.34 L 616.64 416.37 L 616.77 419.39 L 617.02 422.41 L 617.39 425.41 L 617.83 428.42 L 618.33 431.42 L 618.87 434.41 L 619.45 437.40 L 620.10 440.37 L 620.85 443.30 L 621.74 446.19 L 622.80 449.03 L 624.01 451.82 L 625.35 454.55 L 626.79 457.23 L 628.33 459.86 L 629.93 462.44 L 631.59 464.98 L 633.31 467.48 L 635.07 469.95 L 636.88 472.39 L 638.73 474.80 L 640.61 477.19 L 642.50 479.56 L 644.42 481.91 L 646.35 484.26 L 648.29 486.60 L 650.24 488.92 L 652.20 491.25 L 654.17 493.56 L 656.15 495.87 L 658.13 498.17 L 660.11 500.47 L 662.10 502.76 L 664.10 505.06 L 666.09 507.35 L 668.08 509.64 L 670.08 511.93 L 672.07 514.23 L 674.06 516.52 L 676.05 518.82 L 678.03 521.13 L 680.01 523.43 L 681.98 525.75 L 683.95 528.07 L 685.91 530.39 L 687.88 532.71 L 689.85 535.02 L 691.82 537.33 L 693.80 539.63 L 695.79 541.92 L 697.80 544.20 L 699.82 546.46 L 701.83 548.73 L 703.79 551.04 L 705.68 553.43 L 707.44 555.92 L 709.03 558.56 L 710.33 561.32 L 711.21 564.17 L 711.51 567.09 L 711.10 570.05 L 709.99 572.94 L 708.38 575.62 L 706.41 577.93 L 704.13 579.84 L 701.53 581.32 L 698.72 582.48 L 695.82 583.49 L 692.94 584.47 L 690.07 585.45 L 687.20 586.42 L 684.32 587.39 L 681.44 588.36 L 678.56 589.33 L 675.68 590.29 L 672.79 591.25 L 669.91 592.21 L 667.02 593.16 L 664.14 594.11 L 661.25 595.06 L 658.37 596.01 L 655.48 596.97 L 652.61 597.95 L 649.74 598.95 L 646.90 600.01 L 644.13 601.21 L 641.49 602.67 L 639.03 604.49 L 636.83 606.73 L 635.26 609.32 L 634.73 612.12 L 635.30 614.97 L 636.65 617.70 L 638.45 620.19 L 640.52 622.48 L 642.69 624.62 L 644.96 626.60 L 647.41 628.32 L 650.04 629.79 L 652.79 631.06 L 655.63 632.20 L 658.51 633.26 L 661.38 634.30 L 664.24 635.32 L 667.10 636.32 L 669.97 637.29 L 672.85 638.22 L 675.75 639.11 L 678.67 639.95 L 681.60 640.75 L 684.54 641.51 L 687.50 642.22 L 690.47 642.89 L 693.45 643.50 L 696.44 644.07 L 699.43 644.60 L 702.43 645.07 L 705.44 645.49 L 708.45 645.87 L 711.46 646.20 L 714.49 646.49 L 717.51 646.72 L 720.54 646.92 L 723.58 647.07 L 726.62 647.17 L 729.66 647.22 L 732.69 647.20 L 735.72 647.05 L 738.75 646.76 L 741.76 646.29 L 744.74 645.57 L 747.54 644.45 L 750.06 642.83 L 752.38 640.87 L 754.61 638.80 L 756.78 636.68 L 758.90 634.51 L 760.98 632.29 L 763.02 630.04 L 765.03 627.77 L 767.02 625.48 L 769.00 623.17 L 770.97 620.86 L 772.94 618.54 L 774.91 616.23 L 776.89 613.93 L 778.87 611.62 L 780.85 609.32 L 782.83 607.01 L 784.81 604.71 L 786.80 602.41 L 788.78 600.11 L 790.76 597.80 L 792.74 595.50 L 794.73 593.20 L 796.71 590.90 L 798.69 588.59 L 800.67 586.29 L 802.65 583.99 L 804.63 581.68 L 806.61 579.38 L 808.59 577.07 L 810.57 574.77 L 812.55 572.46 L 814.53 570.16 L 816.51 567.85 L 818.49 565.55 L 820.47 563.24 L 822.45 560.94 L 824.43 558.63 L 826.41 556.33 L 828.39 554.02 L 830.37 551.71 L 832.34 549.41 L 834.32 547.10 L 836.30 544.80 L 838.28 542.49 L 840.26 540.19 L 842.24 537.88 L 844.22 535.58 L 846.20 533.27 L 848.18 530.96 L 850.16 528.66 L 852.14 526.35 L 854.12 524.05 L 856.10 521.75 L 858.08 519.44 L 860.06 517.14 L 862.04 514.83 L 864.02 512.53 L 866.00 510.23 L 867.98 507.92 L 869.96 505.62 L 871.94 503.32 L 873.93 501.01 L 875.91 498.71 L 877.89 496.41 L 879.87 494.11 L 881.86 491.80 L 883.84 489.50 L 885.82 487.20 L 887.80 484.90 L 889.79 482.59 L 891.77 480.29 L 893.75 477.99 L 895.73 475.69 L 897.72 473.38 L 899.70 471.08 L 901.68 468.78 L 903.66 466.48 L 905.64 464.17 L 907.63 461.87 L 909.61 459.57 L 911.59 457.26 L 913.57 454.96 L 915.55 452.65 L 917.53 450.35 L 919.51 448.04 L 921.49 445.74 L 923.47 443.43 L 925.44 441.13 L 927.42 438.82 L 929.40 436.51 L 931.38 434.21 L 933.35 431.90 L 935.33 429.59 L 937.30 427.28 L 939.28 424.97 L 941.25 422.66 L 943.23 420.35 L 945.20 418.04 L 947.17 415.73 L 949.14 413.42 L 951.11 411.10 L 953.08 408.79 L 955.05 406.47 L 957.02 404.16 L 958.98 401.84 L 960.95 399.53 L 962.91 397.21 L 964.88 394.89 L 966.84 392.57 L 968.80 390.25 L 970.76 387.93 L 972.72 385.61 L 974.68 383.28 L 976.64 380.96 L 978.60 378.64 L 980.56 376.32 L 982.52 374.00 L 984.48 371.68 L 986.45 369.36 L 988.42 367.05 L 990.39 364.74 L 992.37 362.43 L 994.35 360.13 L 996.32 357.82 L 998.29 355.50 L 1000.25 353.18 L 1002.20 350.85 L 1004.13 348.50 L 1006.04 346.14 L 1007.93 343.76 L 1009.76 341.34 L 1011.41 338.81 L 1012.77 336.11 L 1013.86 333.27 L 1014.79 330.37 L 1015.62 327.44 L 1016.31 324.49 L 1016.85 321.50 L 1017.23 318.49 L 1017.45 315.46 L 1017.52 312.42 L 1017.41 309.39 L 1017.11 306.38 L 1016.60 303.38 L 1015.88 300.42 L 1014.91 297.53 L 1013.67 294.77 L 1012.14 292.18 L 1010.29 289.79 L 1008.15 287.64 L 1005.76 285.76 L 1003.17 284.18 L 1000.42 282.93 L 997.55 282.01 L 994.60 281.38 L 991.58 280.97 L 988.54 280.68 L 985.50 280.47 L 982.46 280.27 L 979.43 280.09 L 976.41 279.92 L 973.38 279.75 L 970.36 279.57 L 967.34 279.37 L 964.31 279.16 L 961.28 278.91 L 958.23 278.63 L 955.19 278.30 L 952.16 277.88 L 949.16 277.35 L 946.21 276.67 L 943.33 275.82 L 940.54 274.77 L 937.85 273.48 L 935.28 271.92 L 932.85 270.07 L 930.58 267.93 L 928.50 265.61 L 926.63 263.24 L 924.97 260.79 L 923.55 258.18 L 922.38 255.36 L 921.49 252.41 L 920.90 249.39 L 920.65 246.37 L 920.76 243.39 L 921.21 240.45 L 922.01 237.53 L 923.11 234.64 L 924.45 231.86 L 925.99 229.24 L 927.71 226.79 L 929.63 224.51 L 931.74 222.40 L 934.05 220.47 L 936.54 218.74 L 939.19 217.21 L 941.96 215.90 L 944.83 214.82 L 947.78 213.99 L 950.78 213.42 L 953.79 213.13 L 956.81 213.12 L 959.80 213.42 L 962.75 214.00 L 965.66 214.81 L 968.53 215.80 L 971.36 216.92 L 974.16 218.12 L 976.94 219.37 L 979.69 220.65 L 982.43 221.96 L 985.18 223.26 L 987.92 224.56 L 990.67 225.85 L 993.43 227.13 L 996.19 228.40 L 998.95 229.67 L 1001.71 230.93 L 1004.48 232.19 L 1007.25 233.45 L 1010.02 234.70 L 1012.78 235.95 L 1015.55 237.20 L 1018.32 238.45 L 1021.09 239.71 L 1023.85 240.96 L 1026.62 242.22 L 1029.38 243.49 L 1032.14 244.76 L 1034.90 246.03 L 1037.66 247.32 L 1040.40 248.63 L 1043.13 249.97 L 1045.84 251.34 L 1048.51 252.77 L 1051.15 254.26 L 1053.74 255.82 L 1056.28 257.46 L 1058.76 259.20 L 1061.18 261.04 L 1063.53 262.97 L 1065.85 264.96 L 1068.13 266.99 L 1070.40 269.03 L 1072.65 271.07 L 1074.88 273.12 L 1077.09 275.19 L 1079.26 277.30 L 1081.39 279.46 L 1083.47 281.67 L 1085.54 283.89 L 1087.61 286.12 L 1089.72 288.33 L 1091.87 290.49 L 1094.03 292.65 L 1096.11 294.85 L 1098.05 297.16 L 1099.76 299.63 L 1101.26 302.25 L 1102.63 304.97 L 1103.94 307.70 L 1105.22 310.45 L 1106.45 313.23 L 1107.62 316.04 L 1108.71 318.88 L 1109.73 321.74 L 1110.66 324.63 L 1111.49 327.54 L 1112.25 330.48 L 1112.93 333.43 L 1113.55 336.40 L 1114.12 339.38 L 1114.64 342.37 L 1115.13 345.37 L 1115.60 348.37 L 1116.05 351.38 L 1116.49 354.38 L 1116.94 357.39 L 1117.38 360.40 L 1117.81 363.41 L 1118.24 366.42 L 1118.67 369.43 L 1119.09 372.44 L 1119.51 375.45 L 1119.93 378.46 L 1120.34 381.47 L 1120.76 384.48 L 1121.16 387.49 L 1121.57 390.50 L 1121.97 393.51 L 1122.37 396.52 L 1122.77 399.54 L 1123.16 402.55 L 1123.55 405.56 L 1123.94 408.57 L 1124.33 411.59 L 1124.71 414.60 L 1125.10 417.61 L 1125.48 420.63 L 1125.86 423.64 L 1126.24 426.66 L 1126.61 429.67 L 1126.99 432.68 L 1127.36 435.70 L 1127.73 438.71 L 1128.10 441.73 L 1128.47 444.75 L 1128.84 447.76 L 1129.20 450.78 L 1129.57 453.79 L 1129.93 456.81 L 1130.30 459.83 L 1130.66 462.84 L 1131.02 465.86 L 1131.39 468.88 L 1131.75 471.89 L 1132.11 474.91 L 1132.47 477.93 L 1132.82 480.95 L 1133.18 483.97 L 1133.53 486.98 L 1133.88 490.00 L 1134.23 493.02 L 1134.57 496.04 L 1134.92 499.06 L 1135.25 502.08 L 1135.59 505.10 L 1135.92 508.12 L 1136.24 511.14 L 1136.56 514.16 L 1136.88 517.18 L 1137.19 520.20 L 1137.50 523.23 L 1137.80 526.25 L 1138.10 529.27 L 1138.40 532.29 L 1138.69 535.32 L 1138.98 538.34 L 1139.28 541.36 L 1139.57 544.39 L 1139.87 547.41 L 1140.17 550.43 L 1140.47 553.46 L 1140.78 556.48 L 1141.09 559.51 L 1141.41 562.53 L 1141.73 565.55 L 1142.06 568.58 L 1142.40 571.60 L 1142.75 574.63 L 1143.09 577.65 L 1143.40 580.67 L 1143.61 583.69 L 1143.69 586.71 L 1143.57 589.72 L 1143.23 592.72 L 1142.71 595.71 L 1142.07 598.69 L 1141.33 601.65 L 1140.54 604.59 L 1139.71 607.51 L 1138.83 610.40 L 1137.87 613.27 L 1136.83 616.12 L 1135.70 618.94 L 1134.48 621.72 L 1133.15 624.46 L 1131.73 627.14 L 1130.20 629.77 L 1128.58 632.32 L 1126.84 634.80 L 1125.00 637.21 L 1123.04 639.55 L 1120.97 641.79 L 1118.74 643.86 L 1116.30 645.64 L 1113.67 647.14 L 1110.95 648.48 L 1108.19 649.76 L 1105.41 650.97 L 1102.61 652.13 L 1099.78 653.25 L 1096.94 654.33 L 1094.09 655.37 L 1091.23 656.38 L 1088.35 657.37 L 1085.48 658.35 L 1082.59 659.32 L 1079.71 660.27 L 1076.82 661.22 L 1073.93 662.15 L 1071.03 663.07 L 1068.13 663.98 L 1065.23 664.87 L 1062.32 665.76 L 1059.41 666.63 L 1056.49 667.48 L 1053.57 668.33 L 1050.65 669.15 L 1047.72 669.97 L 1044.79 670.77 L 1041.86 671.55 L 1038.92 672.32 L 1035.98 673.07 L 1033.03 673.80 L 1030.08 674.52 L 1027.12 675.22 L 1024.16 675.91 L 1021.20 676.58 L 1018.23 677.23 L 1015.26 677.86 L 1012.29 678.48 L 1009.31 679.08 L 1006.33 679.66 L 1003.34 680.23 L 1000.35 680.78 L 997.36 681.31 L 994.37 681.82 L 991.37 682.32 L 988.37 682.80 L 985.36 683.26 L 982.36 683.70 L 979.35 684.13 L 976.34 684.54 L 973.33 684.93 L 970.31 685.30 L 967.29 685.66 L 964.27 686.00 L 961.25 686.32 L 958.23 686.64 L 955.21 686.94 L 952.18 687.23 L 949.16 687.51 L 946.13 687.78 L 943.10 688.03 L 940.07 688.29 L 937.05 688.53 L 934.02 688.77 L 930.99 689.00 L 927.96 689.22 L 924.93 689.44 L 921.90 689.66 L 918.87 689.88 L 915.84 690.09 L 912.81 690.31 L 909.78 690.52 L 906.75 690.73 L 903.72 690.93 L 900.69 691.14 L 897.66 691.34 L 894.63 691.55 L 891.60 691.75 L 888.57 691.95 L 885.54 692.15 L 882.50 692.36 L 879.47 692.56 L 876.44 692.76 L 873.40 692.96 L 870.37 693.16 L 867.33 693.36 L 864.29 693.56 L 861.25 693.78 L 858.22 694.01 L 855.19 694.27 L 852.17 694.57 L 849.15 694.92 L 846.15 695.34 L 843.17 695.83 L 840.20 696.41 L 837.25 697.08 L 834.32 697.86 L 831.42 698.73 L 828.53 699.69 L 825.68 700.74 L 822.85 701.87 L 820.05 703.07 L 817.29 704.34 L 814.55 705.67 L 811.85 707.06 L 809.18 708.51 L 806.55 710.02 L 803.96 711.59 L 801.41 713.23 L 798.91 714.94 L 796.43 716.69 L 793.93 718.42 L 791.38 720.07 L 788.75 721.56 L 785.99 722.84 L 783.12 723.89 L 780.18 724.70 L 777.19 725.24 L 774.17 725.50 L 771.15 725.49 L 768.14 725.23 L 765.14 724.75 L 762.17 724.10 L 759.24 723.29 L 756.34 722.38 L 753.46 721.41 L 750.58 720.41 L 747.71 719.44 L 744.82 718.51 L 741.92 717.61 L 739.02 716.73 L 736.12 715.82 L 733.23 714.87 L 730.35 713.88 L 727.47 712.88 L 724.59 711.88 L 721.71 710.92 L 718.82 710.00 L 715.93 709.14 L 713.01 708.35 L 710.08 707.61 L 707.12 706.93 L 704.13 706.32 L 701.12 705.80 L 698.10 705.36 L 695.06 705.04 L 692.02 704.83 L 688.99 704.75 L 685.96 704.81 L 682.94 705.03 L 679.95 705.42 L 676.98 705.98 L 674.04 706.71 L 671.15 707.60 L 668.30 708.65 L 665.51 709.85 L 662.78 711.20 L 660.12 712.68 L 657.54 714.30 L 655.04 716.04 L 652.64 717.90 L 650.30 719.84 L 648.00 721.84 L 645.73 723.86 L 643.45 725.88 L 641.15 727.86 L 638.81 729.76 L 636.39 731.56 L 633.88 733.23 L 631.25 734.74 L 628.52 736.07 L 625.70 737.22 L 622.81 738.18 L 619.85 738.94 L 616.86 739.51 L 613.83 739.86 L 610.80 740.00 L 607.77 739.92 L 604.76 739.61 L 601.79 739.08 L 598.86 738.33 L 595.99 737.38 L 593.18 736.23 L 590.45 734.90 L 587.81 733.39 L 585.27 731.72 L 582.84 729.89 L 580.53 727.92 L 578.33 725.82 L 576.25 723.61 L 574.25 721.31 L 572.34 718.95 L 570.48 716.55 L 568.69 714.12 L 566.94 711.65 L 565.23 709.15 L 563.55 706.63 L 561.90 704.08 L 560.28 701.51 L 558.69 698.92 L 557.12 696.31 L 555.59 693.68 L 554.07 691.05 L 552.55 688.42 L 551.00 685.82 L 549.40 683.26 L 547.72 680.75 L 545.94 678.31 L 544.02 675.96 L 542.09 673.60 L 540.14 671.27 L 538.05 669.07 L 535.84 667.01 L 533.51 665.10 L 531.07 663.32 L 528.53 661.67 L 525.92 660.12 L 523.24 658.66 L 520.54 657.25 L 517.82 655.87 L 515.10 654.50 L 512.39 653.13 L 509.68 651.75 L 506.98 650.38 L 504.27 649.01 L 501.57 647.63 L 498.86 646.25 L 496.15 644.87 L 493.45 643.49 L 490.74 642.11 L 488.04 640.73 L 485.33 639.35 L 482.62 637.97 L 479.91 636.59 L 477.20 635.21 L 474.50 633.84 L 471.79 632.46 L 469.07 631.09 L 466.36 629.71 L 463.65 628.34 L 460.94 626.97 L 458.23 625.60 L 455.52 624.23 L 452.80 622.86 L 450.09 621.50 L 447.38 620.13 L 444.66 618.76 L 441.95 617.40 L 439.24 616.03 L 436.52 614.66 L 433.81 613.30 L 431.09 611.93 L 428.38 610.57 L 425.66 609.21 L 422.95 607.84 L 420.23 606.48 L 417.52 605.11 L 414.80 603.75 L 412.09 602.38 L 409.38 601.02 L 406.66 599.65 L 403.95 598.29 L 401.23 596.92 L 398.52 595.55 L 395.81 594.19 L 393.09 592.82 L 390.38 591.45 L 387.67 590.08 L 384.96 588.71 L 382.25 587.34 L 379.53 585.97 L 376.82 584.59 L 374.11 583.22 L 371.40 581.85 L 368.70 580.47 L 365.99 579.09 L 363.28 577.72 L 360.57 576.34 L 357.86 574.96 L 355.15 573.58 L 352.45 572.21 L 349.74 570.83 L 347.03 569.45 L 344.32 568.07 L 341.62 566.69 L 338.91 565.31 L 336.20 563.93 L 333.50 562.55 L 330.79 561.17 L 328.08 559.79 L 325.37 558.41 L 322.67 557.03 L 319.96 555.65 L 317.25 554.28 L 314.54 552.90 L 311.83 551.52 L 309.13 550.14 L 306.42 548.77 L 303.71 547.39 L 301.00 546.02 L 298.29 544.64 L 295.58 543.27 L 292.87 541.90 L 290.15 540.53 L 287.44 539.16 L 284.73 537.79 L 282.02 536.42 L 279.30 535.05 L 276.59 533.69 L 273.87 532.33 L 271.16 530.96 L 268.44 529.60 L 265.72 528.25 L 263.00 526.89 L 260.28 525.54 L 257.56 524.19 L 254.84 522.84 L 252.11 521.50 L 249.39 520.16 L 246.66 518.82 L 243.93 517.49 L 241.20 516.16 L 238.46 514.83 L 235.72 513.51 L 232.98 512.20 L 230.24 510.89 L 227.50 509.57 L 224.77 508.25 L 222.04 506.91 L 219.34 505.53 L 216.65 504.12 L 213.98 502.66 L 211.33 501.19 L 208.69 499.69 L 206.04 498.19 L 203.40 496.70 L 200.75 495.20 L 198.11 493.70 L 195.47 492.19 L 192.83 490.68 L 190.20 489.16 L 187.57 487.63 L 184.96 486.08 L 182.35 484.52 L 179.76 482.94 L 177.17 481.35 L 174.60 479.74 L 172.03 478.12 L 169.47 476.48 L 166.92 474.84 L 164.37 473.19 L 161.82 471.54 L 159.28 469.88 L 156.73 468.22 L 154.19 466.56 L 151.65 464.90 L 149.10 463.24 L 146.55 461.58 L 144.00 459.93 L 141.44 458.29 L 138.87 456.65 L 136.30 455.03 L 133.72 453.42 L 131.13 451.81 L 128.56 450.19 L 126.00 448.55 L 123.48 446.86 L 120.99 445.13 L 118.56 443.33 L 116.19 441.45 L 113.89 439.48 L 111.68 437.41 L 109.57 435.22 L 107.58 432.92 L 105.74 430.50 L 104.07 427.97 L 102.59 425.33 L 101.30 422.58 L 100.17 419.75 L 99.20 416.87 L 98.36 413.95 L 97.64 411.00 L 97.04 408.03 L 96.58 405.04 L 96.24 402.03 L 96.05 399.00 L 96.00 395.95 L 96.12 392.91 L 96.43 389.89 L 96.94 386.91 L 97.67 383.98 L 98.60 381.11 L 99.73 378.30 L 101.03 375.56 L 102.50 372.90 L 104.13 370.32 L 105.89 367.84 L 107.79 365.44 L 109.79 363.15 L 111.90 360.97 L 114.11 358.90 L 116.43 356.96 L 118.85 355.17 L 121.38 353.52 L 124.01 352.03 L 126.71 350.65 L 129.47 349.33 L 132.23 348.05 L 134.99 346.75 L 137.73 345.43 L 140.45 344.08 L 143.16 342.70 L 145.84 341.30 L 148.52 339.88 L 151.18 338.43 L 153.84 336.97 L 156.48 335.48 L 159.12 333.97 L 161.75 332.44 L 164.37 330.89 L 166.97 329.31 L 169.55 327.70 L 172.10 326.06 L 174.64 324.39 L 177.15 322.69 L 179.64 320.96 L 182.11 319.20 L 184.56 317.41 L 186.99 315.60 L 189.41 313.75 L 191.80 311.88 L 194.18 309.99 L 196.54 308.07 L 198.88 306.13 L 201.20 304.16 L 203.50 302.18 L 205.78 300.17 L 208.05 298.15 L 210.29 296.11 L 212.53 294.05 L 214.75 291.98 L 216.95 289.89 L 219.15 287.79 L 221.34 285.69 L 223.52 283.57 L 225.69 281.45 L 227.86 279.32 L 230.03 277.19 L 232.19 275.06 L 234.35 272.92 L 236.51 270.78 L 238.68 268.65 L 240.85 266.52 L 243.02 264.40 L 245.20 262.28 L 247.38 260.17 L 249.58 258.06 L 251.78 255.97 L 253.99 253.88 L 256.21 251.80 L 258.43 249.74 L 260.67 247.68 L 262.91 245.64 L 265.17 243.61 L 267.43 241.59 L 269.71 239.58 L 271.99 237.58 L 274.28 235.58 L 276.58 233.59 L 278.88 231.61 L 281.19 229.62 L 283.50 227.63 L 285.82 225.64 L 288.11 223.63 L 290.33 221.56 L 292.32 219.35 L 293.67 216.80 L 294.21 213.89 L 294.05 210.78 L 293.40 207.71 L 292.38 204.86 L 290.98 202.27 L 289.20 199.90 L 287.14 197.70 L 284.94 195.56 L 282.74 193.40 L 280.68 191.14 L 278.83 188.73 L 277.21 186.19 L 275.81 183.51 L 274.63 180.71 L 273.73 177.80 L 273.24 174.83 L 273.35 171.82 L 274.06 168.86 L 275.25 166.05 L 276.78 163.45 L 278.60 161.04 L 280.61 158.78 L 282.77 156.63 L 285.00 154.54 L 287.26 152.50 L 289.55 150.49 L 291.88 148.53 L 294.23 146.62 L 296.63 144.76 L 299.06 142.95 L 301.53 141.20 L 304.04 139.50 L 306.59 137.86 L 309.18 136.28 L 311.82 134.76 L 314.49 133.31 L 317.20 131.92 L 319.94 130.60 L 322.72 129.34 L 325.52 128.16 L 328.34 127.05 L 331.19 126.01 L 334.06 125.04 L 336.95 124.14 L 339.86 123.30 L 342.80 122.52 L 345.75 121.78 L 348.72 121.11 L 351.72 120.55 L 354.73 120.16 L 357.76 120.00 L 360.80 120.13 L 363.78 120.63 L 366.64 121.59 L 369.33 122.97 L 371.92 124.59 L 374.46 126.28 L 376.96 128.00 L 379.45 129.75 L 381.91 131.51 L 384.38 133.29 L 386.84 135.06 L 389.30 136.83 L 391.76 138.61 L 394.23 140.39 L 396.69 142.17 L 399.15 143.95 L 401.61 145.74 L 404.07 147.52 L 406.53 149.30 L 409.00 151.08 L 411.46 152.87 L 413.92 154.65 L 416.38 156.43 L 418.84 158.21 L 421.30 159.99 L 423.77 161.77 L 426.23 163.55 L 428.69 165.34 L 431.15 167.12 L 433.61 168.90 L 436.07 170.68 L 438.47 172.41" stroke="#1B1B1D" stroke-width="22"/>
  
  <path class="sector" d="M 438.47 172.41 L 438.54 172.46 L 441.00 174.24 L 443.46 176.02 L 445.92 177.80 L 448.38 179.58 L 450.85 181.36 L 453.31 183.14 L 455.77 184.92 L 458.23 186.70 L 460.69 188.48 L 463.16 190.26 L 465.62 192.04 L 468.08 193.82 L 470.54 195.60 L 473.01 197.38 L 475.47 199.16 L 477.93 200.94 L 480.39 202.72 L 482.86 204.50 L 485.32 206.28 L 487.78 208.06 L 490.24 209.84 L 492.71 211.62 L 495.17 213.40 L 497.63 215.18 L 500.09 216.96 L 502.55 218.74 L 505.02 220.52 L 507.48 222.30 L 509.94 224.08 L 512.40 225.86 L 514.87 227.64 L 517.33 229.42 L 519.79 231.20 L 522.25 232.98 L 524.71 234.76 L 527.18 236.55 L 529.64 238.33 L 532.10 240.11 L 534.56 241.89 L 537.02 243.67 L 539.49 245.45 L 541.95 247.23 L 544.41 249.01 L 546.87 250.79 L 549.33 252.57 L 551.79 254.35 L 554.26 256.13 L 556.72 257.91 L 559.18 259.69 L 561.65 261.47 L 564.11 263.24 L 566.58 265.02 L 569.05 266.79 L 571.52 268.56 L 573.99 270.33 L 576.46 272.10 L 578.93 273.86 L 581.41 275.63 L 583.88 277.39 L 586.36 279.14 L 588.84 280.90 L 591.32 282.66 L 593.80 284.42 L 596.27 286.19 L 598.72 287.97 L 601.17 289.76 L 603.64 291.53 L 606.16 293.27 L 608.62 295.06 L 610.85 297.09 L 612.75 299.41 L 614.28 301.99 L 615.46 304.76 L 616.43 307.65 L 617.34 310.57 L 618.19 313.51 L 618.96 316.46 L 619.61 319.42 L 620.12 322.40 L 620.47 325.39 L 620.69 328.40 L 620.80 331.42 L 620.82 334.45 L 620.77 337.49 L 620.66 340.53 L 620.54 343.58 L 620.40 346.63 L 620.29 349.68 L 620.20 352.72 L 620.13 355.76 L 620.08 358.80 L 620.03 361.83 L 619.98 364.87 L 619.91 367.90 L 619.82 370.93 L 619.70 373.95 L 619.54 376.98 L 619.33 380.01 L 619.08 383.03 L 618.81 386.06 L 618.51 389.09 L 618.21 392.11 L 617.90 395.14 L 617.60 398.17 L 617.32 401.20 L 617.07 404.23 L 616.86 407.27 L 616.70 410.30 L 616.62 413.34 L 616.64 416.37 L 616.77 419.39 L 617.02 422.41 L 617.39 425.41 L 617.83 428.42 L 618.33 431.42 L 618.87 434.41 L 619.45 437.40 L 620.10 440.37 L 620.85 443.30 L 621.74 446.19 L 622.80 449.03 L 624.01 451.82 L 625.35 454.55 L 626.79 457.23 L 628.33 459.86 L 629.93 462.44 L 631.59 464.98 L 633.31 467.48 L 635.07 469.95 L 636.88 472.39 L 638.73 474.80 L 640.61 477.19 L 642.50 479.56 L 644.42 481.91 L 646.35 484.26 L 648.29 486.60 L 650.24 488.92 L 652.20 491.25 L 654.17 493.56 L 656.15 495.87 L 658.13 498.17 L 660.11 500.47 L 662.10 502.76 L 664.10 505.06 L 666.09 507.35 L 668.08 509.64 L 670.08 511.93 L 672.07 514.23 L 674.06 516.52 L 676.05 518.82 L 678.03 521.13 L 680.01 523.43 L 681.98 525.75 L 683.95 528.07 L 685.91 530.39 L 687.88 532.71 L 689.85 535.02 L 691.82 537.33 L 693.80 539.63 L 695.79 541.92 L 697.80 544.20 L 699.82 546.46 L 701.83 548.73 L 703.79 551.04 L 705.68 553.43 L 707.44 555.92 L 709.03 558.56 L 710.33 561.32 L 711.21 564.17 L 711.51 567.09 L 711.10 570.05 L 709.99 572.94 L 708.38 575.62 L 706.41 577.93 L 704.13 579.84 L 701.53 581.32 L 698.72 582.48 L 695.82 583.49 L 692.94 584.47 L 690.07 585.45 L 687.20 586.42 L 684.32 587.39 L 681.44 588.36 L 678.56 589.33 L 675.68 590.29 L 672.79 591.25 L 669.91 592.21 L 667.02 593.16 L 664.14 594.11 L 661.25 595.06 L 658.37 596.01 L 655.48 596.97 L 652.61 597.95 L 649.74 598.95 L 646.90 600.01 L 644.13 601.21 L 641.49 602.67 L 639.03 604.49 L 636.83 606.73 L 635.26 609.32 L 634.73 612.12 L 635.30 614.97 L 636.65 617.70 L 638.45 620.19 L 640.52 622.48 L 642.69 624.62 L 644.96 626.60 L 647.41 628.32 L 650.04 629.79 L 652.79 631.06 L 655.63 632.20 L 658.51 633.26 L 661.38 634.30 L 664.24 635.32 L 667.10 636.32 L 669.97 637.29 L 672.85 638.22 L 675.75 639.11 L 678.67 639.95 L 681.60 640.75 L 684.54 641.51 L 687.50 642.22 L 690.47 642.89 L 693.45 643.50 L 696.44 644.07 L 699.43 644.60 L 702.43 645.07 L 705.44 645.49 L 708.45 645.87 L 711.46 646.20 L 714.49 646.49 L 717.51 646.72 L 720.54 646.92 L 723.58 647.07 L 726.62 647.17 L 729.66 647.22 L 732.69 647.20 L 735.72 647.05 L 738.75 646.76 L 741.76 646.29 L 744.74 645.57 L 747.54 644.45 L 750.06 642.83 L 752.38 640.87 L 754.61 638.80 L 756.78 636.68 L 758.90 634.51 L 760.98 632.29 L 763.02 630.04 L 765.03 627.77 L 767.02 625.48 L 769.00 623.17 L 770.97 620.86 L 772.94 618.54 L 774.91 616.23 L 776.89 613.93 L 778.87 611.62 L 780.85 609.32 L 782.83 607.01 L 784.81 604.71 L 786.80 602.41 L 788.78 600.11 L 790.76 597.80 L 792.74 595.50 L 794.73 593.20 L 796.71 590.90 L 798.69 588.59 L 800.67 586.29 L 802.65 583.99 L 804.63 581.68 L 806.61 579.38 L 808.59 577.07 L 810.57 574.77 L 812.55 572.46 L 814.53 570.16 L 816.51 567.85 L 818.49 565.55 L 820.47 563.24 L 822.45 560.94 L 824.43 558.63 L 826.41 556.33 L 828.39 554.02 L 830.37 551.71 L 832.34 549.41 L 833.95 547.54" stroke="#E4FF5C" stroke-width="4"/>
  <path class="sector" d="M 896.90 474.33 L 897.72 473.38 L 899.70 471.08 L 901.68 468.78 L 903.66 466.48 L 905.64 464.17 L 907.63 461.87 L 909.61 459.57 L 911.59 457.26 L 913.57 454.96 L 915.55 452.65 L 917.53 450.35 L 919.51 448.04 L 921.49 445.74 L 923.47 443.43 L 925.44 441.13 L 927.42 438.82 L 929.40 436.51 L 931.38 434.21 L 933.35 431.90 L 935.33 429.59 L 937.30 427.28 L 939.28 424.97 L 941.25 422.66 L 943.23 420.35 L 945.20 418.04 L 947.17 415.73 L 949.14 413.42 L 951.11 411.10 L 953.08 408.79 L 955.05 406.47 L 957.02 404.16 L 958.98 401.84 L 960.95 399.53 L 962.91 397.21 L 964.88 394.89 L 966.84 392.57 L 968.80 390.25 L 970.76 387.93 L 972.72 385.61 L 974.68 383.28 L 976.64 380.96 L 978.60 378.64 L 980.56 376.32 L 981.51 375.19" stroke="#E4FF5C" stroke-width="4"/>
  <path class="sector" d="M 981.51 375.19 L 982.52 374.00 L 984.48 371.68 L 986.45 369.36 L 988.42 367.05 L 990.39 364.74 L 992.37 362.43 L 994.35 360.13 L 996.32 357.82 L 998.29 355.50 L 1000.25 353.18 L 1002.20 350.85 L 1004.13 348.50 L 1006.04 346.14 L 1007.93 343.76 L 1009.76 341.34 L 1011.41 338.81 L 1012.77 336.11 L 1013.86 333.27 L 1014.79 330.37 L 1015.62 327.44 L 1016.31 324.49 L 1016.85 321.50 L 1017.23 318.49 L 1017.45 315.46 L 1017.52 312.42 L 1017.41 309.39 L 1017.11 306.38 L 1016.60 303.38 L 1015.88 300.42 L 1014.91 297.53 L 1013.67 294.77 L 1012.14 292.18 L 1010.29 289.79 L 1008.15 287.64 L 1005.76 285.76 L 1003.17 284.18 L 1000.42 282.93 L 997.55 282.01 L 994.60 281.38 L 991.58 280.97 L 988.54 280.68 L 985.50 280.47 L 982.46 280.27 L 979.43 280.09 L 976.41 279.92 L 973.38 279.75 L 970.36 279.57 L 967.34 279.37 L 964.31 279.16 L 961.28 278.91 L 958.23 278.63 L 955.19 278.30 L 952.16 277.88 L 949.16 277.35 L 946.21 276.67 L 943.33 275.82 L 940.54 274.77 L 937.85 273.48 L 935.28 271.92 L 932.85 270.07 L 930.58 267.93 L 928.50 265.61 L 926.63 263.24 L 924.97 260.79 L 923.55 258.18 L 922.38 255.36 L 921.49 252.41 L 920.90 249.39 L 920.65 246.37 L 920.76 243.39 L 921.21 240.45 L 922.01 237.53 L 923.11 234.64 L 924.45 231.86 L 925.99 229.24 L 927.71 226.79 L 929.63 224.51 L 931.74 222.40 L 934.05 220.47 L 936.54 218.74 L 939.19 217.21 L 941.96 215.90 L 944.83 214.82 L 947.78 213.99 L 950.78 213.42 L 953.79 213.13 L 956.81 213.12 L 959.80 213.42 L 962.75 214.00 L 965.66 214.81 L 968.53 215.80 L 971.36 216.92 L 974.16 218.12 L 976.94 219.37 L 979.69 220.65 L 982.43 221.96 L 985.18 223.26 L 987.92 224.56 L 990.67 225.85 L 993.43 227.13 L 996.19 228.40 L 998.95 229.67 L 1001.71 230.93 L 1004.48 232.19 L 1007.25 233.45 L 1010.02 234.70 L 1012.78 235.95 L 1015.55 237.20 L 1018.32 238.45 L 1021.09 239.71 L 1023.85 240.96 L 1026.62 242.22 L 1029.38 243.49 L 1032.14 244.76 L 1034.90 246.03 L 1037.66 247.32 L 1040.40 248.63 L 1043.13 249.97 L 1045.84 251.34 L 1048.51 252.77 L 1051.15 254.26 L 1053.74 255.82 L 1056.28 257.46 L 1058.76 259.20 L 1061.18 261.04 L 1063.53 262.97 L 1065.85 264.96 L 1068.13 266.99 L 1070.40 269.03 L 1072.65 271.07 L 1074.88 273.12 L 1077.09 275.19 L 1079.26 277.30 L 1081.39 279.46 L 1083.47 281.67 L 1085.54 283.89 L 1087.61 286.12 L 1089.72 288.33 L 1091.87 290.49 L 1094.03 292.65 L 1096.11 294.85 L 1098.05 297.16 L 1099.76 299.63 L 1101.26 302.25 L 1102.63 304.97 L 1103.94 307.70 L 1105.22 310.45 L 1106.45 313.23 L 1107.62 316.04 L 1108.71 318.88 L 1109.73 321.74 L 1110.66 324.63 L 1111.49 327.54 L 1112.25 330.48 L 1112.93 333.43 L 1113.55 336.40 L 1114.12 339.38 L 1114.64 342.37 L 1115.13 345.37 L 1115.60 348.37 L 1116.05 351.38 L 1116.49 354.38 L 1116.94 357.39 L 1117.38 360.40 L 1117.81 363.41 L 1118.24 366.42 L 1118.67 369.43 L 1119.09 372.44 L 1119.51 375.45 L 1119.93 378.46 L 1120.34 381.47 L 1120.76 384.48 L 1121.16 387.49 L 1121.57 390.50 L 1121.97 393.51 L 1122.35 396.39" stroke="#5751D6" stroke-width="4"/>
  <path class="sector" d="M 1134.14 492.23 L 1134.23 493.02 L 1134.57 496.04 L 1134.92 499.06 L 1135.25 502.08 L 1135.59 505.10 L 1135.92 508.12 L 1136.24 511.14 L 1136.56 514.16 L 1136.88 517.18 L 1137.19 520.20 L 1137.50 523.23 L 1137.80 526.25 L 1138.10 529.27 L 1138.40 532.29 L 1138.69 535.32 L 1138.98 538.34 L 1139.28 541.36 L 1139.57 544.39 L 1139.87 547.41 L 1140.17 550.43 L 1140.47 553.46 L 1140.78 556.48 L 1141.09 559.51 L 1141.41 562.53 L 1141.73 565.55 L 1142.06 568.58 L 1142.40 571.60 L 1142.75 574.63 L 1143.09 577.65 L 1143.40 580.67 L 1143.61 583.69 L 1143.69 586.71 L 1143.57 589.72 L 1143.23 592.72 L 1142.71 595.71 L 1142.07 598.69 L 1141.33 601.65 L 1140.54 604.59 L 1139.71 607.51 L 1138.83 610.40 L 1137.87 613.27 L 1136.83 616.12 L 1135.70 618.94 L 1134.48 621.72 L 1133.15 624.46 L 1131.73 627.14 L 1130.20 629.77 L 1128.58 632.32 L 1126.84 634.80 L 1125.00 637.21 L 1123.04 639.55 L 1120.97 641.79 L 1118.74 643.86 L 1116.30 645.64 L 1113.67 647.14 L 1110.95 648.48 L 1108.19 649.76 L 1105.41 650.97 L 1102.61 652.13 L 1099.78 653.25 L 1096.94 654.33 L 1094.09 655.37 L 1091.23 656.38 L 1088.35 657.37 L 1085.48 658.35 L 1082.59 659.32 L 1079.71 660.27 L 1076.82 661.22 L 1073.93 662.15 L 1071.03 663.07 L 1068.13 663.98 L 1065.23 664.87 L 1062.32 665.76 L 1059.41 666.63 L 1056.49 667.48 L 1053.57 668.33 L 1050.65 669.15 L 1047.72 669.97 L 1044.79 670.77 L 1041.86 671.55 L 1038.92 672.32 L 1035.98 673.07 L 1033.03 673.80 L 1030.08 674.52 L 1027.12 675.22 L 1024.16 675.91 L 1021.20 676.58 L 1018.23 677.23 L 1015.26 677.86 L 1012.29 678.48 L 1009.31 679.08 L 1006.33 679.66 L 1003.34 680.23 L 1000.35 680.78 L 997.36 681.31 L 994.37 681.82 L 991.37 682.32 L 988.37 682.80 L 985.36 683.26 L 982.36 683.70 L 979.35 684.13 L 976.34 684.54 L 973.33 684.93 L 970.31 685.30 L 967.29 685.66 L 964.27 686.00 L 961.25 686.32 L 958.23 686.64 L 955.21 686.94 L 952.18 687.23 L 949.16 687.51 L 946.13 687.78 L 943.10 688.03 L 940.07 688.29 L 937.05 688.53 L 934.02 688.77 L 930.99 689.00 L 927.96 689.22 L 924.93 689.44 L 921.90 689.66 L 918.87 689.88 L 915.84 690.09 L 912.81 690.31 L 909.78 690.52 L 906.75 690.73 L 903.72 690.93 L 900.69 691.14 L 897.66 691.34 L 894.63 691.55 L 891.60 691.75 L 888.57 691.95 L 885.54 692.15 L 882.50 692.36 L 879.47 692.56 L 876.44 692.76 L 873.40 692.96 L 870.37 693.16 L 867.33 693.36 L 864.29 693.56 L 861.25 693.78 L 858.22 694.01 L 855.19 694.27 L 852.17 694.57 L 849.15 694.92 L 846.15 695.34 L 843.17 695.83 L 840.20 696.41 L 837.25 697.08 L 834.32 697.86 L 831.42 698.73 L 828.53 699.69 L 825.68 700.74 L 822.85 701.87 L 820.05 703.07 L 817.29 704.34 L 814.55 705.67 L 811.85 707.06 L 809.18 708.51 L 806.55 710.02 L 803.96 711.59 L 801.41 713.23 L 798.91 714.94 L 796.43 716.69 L 793.93 718.42 L 791.38 720.07 L 788.75 721.56 L 785.99 722.84 L 783.12 723.89 L 780.18 724.70 L 777.19 725.24 L 774.17 725.50 L 771.15 725.49 L 768.14 725.23 L 765.14 724.75 L 762.17 724.10 L 759.24 723.29 L 756.34 722.38 L 753.46 721.41 L 750.58 720.41 L 747.71 719.44 L 744.82 718.51 L 741.92 717.61 L 739.02 716.73 L 736.12 715.82 L 733.23 714.87 L 730.35 713.88 L 727.47 712.88 L 724.59 711.88 L 721.71 710.92 L 718.82 710.00 L 715.93 709.14 L 713.01 708.35 L 710.08 707.61 L 707.12 706.93 L 704.13 706.32 L 701.12 705.80 L 698.10 705.36 L 695.06 705.04 L 692.02 704.83 L 688.99 704.75 L 685.96 704.81 L 682.94 705.03 L 679.95 705.42 L 676.98 705.98 L 674.04 706.71 L 671.15 707.60 L 668.30 708.65 L 665.51 709.85 L 662.78 711.20 L 660.12 712.68 L 657.54 714.30 L 655.04 716.04 L 652.64 717.90 L 650.30 719.84 L 648.00 721.84 L 645.73 723.86 L 643.45 725.88 L 641.15 727.86 L 638.81 729.76 L 636.39 731.56 L 633.88 733.23 L 631.25 734.74 L 628.52 736.07 L 625.70 737.22 L 622.81 738.18 L 619.85 738.94 L 616.86 739.51 L 613.83 739.86 L 610.80 740.00 L 607.77 739.92 L 604.76 739.61 L 601.79 739.08 L 598.86 738.33 L 595.99 737.38 L 593.18 736.23 L 590.45 734.90 L 587.81 733.39 L 585.27 731.72 L 582.84 729.89 L 580.53 727.92 L 578.33 725.82 L 576.25 723.61 L 574.25 721.31 L 572.34 718.95 L 570.48 716.55 L 568.69 714.12 L 566.94 711.65 L 565.23 709.15 L 563.55 706.63 L 561.90 704.08 L 560.28 701.51 L 558.69 698.92 L 557.12 696.31 L 555.59 693.68 L 554.07 691.05 L 552.55 688.42 L 551.00 685.82 L 549.40 683.26 L 547.72 680.75 L 545.94 678.31 L 544.02 675.96 L 542.09 673.60 L 540.14 671.27 L 538.05 669.07 L 535.84 667.01 L 533.51 665.10 L 531.07 663.32 L 528.53 661.67 L 525.92 660.12 L 523.24 658.66 L 520.54 657.25 L 517.82 655.87 L 515.10 654.50 L 512.39 653.13 L 509.68 651.75 L 506.98 650.38 L 504.27 649.01 L 501.57 647.63 L 498.86 646.25 L 496.15 644.87 L 493.45 643.49 L 490.74 642.11 L 488.04 640.73 L 487.71 640.56" stroke="#5751D6" stroke-width="4"/>
  <path class="sector" d="M 487.71 640.56 L 485.33 639.35 L 482.62 637.97 L 479.91 636.59 L 477.20 635.21 L 474.50 633.84 L 471.79 632.46 L 469.07 631.09 L 466.36 629.71 L 463.65 628.34 L 460.94 626.97 L 458.23 625.60 L 455.52 624.23 L 452.80 622.86 L 450.09 621.50 L 447.38 620.13 L 444.66 618.76 L 441.95 617.40 L 439.24 616.03 L 436.52 614.66 L 433.81 613.30 L 431.09 611.93 L 428.38 610.57 L 425.66 609.21 L 422.95 607.84 L 420.23 606.48 L 417.52 605.11 L 414.80 603.75 L 412.09 602.38 L 409.38 601.02 L 406.66 599.65 L 403.95 598.29 L 401.23 596.92 L 398.52 595.55 L 395.81 594.19 L 393.09 592.82 L 390.38 591.45 L 387.67 590.08 L 384.96 588.71 L 382.25 587.34 L 379.53 585.97 L 376.82 584.59 L 374.11 583.22 L 371.40 581.85 L 368.70 580.47 L 368.53 580.39" stroke="#35B4A2" stroke-width="4"/>
  <path class="sector" d="M 282.45 536.64 L 282.02 536.42 L 279.30 535.05 L 276.59 533.69 L 273.87 532.33 L 271.16 530.96 L 268.44 529.60 L 265.72 528.25 L 263.00 526.89 L 260.28 525.54 L 257.56 524.19 L 254.84 522.84 L 252.11 521.50 L 249.39 520.16 L 246.66 518.82 L 243.93 517.49 L 241.20 516.16 L 238.46 514.83 L 235.72 513.51 L 232.98 512.20 L 230.24 510.89 L 227.50 509.57 L 224.77 508.25 L 222.04 506.91 L 219.34 505.53 L 216.65 504.12 L 213.98 502.66 L 211.33 501.19 L 208.69 499.69 L 206.04 498.19 L 203.40 496.70 L 200.75 495.20 L 198.11 493.70 L 195.47 492.19 L 192.83 490.68 L 190.20 489.16 L 187.57 487.63 L 184.96 486.08 L 182.35 484.52 L 179.76 482.94 L 177.17 481.35 L 174.60 479.74 L 172.03 478.12 L 169.47 476.48 L 166.92 474.84 L 164.37 473.19 L 161.82 471.54 L 159.28 469.88 L 156.73 468.22 L 154.19 466.56 L 151.65 464.90 L 149.10 463.24 L 146.55 461.58 L 144.00 459.93 L 141.44 458.29 L 138.87 456.65 L 136.30 455.03 L 133.72 453.42 L 131.13 451.81 L 128.56 450.19 L 126.00 448.55 L 123.48 446.86 L 120.99 445.13 L 118.56 443.33 L 116.19 441.45 L 113.89 439.48 L 111.68 437.41 L 109.57 435.22 L 107.58 432.92 L 105.74 430.50 L 104.07 427.97 L 102.59 425.33 L 101.30 422.58 L 100.17 419.75 L 99.20 416.87 L 98.36 413.95 L 97.64 411.00 L 97.04 408.03 L 96.58 405.04 L 96.24 402.03 L 96.05 399.00 L 96.00 395.95 L 96.12 392.91 L 96.43 389.89 L 96.94 386.91 L 97.67 383.98 L 98.60 381.11 L 99.73 378.30 L 101.03 375.56 L 102.50 372.90 L 104.13 370.32 L 105.89 367.84 L 107.79 365.44 L 109.79 363.15 L 111.90 360.97 L 114.11 358.90 L 116.43 356.96 L 118.85 355.17 L 121.38 353.52 L 124.01 352.03 L 126.71 350.65 L 129.47 349.33 L 132.23 348.05 L 134.99 346.75 L 137.73 345.43 L 140.45 344.08 L 143.16 342.70 L 145.84 341.30 L 148.52 339.88 L 151.18 338.43 L 153.84 336.97 L 156.48 335.48 L 159.12 333.97 L 161.75 332.44 L 164.37 330.89 L 166.97 329.31 L 169.55 327.70 L 172.10 326.06 L 174.64 324.39 L 177.15 322.69 L 179.64 320.96 L 182.11 319.20 L 184.56 317.41 L 186.99 315.60 L 189.41 313.75 L 191.80 311.88 L 194.18 309.99 L 196.54 308.07 L 198.88 306.13 L 201.20 304.16 L 203.50 302.18 L 205.78 300.17 L 208.05 298.15 L 210.29 296.11 L 212.53 294.05 L 214.75 291.98 L 216.95 289.89 L 219.15 287.79 L 221.34 285.69 L 223.52 283.57 L 225.69 281.45 L 227.86 279.32 L 230.03 277.19 L 232.19 275.06 L 234.35 272.92 L 236.51 270.78 L 238.68 268.65 L 240.85 266.52 L 243.02 264.40 L 245.20 262.28 L 247.38 260.17 L 249.58 258.06 L 251.78 255.97 L 253.99 253.88 L 256.21 251.80 L 258.43 249.74 L 260.67 247.68 L 262.91 245.64 L 265.17 243.61 L 267.43 241.59 L 269.71 239.58 L 271.99 237.58 L 274.28 235.58 L 276.58 233.59 L 278.88 231.61 L 281.19 229.62 L 283.50 227.63 L 285.82 225.64 L 288.11 223.63 L 290.33 221.56 L 292.32 219.35 L 293.67 216.80 L 294.21 213.89 L 294.05 210.78 L 293.40 207.71 L 292.38 204.86 L 290.98 202.27 L 289.20 199.90 L 287.14 197.70 L 284.94 195.56 L 282.74 193.40 L 280.68 191.14 L 278.83 188.73 L 277.21 186.19 L 275.81 183.51 L 274.63 180.71 L 273.73 177.80 L 273.24 174.83 L 273.35 171.82 L 274.06 168.86 L 275.25 166.05 L 276.78 163.45 L 278.60 161.04 L 280.61 158.78 L 282.77 156.63 L 285.00 154.54 L 287.26 152.50 L 289.55 150.49 L 291.88 148.53 L 294.23 146.62 L 296.63 144.76 L 299.06 142.95 L 301.53 141.20 L 304.04 139.50 L 306.59 137.86 L 309.18 136.28 L 311.82 134.76 L 314.49 133.31 L 317.20 131.92 L 319.94 130.60 L 322.72 129.34 L 325.52 128.16 L 328.34 127.05 L 331.19 126.01 L 334.06 125.04 L 336.95 124.14 L 339.86 123.30 L 342.80 122.52 L 345.75 121.78 L 348.72 121.11 L 351.72 120.55 L 354.73 120.16 L 357.76 120.00 L 360.80 120.13 L 363.78 120.63 L 366.64 121.59 L 369.33 122.97 L 371.92 124.59 L 374.46 126.28 L 376.96 128.00 L 379.45 129.75 L 381.91 131.51 L 384.38 133.29 L 386.84 135.06 L 389.30 136.83 L 391.76 138.61 L 394.23 140.39 L 396.69 142.17 L 399.15 143.95 L 401.61 145.74 L 404.07 147.52 L 406.53 149.30 L 409.00 151.08 L 411.46 152.87 L 413.92 154.65 L 416.38 156.43 L 418.84 158.21 L 421.30 159.99 L 423.77 161.77 L 426.23 163.55 L 428.69 165.34 L 431.15 167.12 L 433.61 168.90 L 438.47 172.41" stroke="#35B4A2" stroke-width="4"/>
  <line class="start-line-outline" x1="444.35" y1="164.11" x2="418.73" y2="199.89"/>
  <line class="start-line-inner" x1="444.35" y1="164.11" x2="418.73" y2="199.89"/>
  <line class="arrow-shaft" x1="411.74" y1="209.64" x2="425.07" y2="219.19"/>
  <polygon class="arrow-head" points="431.25,223.62 421.02,224.16 428.48,213.76"/>
  
  
  
  
  
  
  
  
  
  
  
  
  
  
  
  
  
  
  
  
  
  
  
  
  
  
  
  
  
  
  
  
  
  
  
  
  <text class="sector-label" fill="#E4FF5C" stroke="#1B1B1D" stroke-width="4" transform="rotate(-49.3454 865.40 510.92)" x="865.40" y="510.92" text-anchor="middle" dominant-baseline="middle">SECTOR 1</text>
  <text class="sector-label" fill="#5751D6" stroke="#1B1B1D" stroke-width="4" transform="rotate(82.8941 1128.41 444.29)" x="1128.41" y="444.29" text-anchor="middle" dominant-baseline="middle">SECTOR 2</text>
  <text class="sector-label" fill="#35B4A2" stroke="#1B1B1D" stroke-width="4" transform="rotate(27.6173 325.51 558.48)" x="325.51" y="558.48" text-anchor="middle" dominant-baseline="middle">SECTOR 3</text>
  
  
  
  
  
  
  
  
  
  
  
  
  
  
<g data-editor-layer="title"><g class="editor-title" data-title="true"><text class="title" data-title="true" x="485.77" y="97.82" style="font-family: &quot;Space Grotesk&quot;, sans-serif; font-weight: 600; font-size: 60px;">Silverstone</text></g></g><g data-editor-layer="markers"><g class="editor-marker" data-turn="01"><circle class="marker" data-turn="01" cx="645.56" cy="313.80" r="18"/><text class="marker-text" data-turn="01" x="645.56" y="314.30">01</text></g><g class="editor-marker" data-turn="02"><circle class="marker" data-turn="02" cx="592.85" cy="450.48" r="18"/><text class="marker-text" data-turn="02" x="592.85" y="450.98">02</text></g><g class="editor-marker" data-turn="03"><circle class="marker" data-turn="03" cx="739.07" cy="565.97" r="18"/><text class="marker-text" data-turn="03" x="739.07" y="566.47">03</text></g><g class="editor-marker" data-turn="04"><circle class="marker" data-turn="04" cx="612.23" cy="607.64" r="18"/><text class="marker-text" data-turn="04" x="612.23" y="608.14">04</text></g><g class="editor-marker" data-turn="05"><circle class="marker" data-turn="05" cx="755.10" cy="672.61" r="18"/><text class="marker-text" data-turn="05" x="755.10" y="673.11">05</text></g><g class="editor-marker" data-turn="06"><circle class="marker" data-turn="06" cx="1044.25" cy="313.41" r="18"/><text class="marker-text" data-turn="06" x="1044.25" y="313.91">06</text></g><g class="editor-marker" data-turn="07"><circle class="marker" data-turn="07" cx="921.23" cy="198.26" r="18"/><text class="marker-text" data-turn="07" x="921.23" y="198.76">07</text></g><g class="editor-marker" data-turn="08"><circle class="marker" data-turn="08" cx="1128.95" cy="290.33" r="18"/><text class="marker-text" data-turn="08" x="1128.95" y="290.83">08</text></g><g class="editor-marker" data-turn="09"><circle class="marker" data-turn="09" cx="1159.89" cy="633.92" r="18"/><text class="marker-text" data-turn="09" x="1159.89" y="634.42">09</text></g><g class="editor-marker" data-turn="10"><circle class="marker" data-turn="10" cx="823.83" cy="675.07" r="18"/><text class="marker-text" data-turn="10" x="823.83" y="675.57">10</text></g><g class="editor-marker" data-turn="11"><circle class="marker" data-turn="11" cx="775.06" cy="753.32" r="18"/><text class="marker-text" data-turn="11" x="775.06" y="753.82">11</text></g><g class="editor-marker" data-turn="12"><circle class="marker" data-turn="12" cx="687.99" cy="730.91" r="18"/><text class="marker-text" data-turn="12" x="687.99" y="731.41">12</text></g><g class="editor-marker" data-turn="13"><circle class="marker" data-turn="13" cx="595.96" cy="768.12" r="18"/><text class="marker-text" data-turn="13" x="595.96" y="768.62">13</text></g><g class="editor-marker" data-turn="14"><circle class="marker" data-turn="14" cx="550.47" cy="652.34" r="18"/><text class="marker-text" data-turn="14" x="550.47" y="652.84">14</text></g><g class="editor-marker" data-turn="15"><circle class="marker" data-turn="15" cx="72.92" cy="416.18" r="18"/><text class="marker-text" data-turn="15" x="72.92" y="416.68">15</text></g><g class="editor-marker" data-turn="16"><circle class="marker" data-turn="16" cx="307.43" cy="242.24" r="18"/><text class="marker-text" data-turn="16" x="307.43" y="242.74">16</text></g><g class="editor-marker" data-turn="17"><circle class="marker" data-turn="17" cx="245.54" cy="159.45" r="18"/><text class="marker-text" data-turn="17" x="245.54" y="159.95">17</text></g><g class="editor-marker" data-turn="18"><circle class="marker" data-turn="18" cx="352.58" cy="93.12" r="18"/><text class="marker-text" data-turn="18" x="352.58" y="93.62">18</text></g></g><g data-editor-layer="labels"><g class="editor-label" data-label-index="0"><text class="label" data-label-index="0" x="580.40" y="331.12" text-anchor="middle" style="font-family: &quot;Noto Sans&quot;, sans-serif; font-weight: 500; font-size: 16px;">Abbey</text></g><g class="editor-label" data-label-index="1"><text class="label" data-label-index="1" x="688.99" y="437.76" text-anchor="middle" style="font-family: &quot;Noto Sans&quot;, sans-serif; font-weight: 500; font-size: 16px;">Farm Curve</text></g><g class="editor-label" data-label-index="2"><text class="label" data-label-index="2" x="738.79" y="535.24" text-anchor="middle" style="font-family: &quot;Noto Sans&quot;, sans-serif; font-weight: 500; font-size: 16px;">Village</text></g><g class="editor-label" data-label-index="3"><text class="label" data-label-index="3" x="600.29" y="573.00" text-anchor="middle" style="font-family: &quot;Noto Sans&quot;, sans-serif; font-weight: 500; font-size: 16px;">The Loop</text></g><g class="editor-label" data-label-index="4"><text class="label" data-label-index="4" x="724.50" y="621.10" text-anchor="middle" style="font-family: &quot;Noto Sans&quot;, sans-serif; font-weight: 500; font-size: 16px;">Aintree</text></g><g class="editor-label" data-label-index="5"><text class="label" data-label-index="5" x="947.88" y="320.62" text-anchor="middle" style="font-family: &quot;Noto Sans&quot;, sans-serif; font-weight: 500; font-size: 16px;">Brooklands</text></g><g class="editor-label is-selected" data-label-index="6"><text class="label" data-label-index="6" x="984.85" y="176.92" text-anchor="middle" style="font-family: &quot;Noto Sans&quot;, sans-serif; font-weight: 500; font-size: 16px;">Luffield</text></g><g class="editor-label" data-label-index="7"><text class="label" data-label-index="7" x="1085.13" y="605.41" text-anchor="middle" style="font-family: &quot;Noto Sans&quot;, sans-serif; font-weight: 500; font-size: 16px;">Copse</text></g><g class="editor-label" data-label-index="8"><text class="label" data-label-index="8" x="859.21" y="748.65" text-anchor="middle" style="font-family: &quot;Noto Sans&quot;, sans-serif; font-weight: 500; font-size: 16px;">Maggotts</text></g><g class="editor-label" data-label-index="9"><text class="label" data-label-index="9" x="688.12" y="773.17" text-anchor="middle" style="font-family: &quot;Noto Sans&quot;, sans-serif; font-weight: 500; font-size: 16px;">Becketts</text></g><g class="editor-label" data-label-index="10"><text class="label" data-label-index="10" x="524.28" y="741.19" text-anchor="middle" style="font-family: &quot;Noto Sans&quot;, sans-serif; font-weight: 500; font-size: 16px;">Chapel</text></g><g class="editor-label" data-label-index="11"><text class="label" data-label-index="11" x="152.79" y="412.65" text-anchor="middle" style="font-family: &quot;Noto Sans&quot;, sans-serif; font-weight: 500; font-size: 16px;">Stowe</text></g><g class="editor-label" data-label-index="12"><text class="label" data-label-index="12" x="241.26" y="216.72" text-anchor="middle" style="font-family: &quot;Noto Sans&quot;, sans-serif; font-weight: 500; font-size: 16px;">Vale</text></g><g class="editor-label" data-label-index="13"><text class="label" data-label-index="13" x="304.20" y="98.17" text-anchor="middle" style="font-family: &quot;Noto Sans&quot;, sans-serif; font-weight: 500; font-size: 16px;">Club</text></g></g></svg>
