<svg xmlns="http://www.w3.org/2000/svg" width="1240" height="860" viewBox="0 0 1240 860" fill="none">
  <style>
    .title { font: 700 34px Inter, Arial, sans-serif; fill: #111111; }
    .track { fill: none; stroke-linejoin: round; stroke-linecap: round; }
    .sector { fill: none; stroke-linejoin: round; stroke-linecap: butt; }
    .marker { fill: #2e3448; stroke: #2e3448; stroke-width: 1.5; }
    .marker-text { font: 700 15px Inter, Arial, sans-serif; fill: #ffffff; text-anchor: middle; dominant-baseline: middle; }
    .label { font: 600 18px Inter, Arial, sans-serif; fill: #111111; paint-order: stroke; stroke: #ffffff; stroke-width: 5px; stroke-linejoin: round; }
    .start-line-outline { stroke: #121528; stroke-width: 8; stroke-linecap: round; }
    .start-line-inner { stroke: #ffffff; stroke-width: 4; stroke-linecap: round; }
    .arrow-shaft { stroke: #121528; stroke-width: 4; stroke-linecap: round; }
    .arrow-head { fill: #121528; }
  </style>
  <rect width="1240" height="860" fill="#ffffff"/>
  <text class="title" x="96" y="62">Imola</text>
  <path class="track" d="M 858.30 192.93 L 842.73 193.80 L 831.96 194.38 L 820.04 195.07 L 818.01 195.19 L 799.90 196.00 L 791.79 196.23 L 782.59 196.52 L 774.37 196.81 L 766.15 197.10 L 756.89 197.33 L 739.41 196.75 L 726.96 195.19 L 681.41 185.12 L 672.09 182.86 L 661.67 180.25 L 647.09 176.84 L 634.53 174.29 L 626.08 172.90 L 613.23 171.46 L 604.60 170.88 L 594.82 170.53 L 568.72 170.41 L 557.84 170.59 L 541.57 171.28 L 516.57 173.42 L 498.10 175.51 L 487.28 176.90 L 477.61 178.17 L 459.21 180.72 L 445.20 182.69 L 438.72 183.67 L 428.01 185.52 L 419.61 187.43 L 398.43 193.86 L 388.19 197.10 L 378.58 200.11 L 373.25 201.73 L 371.11 202.48 L 366.60 204.56 L 361.68 208.85 L 357.86 216.78 L 355.48 225.46 L 354.15 229.28 L 349.23 237.85 L 343.50 243.40 L 337.25 247.86 L 331.06 251.56 L 325.33 254.92 L 320.64 257.58 L 314.04 261.40 L 299.28 270.49 L 290.08 277.84 L 285.16 283.40 L 280.29 291.21 L 275.66 301.52 L 272.19 310.60 L 269.07 318.94 L 263.57 333.70 L 260.33 342.38 L 257.32 350.37 L 254.59 357.66 L 250.60 368.25 L 246.55 379.02 L 242.79 389.03 L 238.97 399.22 L 236.07 406.92 L 229.24 425.03 L 226.00 433.77 L 220.68 447.78 L 214.77 462.72 L 210.32 473.25 L 203.25 490.09 L 197.99 506.71 L 198.22 525.29 L 200.94 538.08 L 203.02 546.53 L 204.59 553.47 L 205.34 564.59 L 203.37 570.90 L 199.61 576.11 L 196.42 579.17 L 189.13 585.48 L 185.25 588.78 L 179.81 593.35 L 174.20 598.10 L 168.99 602.50 L 165.28 605.68 L 160.94 609.33 L 154.17 614.94 L 147.51 620.85 L 142.94 625.25 L 137.44 630.75 L 132.41 635.72 L 127.83 640.24 L 118.57 649.21 L 111.11 656.21 L 106.65 660.67 L 103.24 664.43 L 100.23 668.54 L 97.91 672.65 L 96.98 675.08 L 96.00 683.07 L 97.39 688.45 L 99.24 691.58 L 102.37 694.88 L 104.80 696.67 L 109.72 699.16 L 113.13 700.14 L 121.24 700.96 L 125.46 700.84 L 132.47 700.14 L 137.85 699.28 L 140.45 698.87 L 145.26 698.00 L 153.19 696.38 L 158.51 695.28 L 164.01 694.18 L 170.90 692.79 L 180.10 691.06 L 188.96 689.49 L 197.41 687.99 L 198.86 687.76 L 209.04 686.02 L 215.00 685.10 L 227.16 683.24 L 233.35 682.32 L 240.47 681.33 L 248.40 680.23 L 255.64 679.19 L 265.42 677.86 L 279.77 676.12 L 282.26 675.83 L 299.11 674.21 L 319.77 673.29 L 325.85 673.29 L 339.04 673.64 L 350.56 674.45 L 359.42 675.31 L 368.33 676.36 L 413.65 681.45 L 425.34 682.14 L 439.06 680.75 L 448.27 676.88 L 450.75 675.31 L 459.96 665.94 L 465.40 656.33 L 468.58 650.08 L 473.56 639.54 L 475.93 633.75 L 479.58 622.41 L 481.95 608.75 L 482.59 597.93 L 482.13 586.93 L 481.08 576.86 L 478.65 561.40 L 476.16 549.31 L 474.54 542.36 L 471.30 528.24 L 468.87 517.53 L 467.83 513.07 L 463.55 494.03 L 461.06 483.09 L 458.80 470.47 L 458.34 464.51 L 459.44 454.96 L 464.30 441.76 L 469.51 431.98 L 475.24 422.37 L 479.35 416.70 L 483.23 412.53 L 487.34 409.52 L 492.02 407.79 L 498.39 407.55 L 505.34 408.94 L 512.17 410.85 L 516.91 412.01 L 523.45 413.23 L 533.06 414.10 L 540.18 414.27 L 546.95 414.27 L 557.89 414.21 L 564.61 414.15 L 572.13 414.04 L 584.92 413.98 L 598.99 413.86 L 606.51 413.75 L 614.27 413.69 L 626.83 413.63 L 635.69 413.52 L 647.15 413.40 L 652.01 413.28 L 665.38 412.65 L 675.51 411.78 L 684.89 410.91 L 693.51 410.16 L 703.93 409.23 L 717.99 408.08 L 725.05 407.50 L 732.17 406.92 L 750.12 405.47 L 754.75 405.12 L 766.15 404.43 L 775.24 405.64 L 778.77 408.02 L 781.55 410.80 L 786.12 415.77 L 789.65 418.67 L 794.45 420.81 L 797.52 421.27 L 802.09 420.69 L 806.90 419.42 L 811.93 417.68 L 817.43 415.48 L 820.79 413.98 L 827.04 410.97 L 834.16 407.27 L 839.72 404.31 L 849.50 399.10 L 859.92 393.72 L 870.16 388.69 L 879.31 384.52 L 886.72 381.16 L 898.24 375.43 L 911.03 367.85 L 912.36 367.04 L 926.37 357.37 L 932.39 352.97 L 945.06 343.25 L 947.03 341.69 L 962.48 328.03 L 973.02 317.43 L 980.25 309.62 L 981.47 308.29 L 988.07 300.94 L 994.72 293.53 L 1003.29 284.04 L 1008.27 278.54 L 1015.68 270.38 L 1021.23 264.18 L 1034.43 249.77 L 1045.78 238.54 L 1056.08 230.50 L 1064.18 225.58 L 1071.07 222.16 L 1087.39 215.45 L 1099.03 210.82 L 1116.51 203.70 L 1124.09 200.51 L 1129.53 198.14 L 1136.94 193.57 L 1140.82 189.23 L 1143.25 183.79 L 1144.00 179.10 L 1143.94 175.74 L 1142.84 169.49 L 1141.68 165.26 L 1140.87 162.72 L 1138.96 157.10 L 1137.17 152.18 L 1133.87 144.48 L 1129.65 136.50 L 1123.92 128.97 L 1118.18 124.46 L 1113.03 122.03 L 1103.71 120.12 L 1097.12 120.00 L 1090.00 120.98 L 1088.95 121.22 L 1079.75 124.40 L 1073.50 127.24 L 1065.98 130.77 L 1059.55 133.72 L 1049.54 138.23 L 1041.49 141.94 L 1035.07 144.83 L 1030.49 146.86 L 1024.53 149.58 L 1007.92 156.99 L 1001.44 159.76 L 987.84 165.44 L 974.93 170.88 L 967.98 173.77 L 959.47 177.36 L 950.73 180.78 L 940.95 184.25 L 934.24 186.22 L 924.80 188.42 L 915.19 189.92 L 909.75 190.44 L 898.53 191.08 L 879.13 191.66 L 858.30 192.93" stroke="#121528" stroke-width="34"/>
  <path class="track" d="M 858.30 192.93 L 842.73 193.80 L 831.96 194.38 L 820.04 195.07 L 818.01 195.19 L 799.90 196.00 L 791.79 196.23 L 782.59 196.52 L 774.37 196.81 L 766.15 197.10 L 756.89 197.33 L 739.41 196.75 L 726.96 195.19 L 681.41 185.12 L 672.09 182.86 L 661.67 180.25 L 647.09 176.84 L 634.53 174.29 L 626.08 172.90 L 613.23 171.46 L 604.60 170.88 L 594.82 170.53 L 568.72 170.41 L 557.84 170.59 L 541.57 171.28 L 516.57 173.42 L 498.10 175.51 L 487.28 176.90 L 477.61 178.17 L 459.21 180.72 L 445.20 182.69 L 438.72 183.67 L 428.01 185.52 L 419.61 187.43 L 398.43 193.86 L 388.19 197.10 L 378.58 200.11 L 373.25 201.73 L 371.11 202.48 L 366.60 204.56 L 361.68 208.85 L 357.86 216.78 L 355.48 225.46 L 354.15 229.28 L 349.23 237.85 L 343.50 243.40 L 337.25 247.86 L 331.06 251.56 L 325.33 254.92 L 320.64 257.58 L 314.04 261.40 L 299.28 270.49 L 290.08 277.84 L 285.16 283.40 L 280.29 291.21 L 275.66 301.52 L 272.19 310.60 L 269.07 318.94 L 263.57 333.70 L 260.33 342.38 L 257.32 350.37 L 254.59 357.66 L 250.60 368.25 L 246.55 379.02 L 242.79 389.03 L 238.97 399.22 L 236.07 406.92 L 229.24 425.03 L 226.00 433.77 L 220.68 447.78 L 214.77 462.72 L 210.32 473.25 L 203.25 490.09 L 197.99 506.71 L 198.22 525.29 L 200.94 538.08 L 203.02 546.53 L 204.59 553.47 L 205.34 564.59 L 203.37 570.90 L 199.61 576.11 L 196.42 579.17 L 189.13 585.48 L 185.25 588.78 L 179.81 593.35 L 174.20 598.10 L 168.99 602.50 L 165.28 605.68 L 160.94 609.33 L 154.17 614.94 L 147.51 620.85 L 142.94 625.25 L 137.44 630.75 L 132.41 635.72 L 127.83 640.24 L 118.57 649.21 L 111.11 656.21 L 106.65 660.67 L 103.24 664.43 L 100.23 668.54 L 97.91 672.65 L 96.98 675.08 L 96.00 683.07 L 97.39 688.45 L 99.24 691.58 L 102.37 694.88 L 104.80 696.67 L 109.72 699.16 L 113.13 700.14 L 121.24 700.96 L 125.46 700.84 L 132.47 700.14 L 137.85 699.28 L 140.45 698.87 L 145.26 698.00 L 153.19 696.38 L 158.51 695.28 L 164.01 694.18 L 170.90 692.79 L 180.10 691.06 L 188.96 689.49 L 197.41 687.99 L 198.86 687.76 L 209.04 686.02 L 215.00 685.10 L 227.16 683.24 L 233.35 682.32 L 240.47 681.33 L 248.40 680.23 L 255.64 679.19 L 265.42 677.86 L 279.77 676.12 L 282.26 675.83 L 299.11 674.21 L 319.77 673.29 L 325.85 673.29 L 339.04 673.64 L 350.56 674.45 L 359.42 675.31 L 368.33 676.36 L 413.65 681.45 L 425.34 682.14 L 439.06 680.75 L 448.27 676.88 L 450.75 675.31 L 459.96 665.94 L 465.40 656.33 L 468.58 650.08 L 473.56 639.54 L 475.93 633.75 L 479.58 622.41 L 481.95 608.75 L 482.59 597.93 L 482.13 586.93 L 481.08 576.86 L 478.65 561.40 L 476.16 549.31 L 474.54 542.36 L 471.30 528.24 L 468.87 517.53 L 467.83 513.07 L 463.55 494.03 L 461.06 483.09 L 458.80 470.47 L 458.34 464.51 L 459.44 454.96 L 464.30 441.76 L 469.51 431.98 L 475.24 422.37 L 479.35 416.70 L 483.23 412.53 L 487.34 409.52 L 492.02 407.79 L 498.39 407.55 L 505.34 408.94 L 512.17 410.85 L 516.91 412.01 L 523.45 413.23 L 533.06 414.10 L 540.18 414.27 L 546.95 414.27 L 557.89 414.21 L 564.61 414.15 L 572.13 414.04 L 584.92 413.98 L 598.99 413.86 L 606.51 413.75 L 614.27 413.69 L 626.83 413.63 L 635.69 413.52 L 647.15 413.40 L 652.01 413.28 L 665.38 412.65 L 675.51 411.78 L 684.89 410.91 L 693.51 410.16 L 703.93 409.23 L 717.99 408.08 L 725.05 407.50 L 732.17 406.92 L 750.12 405.47 L 754.75 405.12 L 766.15 404.43 L 775.24 405.64 L 778.77 408.02 L 781.55 410.80 L 786.12 415.77 L 789.65 418.67 L 794.45 420.81 L 797.52 421.27 L 802.09 420.69 L 806.90 419.42 L 811.93 417.68 L 817.43 415.48 L 820.79 413.98 L 827.04 410.97 L 834.16 407.27 L 839.72 404.31 L 849.50 399.10 L 859.92 393.72 L 870.16 388.69 L 879.31 384.52 L 886.72 381.16 L 898.24 375.43 L 911.03 367.85 L 912.36 367.04 L 926.37 357.37 L 932.39 352.97 L 945.06 343.25 L 947.03 341.69 L 962.48 328.03 L 973.02 317.43 L 980.25 309.62 L 981.47 308.29 L 988.07 300.94 L 994.72 293.53 L 1003.29 284.04 L 1008.27 278.54 L 1015.68 270.38 L 1021.23 264.18 L 1034.43 249.77 L 1045.78 238.54 L 1056.08 230.50 L 1064.18 225.58 L 1071.07 222.16 L 1087.39 215.45 L 1099.03 210.82 L 1116.51 203.70 L 1124.09 200.51 L 1129.53 198.14 L 1136.94 193.57 L 1140.82 189.23 L 1143.25 183.79 L 1144.00 179.10 L 1143.94 175.74 L 1142.84 169.49 L 1141.68 165.26 L 1140.87 162.72 L 1138.96 157.10 L 1137.17 152.18 L 1133.87 144.48 L 1129.65 136.50 L 1123.92 128.97 L 1118.18 124.46 L 1113.03 122.03 L 1103.71 120.12 L 1097.12 120.00 L 1090.00 120.98 L 1088.95 121.22 L 1079.75 124.40 L 1073.50 127.24 L 1065.98 130.77 L 1059.55 133.72 L 1049.54 138.23 L 1041.49 141.94 L 1035.07 144.83 L 1030.49 146.86 L 1024.53 149.58 L 1007.92 156.99 L 1001.44 159.76 L 987.84 165.44 L 974.93 170.88 L 967.98 173.77 L 959.47 177.36 L 950.73 180.78 L 940.95 184.25 L 934.24 186.22 L 924.80 188.42 L 915.19 189.92 L 909.75 190.44 L 898.53 191.08 L 879.13 191.66 L 858.30 192.93" stroke="#2e3448" stroke-width="24"/>
  <path class="sector" d="M 858.30 192.93 L 842.73 193.80 L 831.96 194.38 L 820.04 195.07 L 818.01 195.19 L 799.90 196.00 L 791.79 196.23 L 782.59 196.52 L 774.37 196.81 L 766.15 197.10 L 756.89 197.33 L 739.41 196.75 L 726.96 195.19 L 681.41 185.12 L 672.09 182.86 L 661.67 180.25 L 647.09 176.84 L 634.53 174.29 L 626.08 172.90 L 613.23 171.46 L 604.60 170.88 L 594.82 170.53 L 568.72 170.41 L 557.84 170.59 L 541.57 171.28 L 516.57 173.42 L 498.10 175.51 L 487.28 176.90 L 477.61 178.17 L 459.21 180.72 L 445.20 182.69 L 438.72 183.67 L 428.01 185.52 L 419.61 187.43 L 398.43 193.86 L 388.19 197.10 L 378.58 200.11 L 373.25 201.73 L 371.11 202.48 L 366.60 204.56 L 361.68 208.85 L 357.86 216.78 L 355.48 225.46 L 354.15 229.28 L 349.23 237.85 L 343.50 243.40 L 337.25 247.86 L 331.06 251.56 L 325.33 254.92 L 320.64 257.58 L 314.04 261.40 L 299.28 270.49 L 290.08 277.84 L 285.16 283.40 L 280.29 291.21 L 275.66 301.52 L 272.19 310.60 L 269.07 318.94 L 263.57 333.70 L 260.33 342.38 L 257.32 350.37 L 254.59 357.66 L 250.60 368.25 L 246.55 379.02 L 242.79 389.03 L 238.97 399.22 L 236.07 406.92 L 229.24 425.03 L 226.00 433.77 L 220.68 447.78 L 214.77 462.72 L 210.32 473.25 L 203.25 490.09 L 197.99 506.71 L 198.22 525.29 L 200.94 538.08 L 203.02 546.53 L 204.59 553.47 L 205.34 564.59 L 203.37 570.90 L 199.61 576.11 L 196.42 579.17 L 189.13 585.48 L 185.25 588.78 L 179.81 593.35 L 174.20 598.10 L 168.99 602.50 L 165.28 605.68 L 160.94 609.33 L 154.17 614.94 L 147.51 620.85 L 142.94 625.25 L 137.93 630.26" stroke="#fd0000" stroke-width="10"/>
  <path class="sector" d="M 137.93 630.26 L 137.44 630.75 L 132.41 635.72 L 127.83 640.24 L 118.57 649.21 L 111.11 656.21 L 106.65 660.67 L 103.24 664.43 L 100.23 668.54 L 97.91 672.65 L 96.98 675.08 L 96.00 683.07 L 97.39 688.45 L 99.24 691.58 L 102.37 694.88 L 104.80 696.67 L 109.72 699.16 L 113.13 700.14 L 121.24 700.96 L 125.46 700.84 L 132.47 700.14 L 137.85 699.28 L 140.45 698.87 L 145.26 698.00 L 153.19 696.38 L 158.51 695.28 L 164.01 694.18 L 170.90 692.79 L 180.10 691.06 L 188.96 689.49 L 197.41 687.99 L 198.86 687.76 L 209.04 686.02 L 215.00 685.10 L 227.16 683.24 L 233.35 682.32 L 240.47 681.33 L 248.40 680.23 L 255.64 679.19 L 265.42 677.86 L 279.77 676.12 L 282.26 675.83 L 299.11 674.21 L 319.77 673.29 L 325.85 673.29 L 339.04 673.64 L 350.56 674.45 L 359.42 675.31 L 368.33 676.36 L 413.65 681.45 L 425.34 682.14 L 439.06 680.75 L 448.27 676.88 L 450.75 675.31 L 459.96 665.94 L 465.40 656.33 L 468.58 650.08 L 473.56 639.54 L 475.93 633.75 L 479.58 622.41 L 481.95 608.75 L 482.59 597.93 L 482.13 586.93 L 481.08 576.86 L 478.65 561.40 L 476.16 549.31 L 474.54 542.36 L 471.30 528.24 L 468.87 517.53 L 467.83 513.07 L 463.55 494.03 L 461.06 483.09 L 458.80 470.47 L 458.34 464.51 L 459.44 454.96 L 464.30 441.76 L 469.51 431.98 L 475.24 422.37 L 479.35 416.70 L 483.23 412.53 L 487.34 409.52 L 492.02 407.79 L 498.39 407.55 L 505.34 408.94 L 512.17 410.85 L 516.91 412.01 L 523.45 413.23 L 533.06 414.10 L 540.18 414.27 L 546.95 414.27 L 557.89 414.21 L 564.61 414.15 L 572.13 414.04 L 584.92 413.98 L 598.99 413.86 L 606.51 413.75 L 614.27 413.69 L 626.83 413.63 L 635.69 413.52 L 647.15 413.40 L 652.01 413.28 L 665.38 412.65 L 675.51 411.78 L 684.06 410.99" stroke="#02a5d5" stroke-width="10"/>
  <path class="sector" d="M 684.06 410.99 L 684.89 410.91 L 693.51 410.16 L 703.93 409.23 L 717.99 408.08 L 725.05 407.50 L 732.17 406.92 L 750.12 405.47 L 754.75 405.12 L 766.15 404.43 L 775.24 405.64 L 778.77 408.02 L 781.55 410.80 L 786.12 415.77 L 789.65 418.67 L 794.45 420.81 L 797.52 421.27 L 802.09 420.69 L 806.90 419.42 L 811.93 417.68 L 817.43 415.48 L 820.79 413.98 L 827.04 410.97 L 834.16 407.27 L 839.72 404.31 L 849.50 399.10 L 859.92 393.72 L 870.16 388.69 L 879.31 384.52 L 886.72 381.16 L 898.24 375.43 L 911.03 367.85 L 912.36 367.04 L 926.37 357.37 L 932.39 352.97 L 945.06 343.25 L 947.03 341.69 L 962.48 328.03 L 973.02 317.43 L 980.25 309.62 L 981.47 308.29 L 988.07 300.94 L 994.72 293.53 L 1003.29 284.04 L 1008.27 278.54 L 1015.68 270.38 L 1021.23 264.18 L 1034.43 249.77 L 1045.78 238.54 L 1056.08 230.50 L 1064.18 225.58 L 1071.07 222.16 L 1087.39 215.45 L 1099.03 210.82 L 1116.51 203.70 L 1124.09 200.51 L 1129.53 198.14 L 1136.94 193.57 L 1140.82 189.23 L 1143.25 183.79 L 1144.00 179.10 L 1143.94 175.74 L 1142.84 169.49 L 1141.68 165.26 L 1140.87 162.72 L 1138.96 157.10 L 1137.17 152.18 L 1133.87 144.48 L 1129.65 136.50 L 1123.92 128.97 L 1118.18 124.46 L 1113.03 122.03 L 1103.71 120.12 L 1097.12 120.00 L 1090.00 120.98 L 1088.95 121.22 L 1079.75 124.40 L 1073.50 127.24 L 1065.98 130.77 L 1059.55 133.72 L 1049.54 138.23 L 1041.49 141.94 L 1035.07 144.83 L 1030.49 146.86 L 1024.53 149.58 L 1007.92 156.99 L 1001.44 159.76 L 987.84 165.44 L 974.93 170.88 L 967.98 173.77 L 959.47 177.36 L 950.73 180.78 L 940.95 184.25 L 934.24 186.22 L 924.80 188.42 L 915.19 189.92 L 909.75 190.44 L 898.53 191.08 L 879.13 191.66 L 858.30 192.93" stroke="#eecc03" stroke-width="10"/>
  <line class="start-line-outline" x1="859.52" y1="214.90" x2="857.07" y2="170.96"/>
  <line class="start-line-inner" x1="859.52" y1="214.90" x2="857.07" y2="170.96"/>
  <line class="arrow-shaft" x1="856.40" y1="158.98" x2="840.03" y2="159.90"/>
  <polygon class="arrow-head" points="832.44,160.32 840.07,153.48 840.79,166.26"/>
  <text class="label" x="491.05" y="148.57">Tamburello</text>
  <text class="label" x="157.67" y="444.29">Villeneuve</text>
  <text class="label" x="80.50" y="746.41">Tosa</text>
  <text class="label" x="335.68" y="611.31">Piratella</text>
  <text class="label" x="573.43" y="484.77">Acque Minerali</text>
  <text class="label" x="807.17" y="347.18">Variante Alta</text>
  <text class="label" x="1006.68" y="145.82">Rivazza</text>
  <circle class="marker" cx="721.98" cy="232.34" r="18"/>
  <text class="marker-text" x="721.98" y="232.84">01</text>
  <circle class="marker" cx="355.27" cy="168.45" r="18"/>
  <text class="marker-text" x="355.27" y="168.95">02</text>
  <circle class="marker" cx="383.46" cy="254.16" r="18"/>
  <text class="marker-text" x="383.46" y="254.66">03</text>
  <circle class="marker" cx="257.36" cy="258.60" r="18"/>
  <text class="marker-text" x="257.36" y="259.10">04</text>
  <circle class="marker" cx="160.02" cy="512.26" r="18"/>
  <text class="marker-text" x="160.02" y="512.76">05</text>
  <circle class="marker" cx="239.19" cy="581.96" r="18"/>
  <text class="marker-text" x="239.19" y="582.46">06</text>
  <circle class="marker" cx="61.91" cy="693.12" r="18"/>
  <text class="marker-text" x="61.91" y="693.62">07</text>
  <circle class="marker" cx="305.78" cy="636.07" r="18"/>
  <text class="marker-text" x="305.78" y="636.57">08</text>
  <circle class="marker" cx="481.94" cy="697.76" r="18"/>
  <text class="marker-text" x="481.94" y="698.26">09</text>
  <circle class="marker" cx="445.04" cy="594.51" r="18"/>
  <text class="marker-text" x="445.04" y="595.01">10</text>
  <circle class="marker" cx="422.56" cy="450.56" r="18"/>
  <text class="marker-text" x="422.56" y="451.06">11</text>
  <circle class="marker" cx="466.42" cy="378.06" r="18"/>
  <text class="marker-text" x="466.42" y="378.56">12</text>
  <circle class="marker" cx="530.37" cy="451.58" r="18"/>
  <text class="marker-text" x="530.37" y="452.08">13</text>
  <circle class="marker" cx="787.11" cy="369.98" r="18"/>
  <text class="marker-text" x="787.11" y="370.48">14</text>
  <circle class="marker" cx="799.85" cy="459.20" r="18"/>
  <text class="marker-text" x="799.85" y="459.70">15</text>
  <circle class="marker" cx="1075.48" cy="262.70" r="18"/>
  <text class="marker-text" x="1075.48" y="263.20">16</text>
  <circle class="marker" cx="1180.54" cy="187.46" r="18"/>
  <text class="marker-text" x="1180.54" y="187.96">17</text>
  <circle class="marker" cx="1096.02" cy="80.74" r="18"/>
  <text class="marker-text" x="1096.02" y="81.24">18</text>
  <circle class="marker" cx="953.64" cy="219.57" r="18"/>
  <text class="marker-text" x="953.64" y="220.07">19</text>
</svg>
