<svg xmlns="http://www.w3.org/2000/svg" width="1240" height="860" viewBox="0 0 1240 860" fill="none">
  <style>
    .title { font: 700 34px Inter, Arial, sans-serif; fill: #111111; }
    .track { fill: none; stroke-linejoin: round; stroke-linecap: round; }
    .sector { fill: none; stroke-linejoin: round; stroke-linecap: butt; }
    .marker { fill: #2e3448; stroke: #2e3448; stroke-width: 1.5; }
    .marker-text { font: 700 15px Inter, Arial, sans-serif; fill: #ffffff; text-anchor: middle; dominant-baseline: middle; }
    .label { font: 600 18px Inter, Arial, sans-serif; fill: #111111; paint-order: stroke; stroke: #ffffff; stroke-width: 5px; stroke-linejoin: round; }
    .start-line-outline { stroke: #121528; stroke-width: 8; stroke-linecap: round; }
    .start-line-inner { stroke: #ffffff; stroke-width: 4; stroke-linecap: round; }
    .arrow-shaft { stroke: #121528; stroke-width: 4; stroke-linecap: round; }
    .arrow-head { fill: #121528; }
  </style>
  <rect width="1240" height="860" fill="#ffffff"/>
  <text class="title" x="96" y="62">Monza</text>
  <path class="track" d="M 352.35 126.81 L 358.34 127.35 L 366.12 128.02 L 376.51 128.99 L 385.21 129.76 L 399.27 130.97 L 408.94 131.79 L 421.36 132.86 L 433.78 133.92 L 441.81 134.64 L 453.45 135.61 L 466.94 136.77 L 475.06 137.50 L 488.59 138.66 L 496.71 139.38 L 504.01 140.01 L 513.09 140.78 L 526.77 141.94 L 534.07 142.57 L 541.37 143.20 L 562.44 145.04 L 574.38 146.05 L 581.77 146.68 L 588.20 147.26 L 597.38 148.03 L 607.53 148.90 L 614.93 149.53 L 627.88 150.64 L 644.55 152.09 L 663.06 153.69 L 680.36 155.14 L 682.25 155.28 L 692.40 156.15 L 703.47 157.12 L 719.08 158.42 L 722.65 158.71 L 732.42 159.53 L 739.52 160.11 L 751.80 161.18 L 755.18 161.52 L 763.30 162.63 L 768.91 164.32 L 770.69 165.24 L 774.42 167.75 L 775.58 168.96 L 777.46 172.54 L 778.09 175.10 L 778.19 175.77 L 779.30 180.22 L 781.23 183.02 L 782.97 184.18 L 783.94 184.62 L 787.42 185.44 L 789.25 185.63 L 791.72 185.68 L 794.09 185.49 L 796.31 185.20 L 798.15 184.86 L 802.11 183.89 L 805.44 183.02 L 808.78 182.15 L 811.39 181.43 L 818.74 179.49 L 822.84 178.48 L 830.43 176.64 L 835.75 175.48 L 843.96 173.99 L 851.65 172.92 L 859.77 172.29 L 865.18 172.05 L 877.55 171.86 L 880.12 171.86 L 887.27 172.00 L 895.92 172.34 L 905.44 172.97 L 913.08 173.65 L 920.08 174.42 L 934.34 176.60 L 948.74 179.88 L 949.47 180.12 L 962.37 184.33 L 973.01 188.73 L 984.80 194.67 L 987.51 196.27 L 992.87 199.55 L 1000.02 204.48 L 1009.35 211.92 L 1016.94 219.17 L 1017.47 219.75 L 1026.07 229.52 L 1030.62 235.32 L 1037.14 244.79 L 1042.41 253.63 L 1047.77 263.93 L 1054.64 280.07 L 1057.83 289.64 L 1061.40 303.56 L 1063.53 314.34 L 1064.98 322.75 L 1066.91 336.23 L 1068.02 345.56 L 1069.09 356.67 L 1070.39 373.01 L 1071.17 381.61 L 1072.52 398.05 L 1073.20 407.42 L 1073.73 415.20 L 1074.16 422.16 L 1074.79 433.47 L 1075.47 448.26 L 1075.81 456.91 L 1076.05 463.87 L 1076.53 474.94 L 1076.82 484.07 L 1077.01 489.54 L 1077.26 495.09 L 1077.93 504.66 L 1079.29 511.48 L 1081.03 516.70 L 1082.23 519.31 L 1085.57 523.80 L 1087.89 525.54 L 1090.11 526.61 L 1095.96 529.75 L 1100.21 534.00 L 1101.81 536.32 L 1103.84 540.09 L 1104.13 540.77 L 1105.63 544.63 L 1107.46 551.79 L 1108.38 556.09 L 1109.11 560.24 L 1109.59 563.14 L 1110.60 568.56 L 1113.02 578.32 L 1114.81 584.17 L 1115.48 586.34 L 1117.03 591.37 L 1118.77 597.07 L 1120.51 602.29 L 1123.94 611.72 L 1126.60 618.34 L 1128.49 623.27 L 1131.29 630.81 L 1134.00 638.59 L 1136.46 645.88 L 1137.81 649.85 L 1140.86 659.27 L 1142.36 664.69 L 1143.52 669.95 L 1144.00 680.10 L 1142.41 689.67 L 1140.57 694.60 L 1132.88 705.86 L 1125.92 711.52 L 1118.05 715.48 L 1111.14 717.75 L 1106.35 718.86 L 1096.39 720.41 L 1090.01 721.09 L 1080.20 721.96 L 1072.91 722.49 L 1066.09 722.92 L 1059.23 723.36 L 1047.29 724.28 L 1038.06 725.10 L 1023.66 726.55 L 1008.92 727.42 L 1004.81 727.32 L 996.74 726.26 L 989.83 723.89 L 984.12 720.27 L 981.03 717.51 L 977.98 714.03 L 971.56 703.98 L 967.59 696.39 L 963.63 688.51 L 959.52 680.39 L 955.08 671.98 L 951.98 666.33 L 948.21 659.27 L 945.02 653.33 L 941.06 645.98 L 936.66 638.01 L 932.70 631.14 L 928.35 623.56 L 922.84 613.84 L 916.89 603.21 L 913.51 597.17 L 909.31 589.72 L 906.17 584.26 L 902.98 578.80 L 896.79 568.51 L 891.04 559.71 L 878.52 543.13 L 872.67 535.98 L 868.95 531.39 L 858.03 518.49 L 850.15 509.45 L 841.64 499.68 L 836.52 493.79 L 831.35 487.84 L 822.12 477.26 L 815.21 469.29 L 808.78 461.89 L 803.56 455.85 L 798.29 449.81 L 788.87 438.98 L 779.44 428.16 L 767.02 413.85 L 757.65 403.07 L 755.28 400.32 L 745.71 389.35 L 738.55 381.13 L 733.82 375.67 L 726.67 367.45 L 720.77 360.64 L 712.46 351.07 L 705.45 343.00 L 696.60 333.04 L 695.20 331.49 L 691.19 327.24 L 686.12 322.51 L 678.48 317.72 L 671.91 315.93 L 665.29 315.45 L 656.01 315.55 L 650.54 315.50 L 644.36 315.11 L 634.21 313.18 L 629.62 311.63 L 624.01 309.21 L 620.77 307.47 L 612.56 301.67 L 607.72 297.23 L 598.54 288.53 L 594.82 285.87 L 584.43 280.99 L 573.46 278.14 L 565.05 276.83 L 557.80 276.11 L 546.15 275.04 L 536.53 274.17 L 522.37 272.72 L 520.87 272.58 L 505.55 271.23 L 496.23 270.36 L 483.66 269.20 L 480.52 268.91 L 463.75 267.41 L 451.71 266.30 L 444.37 265.62 L 435.38 264.80 L 423.87 263.74 L 414.79 262.87 L 405.65 262.04 L 395.60 261.13 L 382.17 259.87 L 369.55 258.71 L 357.66 257.65 L 350.85 257.02 L 341.47 256.15 L 332.05 255.28 L 321.80 254.36 L 314.02 253.63 L 303.68 252.67 L 292.42 251.65 L 276.80 250.20 L 272.45 249.82 L 265.50 249.14 L 254.14 248.12 L 244.52 247.25 L 236.64 246.53 L 218.23 244.84 L 200.64 243.19 L 189.18 242.08 L 181.30 241.31 L 166.42 239.76 L 155.30 238.36 L 148.78 237.39 L 136.45 235.03 L 130.89 233.63 L 125.72 232.03 L 118.52 229.18 L 109.39 223.38 L 104.80 218.74 L 100.20 211.92 L 97.98 206.66 L 96.19 198.15 L 96.00 193.46 L 96.29 188.73 L 97.88 180.94 L 99.87 175.00 L 102.28 169.83 L 105.86 163.69 L 109.73 158.42 L 114.56 153.01 L 120.46 147.50 L 122.05 146.20 L 129.25 140.98 L 136.45 136.72 L 146.02 132.13 L 161.05 126.77 L 176.91 123.04 L 185.94 121.74 L 196.33 120.72 L 208.76 120.19 L 217.36 120.05 L 227.60 120.00 L 238.82 120.14 L 252.59 120.48 L 258.05 120.63 L 265.45 120.92 L 274.48 121.30 L 282.75 121.74 L 291.88 122.27 L 302.71 122.95 L 306.91 123.24 L 326.92 124.74 L 336.93 125.51 L 352.35 126.81" stroke="#121528" stroke-width="34"/>
  <path class="track" d="M 352.35 126.81 L 358.34 127.35 L 366.12 128.02 L 376.51 128.99 L 385.21 129.76 L 399.27 130.97 L 408.94 131.79 L 421.36 132.86 L 433.78 133.92 L 441.81 134.64 L 453.45 135.61 L 466.94 136.77 L 475.06 137.50 L 488.59 138.66 L 496.71 139.38 L 504.01 140.01 L 513.09 140.78 L 526.77 141.94 L 534.07 142.57 L 541.37 143.20 L 562.44 145.04 L 574.38 146.05 L 581.77 146.68 L 588.20 147.26 L 597.38 148.03 L 607.53 148.90 L 614.93 149.53 L 627.88 150.64 L 644.55 152.09 L 663.06 153.69 L 680.36 155.14 L 682.25 155.28 L 692.40 156.15 L 703.47 157.12 L 719.08 158.42 L 722.65 158.71 L 732.42 159.53 L 739.52 160.11 L 751.80 161.18 L 755.18 161.52 L 763.30 162.63 L 768.91 164.32 L 770.69 165.24 L 774.42 167.75 L 775.58 168.96 L 777.46 172.54 L 778.09 175.10 L 778.19 175.77 L 779.30 180.22 L 781.23 183.02 L 782.97 184.18 L 783.94 184.62 L 787.42 185.44 L 789.25 185.63 L 791.72 185.68 L 794.09 185.49 L 796.31 185.20 L 798.15 184.86 L 802.11 183.89 L 805.44 183.02 L 808.78 182.15 L 811.39 181.43 L 818.74 179.49 L 822.84 178.48 L 830.43 176.64 L 835.75 175.48 L 843.96 173.99 L 851.65 172.92 L 859.77 172.29 L 865.18 172.05 L 877.55 171.86 L 880.12 171.86 L 887.27 172.00 L 895.92 172.34 L 905.44 172.97 L 913.08 173.65 L 920.08 174.42 L 934.34 176.60 L 948.74 179.88 L 949.47 180.12 L 962.37 184.33 L 973.01 188.73 L 984.80 194.67 L 987.51 196.27 L 992.87 199.55 L 1000.02 204.48 L 1009.35 211.92 L 1016.94 219.17 L 1017.47 219.75 L 1026.07 229.52 L 1030.62 235.32 L 1037.14 244.79 L 1042.41 253.63 L 1047.77 263.93 L 1054.64 280.07 L 1057.83 289.64 L 1061.40 303.56 L 1063.53 314.34 L 1064.98 322.75 L 1066.91 336.23 L 1068.02 345.56 L 1069.09 356.67 L 1070.39 373.01 L 1071.17 381.61 L 1072.52 398.05 L 1073.20 407.42 L 1073.73 415.20 L 1074.16 422.16 L 1074.79 433.47 L 1075.47 448.26 L 1075.81 456.91 L 1076.05 463.87 L 1076.53 474.94 L 1076.82 484.07 L 1077.01 489.54 L 1077.26 495.09 L 1077.93 504.66 L 1079.29 511.48 L 1081.03 516.70 L 1082.23 519.31 L 1085.57 523.80 L 1087.89 525.54 L 1090.11 526.61 L 1095.96 529.75 L 1100.21 534.00 L 1101.81 536.32 L 1103.84 540.09 L 1104.13 540.77 L 1105.63 544.63 L 1107.46 551.79 L 1108.38 556.09 L 1109.11 560.24 L 1109.59 563.14 L 1110.60 568.56 L 1113.02 578.32 L 1114.81 584.17 L 1115.48 586.34 L 1117.03 591.37 L 1118.77 597.07 L 1120.51 602.29 L 1123.94 611.72 L 1126.60 618.34 L 1128.49 623.27 L 1131.29 630.81 L 1134.00 638.59 L 1136.46 645.88 L 1137.81 649.85 L 1140.86 659.27 L 1142.36 664.69 L 1143.52 669.95 L 1144.00 680.10 L 1142.41 689.67 L 1140.57 694.60 L 1132.88 705.86 L 1125.92 711.52 L 1118.05 715.48 L 1111.14 717.75 L 1106.35 718.86 L 1096.39 720.41 L 1090.01 721.09 L 1080.20 721.96 L 1072.91 722.49 L 1066.09 722.92 L 1059.23 723.36 L 1047.29 724.28 L 1038.06 725.10 L 1023.66 726.55 L 1008.92 727.42 L 1004.81 727.32 L 996.74 726.26 L 989.83 723.89 L 984.12 720.27 L 981.03 717.51 L 977.98 714.03 L 971.56 703.98 L 967.59 696.39 L 963.63 688.51 L 959.52 680.39 L 955.08 671.98 L 951.98 666.33 L 948.21 659.27 L 945.02 653.33 L 941.06 645.98 L 936.66 638.01 L 932.70 631.14 L 928.35 623.56 L 922.84 613.84 L 916.89 603.21 L 913.51 597.17 L 909.31 589.72 L 906.17 584.26 L 902.98 578.80 L 896.79 568.51 L 891.04 559.71 L 878.52 543.13 L 872.67 535.98 L 868.95 531.39 L 858.03 518.49 L 850.15 509.45 L 841.64 499.68 L 836.52 493.79 L 831.35 487.84 L 822.12 477.26 L 815.21 469.29 L 808.78 461.89 L 803.56 455.85 L 798.29 449.81 L 788.87 438.98 L 779.44 428.16 L 767.02 413.85 L 757.65 403.07 L 755.28 400.32 L 745.71 389.35 L 738.55 381.13 L 733.82 375.67 L 726.67 367.45 L 720.77 360.64 L 712.46 351.07 L 705.45 343.00 L 696.60 333.04 L 695.20 331.49 L 691.19 327.24 L 686.12 322.51 L 678.48 317.72 L 671.91 315.93 L 665.29 315.45 L 656.01 315.55 L 650.54 315.50 L 644.36 315.11 L 634.21 313.18 L 629.62 311.63 L 624.01 309.21 L 620.77 307.47 L 612.56 301.67 L 607.72 297.23 L 598.54 288.53 L 594.82 285.87 L 584.43 280.99 L 573.46 278.14 L 565.05 276.83 L 557.80 276.11 L 546.15 275.04 L 536.53 274.17 L 522.37 272.72 L 520.87 272.58 L 505.55 271.23 L 496.23 270.36 L 483.66 269.20 L 480.52 268.91 L 463.75 267.41 L 451.71 266.30 L 444.37 265.62 L 435.38 264.80 L 423.87 263.74 L 414.79 262.87 L 405.65 262.04 L 395.60 261.13 L 382.17 259.87 L 369.55 258.71 L 357.66 257.65 L 350.85 257.02 L 341.47 256.15 L 332.05 255.28 L 321.80 254.36 L 314.02 253.63 L 303.68 252.67 L 292.42 251.65 L 276.80 250.20 L 272.45 249.82 L 265.50 249.14 L 254.14 248.12 L 244.52 247.25 L 236.64 246.53 L 218.23 244.84 L 200.64 243.19 L 189.18 242.08 L 181.30 241.31 L 166.42 239.76 L 155.30 238.36 L 148.78 237.39 L 136.45 235.03 L 130.89 233.63 L 125.72 232.03 L 118.52 229.18 L 109.39 223.38 L 104.80 218.74 L 100.20 211.92 L 97.98 206.66 L 96.19 198.15 L 96.00 193.46 L 96.29 188.73 L 97.88 180.94 L 99.87 175.00 L 102.28 169.83 L 105.86 163.69 L 109.73 158.42 L 114.56 153.01 L 120.46 147.50 L 122.05 146.20 L 129.25 140.98 L 136.45 136.72 L 146.02 132.13 L 161.05 126.77 L 176.91 123.04 L 185.94 121.74 L 196.33 120.72 L 208.76 120.19 L 217.36 120.05 L 227.60 120.00 L 238.82 120.14 L 252.59 120.48 L 258.05 120.63 L 265.45 120.92 L 274.48 121.30 L 282.75 121.74 L 291.88 122.27 L 302.71 122.95 L 306.91 123.24 L 326.92 124.74 L 336.93 125.51 L 352.35 126.81" stroke="#2e3448" stroke-width="24"/>
  <path class="sector" d="M 352.35 126.81 L 358.34 127.35 L 366.12 128.02 L 376.51 128.99 L 385.21 129.76 L 399.27 130.97 L 408.94 131.79 L 421.36 132.86 L 433.78 133.92 L 441.81 134.64 L 453.45 135.61 L 466.94 136.77 L 475.06 137.50 L 488.59 138.66 L 496.71 139.38 L 504.01 140.01 L 513.09 140.78 L 526.77 141.94 L 534.07 142.57 L 541.37 143.20 L 562.44 145.04 L 574.38 146.05 L 581.77 146.68 L 588.20 147.26 L 597.38 148.03 L 607.53 148.90 L 614.93 149.53 L 627.88 150.64 L 644.55 152.09 L 663.06 153.69 L 680.36 155.14 L 682.25 155.28 L 692.40 156.15 L 703.47 157.12 L 719.08 158.42 L 722.65 158.71 L 732.42 159.53 L 739.52 160.11 L 751.80 161.18 L 755.18 161.52 L 763.30 162.63 L 768.91 164.32 L 770.69 165.24 L 774.42 167.75 L 775.58 168.96 L 777.46 172.54 L 778.09 175.10 L 778.19 175.77 L 779.30 180.22 L 781.23 183.02 L 782.97 184.18 L 783.94 184.62 L 787.42 185.44 L 789.25 185.63 L 791.72 185.68 L 794.09 185.49 L 796.31 185.20 L 798.15 184.86 L 802.11 183.89 L 805.44 183.02 L 808.78 182.15 L 811.39 181.43 L 818.74 179.49 L 822.84 178.48 L 830.43 176.64 L 835.75 175.48 L 843.96 173.99 L 851.65 172.92 L 859.77 172.29 L 865.18 172.05 L 877.55 171.86 L 880.12 171.86 L 887.27 172.00 L 895.92 172.34 L 905.44 172.97 L 913.08 173.65 L 920.08 174.42 L 934.34 176.60 L 948.74 179.88 L 949.47 180.12 L 962.37 184.33 L 973.01 188.73 L 984.80 194.67 L 987.51 196.27 L 992.87 199.55 L 1000.02 204.48 L 1009.35 211.92 L 1016.94 219.17 L 1017.47 219.75 L 1026.07 229.52 L 1030.62 235.32 L 1037.14 244.79 L 1042.41 253.63 L 1047.77 263.93 L 1054.64 280.07 L 1057.83 289.64 L 1061.40 303.56 L 1063.53 314.34 L 1064.98 322.75 L 1066.91 336.23 L 1068.02 345.56 L 1069.09 356.67 L 1070.39 373.01 L 1071.17 381.61 L 1072.52 398.05 L 1073.20 407.42 L 1073.73 415.20 L 1074.16 422.12" stroke="#fd0000" stroke-width="10"/>
  <path class="sector" d="M 1074.16 422.12 L 1074.16 422.16 L 1074.79 433.47 L 1075.47 448.26 L 1075.81 456.91 L 1076.05 463.87 L 1076.53 474.94 L 1076.82 484.07 L 1077.01 489.54 L 1077.26 495.09 L 1077.93 504.66 L 1079.29 511.48 L 1081.03 516.70 L 1082.23 519.31 L 1085.57 523.80 L 1087.89 525.54 L 1090.11 526.61 L 1095.96 529.75 L 1100.21 534.00 L 1101.81 536.32 L 1103.84 540.09 L 1104.13 540.77 L 1105.63 544.63 L 1107.46 551.79 L 1108.38 556.09 L 1109.11 560.24 L 1109.59 563.14 L 1110.60 568.56 L 1113.02 578.32 L 1114.81 584.17 L 1115.48 586.34 L 1117.03 591.37 L 1118.77 597.07 L 1120.51 602.29 L 1123.94 611.72 L 1126.60 618.34 L 1128.49 623.27 L 1131.29 630.81 L 1134.00 638.59 L 1136.46 645.88 L 1137.81 649.85 L 1140.86 659.27 L 1142.36 664.69 L 1143.52 669.95 L 1144.00 680.10 L 1142.41 689.67 L 1140.57 694.60 L 1132.88 705.86 L 1125.92 711.52 L 1118.05 715.48 L 1111.14 717.75 L 1106.35 718.86 L 1096.39 720.41 L 1090.01 721.09 L 1080.20 721.96 L 1072.91 722.49 L 1066.09 722.92 L 1059.23 723.36 L 1047.29 724.28 L 1038.06 725.10 L 1023.66 726.55 L 1008.92 727.42 L 1004.81 727.32 L 996.74 726.26 L 989.83 723.89 L 984.12 720.27 L 981.03 717.51 L 977.98 714.03 L 971.56 703.98 L 967.59 696.39 L 963.63 688.51 L 959.52 680.39 L 955.08 671.98 L 951.98 666.33 L 948.21 659.27 L 945.02 653.33 L 941.06 645.98 L 936.66 638.01 L 932.70 631.14 L 928.35 623.56 L 922.84 613.84 L 916.89 603.21 L 913.51 597.17 L 909.31 589.72 L 906.17 584.26 L 902.98 578.80 L 896.79 568.51 L 891.04 559.71 L 878.52 543.13 L 872.67 535.98 L 868.95 531.39 L 858.03 518.49 L 850.15 509.45 L 841.64 499.68 L 836.52 493.79 L 831.35 487.84 L 822.12 477.26 L 815.21 469.29 L 808.78 461.89 L 803.56 455.85 L 798.29 449.81 L 788.87 438.98 L 779.44 428.16 L 767.02 413.85 L 757.65 403.07 L 755.28 400.32 L 745.71 389.35 L 741.00 383.94" stroke="#02a5d5" stroke-width="10"/>
  <path class="sector" d="M 741.00 383.94 L 738.55 381.13 L 733.82 375.67 L 726.67 367.45 L 720.77 360.64 L 712.46 351.07 L 705.45 343.00 L 696.60 333.04 L 695.20 331.49 L 691.19 327.24 L 686.12 322.51 L 678.48 317.72 L 671.91 315.93 L 665.29 315.45 L 656.01 315.55 L 650.54 315.50 L 644.36 315.11 L 634.21 313.18 L 629.62 311.63 L 624.01 309.21 L 620.77 307.47 L 612.56 301.67 L 607.72 297.23 L 598.54 288.53 L 594.82 285.87 L 584.43 280.99 L 573.46 278.14 L 565.05 276.83 L 557.80 276.11 L 546.15 275.04 L 536.53 274.17 L 522.37 272.72 L 520.87 272.58 L 505.55 271.23 L 496.23 270.36 L 483.66 269.20 L 480.52 268.91 L 463.75 267.41 L 451.71 266.30 L 444.37 265.62 L 435.38 264.80 L 423.87 263.74 L 414.79 262.87 L 405.65 262.04 L 395.60 261.13 L 382.17 259.87 L 369.55 258.71 L 357.66 257.65 L 350.85 257.02 L 341.47 256.15 L 332.05 255.28 L 321.80 254.36 L 314.02 253.63 L 303.68 252.67 L 292.42 251.65 L 276.80 250.20 L 272.45 249.82 L 265.50 249.14 L 254.14 248.12 L 244.52 247.25 L 236.64 246.53 L 218.23 244.84 L 200.64 243.19 L 189.18 242.08 L 181.30 241.31 L 166.42 239.76 L 155.30 238.36 L 148.78 237.39 L 136.45 235.03 L 130.89 233.63 L 125.72 232.03 L 118.52 229.18 L 109.39 223.38 L 104.80 218.74 L 100.20 211.92 L 97.98 206.66 L 96.19 198.15 L 96.00 193.46 L 96.29 188.73 L 97.88 180.94 L 99.87 175.00 L 102.28 169.83 L 105.86 163.69 L 109.73 158.42 L 114.56 153.01 L 120.46 147.50 L 122.05 146.20 L 129.25 140.98 L 136.45 136.72 L 146.02 132.13 L 161.05 126.77 L 176.91 123.04 L 185.94 121.74 L 196.33 120.72 L 208.76 120.19 L 217.36 120.05 L 227.60 120.00 L 238.82 120.14 L 252.59 120.48 L 258.05 120.63 L 265.45 120.92 L 274.48 121.30 L 282.75 121.74 L 291.88 122.27 L 302.71 122.95 L 306.91 123.24 L 326.92 124.74 L 336.93 125.51 L 352.35 126.81" stroke="#eecc03" stroke-width="10"/>
  <line class="start-line-outline" x1="354.29" y1="104.90" x2="350.40" y2="148.73"/>
  <line class="start-line-inner" x1="354.29" y1="104.90" x2="350.40" y2="148.73"/>
  <line class="arrow-shaft" x1="349.34" y1="160.68" x2="365.68" y2="162.13"/>
  <polygon class="arrow-head" points="373.25,162.80 364.71,168.47 365.84,155.72"/>
  <circle class="marker" cx="787.05" cy="131.32" r="18"/>
  <text class="marker-text" x="787.05" y="131.82">01</text>
  <circle class="marker" cx="777.05" cy="221.82" r="18"/>
  <text class="marker-text" x="777.05" y="222.32">02</text>
  <circle class="marker" cx="1047.14" cy="196.47" r="18"/>
  <text class="marker-text" x="1047.14" y="196.97">03</text>
  <circle class="marker" cx="1053.17" cy="543.58" r="18"/>
  <text class="marker-text" x="1053.17" y="544.08">04</text>
  <circle class="marker" cx="1134.38" cy="517.40" r="18"/>
  <text class="marker-text" x="1134.38" y="517.90">05</text>
  <circle class="marker" cx="1166.45" cy="724.32" r="18"/>
  <text class="marker-text" x="1166.45" y="724.82">06</text>
  <circle class="marker" cx="969.51" cy="755.59" r="18"/>
  <text class="marker-text" x="969.51" y="756.09">07</text>
  <circle class="marker" cx="685.58" cy="280.49" r="18"/>
  <text class="marker-text" x="685.58" y="280.99">08</text>
  <circle class="marker" cx="617.66" cy="347.25" r="18"/>
  <text class="marker-text" x="617.66" y="347.75">09</text>
  <circle class="marker" cx="608.83" cy="250.57" r="18"/>
  <text class="marker-text" x="608.83" y="251.07">10</text>
  <circle class="marker" cx="58.78" cy="186.00" r="18"/>
  <text class="marker-text" x="58.78" y="186.50">11</text>
  <text class="label" x="778.25" y="175.19">Variante del Rettifilo</text>
  <text class="label" x="999.18" y="241.23">Biassono</text>
  <text class="label" x="1097.12" y="425.46">Seconda Variante</text>
  <text class="label" x="1116.38" y="688.79">Lesmo 1</text>
  <text class="label" x="999.32" y="701.92">Lesmo 2</text>
  <text class="label" x="520.74" y="286.12">Variante Ascari</text>
  <text class="label" x="132.40" y="193.54">Parabolica</text>
</svg>
