<svg xmlns="http://www.w3.org/2000/svg" width="1240" height="860" viewBox="0 0 1240 860" fill="none">
  <style>
    .title { font: 700 34px Inter, Arial, sans-serif; fill: #111111; }
    .track { fill: none; stroke-linejoin: round; stroke-linecap: round; }
    .sector { fill: none; stroke-linejoin: round; stroke-linecap: butt; }
    .marker { fill: #2e3448; stroke: #2e3448; stroke-width: 1.5; }
    .marker-text { font: 700 15px Inter, Arial, sans-serif; fill: #ffffff; text-anchor: middle; dominant-baseline: middle; }
    .label { font: 600 18px Inter, Arial, sans-serif; fill: #111111; paint-order: stroke; stroke: #ffffff; stroke-width: 5px; stroke-linejoin: round; }
    .start-line-outline { stroke: #121528; stroke-width: 8; stroke-linecap: round; }
    .start-line-inner { stroke: #ffffff; stroke-width: 4; stroke-linecap: round; }
    .arrow-shaft { stroke: #121528; stroke-width: 4; stroke-linecap: round; }
    .arrow-head { fill: #121528; }
  </style>
  <rect width="1240" height="860" fill="#ffffff"/>
  <text class="title" x="96" y="62">Monza</text>
  <path class="track" d="M 328.82 122.70 L 331.22 122.93 L 333.62 123.17 L 336.02 123.41 L 338.42 123.64 L 340.82 123.88 L 343.22 124.11 L 345.63 124.34 L 348.03 124.58 L 350.43 124.81 L 352.83 125.05 L 355.23 125.28 L 357.63 125.52 L 360.03 125.75 L 362.43 125.98 L 364.83 126.22 L 367.23 126.45 L 369.63 126.69 L 372.03 126.92 L 374.43 127.16 L 376.84 127.39 L 379.24 127.62 L 381.64 127.86 L 384.04 128.09 L 386.44 128.33 L 388.84 128.57 L 391.24 128.80 L 393.64 129.04 L 396.04 129.27 L 398.44 129.51 L 400.84 129.75 L 403.24 129.98 L 405.64 130.22 L 408.04 130.46 L 410.44 130.70 L 412.84 130.94 L 415.24 131.17 L 417.64 131.41 L 420.04 131.65 L 422.44 131.90 L 424.84 132.14 L 427.24 132.38 L 429.64 132.62 L 432.04 132.86 L 434.44 133.10 L 436.84 133.34 L 439.24 133.59 L 441.64 133.83 L 444.05 134.07 L 446.45 134.31 L 448.85 134.56 L 451.25 134.80 L 453.65 135.04 L 456.05 135.28 L 458.45 135.52 L 460.85 135.76 L 463.25 136.00 L 465.65 136.25 L 468.05 136.49 L 470.45 136.73 L 472.85 136.97 L 475.25 137.20 L 477.65 137.44 L 480.05 137.68 L 482.45 137.92 L 484.85 138.15 L 487.25 138.39 L 489.65 138.62 L 492.05 138.86 L 494.45 139.09 L 496.85 139.32 L 499.26 139.56 L 501.66 139.79 L 504.06 140.02 L 506.46 140.24 L 508.86 140.47 L 511.26 140.70 L 513.66 140.92 L 516.07 141.15 L 518.47 141.37 L 520.87 141.60 L 523.27 141.82 L 525.67 142.04 L 528.08 142.26 L 530.48 142.48 L 532.88 142.70 L 535.28 142.92 L 537.68 143.13 L 540.09 143.35 L 542.49 143.57 L 544.89 143.78 L 547.29 144.00 L 549.70 144.21 L 552.10 144.42 L 554.50 144.63 L 556.90 144.85 L 559.31 145.06 L 561.71 145.27 L 564.11 145.48 L 566.52 145.69 L 568.92 145.90 L 571.32 146.11 L 573.72 146.31 L 576.13 146.52 L 578.53 146.73 L 580.93 146.93 L 583.34 147.14 L 585.74 147.35 L 588.14 147.55 L 590.55 147.76 L 592.95 147.96 L 595.35 148.17 L 597.76 148.37 L 600.16 148.58 L 602.57 148.78 L 604.97 148.98 L 607.37 149.19 L 609.78 149.39 L 612.18 149.59 L 614.58 149.79 L 616.99 150.00 L 619.39 150.20 L 621.79 150.40 L 624.20 150.60 L 626.60 150.81 L 629.01 151.01 L 631.41 151.21 L 633.81 151.41 L 636.22 151.61 L 638.62 151.82 L 641.02 152.02 L 643.43 152.22 L 645.83 152.42 L 648.24 152.62 L 650.64 152.83 L 653.04 153.03 L 655.45 153.23 L 657.85 153.44 L 660.26 153.64 L 662.66 153.84 L 665.06 154.05 L 667.47 154.25 L 669.87 154.45 L 672.27 154.66 L 674.68 154.86 L 677.08 155.07 L 679.49 155.27 L 681.89 155.48 L 684.29 155.68 L 686.70 155.89 L 689.10 156.10 L 691.50 156.30 L 693.91 156.51 L 696.31 156.72 L 698.72 156.92 L 701.12 157.13 L 703.52 157.34 L 705.93 157.54 L 708.33 157.75 L 710.73 157.96 L 713.14 158.17 L 715.54 158.37 L 717.94 158.58 L 720.34 158.79 L 722.75 158.99 L 725.15 159.20 L 727.55 159.40 L 729.96 159.61 L 732.36 159.81 L 734.76 160.02 L 737.16 160.22 L 739.57 160.43 L 741.97 160.63 L 744.37 160.83 L 746.77 161.04 L 749.17 161.24 L 751.58 161.44 L 753.98 161.64 L 756.38 161.84 L 758.78 162.04 L 761.18 162.24 L 763.58 162.44 L 765.99 162.64 L 768.42 162.84 L 770.91 163.03 L 773.36 163.37 L 775.45 164.20 L 776.89 165.80 L 777.49 168.01 L 777.38 170.46 L 776.91 172.94 L 776.50 175.35 L 776.48 177.68 L 777.13 179.96 L 778.56 182.09 L 780.46 183.70 L 782.57 184.54 L 784.81 184.73 L 787.14 184.48 L 789.51 183.98 L 791.88 183.40 L 794.25 182.80 L 796.60 182.19 L 798.95 181.56 L 801.29 180.93 L 803.62 180.29 L 805.95 179.64 L 808.27 179.00 L 810.59 178.35 L 812.91 177.71 L 815.24 177.08 L 817.56 176.46 L 819.88 175.85 L 822.21 175.25 L 824.55 174.68 L 826.89 174.12 L 829.23 173.59 L 831.59 173.08 L 833.96 172.60 L 836.33 172.15 L 838.71 171.74 L 841.10 171.36 L 843.50 171.02 L 845.90 170.73 L 848.30 170.47 L 850.71 170.27 L 853.11 170.11 L 855.52 170.00 L 857.93 169.95 L 860.34 169.93 L 862.74 169.96 L 865.15 170.03 L 867.55 170.12 L 869.96 170.25 L 872.37 170.39 L 874.77 170.55 L 877.18 170.73 L 879.59 170.92 L 882.00 171.11 L 884.40 171.31 L 886.81 171.51 L 889.22 171.71 L 891.62 171.91 L 894.03 172.10 L 896.43 172.29 L 898.84 172.47 L 901.24 172.64 L 903.64 172.81 L 906.05 172.97 L 908.45 173.12 L 910.85 173.28 L 913.26 173.44 L 915.66 173.61 L 918.06 173.79 L 920.47 173.98 L 922.88 174.18 L 925.28 174.40 L 927.69 174.63 L 930.09 174.89 L 932.50 175.18 L 934.89 175.49 L 937.28 175.83 L 939.67 176.20 L 942.04 176.61 L 944.41 177.05 L 946.77 177.53 L 949.12 178.06 L 951.45 178.63 L 953.78 179.24 L 956.09 179.91 L 958.38 180.63 L 960.66 181.40 L 962.92 182.23 L 965.16 183.12 L 967.39 184.06 L 969.60 185.04 L 971.80 186.06 L 973.98 187.11 L 976.16 188.18 L 978.32 189.26 L 980.47 190.36 L 982.61 191.46 L 984.75 192.57 L 986.87 193.69 L 988.97 194.84 L 991.05 196.05 L 993.09 197.32 L 995.10 198.65 L 997.09 200.04 L 999.04 201.47 L 1000.96 202.94 L 1002.85 204.45 L 1004.71 205.99 L 1006.54 207.56 L 1008.34 209.16 L 1010.12 210.79 L 1011.86 212.45 L 1013.58 214.13 L 1015.27 215.85 L 1016.93 217.59 L 1018.57 219.36 L 1020.18 221.15 L 1021.76 222.97 L 1023.31 224.81 L 1024.84 226.67 L 1026.35 228.56 L 1027.83 230.46 L 1029.28 232.39 L 1030.71 234.33 L 1032.11 236.30 L 1033.49 238.28 L 1034.84 240.28 L 1036.17 242.30 L 1037.47 244.33 L 1038.74 246.38 L 1039.98 248.45 L 1041.19 250.54 L 1042.38 252.64 L 1043.53 254.76 L 1044.65 256.90 L 1045.73 259.05 L 1046.79 261.22 L 1047.81 263.40 L 1048.79 265.60 L 1049.74 267.81 L 1050.65 270.04 L 1051.53 272.28 L 1052.37 274.54 L 1053.17 276.81 L 1053.94 279.09 L 1054.68 281.38 L 1055.40 283.68 L 1056.09 286.00 L 1056.76 288.31 L 1057.41 290.64 L 1058.04 292.97 L 1058.66 295.30 L 1059.26 297.64 L 1059.85 299.98 L 1060.43 302.33 L 1060.98 304.68 L 1061.52 307.03 L 1062.03 309.39 L 1062.52 311.75 L 1062.98 314.12 L 1063.42 316.49 L 1063.84 318.86 L 1064.23 321.24 L 1064.59 323.62 L 1064.94 326.01 L 1065.27 328.39 L 1065.58 330.78 L 1065.87 333.18 L 1066.14 335.57 L 1066.40 337.97 L 1066.65 340.37 L 1066.88 342.77 L 1067.11 345.17 L 1067.33 347.57 L 1067.53 349.98 L 1067.74 352.38 L 1067.93 354.79 L 1068.12 357.19 L 1068.31 359.60 L 1068.50 362.00 L 1068.69 364.41 L 1068.87 366.82 L 1069.06 369.22 L 1069.24 371.63 L 1069.42 374.04 L 1069.60 376.44 L 1069.78 378.85 L 1069.96 381.25 L 1070.15 383.66 L 1070.33 386.06 L 1070.52 388.47 L 1070.70 390.87 L 1070.89 393.28 L 1071.08 395.68 L 1071.27 398.09 L 1071.47 400.49 L 1071.67 402.89 L 1071.87 405.29 L 1072.08 407.70 L 1072.29 410.10 L 1072.49 412.50 L 1072.70 414.90 L 1072.91 417.30 L 1073.12 419.71 L 1073.33 422.11 L 1073.53 424.51 L 1073.74 426.91 L 1073.94 429.32 L 1074.14 431.72 L 1074.33 434.12 L 1074.52 436.53 L 1074.70 438.94 L 1074.88 441.34 L 1075.05 443.75 L 1075.22 446.16 L 1075.38 448.57 L 1075.53 450.98 L 1075.68 453.39 L 1075.82 455.80 L 1075.95 458.21 L 1076.08 460.62 L 1076.20 463.03 L 1076.32 465.45 L 1076.44 467.86 L 1076.55 470.27 L 1076.66 472.67 L 1076.76 475.08 L 1076.86 477.49 L 1076.96 479.90 L 1077.05 482.30 L 1077.15 484.70 L 1077.24 487.10 L 1077.33 489.50 L 1077.42 491.90 L 1077.52 494.30 L 1077.61 496.70 L 1077.71 499.11 L 1077.82 501.53 L 1077.94 503.95 L 1078.07 506.39 L 1078.22 508.85 L 1078.38 511.32 L 1078.61 513.77 L 1079.03 516.11 L 1079.78 518.24 L 1080.99 520.04 L 1082.75 521.46 L 1084.95 522.54 L 1087.39 523.36 L 1089.91 524.02 L 1092.32 524.60 L 1094.56 525.25 L 1096.65 526.20 L 1098.54 527.61 L 1099.92 529.50 L 1100.69 531.73 L 1101.04 534.14 L 1101.27 536.59 L 1101.58 539.00 L 1101.96 541.38 L 1102.38 543.74 L 1102.86 546.10 L 1103.38 548.45 L 1103.94 550.79 L 1104.54 553.13 L 1105.16 555.46 L 1105.82 557.78 L 1106.49 560.10 L 1107.19 562.41 L 1107.89 564.71 L 1108.61 567.02 L 1109.34 569.31 L 1110.09 571.61 L 1110.84 573.90 L 1111.60 576.19 L 1112.37 578.48 L 1113.14 580.76 L 1113.92 583.04 L 1114.71 585.33 L 1115.50 587.61 L 1116.29 589.88 L 1117.08 592.16 L 1117.87 594.44 L 1118.66 596.72 L 1119.45 599.00 L 1120.24 601.28 L 1121.02 603.56 L 1121.80 605.85 L 1122.57 608.13 L 1123.34 610.42 L 1124.10 612.70 L 1124.87 614.99 L 1125.63 617.28 L 1126.38 619.57 L 1127.14 621.86 L 1127.89 624.15 L 1128.65 626.44 L 1129.40 628.74 L 1130.15 631.03 L 1130.91 633.32 L 1131.66 635.61 L 1132.42 637.90 L 1133.18 640.19 L 1133.94 642.48 L 1134.70 644.77 L 1135.46 647.06 L 1136.23 649.35 L 1136.99 651.64 L 1137.75 653.93 L 1138.51 656.22 L 1139.25 658.51 L 1139.98 660.81 L 1140.70 663.11 L 1141.40 665.42 L 1142.08 667.73 L 1142.71 670.05 L 1143.25 672.39 L 1143.66 674.76 L 1143.92 677.16 L 1144.00 679.58 L 1143.91 682.01 L 1143.64 684.43 L 1143.21 686.81 L 1142.61 689.14 L 1141.85 691.40 L 1140.93 693.61 L 1139.87 695.74 L 1138.66 697.81 L 1137.32 699.80 L 1135.85 701.71 L 1134.27 703.54 L 1132.56 705.28 L 1130.75 706.92 L 1128.84 708.45 L 1126.84 709.82 L 1124.74 711.02 L 1122.56 712.00 L 1120.30 712.76 L 1117.98 713.33 L 1115.61 713.78 L 1113.23 714.14 L 1110.84 714.47 L 1108.44 714.79 L 1106.05 715.08 L 1103.65 715.37 L 1101.25 715.64 L 1098.86 715.90 L 1096.46 716.14 L 1094.06 716.38 L 1091.66 716.61 L 1089.26 716.84 L 1086.85 717.05 L 1084.45 717.27 L 1082.05 717.48 L 1079.65 717.69 L 1077.24 717.89 L 1074.84 718.10 L 1072.44 718.31 L 1070.04 718.53 L 1067.63 718.74 L 1065.23 718.96 L 1062.83 719.19 L 1060.42 719.42 L 1058.02 719.65 L 1055.62 719.88 L 1053.22 720.12 L 1050.82 720.35 L 1048.41 720.59 L 1046.01 720.83 L 1043.61 721.06 L 1041.21 721.30 L 1038.81 721.53 L 1036.41 721.76 L 1034.01 721.99 L 1031.61 722.22 L 1029.21 722.44 L 1026.81 722.66 L 1024.41 722.88 L 1022.01 723.09 L 1019.61 723.30 L 1017.21 723.51 L 1014.81 723.72 L 1012.41 723.94 L 1010.00 724.17 L 1007.59 724.40 L 1005.18 724.64 L 1002.76 724.90 L 1000.35 725.12 L 997.94 725.23 L 995.56 725.16 L 993.21 724.82 L 990.90 724.16 L 988.69 723.18 L 986.62 721.93 L 984.74 720.42 L 983.10 718.69 L 981.68 716.77 L 980.41 714.72 L 979.23 712.60 L 978.10 710.45 L 976.95 708.31 L 975.78 706.20 L 974.60 704.10 L 973.41 702.00 L 972.22 699.91 L 971.04 697.82 L 969.85 695.72 L 968.67 693.62 L 967.48 691.52 L 966.30 689.41 L 965.12 687.31 L 963.95 685.20 L 962.77 683.09 L 961.59 680.99 L 960.42 678.88 L 959.24 676.77 L 958.06 674.67 L 956.89 672.56 L 955.71 670.45 L 954.54 668.35 L 953.36 666.24 L 952.18 664.13 L 951.01 662.03 L 949.83 659.92 L 948.65 657.82 L 947.48 655.71 L 946.30 653.61 L 945.12 651.50 L 943.94 649.40 L 942.77 647.29 L 941.59 645.19 L 940.41 643.09 L 939.22 640.98 L 938.04 638.88 L 936.86 636.78 L 935.68 634.68 L 934.50 632.57 L 933.31 630.47 L 932.13 628.37 L 930.95 626.27 L 929.77 624.16 L 928.59 622.06 L 927.40 619.96 L 926.23 617.85 L 925.05 615.75 L 923.87 613.64 L 922.69 611.53 L 921.52 609.43 L 920.35 607.32 L 919.18 605.21 L 918.01 603.10 L 916.84 600.99 L 915.68 598.87 L 914.51 596.76 L 913.34 594.65 L 912.17 592.55 L 910.99 590.44 L 909.81 588.34 L 908.63 586.24 L 907.44 584.14 L 906.24 582.05 L 905.03 579.96 L 903.82 577.88 L 902.59 575.80 L 901.35 573.73 L 900.11 571.67 L 898.85 569.61 L 897.57 567.56 L 896.28 565.52 L 894.98 563.50 L 893.65 561.48 L 892.32 559.47 L 890.96 557.47 L 889.59 555.49 L 888.20 553.52 L 886.79 551.56 L 885.36 549.62 L 883.91 547.69 L 882.44 545.78 L 880.95 543.88 L 879.45 542.00 L 877.93 540.13 L 876.39 538.27 L 874.84 536.42 L 873.28 534.59 L 871.71 532.76 L 870.13 530.94 L 868.54 529.12 L 866.94 527.32 L 865.34 525.51 L 863.73 523.71 L 862.12 521.92 L 860.51 520.12 L 858.90 518.32 L 857.30 516.52 L 855.69 514.72 L 854.09 512.92 L 852.49 511.11 L 850.90 509.30 L 849.30 507.49 L 847.71 505.67 L 846.13 503.86 L 844.54 502.04 L 842.95 500.23 L 841.36 498.41 L 839.77 496.60 L 838.18 494.78 L 836.60 492.97 L 835.01 491.15 L 833.42 489.34 L 831.83 487.52 L 830.24 485.71 L 828.65 483.90 L 827.06 482.08 L 825.47 480.27 L 823.87 478.46 L 822.28 476.64 L 820.69 474.83 L 819.10 473.02 L 817.51 471.21 L 815.92 469.39 L 814.32 467.58 L 812.73 465.77 L 811.14 463.96 L 809.55 462.15 L 807.95 460.33 L 806.36 458.52 L 804.77 456.71 L 803.18 454.90 L 801.58 453.09 L 799.99 451.28 L 798.40 449.46 L 796.81 447.65 L 795.21 445.84 L 793.62 444.03 L 792.03 442.22 L 790.44 440.40 L 788.84 438.59 L 787.25 436.78 L 785.66 434.97 L 784.07 433.16 L 782.48 431.34 L 780.88 429.53 L 779.29 427.72 L 777.70 425.91 L 776.11 424.09 L 774.52 422.28 L 772.93 420.47 L 771.33 418.65 L 769.74 416.84 L 768.15 415.03 L 766.56 413.21 L 764.97 411.40 L 763.38 409.59 L 761.79 407.78 L 760.20 405.96 L 758.61 404.15 L 757.02 402.34 L 755.42 400.52 L 753.83 398.71 L 752.24 396.90 L 750.65 395.08 L 749.06 393.27 L 747.47 391.46 L 745.88 389.65 L 744.29 387.83 L 742.69 386.02 L 741.10 384.21 L 739.51 382.40 L 737.92 380.58 L 736.33 378.77 L 734.74 376.96 L 733.14 375.15 L 731.55 373.34 L 729.96 371.52 L 728.37 369.71 L 726.77 367.90 L 725.18 366.09 L 723.59 364.28 L 721.99 362.47 L 720.40 360.65 L 718.81 358.84 L 717.21 357.03 L 715.62 355.22 L 714.03 353.40 L 712.44 351.59 L 710.84 349.78 L 709.25 347.97 L 707.66 346.15 L 706.07 344.34 L 704.48 342.53 L 702.89 340.71 L 701.31 338.90 L 699.72 337.08 L 698.13 335.27 L 696.55 333.45 L 694.96 331.64 L 693.37 329.82 L 691.78 328.01 L 690.18 326.20 L 688.58 324.40 L 686.97 322.60 L 685.35 320.80 L 683.72 319.01 L 682.06 317.24 L 680.29 315.64 L 678.27 314.39 L 676.01 313.57 L 673.63 313.20 L 671.20 313.20 L 668.78 313.41 L 666.40 313.72 L 664.02 314.05 L 661.64 314.37 L 659.24 314.66 L 656.84 314.91 L 654.42 315.10 L 652.01 315.23 L 649.60 315.29 L 647.19 315.26 L 644.78 315.14 L 642.39 314.92 L 640.01 314.58 L 637.65 314.12 L 635.32 313.56 L 633.00 312.88 L 630.72 312.10 L 628.48 311.22 L 626.27 310.23 L 624.11 309.14 L 621.99 307.96 L 619.92 306.69 L 617.92 305.33 L 615.98 303.88 L 614.13 302.35 L 612.36 300.74 L 610.69 299.06 L 609.11 297.30 L 607.59 295.46 L 606.13 293.54 L 604.69 291.53 L 603.24 289.48 L 601.74 287.51 L 600.11 285.72 L 598.30 284.25 L 596.27 283.14 L 594.07 282.36 L 591.75 281.79 L 589.36 281.36 L 586.95 280.97 L 584.55 280.61 L 582.14 280.25 L 579.74 279.90 L 577.34 279.57 L 574.94 279.25 L 572.55 278.93 L 570.15 278.63 L 567.75 278.33 L 565.36 278.03 L 562.97 277.75 L 560.57 277.46 L 558.18 277.18 L 555.79 276.90 L 553.40 276.63 L 551.00 276.35 L 548.61 276.08 L 546.22 275.80 L 543.83 275.52 L 541.44 275.24 L 539.04 274.95 L 536.65 274.67 L 534.26 274.38 L 531.86 274.09 L 529.47 273.80 L 527.07 273.51 L 524.68 273.22 L 522.28 272.93 L 519.89 272.64 L 517.49 272.35 L 515.10 272.06 L 512.70 271.77 L 510.30 271.49 L 507.91 271.20 L 505.51 270.92 L 503.11 270.64 L 500.72 270.36 L 498.32 270.08 L 495.92 269.81 L 493.52 269.54 L 491.12 269.27 L 488.73 269.01 L 486.33 268.74 L 483.93 268.48 L 481.53 268.22 L 479.13 267.96 L 476.73 267.71 L 474.33 267.45 L 471.94 267.20 L 469.54 266.95 L 467.14 266.70 L 464.74 266.46 L 462.34 266.21 L 459.94 265.96 L 457.54 265.72 L 455.14 265.48 L 452.74 265.24 L 450.34 265.00 L 447.94 264.76 L 445.54 264.52 L 443.14 264.28 L 440.74 264.04 L 438.34 263.80 L 435.94 263.57 L 433.54 263.33 L 431.14 263.09 L 428.74 262.86 L 426.34 262.62 L 423.94 262.38 L 421.54 262.15 L 419.14 261.91 L 416.74 261.67 L 414.34 261.44 L 411.94 261.20 L 409.54 260.96 L 407.14 260.72 L 404.74 260.49 L 402.34 260.25 L 399.94 260.01 L 397.54 259.77 L 395.14 259.53 L 392.74 259.29 L 390.33 259.05 L 387.93 258.81 L 385.53 258.57 L 383.13 258.33 L 380.73 258.08 L 378.33 257.84 L 375.93 257.60 L 373.53 257.36 L 371.13 257.12 L 368.73 256.87 L 366.33 256.63 L 363.93 256.39 L 361.53 256.15 L 359.13 255.90 L 356.73 255.66 L 354.33 255.42 L 351.93 255.18 L 349.53 254.93 L 347.13 254.69 L 344.73 254.45 L 342.33 254.20 L 339.93 253.96 L 337.53 253.72 L 335.13 253.48 L 332.73 253.23 L 330.33 252.99 L 327.93 252.75 L 325.53 252.51 L 323.13 252.26 L 320.73 252.02 L 318.33 251.78 L 315.93 251.54 L 313.53 251.29 L 311.13 251.05 L 308.73 250.81 L 306.33 250.57 L 303.93 250.33 L 301.53 250.09 L 299.13 249.84 L 296.73 249.60 L 294.33 249.36 L 291.93 249.12 L 289.53 248.88 L 287.13 248.64 L 284.73 248.40 L 282.33 248.16 L 279.93 247.92 L 277.53 247.68 L 275.13 247.44 L 272.73 247.20 L 270.33 246.95 L 267.93 246.71 L 265.53 246.47 L 263.13 246.23 L 260.73 245.99 L 258.33 245.75 L 255.93 245.51 L 253.53 245.27 L 251.13 245.03 L 248.73 244.79 L 246.33 244.55 L 243.93 244.31 L 241.53 244.07 L 239.13 243.83 L 236.73 243.59 L 234.33 243.35 L 231.93 243.11 L 229.53 242.88 L 227.13 242.64 L 224.73 242.40 L 222.33 242.16 L 219.93 241.92 L 217.53 241.68 L 215.13 241.44 L 212.73 241.20 L 210.32 240.96 L 207.92 240.72 L 205.52 240.48 L 203.12 240.24 L 200.72 240.00 L 198.32 239.76 L 195.92 239.52 L 193.52 239.28 L 191.12 239.04 L 188.72 238.80 L 186.32 238.57 L 183.92 238.33 L 181.52 238.09 L 179.12 237.85 L 176.72 237.61 L 174.32 237.37 L 171.92 237.13 L 169.52 236.89 L 167.12 236.65 L 164.72 236.41 L 162.32 236.17 L 159.92 235.93 L 157.52 235.69 L 155.11 235.45 L 152.71 235.21 L 150.31 234.97 L 147.91 234.73 L 145.51 234.48 L 143.11 234.23 L 140.72 233.97 L 138.32 233.70 L 135.92 233.43 L 133.53 233.14 L 131.14 232.84 L 128.76 232.50 L 126.39 232.08 L 124.06 231.54 L 121.77 230.84 L 119.53 229.94 L 117.36 228.85 L 115.26 227.60 L 113.25 226.22 L 111.34 224.72 L 109.53 223.12 L 107.82 221.43 L 106.22 219.66 L 104.73 217.80 L 103.34 215.86 L 102.05 213.84 L 100.87 211.76 L 99.79 209.60 L 98.82 207.38 L 97.95 205.10 L 97.22 202.77 L 96.64 200.41 L 96.24 198.03 L 96.03 195.63 L 96.00 193.24 L 96.14 190.85 L 96.42 188.47 L 96.83 186.11 L 97.35 183.77 L 97.98 181.45 L 98.71 179.16 L 99.54 176.89 L 100.46 174.65 L 101.46 172.45 L 102.54 170.28 L 103.69 168.15 L 104.91 166.06 L 106.19 164.01 L 107.54 162.01 L 108.95 160.05 L 110.41 158.13 L 111.93 156.27 L 113.50 154.44 L 115.13 152.67 L 116.81 150.95 L 118.54 149.28 L 120.32 147.67 L 122.15 146.10 L 124.02 144.59 L 125.93 143.12 L 127.88 141.71 L 129.87 140.35 L 131.89 139.05 L 133.95 137.79 L 136.04 136.58 L 138.16 135.42 L 140.31 134.32 L 142.49 133.26 L 144.69 132.25 L 146.91 131.30 L 149.15 130.39 L 151.41 129.53 L 153.69 128.72 L 155.98 127.96 L 158.28 127.25 L 160.59 126.58 L 162.92 125.96 L 165.25 125.39 L 167.60 124.85 L 169.95 124.36 L 172.32 123.90 L 174.69 123.48 L 177.07 123.10 L 179.45 122.75 L 181.84 122.44 L 184.23 122.15 L 186.63 121.89 L 189.04 121.67 L 191.44 121.47 L 193.85 121.29 L 196.26 121.14 L 198.67 121.00 L 201.08 120.89 L 203.49 120.80 L 205.90 120.72 L 208.31 120.66 L 210.72 120.61 L 213.14 120.58 L 215.55 120.55 L 217.96 120.54 L 220.37 120.53 L 222.78 120.52 L 225.20 120.52 L 227.61 120.52 L 230.02 120.52 L 232.43 120.52 L 234.85 120.52 L 237.26 120.51 L 239.67 120.49 L 242.08 120.47 L 244.49 120.44 L 246.91 120.40 L 249.32 120.35 L 251.73 120.30 L 254.14 120.25 L 256.55 120.20 L 258.97 120.15 L 261.38 120.11 L 263.79 120.07 L 266.20 120.04 L 268.61 120.02 L 271.03 120.01 L 273.44 120.00 L 275.85 120.00 L 278.26 120.01 L 280.67 120.03 L 283.08 120.05 L 285.50 120.08 L 287.91 120.12 L 290.32 120.17 L 292.73 120.22 L 295.14 120.29 L 297.56 120.37 L 299.97 120.46 L 302.38 120.57 L 304.78 120.69 L 307.19 120.83 L 309.60 120.99 L 312.00 121.17 L 314.41 121.36 L 316.81 121.56 L 319.21 121.78 L 321.62 122.00 L 324.02 122.23 L 326.42 122.46 L 328.82 122.70" stroke="#121528" stroke-width="34"/>
  <path class="track" d="M 328.82 122.70 L 331.22 122.93 L 333.62 123.17 L 336.02 123.41 L 338.42 123.64 L 340.82 123.88 L 343.22 124.11 L 345.63 124.34 L 348.03 124.58 L 350.43 124.81 L 352.83 125.05 L 355.23 125.28 L 357.63 125.52 L 360.03 125.75 L 362.43 125.98 L 364.83 126.22 L 367.23 126.45 L 369.63 126.69 L 372.03 126.92 L 374.43 127.16 L 376.84 127.39 L 379.24 127.62 L 381.64 127.86 L 384.04 128.09 L 386.44 128.33 L 388.84 128.57 L 391.24 128.80 L 393.64 129.04 L 396.04 129.27 L 398.44 129.51 L 400.84 129.75 L 403.24 129.98 L 405.64 130.22 L 408.04 130.46 L 410.44 130.70 L 412.84 130.94 L 415.24 131.17 L 417.64 131.41 L 420.04 131.65 L 422.44 131.90 L 424.84 132.14 L 427.24 132.38 L 429.64 132.62 L 432.04 132.86 L 434.44 133.10 L 436.84 133.34 L 439.24 133.59 L 441.64 133.83 L 444.05 134.07 L 446.45 134.31 L 448.85 134.56 L 451.25 134.80 L 453.65 135.04 L 456.05 135.28 L 458.45 135.52 L 460.85 135.76 L 463.25 136.00 L 465.65 136.25 L 468.05 136.49 L 470.45 136.73 L 472.85 136.97 L 475.25 137.20 L 477.65 137.44 L 480.05 137.68 L 482.45 137.92 L 484.85 138.15 L 487.25 138.39 L 489.65 138.62 L 492.05 138.86 L 494.45 139.09 L 496.85 139.32 L 499.26 139.56 L 501.66 139.79 L 504.06 140.02 L 506.46 140.24 L 508.86 140.47 L 511.26 140.70 L 513.66 140.92 L 516.07 141.15 L 518.47 141.37 L 520.87 141.60 L 523.27 141.82 L 525.67 142.04 L 528.08 142.26 L 530.48 142.48 L 532.88 142.70 L 535.28 142.92 L 537.68 143.13 L 540.09 143.35 L 542.49 143.57 L 544.89 143.78 L 547.29 144.00 L 549.70 144.21 L 552.10 144.42 L 554.50 144.63 L 556.90 144.85 L 559.31 145.06 L 561.71 145.27 L 564.11 145.48 L 566.52 145.69 L 568.92 145.90 L 571.32 146.11 L 573.72 146.31 L 576.13 146.52 L 578.53 146.73 L 580.93 146.93 L 583.34 147.14 L 585.74 147.35 L 588.14 147.55 L 590.55 147.76 L 592.95 147.96 L 595.35 148.17 L 597.76 148.37 L 600.16 148.58 L 602.57 148.78 L 604.97 148.98 L 607.37 149.19 L 609.78 149.39 L 612.18 149.59 L 614.58 149.79 L 616.99 150.00 L 619.39 150.20 L 621.79 150.40 L 624.20 150.60 L 626.60 150.81 L 629.01 151.01 L 631.41 151.21 L 633.81 151.41 L 636.22 151.61 L 638.62 151.82 L 641.02 152.02 L 643.43 152.22 L 645.83 152.42 L 648.24 152.62 L 650.64 152.83 L 653.04 153.03 L 655.45 153.23 L 657.85 153.44 L 660.26 153.64 L 662.66 153.84 L 665.06 154.05 L 667.47 154.25 L 669.87 154.45 L 672.27 154.66 L 674.68 154.86 L 677.08 155.07 L 679.49 155.27 L 681.89 155.48 L 684.29 155.68 L 686.70 155.89 L 689.10 156.10 L 691.50 156.30 L 693.91 156.51 L 696.31 156.72 L 698.72 156.92 L 701.12 157.13 L 703.52 157.34 L 705.93 157.54 L 708.33 157.75 L 710.73 157.96 L 713.14 158.17 L 715.54 158.37 L 717.94 158.58 L 720.34 158.79 L 722.75 158.99 L 725.15 159.20 L 727.55 159.40 L 729.96 159.61 L 732.36 159.81 L 734.76 160.02 L 737.16 160.22 L 739.57 160.43 L 741.97 160.63 L 744.37 160.83 L 746.77 161.04 L 749.17 161.24 L 751.58 161.44 L 753.98 161.64 L 756.38 161.84 L 758.78 162.04 L 761.18 162.24 L 763.58 162.44 L 765.99 162.64 L 768.42 162.84 L 770.91 163.03 L 773.36 163.37 L 775.45 164.20 L 776.89 165.80 L 777.49 168.01 L 777.38 170.46 L 776.91 172.94 L 776.50 175.35 L 776.48 177.68 L 777.13 179.96 L 778.56 182.09 L 780.46 183.70 L 782.57 184.54 L 784.81 184.73 L 787.14 184.48 L 789.51 183.98 L 791.88 183.40 L 794.25 182.80 L 796.60 182.19 L 798.95 181.56 L 801.29 180.93 L 803.62 180.29 L 805.95 179.64 L 808.27 179.00 L 810.59 178.35 L 812.91 177.71 L 815.24 177.08 L 817.56 176.46 L 819.88 175.85 L 822.21 175.25 L 824.55 174.68 L 826.89 174.12 L 829.23 173.59 L 831.59 173.08 L 833.96 172.60 L 836.33 172.15 L 838.71 171.74 L 841.10 171.36 L 843.50 171.02 L 845.90 170.73 L 848.30 170.47 L 850.71 170.27 L 853.11 170.11 L 855.52 170.00 L 857.93 169.95 L 860.34 169.93 L 862.74 169.96 L 865.15 170.03 L 867.55 170.12 L 869.96 170.25 L 872.37 170.39 L 874.77 170.55 L 877.18 170.73 L 879.59 170.92 L 882.00 171.11 L 884.40 171.31 L 886.81 171.51 L 889.22 171.71 L 891.62 171.91 L 894.03 172.10 L 896.43 172.29 L 898.84 172.47 L 901.24 172.64 L 903.64 172.81 L 906.05 172.97 L 908.45 173.12 L 910.85 173.28 L 913.26 173.44 L 915.66 173.61 L 918.06 173.79 L 920.47 173.98 L 922.88 174.18 L 925.28 174.40 L 927.69 174.63 L 930.09 174.89 L 932.50 175.18 L 934.89 175.49 L 937.28 175.83 L 939.67 176.20 L 942.04 176.61 L 944.41 177.05 L 946.77 177.53 L 949.12 178.06 L 951.45 178.63 L 953.78 179.24 L 956.09 179.91 L 958.38 180.63 L 960.66 181.40 L 962.92 182.23 L 965.16 183.12 L 967.39 184.06 L 969.60 185.04 L 971.80 186.06 L 973.98 187.11 L 976.16 188.18 L 978.32 189.26 L 980.47 190.36 L 982.61 191.46 L 984.75 192.57 L 986.87 193.69 L 988.97 194.84 L 991.05 196.05 L 993.09 197.32 L 995.10 198.65 L 997.09 200.04 L 999.04 201.47 L 1000.96 202.94 L 1002.85 204.45 L 1004.71 205.99 L 1006.54 207.56 L 1008.34 209.16 L 1010.12 210.79 L 1011.86 212.45 L 1013.58 214.13 L 1015.27 215.85 L 1016.93 217.59 L 1018.57 219.36 L 1020.18 221.15 L 1021.76 222.97 L 1023.31 224.81 L 1024.84 226.67 L 1026.35 228.56 L 1027.83 230.46 L 1029.28 232.39 L 1030.71 234.33 L 1032.11 236.30 L 1033.49 238.28 L 1034.84 240.28 L 1036.17 242.30 L 1037.47 244.33 L 1038.74 246.38 L 1039.98 248.45 L 1041.19 250.54 L 1042.38 252.64 L 1043.53 254.76 L 1044.65 256.90 L 1045.73 259.05 L 1046.79 261.22 L 1047.81 263.40 L 1048.79 265.60 L 1049.74 267.81 L 1050.65 270.04 L 1051.53 272.28 L 1052.37 274.54 L 1053.17 276.81 L 1053.94 279.09 L 1054.68 281.38 L 1055.40 283.68 L 1056.09 286.00 L 1056.76 288.31 L 1057.41 290.64 L 1058.04 292.97 L 1058.66 295.30 L 1059.26 297.64 L 1059.85 299.98 L 1060.43 302.33 L 1060.98 304.68 L 1061.52 307.03 L 1062.03 309.39 L 1062.52 311.75 L 1062.98 314.12 L 1063.42 316.49 L 1063.84 318.86 L 1064.23 321.24 L 1064.59 323.62 L 1064.94 326.01 L 1065.27 328.39 L 1065.58 330.78 L 1065.87 333.18 L 1066.14 335.57 L 1066.40 337.97 L 1066.65 340.37 L 1066.88 342.77 L 1067.11 345.17 L 1067.33 347.57 L 1067.53 349.98 L 1067.74 352.38 L 1067.93 354.79 L 1068.12 357.19 L 1068.31 359.60 L 1068.50 362.00 L 1068.69 364.41 L 1068.87 366.82 L 1069.06 369.22 L 1069.24 371.63 L 1069.42 374.04 L 1069.60 376.44 L 1069.78 378.85 L 1069.96 381.25 L 1070.15 383.66 L 1070.33 386.06 L 1070.52 388.47 L 1070.70 390.87 L 1070.89 393.28 L 1071.08 395.68 L 1071.27 398.09 L 1071.47 400.49 L 1071.67 402.89 L 1071.87 405.29 L 1072.08 407.70 L 1072.29 410.10 L 1072.49 412.50 L 1072.70 414.90 L 1072.91 417.30 L 1073.12 419.71 L 1073.33 422.11 L 1073.53 424.51 L 1073.74 426.91 L 1073.94 429.32 L 1074.14 431.72 L 1074.33 434.12 L 1074.52 436.53 L 1074.70 438.94 L 1074.88 441.34 L 1075.05 443.75 L 1075.22 446.16 L 1075.38 448.57 L 1075.53 450.98 L 1075.68 453.39 L 1075.82 455.80 L 1075.95 458.21 L 1076.08 460.62 L 1076.20 463.03 L 1076.32 465.45 L 1076.44 467.86 L 1076.55 470.27 L 1076.66 472.67 L 1076.76 475.08 L 1076.86 477.49 L 1076.96 479.90 L 1077.05 482.30 L 1077.15 484.70 L 1077.24 487.10 L 1077.33 489.50 L 1077.42 491.90 L 1077.52 494.30 L 1077.61 496.70 L 1077.71 499.11 L 1077.82 501.53 L 1077.94 503.95 L 1078.07 506.39 L 1078.22 508.85 L 1078.38 511.32 L 1078.61 513.77 L 1079.03 516.11 L 1079.78 518.24 L 1080.99 520.04 L 1082.75 521.46 L 1084.95 522.54 L 1087.39 523.36 L 1089.91 524.02 L 1092.32 524.60 L 1094.56 525.25 L 1096.65 526.20 L 1098.54 527.61 L 1099.92 529.50 L 1100.69 531.73 L 1101.04 534.14 L 1101.27 536.59 L 1101.58 539.00 L 1101.96 541.38 L 1102.38 543.74 L 1102.86 546.10 L 1103.38 548.45 L 1103.94 550.79 L 1104.54 553.13 L 1105.16 555.46 L 1105.82 557.78 L 1106.49 560.10 L 1107.19 562.41 L 1107.89 564.71 L 1108.61 567.02 L 1109.34 569.31 L 1110.09 571.61 L 1110.84 573.90 L 1111.60 576.19 L 1112.37 578.48 L 1113.14 580.76 L 1113.92 583.04 L 1114.71 585.33 L 1115.50 587.61 L 1116.29 589.88 L 1117.08 592.16 L 1117.87 594.44 L 1118.66 596.72 L 1119.45 599.00 L 1120.24 601.28 L 1121.02 603.56 L 1121.80 605.85 L 1122.57 608.13 L 1123.34 610.42 L 1124.10 612.70 L 1124.87 614.99 L 1125.63 617.28 L 1126.38 619.57 L 1127.14 621.86 L 1127.89 624.15 L 1128.65 626.44 L 1129.40 628.74 L 1130.15 631.03 L 1130.91 633.32 L 1131.66 635.61 L 1132.42 637.90 L 1133.18 640.19 L 1133.94 642.48 L 1134.70 644.77 L 1135.46 647.06 L 1136.23 649.35 L 1136.99 651.64 L 1137.75 653.93 L 1138.51 656.22 L 1139.25 658.51 L 1139.98 660.81 L 1140.70 663.11 L 1141.40 665.42 L 1142.08 667.73 L 1142.71 670.05 L 1143.25 672.39 L 1143.66 674.76 L 1143.92 677.16 L 1144.00 679.58 L 1143.91 682.01 L 1143.64 684.43 L 1143.21 686.81 L 1142.61 689.14 L 1141.85 691.40 L 1140.93 693.61 L 1139.87 695.74 L 1138.66 697.81 L 1137.32 699.80 L 1135.85 701.71 L 1134.27 703.54 L 1132.56 705.28 L 1130.75 706.92 L 1128.84 708.45 L 1126.84 709.82 L 1124.74 711.02 L 1122.56 712.00 L 1120.30 712.76 L 1117.98 713.33 L 1115.61 713.78 L 1113.23 714.14 L 1110.84 714.47 L 1108.44 714.79 L 1106.05 715.08 L 1103.65 715.37 L 1101.25 715.64 L 1098.86 715.90 L 1096.46 716.14 L 1094.06 716.38 L 1091.66 716.61 L 1089.26 716.84 L 1086.85 717.05 L 1084.45 717.27 L 1082.05 717.48 L 1079.65 717.69 L 1077.24 717.89 L 1074.84 718.10 L 1072.44 718.31 L 1070.04 718.53 L 1067.63 718.74 L 1065.23 718.96 L 1062.83 719.19 L 1060.42 719.42 L 1058.02 719.65 L 1055.62 719.88 L 1053.22 720.12 L 1050.82 720.35 L 1048.41 720.59 L 1046.01 720.83 L 1043.61 721.06 L 1041.21 721.30 L 1038.81 721.53 L 1036.41 721.76 L 1034.01 721.99 L 1031.61 722.22 L 1029.21 722.44 L 1026.81 722.66 L 1024.41 722.88 L 1022.01 723.09 L 1019.61 723.30 L 1017.21 723.51 L 1014.81 723.72 L 1012.41 723.94 L 1010.00 724.17 L 1007.59 724.40 L 1005.18 724.64 L 1002.76 724.90 L 1000.35 725.12 L 997.94 725.23 L 995.56 725.16 L 993.21 724.82 L 990.90 724.16 L 988.69 723.18 L 986.62 721.93 L 984.74 720.42 L 983.10 718.69 L 981.68 716.77 L 980.41 714.72 L 979.23 712.60 L 978.10 710.45 L 976.95 708.31 L 975.78 706.20 L 974.60 704.10 L 973.41 702.00 L 972.22 699.91 L 971.04 697.82 L 969.85 695.72 L 968.67 693.62 L 967.48 691.52 L 966.30 689.41 L 965.12 687.31 L 963.95 685.20 L 962.77 683.09 L 961.59 680.99 L 960.42 678.88 L 959.24 676.77 L 958.06 674.67 L 956.89 672.56 L 955.71 670.45 L 954.54 668.35 L 953.36 666.24 L 952.18 664.13 L 951.01 662.03 L 949.83 659.92 L 948.65 657.82 L 947.48 655.71 L 946.30 653.61 L 945.12 651.50 L 943.94 649.40 L 942.77 647.29 L 941.59 645.19 L 940.41 643.09 L 939.22 640.98 L 938.04 638.88 L 936.86 636.78 L 935.68 634.68 L 934.50 632.57 L 933.31 630.47 L 932.13 628.37 L 930.95 626.27 L 929.77 624.16 L 928.59 622.06 L 927.40 619.96 L 926.23 617.85 L 925.05 615.75 L 923.87 613.64 L 922.69 611.53 L 921.52 609.43 L 920.35 607.32 L 919.18 605.21 L 918.01 603.10 L 916.84 600.99 L 915.68 598.87 L 914.51 596.76 L 913.34 594.65 L 912.17 592.55 L 910.99 590.44 L 909.81 588.34 L 908.63 586.24 L 907.44 584.14 L 906.24 582.05 L 905.03 579.96 L 903.82 577.88 L 902.59 575.80 L 901.35 573.73 L 900.11 571.67 L 898.85 569.61 L 897.57 567.56 L 896.28 565.52 L 894.98 563.50 L 893.65 561.48 L 892.32 559.47 L 890.96 557.47 L 889.59 555.49 L 888.20 553.52 L 886.79 551.56 L 885.36 549.62 L 883.91 547.69 L 882.44 545.78 L 880.95 543.88 L 879.45 542.00 L 877.93 540.13 L 876.39 538.27 L 874.84 536.42 L 873.28 534.59 L 871.71 532.76 L 870.13 530.94 L 868.54 529.12 L 866.94 527.32 L 865.34 525.51 L 863.73 523.71 L 862.12 521.92 L 860.51 520.12 L 858.90 518.32 L 857.30 516.52 L 855.69 514.72 L 854.09 512.92 L 852.49 511.11 L 850.90 509.30 L 849.30 507.49 L 847.71 505.67 L 846.13 503.86 L 844.54 502.04 L 842.95 500.23 L 841.36 498.41 L 839.77 496.60 L 838.18 494.78 L 836.60 492.97 L 835.01 491.15 L 833.42 489.34 L 831.83 487.52 L 830.24 485.71 L 828.65 483.90 L 827.06 482.08 L 825.47 480.27 L 823.87 478.46 L 822.28 476.64 L 820.69 474.83 L 819.10 473.02 L 817.51 471.21 L 815.92 469.39 L 814.32 467.58 L 812.73 465.77 L 811.14 463.96 L 809.55 462.15 L 807.95 460.33 L 806.36 458.52 L 804.77 456.71 L 803.18 454.90 L 801.58 453.09 L 799.99 451.28 L 798.40 449.46 L 796.81 447.65 L 795.21 445.84 L 793.62 444.03 L 792.03 442.22 L 790.44 440.40 L 788.84 438.59 L 787.25 436.78 L 785.66 434.97 L 784.07 433.16 L 782.48 431.34 L 780.88 429.53 L 779.29 427.72 L 777.70 425.91 L 776.11 424.09 L 774.52 422.28 L 772.93 420.47 L 771.33 418.65 L 769.74 416.84 L 768.15 415.03 L 766.56 413.21 L 764.97 411.40 L 763.38 409.59 L 761.79 407.78 L 760.20 405.96 L 758.61 404.15 L 757.02 402.34 L 755.42 400.52 L 753.83 398.71 L 752.24 396.90 L 750.65 395.08 L 749.06 393.27 L 747.47 391.46 L 745.88 389.65 L 744.29 387.83 L 742.69 386.02 L 741.10 384.21 L 739.51 382.40 L 737.92 380.58 L 736.33 378.77 L 734.74 376.96 L 733.14 375.15 L 731.55 373.34 L 729.96 371.52 L 728.37 369.71 L 726.77 367.90 L 725.18 366.09 L 723.59 364.28 L 721.99 362.47 L 720.40 360.65 L 718.81 358.84 L 717.21 357.03 L 715.62 355.22 L 714.03 353.40 L 712.44 351.59 L 710.84 349.78 L 709.25 347.97 L 707.66 346.15 L 706.07 344.34 L 704.48 342.53 L 702.89 340.71 L 701.31 338.90 L 699.72 337.08 L 698.13 335.27 L 696.55 333.45 L 694.96 331.64 L 693.37 329.82 L 691.78 328.01 L 690.18 326.20 L 688.58 324.40 L 686.97 322.60 L 685.35 320.80 L 683.72 319.01 L 682.06 317.24 L 680.29 315.64 L 678.27 314.39 L 676.01 313.57 L 673.63 313.20 L 671.20 313.20 L 668.78 313.41 L 666.40 313.72 L 664.02 314.05 L 661.64 314.37 L 659.24 314.66 L 656.84 314.91 L 654.42 315.10 L 652.01 315.23 L 649.60 315.29 L 647.19 315.26 L 644.78 315.14 L 642.39 314.92 L 640.01 314.58 L 637.65 314.12 L 635.32 313.56 L 633.00 312.88 L 630.72 312.10 L 628.48 311.22 L 626.27 310.23 L 624.11 309.14 L 621.99 307.96 L 619.92 306.69 L 617.92 305.33 L 615.98 303.88 L 614.13 302.35 L 612.36 300.74 L 610.69 299.06 L 609.11 297.30 L 607.59 295.46 L 606.13 293.54 L 604.69 291.53 L 603.24 289.48 L 601.74 287.51 L 600.11 285.72 L 598.30 284.25 L 596.27 283.14 L 594.07 282.36 L 591.75 281.79 L 589.36 281.36 L 586.95 280.97 L 584.55 280.61 L 582.14 280.25 L 579.74 279.90 L 577.34 279.57 L 574.94 279.25 L 572.55 278.93 L 570.15 278.63 L 567.75 278.33 L 565.36 278.03 L 562.97 277.75 L 560.57 277.46 L 558.18 277.18 L 555.79 276.90 L 553.40 276.63 L 551.00 276.35 L 548.61 276.08 L 546.22 275.80 L 543.83 275.52 L 541.44 275.24 L 539.04 274.95 L 536.65 274.67 L 534.26 274.38 L 531.86 274.09 L 529.47 273.80 L 527.07 273.51 L 524.68 273.22 L 522.28 272.93 L 519.89 272.64 L 517.49 272.35 L 515.10 272.06 L 512.70 271.77 L 510.30 271.49 L 507.91 271.20 L 505.51 270.92 L 503.11 270.64 L 500.72 270.36 L 498.32 270.08 L 495.92 269.81 L 493.52 269.54 L 491.12 269.27 L 488.73 269.01 L 486.33 268.74 L 483.93 268.48 L 481.53 268.22 L 479.13 267.96 L 476.73 267.71 L 474.33 267.45 L 471.94 267.20 L 469.54 266.95 L 467.14 266.70 L 464.74 266.46 L 462.34 266.21 L 459.94 265.96 L 457.54 265.72 L 455.14 265.48 L 452.74 265.24 L 450.34 265.00 L 447.94 264.76 L 445.54 264.52 L 443.14 264.28 L 440.74 264.04 L 438.34 263.80 L 435.94 263.57 L 433.54 263.33 L 431.14 263.09 L 428.74 262.86 L 426.34 262.62 L 423.94 262.38 L 421.54 262.15 L 419.14 261.91 L 416.74 261.67 L 414.34 261.44 L 411.94 261.20 L 409.54 260.96 L 407.14 260.72 L 404.74 260.49 L 402.34 260.25 L 399.94 260.01 L 397.54 259.77 L 395.14 259.53 L 392.74 259.29 L 390.33 259.05 L 387.93 258.81 L 385.53 258.57 L 383.13 258.33 L 380.73 258.08 L 378.33 257.84 L 375.93 257.60 L 373.53 257.36 L 371.13 257.12 L 368.73 256.87 L 366.33 256.63 L 363.93 256.39 L 361.53 256.15 L 359.13 255.90 L 356.73 255.66 L 354.33 255.42 L 351.93 255.18 L 349.53 254.93 L 347.13 254.69 L 344.73 254.45 L 342.33 254.20 L 339.93 253.96 L 337.53 253.72 L 335.13 253.48 L 332.73 253.23 L 330.33 252.99 L 327.93 252.75 L 325.53 252.51 L 323.13 252.26 L 320.73 252.02 L 318.33 251.78 L 315.93 251.54 L 313.53 251.29 L 311.13 251.05 L 308.73 250.81 L 306.33 250.57 L 303.93 250.33 L 301.53 250.09 L 299.13 249.84 L 296.73 249.60 L 294.33 249.36 L 291.93 249.12 L 289.53 248.88 L 287.13 248.64 L 284.73 248.40 L 282.33 248.16 L 279.93 247.92 L 277.53 247.68 L 275.13 247.44 L 272.73 247.20 L 270.33 246.95 L 267.93 246.71 L 265.53 246.47 L 263.13 246.23 L 260.73 245.99 L 258.33 245.75 L 255.93 245.51 L 253.53 245.27 L 251.13 245.03 L 248.73 244.79 L 246.33 244.55 L 243.93 244.31 L 241.53 244.07 L 239.13 243.83 L 236.73 243.59 L 234.33 243.35 L 231.93 243.11 L 229.53 242.88 L 227.13 242.64 L 224.73 242.40 L 222.33 242.16 L 219.93 241.92 L 217.53 241.68 L 215.13 241.44 L 212.73 241.20 L 210.32 240.96 L 207.92 240.72 L 205.52 240.48 L 203.12 240.24 L 200.72 240.00 L 198.32 239.76 L 195.92 239.52 L 193.52 239.28 L 191.12 239.04 L 188.72 238.80 L 186.32 238.57 L 183.92 238.33 L 181.52 238.09 L 179.12 237.85 L 176.72 237.61 L 174.32 237.37 L 171.92 237.13 L 169.52 236.89 L 167.12 236.65 L 164.72 236.41 L 162.32 236.17 L 159.92 235.93 L 157.52 235.69 L 155.11 235.45 L 152.71 235.21 L 150.31 234.97 L 147.91 234.73 L 145.51 234.48 L 143.11 234.23 L 140.72 233.97 L 138.32 233.70 L 135.92 233.43 L 133.53 233.14 L 131.14 232.84 L 128.76 232.50 L 126.39 232.08 L 124.06 231.54 L 121.77 230.84 L 119.53 229.94 L 117.36 228.85 L 115.26 227.60 L 113.25 226.22 L 111.34 224.72 L 109.53 223.12 L 107.82 221.43 L 106.22 219.66 L 104.73 217.80 L 103.34 215.86 L 102.05 213.84 L 100.87 211.76 L 99.79 209.60 L 98.82 207.38 L 97.95 205.10 L 97.22 202.77 L 96.64 200.41 L 96.24 198.03 L 96.03 195.63 L 96.00 193.24 L 96.14 190.85 L 96.42 188.47 L 96.83 186.11 L 97.35 183.77 L 97.98 181.45 L 98.71 179.16 L 99.54 176.89 L 100.46 174.65 L 101.46 172.45 L 102.54 170.28 L 103.69 168.15 L 104.91 166.06 L 106.19 164.01 L 107.54 162.01 L 108.95 160.05 L 110.41 158.13 L 111.93 156.27 L 113.50 154.44 L 115.13 152.67 L 116.81 150.95 L 118.54 149.28 L 120.32 147.67 L 122.15 146.10 L 124.02 144.59 L 125.93 143.12 L 127.88 141.71 L 129.87 140.35 L 131.89 139.05 L 133.95 137.79 L 136.04 136.58 L 138.16 135.42 L 140.31 134.32 L 142.49 133.26 L 144.69 132.25 L 146.91 131.30 L 149.15 130.39 L 151.41 129.53 L 153.69 128.72 L 155.98 127.96 L 158.28 127.25 L 160.59 126.58 L 162.92 125.96 L 165.25 125.39 L 167.60 124.85 L 169.95 124.36 L 172.32 123.90 L 174.69 123.48 L 177.07 123.10 L 179.45 122.75 L 181.84 122.44 L 184.23 122.15 L 186.63 121.89 L 189.04 121.67 L 191.44 121.47 L 193.85 121.29 L 196.26 121.14 L 198.67 121.00 L 201.08 120.89 L 203.49 120.80 L 205.90 120.72 L 208.31 120.66 L 210.72 120.61 L 213.14 120.58 L 215.55 120.55 L 217.96 120.54 L 220.37 120.53 L 222.78 120.52 L 225.20 120.52 L 227.61 120.52 L 230.02 120.52 L 232.43 120.52 L 234.85 120.52 L 237.26 120.51 L 239.67 120.49 L 242.08 120.47 L 244.49 120.44 L 246.91 120.40 L 249.32 120.35 L 251.73 120.30 L 254.14 120.25 L 256.55 120.20 L 258.97 120.15 L 261.38 120.11 L 263.79 120.07 L 266.20 120.04 L 268.61 120.02 L 271.03 120.01 L 273.44 120.00 L 275.85 120.00 L 278.26 120.01 L 280.67 120.03 L 283.08 120.05 L 285.50 120.08 L 287.91 120.12 L 290.32 120.17 L 292.73 120.22 L 295.14 120.29 L 297.56 120.37 L 299.97 120.46 L 302.38 120.57 L 304.78 120.69 L 307.19 120.83 L 309.60 120.99 L 312.00 121.17 L 314.41 121.36 L 316.81 121.56 L 319.21 121.78 L 321.62 122.00 L 324.02 122.23 L 326.42 122.46 L 328.82 122.70" stroke="#2e3448" stroke-width="24"/>
  <path class="sector" d="M 328.82 122.70 L 331.22 122.93 L 333.62 123.17 L 336.02 123.41 L 338.42 123.64 L 340.82 123.88 L 343.22 124.11 L 345.63 124.34 L 348.03 124.58 L 350.43 124.81 L 352.83 125.05 L 355.23 125.28 L 357.63 125.52 L 360.03 125.75 L 362.43 125.98 L 364.83 126.22 L 367.23 126.45 L 369.63 126.69 L 372.03 126.92 L 374.43 127.16 L 376.84 127.39 L 379.24 127.62 L 381.64 127.86 L 384.04 128.09 L 386.44 128.33 L 388.84 128.57 L 391.24 128.80 L 393.64 129.04 L 396.04 129.27 L 398.44 129.51 L 400.84 129.75 L 403.24 129.98 L 405.64 130.22 L 408.04 130.46 L 410.44 130.70 L 412.84 130.94 L 415.24 131.17 L 417.64 131.41 L 420.04 131.65 L 422.44 131.90 L 424.84 132.14 L 427.24 132.38 L 429.64 132.62 L 432.04 132.86 L 434.44 133.10 L 436.84 133.34 L 439.24 133.59 L 441.64 133.83 L 444.05 134.07 L 446.45 134.31 L 448.85 134.56 L 451.25 134.80 L 453.65 135.04 L 456.05 135.28 L 458.45 135.52 L 460.85 135.76 L 463.25 136.00 L 465.65 136.25 L 468.05 136.49 L 470.45 136.73 L 472.85 136.97 L 475.25 137.20 L 477.65 137.44 L 480.05 137.68 L 482.45 137.92 L 484.85 138.15 L 487.25 138.39 L 489.65 138.62 L 492.05 138.86 L 494.45 139.09 L 496.85 139.32 L 499.26 139.56 L 501.66 139.79 L 504.06 140.02 L 506.46 140.24 L 508.86 140.47 L 511.26 140.70 L 513.66 140.92 L 516.07 141.15 L 518.47 141.37 L 520.87 141.60 L 523.27 141.82 L 525.67 142.04 L 528.08 142.26 L 530.48 142.48 L 532.88 142.70 L 535.28 142.92 L 537.68 143.13 L 540.09 143.35 L 542.49 143.57 L 544.89 143.78 L 547.29 144.00 L 549.70 144.21 L 552.10 144.42 L 554.50 144.63 L 556.90 144.85 L 559.31 145.06 L 561.71 145.27 L 564.11 145.48 L 566.52 145.69 L 568.92 145.90 L 571.32 146.11 L 573.72 146.31 L 576.13 146.52 L 578.53 146.73 L 580.93 146.93 L 583.34 147.14 L 585.74 147.35 L 588.14 147.55 L 590.55 147.76 L 592.95 147.96 L 595.35 148.17 L 597.76 148.37 L 600.16 148.58 L 602.57 148.78 L 604.97 148.98 L 607.37 149.19 L 609.78 149.39 L 612.18 149.59 L 614.58 149.79 L 616.99 150.00 L 619.39 150.20 L 621.79 150.40 L 624.20 150.60 L 626.60 150.81 L 629.01 151.01 L 631.41 151.21 L 633.81 151.41 L 636.22 151.61 L 638.62 151.82 L 641.02 152.02 L 643.43 152.22 L 645.83 152.42 L 648.24 152.62 L 650.64 152.83 L 653.04 153.03 L 655.45 153.23 L 657.85 153.44 L 660.26 153.64 L 662.66 153.84 L 665.06 154.05 L 667.47 154.25 L 669.87 154.45 L 672.27 154.66 L 674.68 154.86 L 677.08 155.07 L 679.49 155.27 L 681.89 155.48 L 684.29 155.68 L 686.70 155.89 L 689.10 156.10 L 691.50 156.30 L 693.91 156.51 L 696.31 156.72 L 698.72 156.92 L 701.12 157.13 L 703.52 157.34 L 705.93 157.54 L 708.33 157.75 L 710.73 157.96 L 713.14 158.17 L 715.54 158.37 L 717.94 158.58 L 720.34 158.79 L 722.75 158.99 L 725.15 159.20 L 727.55 159.40 L 729.96 159.61 L 732.36 159.81 L 734.76 160.02 L 737.16 160.22 L 739.57 160.43 L 741.97 160.63 L 744.37 160.83 L 746.77 161.04 L 749.17 161.24 L 751.58 161.44 L 753.98 161.64 L 756.38 161.84 L 758.78 162.04 L 761.18 162.24 L 763.58 162.44 L 765.99 162.64 L 768.42 162.84 L 770.91 163.03 L 773.36 163.37 L 775.45 164.20 L 776.89 165.80 L 777.49 168.01 L 777.38 170.46 L 776.91 172.94 L 776.50 175.35 L 776.48 177.68 L 777.13 179.96 L 778.56 182.09 L 780.46 183.70 L 782.57 184.54 L 784.81 184.73 L 787.14 184.48 L 789.51 183.98 L 791.88 183.40 L 794.25 182.80 L 796.60 182.19 L 798.95 181.56 L 801.29 180.93 L 803.62 180.29 L 805.95 179.64 L 808.27 179.00 L 810.59 178.35 L 812.91 177.71 L 815.24 177.08 L 817.56 176.46 L 819.88 175.85 L 822.21 175.25 L 824.55 174.68 L 826.89 174.12 L 829.23 173.59 L 831.59 173.08 L 833.96 172.60 L 836.33 172.15 L 838.71 171.74 L 841.10 171.36 L 843.50 171.02 L 845.90 170.73 L 848.30 170.47 L 850.71 170.27 L 853.11 170.11 L 855.52 170.00 L 857.93 169.95 L 860.34 169.93 L 862.74 169.96 L 865.15 170.03 L 867.55 170.12 L 869.96 170.25 L 872.37 170.39 L 874.77 170.55 L 877.18 170.73 L 879.59 170.92 L 882.00 171.11 L 884.40 171.31 L 886.81 171.51 L 889.22 171.71 L 891.62 171.91 L 894.03 172.10 L 896.43 172.29 L 898.84 172.47 L 901.24 172.64 L 903.64 172.81 L 906.05 172.97 L 908.45 173.12 L 910.85 173.28 L 913.26 173.44 L 915.66 173.61 L 918.06 173.79 L 920.47 173.98 L 922.88 174.18 L 925.28 174.40 L 927.69 174.63 L 930.09 174.89 L 932.50 175.18 L 934.89 175.49 L 937.28 175.83 L 939.67 176.20 L 942.04 176.61 L 944.41 177.05 L 946.77 177.53 L 949.12 178.06 L 951.45 178.63 L 953.78 179.24 L 956.09 179.91 L 958.38 180.63 L 960.66 181.40 L 962.92 182.23 L 965.16 183.12 L 967.39 184.06 L 969.60 185.04 L 971.80 186.06 L 973.98 187.11 L 976.16 188.18 L 978.32 189.26 L 980.47 190.36 L 982.61 191.46 L 984.75 192.57 L 986.87 193.69 L 988.97 194.84 L 991.05 196.05 L 993.09 197.32 L 995.10 198.65 L 997.09 200.04 L 999.04 201.47 L 1000.96 202.94 L 1002.85 204.45 L 1004.71 205.99 L 1006.54 207.56 L 1008.34 209.16 L 1010.12 210.79 L 1011.86 212.45 L 1013.58 214.13 L 1015.27 215.85 L 1016.93 217.59 L 1018.57 219.36 L 1020.18 221.15 L 1021.76 222.97 L 1023.31 224.81 L 1024.84 226.67 L 1026.35 228.56 L 1027.83 230.46 L 1029.28 232.39 L 1030.71 234.33 L 1032.11 236.30 L 1033.49 238.28 L 1034.84 240.28 L 1036.17 242.30 L 1037.47 244.33 L 1038.74 246.38 L 1039.98 248.45 L 1041.19 250.54 L 1042.38 252.64 L 1043.53 254.76 L 1044.65 256.90 L 1045.73 259.05 L 1046.79 261.22 L 1047.81 263.40 L 1048.79 265.60 L 1049.74 267.81 L 1050.65 270.04 L 1051.53 272.28 L 1052.37 274.54 L 1053.17 276.81 L 1053.94 279.09 L 1054.68 281.38 L 1055.40 283.68 L 1056.09 286.00 L 1056.76 288.31 L 1057.41 290.64 L 1058.04 292.97 L 1058.66 295.30 L 1059.26 297.64 L 1059.85 299.98 L 1060.43 302.33 L 1060.98 304.68 L 1061.52 307.03 L 1062.03 309.39 L 1062.52 311.75 L 1062.98 314.12 L 1063.42 316.49 L 1063.84 318.86 L 1064.23 321.24 L 1064.59 323.62 L 1064.94 326.01 L 1065.27 328.39 L 1065.58 330.78 L 1065.87 333.18 L 1066.14 335.57 L 1066.40 337.97 L 1066.65 340.37 L 1066.88 342.77 L 1067.11 345.17 L 1067.33 347.57 L 1067.53 349.98 L 1067.74 352.38 L 1067.93 354.79 L 1068.12 357.19 L 1068.31 359.60 L 1068.50 362.00 L 1068.69 364.41 L 1068.87 366.82 L 1069.06 369.22 L 1069.24 371.63 L 1069.42 374.04 L 1069.60 376.44 L 1069.78 378.85 L 1069.96 381.25 L 1070.15 383.66 L 1070.33 386.06 L 1070.52 388.47 L 1070.70 390.87 L 1070.89 393.28 L 1071.08 395.68 L 1071.27 398.09 L 1071.47 400.49 L 1071.67 402.89 L 1071.87 405.29 L 1072.08 407.70 L 1072.29 410.10 L 1072.49 412.50 L 1072.70 414.90 L 1072.78 415.82" stroke="#fd0000" stroke-width="10"/>
  <path class="sector" d="M 1072.78 415.82 L 1072.91 417.30 L 1073.12 419.71 L 1073.33 422.11 L 1073.53 424.51 L 1073.74 426.91 L 1073.94 429.32 L 1074.14 431.72 L 1074.33 434.12 L 1074.52 436.53 L 1074.70 438.94 L 1074.88 441.34 L 1075.05 443.75 L 1075.22 446.16 L 1075.38 448.57 L 1075.53 450.98 L 1075.68 453.39 L 1075.82 455.80 L 1075.95 458.21 L 1076.08 460.62 L 1076.20 463.03 L 1076.32 465.45 L 1076.44 467.86 L 1076.55 470.27 L 1076.66 472.67 L 1076.76 475.08 L 1076.86 477.49 L 1076.96 479.90 L 1077.05 482.30 L 1077.15 484.70 L 1077.24 487.10 L 1077.33 489.50 L 1077.42 491.90 L 1077.52 494.30 L 1077.61 496.70 L 1077.71 499.11 L 1077.82 501.53 L 1077.94 503.95 L 1078.07 506.39 L 1078.22 508.85 L 1078.38 511.32 L 1078.61 513.77 L 1079.03 516.11 L 1079.78 518.24 L 1080.99 520.04 L 1082.75 521.46 L 1084.95 522.54 L 1087.39 523.36 L 1089.91 524.02 L 1092.32 524.60 L 1094.56 525.25 L 1096.65 526.20 L 1098.54 527.61 L 1099.92 529.50 L 1100.69 531.73 L 1101.04 534.14 L 1101.27 536.59 L 1101.58 539.00 L 1101.96 541.38 L 1102.38 543.74 L 1102.86 546.10 L 1103.38 548.45 L 1103.94 550.79 L 1104.54 553.13 L 1105.16 555.46 L 1105.82 557.78 L 1106.49 560.10 L 1107.19 562.41 L 1107.89 564.71 L 1108.61 567.02 L 1109.34 569.31 L 1110.09 571.61 L 1110.84 573.90 L 1111.60 576.19 L 1112.37 578.48 L 1113.14 580.76 L 1113.92 583.04 L 1114.71 585.33 L 1115.50 587.61 L 1116.29 589.88 L 1117.08 592.16 L 1117.87 594.44 L 1118.66 596.72 L 1119.45 599.00 L 1120.24 601.28 L 1121.02 603.56 L 1121.80 605.85 L 1122.57 608.13 L 1123.34 610.42 L 1124.10 612.70 L 1124.87 614.99 L 1125.63 617.28 L 1126.38 619.57 L 1127.14 621.86 L 1127.89 624.15 L 1128.65 626.44 L 1129.40 628.74 L 1130.15 631.03 L 1130.91 633.32 L 1131.66 635.61 L 1132.42 637.90 L 1133.18 640.19 L 1133.94 642.48 L 1134.70 644.77 L 1135.46 647.06 L 1136.23 649.35 L 1136.99 651.64 L 1137.75 653.93 L 1138.51 656.22 L 1139.25 658.51 L 1139.98 660.81 L 1140.70 663.11 L 1141.40 665.42 L 1142.08 667.73 L 1142.71 670.05 L 1143.25 672.39 L 1143.66 674.76 L 1143.92 677.16 L 1144.00 679.58 L 1143.91 682.01 L 1143.64 684.43 L 1143.21 686.81 L 1142.61 689.14 L 1141.85 691.40 L 1140.93 693.61 L 1139.87 695.74 L 1138.66 697.81 L 1137.32 699.80 L 1135.85 701.71 L 1134.27 703.54 L 1132.56 705.28 L 1130.75 706.92 L 1128.84 708.45 L 1126.84 709.82 L 1124.74 711.02 L 1122.56 712.00 L 1120.30 712.76 L 1117.98 713.33 L 1115.61 713.78 L 1113.23 714.14 L 1110.84 714.47 L 1108.44 714.79 L 1106.05 715.08 L 1103.65 715.37 L 1101.25 715.64 L 1098.86 715.90 L 1096.46 716.14 L 1094.06 716.38 L 1091.66 716.61 L 1089.26 716.84 L 1086.85 717.05 L 1084.45 717.27 L 1082.05 717.48 L 1079.65 717.69 L 1077.24 717.89 L 1074.84 718.10 L 1072.44 718.31 L 1070.04 718.53 L 1067.63 718.74 L 1065.23 718.96 L 1062.83 719.19 L 1060.42 719.42 L 1058.02 719.65 L 1055.62 719.88 L 1053.22 720.12 L 1050.82 720.35 L 1048.41 720.59 L 1046.01 720.83 L 1043.61 721.06 L 1041.21 721.30 L 1038.81 721.53 L 1036.41 721.76 L 1034.01 721.99 L 1031.61 722.22 L 1029.21 722.44 L 1026.81 722.66 L 1024.41 722.88 L 1022.01 723.09 L 1019.61 723.30 L 1017.21 723.51 L 1014.81 723.72 L 1012.41 723.94 L 1010.00 724.17 L 1007.59 724.40 L 1005.18 724.64 L 1002.76 724.90 L 1000.35 725.12 L 997.94 725.23 L 995.56 725.16 L 993.21 724.82 L 990.90 724.16 L 988.69 723.18 L 986.62 721.93 L 984.74 720.42 L 983.10 718.69 L 981.68 716.77 L 980.41 714.72 L 979.23 712.60 L 978.10 710.45 L 976.95 708.31 L 975.78 706.20 L 974.60 704.10 L 973.41 702.00 L 972.22 699.91 L 971.04 697.82 L 969.85 695.72 L 968.67 693.62 L 967.48 691.52 L 966.30 689.41 L 965.12 687.31 L 963.95 685.20 L 962.77 683.09 L 961.59 680.99 L 960.42 678.88 L 959.24 676.77 L 958.06 674.67 L 956.89 672.56 L 955.71 670.45 L 954.54 668.35 L 953.36 666.24 L 952.18 664.13 L 951.01 662.03 L 949.83 659.92 L 948.65 657.82 L 947.48 655.71 L 946.30 653.61 L 945.12 651.50 L 943.94 649.40 L 942.77 647.29 L 941.59 645.19 L 940.41 643.09 L 939.22 640.98 L 938.04 638.88 L 936.86 636.78 L 935.68 634.68 L 934.50 632.57 L 933.31 630.47 L 932.13 628.37 L 930.95 626.27 L 929.77 624.16 L 928.59 622.06 L 927.40 619.96 L 926.23 617.85 L 925.05 615.75 L 923.87 613.64 L 922.69 611.53 L 921.52 609.43 L 920.35 607.32 L 919.18 605.21 L 918.01 603.10 L 916.84 600.99 L 915.68 598.87 L 914.51 596.76 L 913.34 594.65 L 912.17 592.55 L 910.99 590.44 L 909.81 588.34 L 908.63 586.24 L 907.44 584.14 L 906.24 582.05 L 905.03 579.96 L 903.82 577.88 L 902.59 575.80 L 901.35 573.73 L 900.11 571.67 L 898.85 569.61 L 897.57 567.56 L 896.28 565.52 L 894.98 563.50 L 893.65 561.48 L 892.32 559.47 L 890.96 557.47 L 889.59 555.49 L 888.20 553.52 L 886.79 551.56 L 885.36 549.62 L 883.91 547.69 L 882.44 545.78 L 880.95 543.88 L 879.45 542.00 L 877.93 540.13 L 876.39 538.27 L 874.84 536.42 L 873.28 534.59 L 871.71 532.76 L 870.13 530.94 L 868.54 529.12 L 866.94 527.32 L 865.34 525.51 L 863.73 523.71 L 862.12 521.92 L 860.51 520.12 L 858.90 518.32 L 857.30 516.52 L 855.69 514.72 L 854.09 512.92 L 852.49 511.11 L 850.90 509.30 L 849.30 507.49 L 847.71 505.67 L 846.13 503.86 L 844.54 502.04 L 842.95 500.23 L 841.36 498.41 L 839.77 496.60 L 838.18 494.78 L 836.60 492.97 L 835.01 491.15 L 833.42 489.34 L 831.83 487.52 L 830.24 485.71 L 828.65 483.90 L 827.06 482.08 L 825.47 480.27 L 823.87 478.46 L 822.28 476.64 L 820.69 474.83 L 819.10 473.02 L 817.51 471.21 L 815.92 469.39 L 814.32 467.58 L 812.73 465.77 L 811.14 463.96 L 809.55 462.15 L 807.95 460.33 L 806.36 458.52 L 804.77 456.71 L 803.18 454.90 L 801.58 453.09 L 799.99 451.28 L 798.40 449.46 L 796.81 447.65 L 795.21 445.84 L 793.62 444.03 L 792.03 442.22 L 790.44 440.40 L 788.84 438.59 L 787.25 436.78 L 785.66 434.97 L 784.07 433.16 L 782.48 431.34 L 780.88 429.53 L 779.29 427.72 L 777.70 425.91 L 776.11 424.09 L 774.52 422.28 L 772.93 420.47 L 771.33 418.65 L 769.74 416.84 L 768.15 415.03 L 766.56 413.21 L 764.97 411.40 L 763.38 409.59 L 761.79 407.78 L 760.20 405.96 L 758.61 404.15 L 757.02 402.34 L 755.42 400.52 L 753.83 398.71 L 752.24 396.90 L 750.65 395.08 L 749.06 393.27 L 747.47 391.46 L 745.88 389.65 L 744.29 387.83 L 742.69 386.02 L 741.10 384.21 L 739.51 382.40 L 737.92 380.58 L 736.33 378.77 L 734.74 376.96 L 733.14 375.15 L 731.55 373.34 L 729.96 371.52 L 728.37 369.71 L 726.77 367.90 L 725.18 366.09 L 723.59 364.28 L 721.99 362.47 L 720.40 360.65 L 718.81 358.84 L 717.21 357.03 L 715.62 355.22 L 714.03 353.40 L 712.44 351.59 L 710.84 349.78 L 709.25 347.97 L 708.10 346.66" stroke="#02a5d5" stroke-width="10"/>
  <path class="sector" d="M 708.10 346.66 L 707.66 346.15 L 706.07 344.34 L 704.48 342.53 L 702.89 340.71 L 701.31 338.90 L 699.72 337.08 L 698.13 335.27 L 696.55 333.45 L 694.96 331.64 L 693.37 329.82 L 691.78 328.01 L 690.18 326.20 L 688.58 324.40 L 686.97 322.60 L 685.35 320.80 L 683.72 319.01 L 682.06 317.24 L 680.29 315.64 L 678.27 314.39 L 676.01 313.57 L 673.63 313.20 L 671.20 313.20 L 668.78 313.41 L 666.40 313.72 L 664.02 314.05 L 661.64 314.37 L 659.24 314.66 L 656.84 314.91 L 654.42 315.10 L 652.01 315.23 L 649.60 315.29 L 647.19 315.26 L 644.78 315.14 L 642.39 314.92 L 640.01 314.58 L 637.65 314.12 L 635.32 313.56 L 633.00 312.88 L 630.72 312.10 L 628.48 311.22 L 626.27 310.23 L 624.11 309.14 L 621.99 307.96 L 619.92 306.69 L 617.92 305.33 L 615.98 303.88 L 614.13 302.35 L 612.36 300.74 L 610.69 299.06 L 609.11 297.30 L 607.59 295.46 L 606.13 293.54 L 604.69 291.53 L 603.24 289.48 L 601.74 287.51 L 600.11 285.72 L 598.30 284.25 L 596.27 283.14 L 594.07 282.36 L 591.75 281.79 L 589.36 281.36 L 586.95 280.97 L 584.55 280.61 L 582.14 280.25 L 579.74 279.90 L 577.34 279.57 L 574.94 279.25 L 572.55 278.93 L 570.15 278.63 L 567.75 278.33 L 565.36 278.03 L 562.97 277.75 L 560.57 277.46 L 558.18 277.18 L 555.79 276.90 L 553.40 276.63 L 551.00 276.35 L 548.61 276.08 L 546.22 275.80 L 543.83 275.52 L 541.44 275.24 L 539.04 274.95 L 536.65 274.67 L 534.26 274.38 L 531.86 274.09 L 529.47 273.80 L 527.07 273.51 L 524.68 273.22 L 522.28 272.93 L 519.89 272.64 L 517.49 272.35 L 515.10 272.06 L 512.70 271.77 L 510.30 271.49 L 507.91 271.20 L 505.51 270.92 L 503.11 270.64 L 500.72 270.36 L 498.32 270.08 L 495.92 269.81 L 493.52 269.54 L 491.12 269.27 L 488.73 269.01 L 486.33 268.74 L 483.93 268.48 L 481.53 268.22 L 479.13 267.96 L 476.73 267.71 L 474.33 267.45 L 471.94 267.20 L 469.54 266.95 L 467.14 266.70 L 464.74 266.46 L 462.34 266.21 L 459.94 265.96 L 457.54 265.72 L 455.14 265.48 L 452.74 265.24 L 450.34 265.00 L 447.94 264.76 L 445.54 264.52 L 443.14 264.28 L 440.74 264.04 L 438.34 263.80 L 435.94 263.57 L 433.54 263.33 L 431.14 263.09 L 428.74 262.86 L 426.34 262.62 L 423.94 262.38 L 421.54 262.15 L 419.14 261.91 L 416.74 261.67 L 414.34 261.44 L 411.94 261.20 L 409.54 260.96 L 407.14 260.72 L 404.74 260.49 L 402.34 260.25 L 399.94 260.01 L 397.54 259.77 L 395.14 259.53 L 392.74 259.29 L 390.33 259.05 L 387.93 258.81 L 385.53 258.57 L 383.13 258.33 L 380.73 258.08 L 378.33 257.84 L 375.93 257.60 L 373.53 257.36 L 371.13 257.12 L 368.73 256.87 L 366.33 256.63 L 363.93 256.39 L 361.53 256.15 L 359.13 255.90 L 356.73 255.66 L 354.33 255.42 L 351.93 255.18 L 349.53 254.93 L 347.13 254.69 L 344.73 254.45 L 342.33 254.20 L 339.93 253.96 L 337.53 253.72 L 335.13 253.48 L 332.73 253.23 L 330.33 252.99 L 327.93 252.75 L 325.53 252.51 L 323.13 252.26 L 320.73 252.02 L 318.33 251.78 L 315.93 251.54 L 313.53 251.29 L 311.13 251.05 L 308.73 250.81 L 306.33 250.57 L 303.93 250.33 L 301.53 250.09 L 299.13 249.84 L 296.73 249.60 L 294.33 249.36 L 291.93 249.12 L 289.53 248.88 L 287.13 248.64 L 284.73 248.40 L 282.33 248.16 L 279.93 247.92 L 277.53 247.68 L 275.13 247.44 L 272.73 247.20 L 270.33 246.95 L 267.93 246.71 L 265.53 246.47 L 263.13 246.23 L 260.73 245.99 L 258.33 245.75 L 255.93 245.51 L 253.53 245.27 L 251.13 245.03 L 248.73 244.79 L 246.33 244.55 L 243.93 244.31 L 241.53 244.07 L 239.13 243.83 L 236.73 243.59 L 234.33 243.35 L 231.93 243.11 L 229.53 242.88 L 227.13 242.64 L 224.73 242.40 L 222.33 242.16 L 219.93 241.92 L 217.53 241.68 L 215.13 241.44 L 212.73 241.20 L 210.32 240.96 L 207.92 240.72 L 205.52 240.48 L 203.12 240.24 L 200.72 240.00 L 198.32 239.76 L 195.92 239.52 L 193.52 239.28 L 191.12 239.04 L 188.72 238.80 L 186.32 238.57 L 183.92 238.33 L 181.52 238.09 L 179.12 237.85 L 176.72 237.61 L 174.32 237.37 L 171.92 237.13 L 169.52 236.89 L 167.12 236.65 L 164.72 236.41 L 162.32 236.17 L 159.92 235.93 L 157.52 235.69 L 155.11 235.45 L 152.71 235.21 L 150.31 234.97 L 147.91 234.73 L 145.51 234.48 L 143.11 234.23 L 140.72 233.97 L 138.32 233.70 L 135.92 233.43 L 133.53 233.14 L 131.14 232.84 L 128.76 232.50 L 126.39 232.08 L 124.06 231.54 L 121.77 230.84 L 119.53 229.94 L 117.36 228.85 L 115.26 227.60 L 113.25 226.22 L 111.34 224.72 L 109.53 223.12 L 107.82 221.43 L 106.22 219.66 L 104.73 217.80 L 103.34 215.86 L 102.05 213.84 L 100.87 211.76 L 99.79 209.60 L 98.82 207.38 L 97.95 205.10 L 97.22 202.77 L 96.64 200.41 L 96.24 198.03 L 96.03 195.63 L 96.00 193.24 L 96.14 190.85 L 96.42 188.47 L 96.83 186.11 L 97.35 183.77 L 97.98 181.45 L 98.71 179.16 L 99.54 176.89 L 100.46 174.65 L 101.46 172.45 L 102.54 170.28 L 103.69 168.15 L 104.91 166.06 L 106.19 164.01 L 107.54 162.01 L 108.95 160.05 L 110.41 158.13 L 111.93 156.27 L 113.50 154.44 L 115.13 152.67 L 116.81 150.95 L 118.54 149.28 L 120.32 147.67 L 122.15 146.10 L 124.02 144.59 L 125.93 143.12 L 127.88 141.71 L 129.87 140.35 L 131.89 139.05 L 133.95 137.79 L 136.04 136.58 L 138.16 135.42 L 140.31 134.32 L 142.49 133.26 L 144.69 132.25 L 146.91 131.30 L 149.15 130.39 L 151.41 129.53 L 153.69 128.72 L 155.98 127.96 L 158.28 127.25 L 160.59 126.58 L 162.92 125.96 L 165.25 125.39 L 167.60 124.85 L 169.95 124.36 L 172.32 123.90 L 174.69 123.48 L 177.07 123.10 L 179.45 122.75 L 181.84 122.44 L 184.23 122.15 L 186.63 121.89 L 189.04 121.67 L 191.44 121.47 L 193.85 121.29 L 196.26 121.14 L 198.67 121.00 L 201.08 120.89 L 203.49 120.80 L 205.90 120.72 L 208.31 120.66 L 210.72 120.61 L 213.14 120.58 L 215.55 120.55 L 217.96 120.54 L 220.37 120.53 L 222.78 120.52 L 225.20 120.52 L 227.61 120.52 L 230.02 120.52 L 232.43 120.52 L 234.85 120.52 L 237.26 120.51 L 239.67 120.49 L 242.08 120.47 L 244.49 120.44 L 246.91 120.40 L 249.32 120.35 L 251.73 120.30 L 254.14 120.25 L 256.55 120.20 L 258.97 120.15 L 261.38 120.11 L 263.79 120.07 L 266.20 120.04 L 268.61 120.02 L 271.03 120.01 L 273.44 120.00 L 275.85 120.00 L 278.26 120.01 L 280.67 120.03 L 283.08 120.05 L 285.50 120.08 L 287.91 120.12 L 290.32 120.17 L 292.73 120.22 L 295.14 120.29 L 297.56 120.37 L 299.97 120.46 L 302.38 120.57 L 304.78 120.69 L 307.19 120.83 L 309.60 120.99 L 312.00 121.17 L 314.41 121.36 L 316.81 121.56 L 319.21 121.78 L 321.62 122.00 L 324.02 122.23 L 326.42 122.46 L 328.82 122.70" stroke="#eecc03" stroke-width="10"/>
  <line class="start-line-outline" x1="330.97" y1="100.80" x2="326.67" y2="144.59"/>
  <line class="start-line-inner" x1="330.97" y1="100.80" x2="326.67" y2="144.59"/>
  <line class="arrow-shaft" x1="325.50" y1="156.54" x2="341.82" y2="158.14"/>
  <polygon class="arrow-head" points="349.38,158.88 340.79,164.47 342.05,151.73"/>
  <circle class="marker" cx="791.39" cy="132.49" r="18"/>
  <text class="marker-text" x="791.39" y="132.99">01</text>
  <circle class="marker" cx="779.49" cy="222.70" r="18"/>
  <text class="marker-text" x="779.49" y="223.20">02</text>
  <circle class="marker" cx="1049.34" cy="202.75" r="18"/>
  <text class="marker-text" x="1049.34" y="203.25">03</text>
  <circle class="marker" cx="1048.11" cy="549.01" r="18"/>
  <text class="marker-text" x="1048.11" y="549.51">04</text>
  <circle class="marker" cx="1129.77" cy="524.44" r="18"/>
  <text class="marker-text" x="1129.77" y="524.94">05</text>
  <circle class="marker" cx="1157.53" cy="731.47" r="18"/>
  <text class="marker-text" x="1157.53" y="731.97">06</text>
  <circle class="marker" cx="960.43" cy="758.66" r="18"/>
  <text class="marker-text" x="960.43" y="759.16">07</text>
  <circle class="marker" cx="687.19" cy="279.10" r="18"/>
  <text class="marker-text" x="687.19" y="279.60">08</text>
  <circle class="marker" cx="618.05" cy="344.48" r="18"/>
  <text class="marker-text" x="618.05" y="344.98">09</text>
  <circle class="marker" cx="611.31" cy="247.73" r="18"/>
  <text class="marker-text" x="611.31" y="248.23">10</text>
  <circle class="marker" cx="64.19" cy="172.24" r="18"/>
  <text class="marker-text" x="64.19" y="172.74">11</text>
  <text class="label" x="781.67" y="176.13">Variante del Rettifilo</text>
  <text class="label" x="1000.48" y="246.52">Biassono</text>
  <text class="label" x="1092.86" y="432.37">Seconda Variante</text>
  <text class="label" x="1108.19" y="694.93">Lesmo 1</text>
  <text class="label" x="991.33" y="705.61">Lesmo 2</text>
  <text class="label" x="522.47" y="281.38">Variante Ascari</text>
  <text class="label" x="137.63" y="181.29">Parabolica</text>
</svg>
