<svg xmlns="http://www.w3.org/2000/svg" width="1240" height="860" viewBox="0 0 1240 860" fill="none">
  <style>
    @font-face { font-family: 'Orbitron'; font-style: normal; font-weight: 600; src: url('../fonts/orbitron/Orbitron-600.ttf') format('truetype'); }
    @font-face { font-family: 'Orbitron'; font-style: normal; font-weight: 700; src: url('../fonts/orbitron/Orbitron-700.ttf') format('truetype'); }
    @font-face { font-family: 'Orbitron'; font-style: normal; font-weight: 800; src: url('../fonts/orbitron/Orbitron-800.ttf') format('truetype'); }
    .title { font: 700 34px Orbitron, Inter, Arial, sans-serif; fill: #000000; }
    .track { fill: none; stroke-linejoin: round; stroke-linecap: round; }
    .sector { fill: none; stroke-linejoin: round; stroke-linecap: round; }
    .marker { fill: #2e3448; stroke: #2e3448; stroke-width: 1.5; }
    .marker-text { font: 700 15px Orbitron, Inter, Arial, sans-serif; fill: #ffffff; text-anchor: middle; dominant-baseline: middle; }
    .label { font: 600 18px Orbitron, Inter, Arial, sans-serif; fill: #ffffff; paint-order: stroke; stroke: #000000; stroke-width: 4px; stroke-linejoin: round; }
    .sector-label { font: 800 14px Orbitron, Inter, Arial, sans-serif; paint-order: stroke fill; stroke-linejoin: round; stroke-linecap: round; letter-spacing: 0.1px; }
    .start-line-outline { stroke: #121528; stroke-width: 8; stroke-linecap: round; }
    .start-line-inner { stroke: #ffffff; stroke-width: 4; stroke-linecap: round; }
    .arrow-shaft { stroke: #fd0000; stroke-width: 4; stroke-linecap: round; }
    .arrow-head { fill: #fd0000; }
  </style>
  <rect width="1240" height="860" fill="#ffffff"/>
  
  <path class="track" d="M 882.49 719.73 L 882.37 719.72 L 879.97 719.48 L 877.57 719.25 L 875.17 719.02 L 872.77 718.78 L 870.37 718.55 L 867.97 718.31 L 865.57 718.08 L 863.16 717.84 L 860.76 717.61 L 858.36 717.38 L 855.96 717.14 L 853.56 716.91 L 851.16 716.67 L 848.76 716.43 L 846.36 716.20 L 843.96 715.96 L 841.56 715.73 L 839.16 715.49 L 836.76 715.25 L 834.36 715.01 L 831.96 714.78 L 829.56 714.54 L 827.16 714.30 L 824.76 714.06 L 822.36 713.82 L 819.96 713.58 L 817.56 713.34 L 815.16 713.10 L 812.76 712.86 L 810.36 712.62 L 807.96 712.37 L 805.56 712.13 L 803.16 711.89 L 800.76 711.65 L 798.36 711.41 L 795.95 711.16 L 793.55 710.92 L 791.15 710.68 L 788.75 710.44 L 786.35 710.20 L 783.95 709.95 L 781.55 709.71 L 779.15 709.47 L 776.75 709.23 L 774.35 708.99 L 771.95 708.75 L 769.55 708.51 L 767.15 708.27 L 764.75 708.03 L 762.35 707.79 L 759.95 707.55 L 757.55 707.32 L 755.15 707.08 L 752.75 706.85 L 750.35 706.61 L 747.95 706.38 L 745.55 706.14 L 743.15 705.91 L 740.74 705.68 L 738.34 705.45 L 735.94 705.22 L 733.54 704.99 L 731.14 704.76 L 728.74 704.54 L 726.34 704.31 L 723.93 704.08 L 721.53 703.86 L 719.13 703.64 L 716.73 703.42 L 714.33 703.19 L 711.92 702.97 L 709.52 702.75 L 707.12 702.54 L 704.72 702.32 L 702.32 702.10 L 699.91 701.88 L 697.51 701.67 L 695.11 701.45 L 692.71 701.24 L 690.30 701.03 L 687.90 700.81 L 685.50 700.60 L 683.10 700.39 L 680.69 700.18 L 678.29 699.97 L 675.89 699.76 L 673.48 699.55 L 671.08 699.34 L 668.68 699.13 L 666.28 698.92 L 663.87 698.71 L 661.47 698.51 L 659.07 698.30 L 656.66 698.09 L 654.26 697.89 L 651.86 697.68 L 649.45 697.48 L 647.05 697.27 L 644.65 697.07 L 642.24 696.86 L 639.84 696.66 L 637.43 696.46 L 635.03 696.25 L 632.63 696.05 L 630.22 695.85 L 627.82 695.64 L 625.42 695.44 L 623.01 695.24 L 620.61 695.04 L 618.21 694.83 L 615.80 694.63 L 613.40 694.43 L 610.99 694.23 L 608.59 694.02 L 606.19 693.82 L 603.78 693.62 L 601.38 693.42 L 598.98 693.22 L 596.57 693.01 L 594.17 692.81 L 591.76 692.61 L 589.36 692.41 L 586.96 692.20 L 584.55 692.00 L 582.15 691.80 L 579.74 691.60 L 577.34 691.39 L 574.94 691.19 L 572.53 690.99 L 570.13 690.78 L 567.73 690.58 L 565.32 690.37 L 562.92 690.17 L 560.51 689.96 L 558.11 689.76 L 555.71 689.55 L 553.30 689.34 L 550.90 689.14 L 548.50 688.93 L 546.09 688.73 L 543.69 688.52 L 541.28 688.31 L 538.88 688.10 L 536.48 687.90 L 534.07 687.69 L 531.67 687.48 L 529.27 687.28 L 526.86 687.07 L 524.46 686.86 L 522.06 686.66 L 519.66 686.45 L 517.25 686.24 L 514.85 686.04 L 512.45 685.83 L 510.04 685.63 L 507.64 685.42 L 505.24 685.22 L 502.84 685.01 L 500.43 684.81 L 498.03 684.60 L 495.63 684.40 L 493.23 684.20 L 490.83 683.99 L 488.42 683.79 L 486.02 683.59 L 483.62 683.39 L 481.22 683.19 L 478.82 682.99 L 476.42 682.79 L 474.01 682.60 L 471.58 682.40 L 469.09 682.20 L 466.64 681.86 L 464.55 681.03 L 463.11 679.44 L 462.51 677.23 L 462.62 674.77 L 463.09 672.30 L 463.50 669.89 L 463.52 667.55 L 462.87 665.27 L 461.44 663.14 L 459.54 661.53 L 457.43 660.70 L 455.19 660.50 L 452.86 660.75 L 450.49 661.26 L 448.12 661.84 L 445.75 662.43 L 443.40 663.05 L 441.05 663.67 L 438.71 664.31 L 436.38 664.95 L 434.05 665.59 L 431.73 666.24 L 429.41 666.88 L 427.09 667.52 L 424.76 668.15 L 422.44 668.78 L 420.12 669.39 L 417.79 669.98 L 415.45 670.56 L 413.11 671.12 L 410.77 671.65 L 408.41 672.16 L 406.04 672.64 L 403.67 673.08 L 401.29 673.50 L 398.90 673.87 L 396.50 674.21 L 394.10 674.51 L 391.70 674.76 L 389.29 674.97 L 386.89 675.13 L 384.48 675.23 L 382.07 675.29 L 379.66 675.30 L 377.26 675.27 L 374.85 675.21 L 372.45 675.11 L 370.04 674.99 L 367.63 674.84 L 365.23 674.68 L 362.82 674.50 L 360.41 674.32 L 358.00 674.13 L 355.60 673.93 L 353.19 673.73 L 350.78 673.53 L 348.38 673.33 L 345.97 673.13 L 343.57 672.94 L 341.16 672.76 L 338.76 672.59 L 336.36 672.43 L 333.95 672.27 L 331.55 672.11 L 329.15 671.95 L 326.74 671.79 L 324.34 671.62 L 321.94 671.45 L 319.53 671.26 L 317.12 671.06 L 314.72 670.84 L 312.31 670.60 L 309.91 670.34 L 307.50 670.06 L 305.11 669.75 L 302.72 669.41 L 300.33 669.03 L 297.96 668.63 L 295.59 668.19 L 293.23 667.70 L 290.88 667.18 L 288.55 666.61 L 286.22 665.99 L 283.91 665.32 L 281.62 664.61 L 279.34 663.83 L 277.08 663.00 L 274.84 662.11 L 272.61 661.18 L 270.40 660.19 L 268.20 659.18 L 266.02 658.13 L 263.84 657.06 L 261.68 655.97 L 259.53 654.87 L 257.39 653.77 L 255.25 652.67 L 253.13 651.54 L 251.03 650.39 L 248.95 649.19 L 246.91 647.92 L 244.90 646.59 L 242.91 645.20 L 240.96 643.77 L 239.04 642.29 L 237.15 640.79 L 235.29 639.25 L 233.46 637.68 L 231.66 636.08 L 229.88 634.45 L 228.14 632.79 L 226.42 631.10 L 224.73 629.38 L 223.07 627.64 L 221.43 625.88 L 219.82 624.08 L 218.24 622.27 L 216.69 620.43 L 215.16 618.56 L 213.65 616.68 L 212.17 614.77 L 210.72 612.85 L 209.29 610.90 L 207.89 608.94 L 206.51 606.96 L 205.16 604.96 L 203.83 602.94 L 202.53 600.90 L 201.26 598.85 L 200.02 596.78 L 198.81 594.69 L 197.62 592.59 L 196.47 590.47 L 195.35 588.34 L 194.27 586.18 L 193.21 584.02 L 192.19 581.83 L 191.21 579.64 L 190.26 577.42 L 189.35 575.20 L 188.47 572.95 L 187.63 570.70 L 186.83 568.43 L 186.06 566.15 L 185.32 563.85 L 184.60 561.55 L 183.91 559.24 L 183.24 556.92 L 182.59 554.60 L 181.96 552.27 L 181.34 549.93 L 180.74 547.59 L 180.15 545.25 L 179.57 542.90 L 179.02 540.56 L 178.48 538.20 L 177.97 535.84 L 177.48 533.48 L 177.02 531.12 L 176.58 528.75 L 176.16 526.37 L 175.77 523.99 L 175.41 521.61 L 175.06 519.23 L 174.73 516.84 L 174.42 514.45 L 174.13 512.06 L 173.86 509.66 L 173.60 507.27 L 173.35 504.87 L 173.12 502.47 L 172.89 500.07 L 172.67 497.66 L 172.47 495.26 L 172.26 492.85 L 172.07 490.45 L 171.88 488.04 L 171.69 485.64 L 171.50 483.23 L 171.31 480.82 L 171.13 478.42 L 170.94 476.01 L 170.76 473.61 L 170.58 471.20 L 170.40 468.79 L 170.22 466.39 L 170.04 463.98 L 169.85 461.58 L 169.67 459.17 L 169.48 456.77 L 169.30 454.36 L 169.11 451.96 L 168.92 449.55 L 168.73 447.15 L 168.53 444.75 L 168.33 442.34 L 168.13 439.94 L 167.92 437.54 L 167.71 435.14 L 167.51 432.73 L 167.30 430.33 L 167.09 427.93 L 166.88 425.53 L 166.67 423.13 L 166.47 420.72 L 166.26 418.32 L 166.06 415.92 L 165.86 413.51 L 165.67 411.11 L 165.48 408.71 L 165.30 406.30 L 165.12 403.89 L 164.95 401.49 L 164.78 399.08 L 164.62 396.67 L 164.47 394.26 L 164.32 391.85 L 164.18 389.44 L 164.05 387.02 L 163.92 384.61 L 163.80 382.20 L 163.68 379.79 L 163.56 377.38 L 163.45 374.97 L 163.34 372.56 L 163.24 370.15 L 163.14 367.74 L 163.04 365.34 L 162.95 362.93 L 162.85 360.53 L 162.76 358.13 L 162.67 355.73 L 162.58 353.34 L 162.48 350.94 L 162.39 348.53 L 162.29 346.12 L 162.18 343.71 L 162.06 341.28 L 161.93 338.84 L 161.78 336.39 L 161.62 333.91 L 161.39 331.46 L 160.97 329.12 L 160.22 327.00 L 159.01 325.19 L 157.25 323.77 L 155.05 322.69 L 152.61 321.87 L 150.09 321.22 L 147.68 320.64 L 145.44 319.98 L 143.35 319.04 L 141.46 317.63 L 140.08 315.74 L 139.31 313.51 L 138.96 311.09 L 138.73 308.64 L 138.42 306.24 L 138.04 303.86 L 137.62 301.49 L 137.14 299.13 L 136.62 296.78 L 136.06 294.44 L 135.46 292.11 L 134.84 289.78 L 134.18 287.46 L 133.51 285.14 L 132.81 282.83 L 132.11 280.52 L 131.39 278.22 L 130.66 275.92 L 129.91 273.62 L 129.16 271.33 L 128.40 269.04 L 127.63 266.76 L 126.86 264.47 L 126.08 262.19 L 125.29 259.91 L 124.50 257.63 L 123.71 255.35 L 122.92 253.07 L 122.13 250.79 L 121.34 248.51 L 120.55 246.23 L 119.76 243.95 L 118.98 241.67 L 118.20 239.39 L 117.43 237.10 L 116.66 234.82 L 115.90 232.53 L 115.13 230.24 L 114.37 227.95 L 113.62 225.66 L 112.86 223.37 L 112.11 221.08 L 111.35 218.79 L 110.60 216.50 L 109.85 214.21 L 109.09 211.92 L 108.34 209.62 L 107.58 207.33 L 106.82 205.04 L 106.06 202.75 L 105.30 200.46 L 104.54 198.17 L 103.77 195.89 L 103.01 193.60 L 102.25 191.31 L 101.49 189.02 L 100.75 186.72 L 100.02 184.42 L 99.30 182.12 L 98.60 179.82 L 97.92 177.51 L 97.29 175.19 L 96.75 172.85 L 96.34 170.48 L 96.08 168.08 L 96.00 165.65 L 96.09 163.22 L 96.36 160.80 L 96.79 158.43 L 97.39 156.10 L 98.15 153.83 L 99.07 151.63 L 100.13 149.49 L 101.34 147.43 L 102.68 145.44 L 104.15 143.53 L 105.73 141.70 L 107.44 139.96 L 109.25 138.31 L 111.16 136.79 L 113.16 135.41 L 115.26 134.22 L 117.44 133.24 L 119.70 132.48 L 122.02 131.90 L 124.39 131.45 L 126.77 131.09 L 129.16 130.76 L 131.56 130.45 L 133.95 130.15 L 136.35 129.87 L 138.75 129.60 L 141.14 129.34 L 143.54 129.09 L 145.94 128.85 L 148.34 128.62 L 150.74 128.40 L 153.15 128.18 L 155.55 127.97 L 157.95 127.76 L 160.35 127.55 L 162.76 127.34 L 165.16 127.13 L 167.56 126.92 L 169.96 126.71 L 172.37 126.49 L 174.77 126.27 L 177.17 126.05 L 179.58 125.82 L 181.98 125.59 L 184.38 125.35 L 186.78 125.12 L 189.18 124.88 L 191.59 124.65 L 193.99 124.41 L 196.39 124.17 L 198.79 123.94 L 201.19 123.70 L 203.59 123.47 L 205.99 123.24 L 208.39 123.02 L 210.79 122.79 L 213.19 122.57 L 215.59 122.36 L 217.99 122.15 L 220.39 121.94 L 222.79 121.72 L 225.19 121.51 L 227.59 121.29 L 230.00 121.07 L 232.41 120.84 L 234.82 120.59 L 237.24 120.34 L 239.65 120.12 L 242.06 120.00 L 244.44 120.07 L 246.79 120.41 L 249.10 121.08 L 251.31 122.05 L 253.38 123.31 L 255.26 124.82 L 256.90 126.55 L 258.32 128.47 L 259.59 130.51 L 260.77 132.64 L 261.90 134.79 L 263.05 136.92 L 264.22 139.04 L 265.40 141.14 L 266.59 143.23 L 267.78 145.32 L 268.96 147.42 L 270.15 149.51 L 271.33 151.62 L 272.52 153.72 L 273.70 155.82 L 274.88 157.93 L 276.05 160.03 L 277.23 162.14 L 278.41 164.25 L 279.58 166.35 L 280.76 168.46 L 281.94 170.57 L 283.11 172.67 L 284.29 174.78 L 285.46 176.89 L 286.64 178.99 L 287.82 181.10 L 288.99 183.21 L 290.17 185.31 L 291.35 187.42 L 292.52 189.52 L 293.70 191.63 L 294.88 193.73 L 296.06 195.84 L 297.23 197.94 L 298.41 200.04 L 299.59 202.15 L 300.78 204.25 L 301.96 206.35 L 303.14 208.46 L 304.32 210.56 L 305.50 212.66 L 306.69 214.76 L 307.87 216.87 L 309.05 218.97 L 310.23 221.07 L 311.41 223.18 L 312.60 225.28 L 313.77 227.38 L 314.95 229.49 L 316.13 231.60 L 317.31 233.70 L 318.48 235.81 L 319.65 237.92 L 320.82 240.03 L 321.99 242.14 L 323.16 244.25 L 324.32 246.36 L 325.49 248.47 L 326.66 250.58 L 327.83 252.69 L 329.01 254.80 L 330.19 256.90 L 331.37 259.00 L 332.56 261.10 L 333.76 263.19 L 334.97 265.28 L 336.18 267.36 L 337.41 269.43 L 338.65 271.50 L 339.89 273.57 L 341.15 275.62 L 342.43 277.67 L 343.72 279.71 L 345.02 281.74 L 346.35 283.76 L 347.68 285.77 L 349.04 287.76 L 350.41 289.75 L 351.80 291.72 L 353.21 293.68 L 354.64 295.62 L 356.09 297.54 L 357.56 299.45 L 359.05 301.35 L 360.55 303.23 L 362.07 305.10 L 363.61 306.96 L 365.16 308.81 L 366.72 310.65 L 368.29 312.48 L 369.87 314.30 L 371.46 316.11 L 373.06 317.92 L 374.66 319.72 L 376.27 321.52 L 377.88 323.32 L 379.49 325.12 L 381.10 326.91 L 382.70 328.71 L 384.31 330.51 L 385.91 332.32 L 387.51 334.12 L 389.10 335.93 L 390.70 337.75 L 392.29 339.56 L 393.87 341.38 L 395.46 343.19 L 397.05 345.01 L 398.64 346.82 L 400.23 348.64 L 401.82 350.45 L 403.40 352.27 L 404.99 354.08 L 406.58 355.90 L 408.17 357.71 L 409.76 359.53 L 411.35 361.34 L 412.94 363.15 L 414.53 364.97 L 416.13 366.78 L 417.72 368.59 L 419.31 370.40 L 420.90 372.22 L 422.49 374.03 L 424.08 375.84 L 425.68 377.65 L 427.27 379.47 L 428.86 381.28 L 430.45 383.09 L 432.05 384.90 L 433.64 386.71 L 435.23 388.52 L 436.82 390.34 L 438.42 392.15 L 440.01 393.96 L 441.60 395.77 L 443.19 397.58 L 444.79 399.39 L 446.38 401.21 L 447.97 403.02 L 449.56 404.83 L 451.16 406.64 L 452.75 408.45 L 454.34 410.27 L 455.93 412.08 L 457.52 413.89 L 459.12 415.70 L 460.71 417.52 L 462.30 419.33 L 463.89 421.14 L 465.48 422.96 L 467.07 424.77 L 468.67 426.58 L 470.26 428.39 L 471.85 430.21 L 473.44 432.02 L 475.03 433.83 L 476.62 435.65 L 478.21 437.46 L 479.80 439.27 L 481.39 441.09 L 482.98 442.90 L 484.58 444.71 L 486.17 446.52 L 487.76 448.34 L 489.35 450.15 L 490.94 451.96 L 492.53 453.78 L 494.12 455.59 L 495.71 457.40 L 497.31 459.21 L 498.90 461.03 L 500.49 462.84 L 502.08 464.65 L 503.67 466.46 L 505.26 468.27 L 506.86 470.09 L 508.45 471.90 L 510.04 473.71 L 511.63 475.52 L 513.23 477.33 L 514.82 479.15 L 516.41 480.96 L 518.01 482.77 L 519.60 484.58 L 521.19 486.39 L 522.79 488.21 L 524.38 490.02 L 525.97 491.83 L 527.56 493.64 L 529.16 495.46 L 530.75 497.27 L 532.34 499.08 L 533.93 500.89 L 535.52 502.71 L 537.11 504.52 L 538.69 506.34 L 540.28 508.15 L 541.87 509.97 L 543.45 511.78 L 545.04 513.60 L 546.63 515.41 L 548.22 517.22 L 549.82 519.03 L 551.42 520.84 L 553.03 522.64 L 554.65 524.44 L 556.28 526.23 L 557.94 527.99 L 559.71 529.59 L 561.73 530.85 L 563.99 531.66 L 566.37 532.04 L 568.80 532.04 L 571.22 531.82 L 573.60 531.52 L 575.98 531.18 L 578.36 530.86 L 580.76 530.57 L 583.16 530.33 L 585.58 530.13 L 587.99 530.00 L 590.40 529.94 L 592.81 529.97 L 595.22 530.09 L 597.61 530.32 L 599.99 530.66 L 602.35 531.11 L 604.68 531.68 L 607.00 532.35 L 609.28 533.13 L 611.52 534.02 L 613.73 535.01 L 615.89 536.09 L 618.01 537.27 L 620.08 538.54 L 622.08 539.91 L 624.02 541.35 L 625.87 542.88 L 627.64 544.49 L 629.31 546.17 L 630.89 547.93 L 632.41 549.77 L 633.87 551.70 L 635.31 553.71 L 636.76 555.76 L 638.26 557.73 L 639.89 559.51 L 641.70 560.99 L 643.73 562.09 L 645.93 562.88 L 648.25 563.44 L 650.64 563.88 L 653.05 564.26 L 655.45 564.63 L 657.86 564.99 L 660.26 565.33 L 662.66 565.66 L 665.06 565.99 L 667.45 566.30 L 669.85 566.61 L 672.25 566.91 L 674.64 567.20 L 677.03 567.49 L 679.43 567.77 L 681.82 568.05 L 684.21 568.33 L 686.60 568.61 L 689.00 568.88 L 691.39 569.16 L 693.78 569.44 L 696.17 569.71 L 698.56 570.00 L 700.96 570.28 L 703.35 570.57 L 705.74 570.85 L 708.14 571.14 L 710.53 571.43 L 712.93 571.72 L 715.32 572.01 L 717.72 572.30 L 720.11 572.60 L 722.51 572.89 L 724.90 573.17 L 727.30 573.46 L 729.70 573.75 L 732.09 574.03 L 734.49 574.32 L 736.89 574.60 L 739.28 574.88 L 741.68 575.15 L 744.08 575.42 L 746.48 575.69 L 748.88 575.96 L 751.27 576.23 L 753.67 576.49 L 756.07 576.75 L 758.47 577.01 L 760.87 577.27 L 763.27 577.53 L 765.67 577.78 L 768.06 578.03 L 770.46 578.28 L 772.86 578.53 L 775.26 578.78 L 777.66 579.03 L 780.06 579.27 L 782.46 579.51 L 784.86 579.76 L 787.26 580.00 L 789.66 580.24 L 792.06 580.48 L 794.46 580.72 L 796.86 580.96 L 799.26 581.19 L 801.66 581.43 L 804.06 581.67 L 806.46 581.91 L 808.86 582.14 L 811.26 582.38 L 813.66 582.61 L 816.06 582.85 L 818.46 583.09 L 820.86 583.32 L 823.26 583.56 L 825.66 583.80 L 828.06 584.03 L 830.46 584.27 L 832.86 584.51 L 835.26 584.75 L 837.66 584.99 L 840.06 585.23 L 842.46 585.47 L 844.86 585.71 L 847.26 585.95 L 849.67 586.19 L 852.07 586.43 L 854.47 586.67 L 856.87 586.91 L 859.27 587.15 L 861.67 587.39 L 864.07 587.63 L 866.47 587.88 L 868.87 588.12 L 871.27 588.36 L 873.67 588.60 L 876.07 588.85 L 878.47 589.09 L 880.87 589.33 L 883.27 589.57 L 885.67 589.82 L 888.07 590.06 L 890.47 590.30 L 892.87 590.54 L 895.27 590.79 L 897.67 591.03 L 900.07 591.27 L 902.47 591.52 L 904.87 591.76 L 907.27 592.00 L 909.67 592.24 L 912.07 592.49 L 914.47 592.73 L 916.87 592.97 L 919.27 593.21 L 921.67 593.46 L 924.07 593.70 L 926.47 593.94 L 928.87 594.18 L 931.27 594.42 L 933.67 594.67 L 936.07 594.91 L 938.47 595.15 L 940.87 595.39 L 943.27 595.63 L 945.67 595.87 L 948.07 596.11 L 950.47 596.35 L 952.87 596.60 L 955.27 596.84 L 957.67 597.08 L 960.07 597.32 L 962.47 597.56 L 964.87 597.80 L 967.27 598.04 L 969.67 598.28 L 972.07 598.52 L 974.47 598.76 L 976.87 599.00 L 979.27 599.24 L 981.67 599.48 L 984.07 599.72 L 986.47 599.96 L 988.87 600.20 L 991.27 600.44 L 993.67 600.68 L 996.07 600.92 L 998.47 601.16 L 1000.87 601.40 L 1003.27 601.64 L 1005.67 601.88 L 1008.07 602.12 L 1010.47 602.36 L 1012.87 602.60 L 1015.27 602.84 L 1017.67 603.08 L 1020.07 603.32 L 1022.47 603.56 L 1024.87 603.80 L 1027.27 604.04 L 1029.68 604.28 L 1032.08 604.52 L 1034.48 604.75 L 1036.88 604.99 L 1039.28 605.23 L 1041.68 605.47 L 1044.08 605.71 L 1046.48 605.95 L 1048.88 606.19 L 1051.28 606.43 L 1053.68 606.67 L 1056.08 606.91 L 1058.48 607.15 L 1060.88 607.39 L 1063.28 607.63 L 1065.68 607.87 L 1068.08 608.11 L 1070.48 608.34 L 1072.88 608.58 L 1075.28 608.82 L 1077.68 609.06 L 1080.08 609.30 L 1082.48 609.54 L 1084.89 609.78 L 1087.29 610.02 L 1089.69 610.26 L 1092.09 610.51 L 1094.49 610.75 L 1096.89 611.01 L 1099.28 611.26 L 1101.68 611.53 L 1104.08 611.81 L 1106.47 612.10 L 1108.86 612.40 L 1111.24 612.74 L 1113.61 613.15 L 1115.94 613.69 L 1118.23 614.40 L 1120.47 615.29 L 1122.64 616.38 L 1124.74 617.63 L 1126.75 619.02 L 1128.66 620.52 L 1130.47 622.11 L 1132.18 623.80 L 1133.78 625.58 L 1135.27 627.44 L 1136.66 629.38 L 1137.95 631.39 L 1139.13 633.48 L 1140.21 635.64 L 1141.18 637.86 L 1142.05 640.14 L 1142.78 642.47 L 1143.36 644.83 L 1143.76 647.21 L 1143.97 649.60 L 1144.00 651.99 L 1143.86 654.38 L 1143.58 656.76 L 1143.17 659.12 L 1142.65 661.47 L 1142.02 663.79 L 1141.29 666.08 L 1140.46 668.34 L 1139.54 670.58 L 1138.54 672.78 L 1137.46 674.95 L 1136.31 677.08 L 1135.09 679.17 L 1133.81 681.22 L 1132.46 683.23 L 1131.05 685.19 L 1129.59 687.10 L 1128.07 688.97 L 1126.50 690.79 L 1124.87 692.56 L 1123.19 694.28 L 1121.46 695.95 L 1119.68 697.57 L 1117.85 699.13 L 1115.98 700.65 L 1114.07 702.11 L 1112.12 703.52 L 1110.13 704.88 L 1108.11 706.19 L 1106.05 707.45 L 1103.96 708.65 L 1101.84 709.81 L 1099.69 710.92 L 1097.51 711.97 L 1095.31 712.98 L 1093.09 713.94 L 1090.85 714.84 L 1088.59 715.70 L 1086.31 716.51 L 1084.02 717.27 L 1081.72 717.98 L 1079.41 718.65 L 1077.08 719.27 L 1074.75 719.85 L 1072.40 720.38 L 1070.05 720.88 L 1067.68 721.33 L 1065.31 721.75 L 1062.93 722.13 L 1060.55 722.48 L 1058.16 722.80 L 1055.77 723.08 L 1053.37 723.34 L 1050.96 723.57 L 1048.56 723.77 L 1046.15 723.95 L 1043.74 724.10 L 1041.33 724.23 L 1038.92 724.34 L 1036.51 724.44 L 1034.10 724.51 L 1031.69 724.57 L 1029.28 724.62 L 1026.86 724.66 L 1024.45 724.68 L 1022.04 724.70 L 1019.63 724.71 L 1017.22 724.71 L 1014.80 724.72 L 1012.39 724.72 L 1009.98 724.71 L 1007.57 724.72 L 1005.15 724.72 L 1002.74 724.73 L 1000.33 724.74 L 997.92 724.77 L 995.51 724.80 L 993.09 724.84 L 990.68 724.88 L 988.27 724.93 L 985.86 724.98 L 983.45 725.03 L 981.03 725.08 L 978.62 725.12 L 976.21 725.16 L 973.80 725.19 L 971.39 725.22 L 968.97 725.23 L 966.56 725.23 L 964.15 725.23 L 961.74 725.22 L 959.33 725.21 L 956.92 725.18 L 954.50 725.15 L 952.09 725.11 L 949.68 725.07 L 947.27 725.01 L 944.86 724.94 L 942.44 724.87 L 940.03 724.77 L 937.62 724.67 L 935.22 724.54 L 932.81 724.40 L 930.40 724.24 L 928.00 724.07 L 925.59 723.88 L 923.19 723.67 L 920.79 723.46 L 918.38 723.23 L 915.98 723.00 L 913.58 722.77 L 911.18 722.54 L 908.78 722.30 L 906.38 722.06 L 903.98 721.83 L 901.58 721.59 L 899.18 721.36 L 896.78 721.12 L 894.37 720.89 L 891.97 720.66 L 889.57 720.42 L 887.17 720.19 L 884.77 719.95 L 882.49 719.73" stroke="#121528" stroke-width="27.54"/>
  <path class="track" d="M 882.49 719.73 L 882.37 719.72 L 879.97 719.48 L 877.57 719.25 L 875.17 719.02 L 872.77 718.78 L 870.37 718.55 L 867.97 718.31 L 865.57 718.08 L 863.16 717.84 L 860.76 717.61 L 858.36 717.38 L 855.96 717.14 L 853.56 716.91 L 851.16 716.67 L 848.76 716.43 L 846.36 716.20 L 843.96 715.96 L 841.56 715.73 L 839.16 715.49 L 836.76 715.25 L 834.36 715.01 L 831.96 714.78 L 829.56 714.54 L 827.16 714.30 L 824.76 714.06 L 822.36 713.82 L 819.96 713.58 L 817.56 713.34 L 815.16 713.10 L 812.76 712.86 L 810.36 712.62 L 807.96 712.37 L 805.56 712.13 L 803.16 711.89 L 800.76 711.65 L 798.36 711.41 L 795.95 711.16 L 793.55 710.92 L 791.15 710.68 L 788.75 710.44 L 786.35 710.20 L 783.95 709.95 L 781.55 709.71 L 779.15 709.47 L 776.75 709.23 L 774.35 708.99 L 771.95 708.75 L 769.55 708.51 L 767.15 708.27 L 764.75 708.03 L 762.35 707.79 L 759.95 707.55 L 757.55 707.32 L 755.15 707.08 L 752.75 706.85 L 750.35 706.61 L 747.95 706.38 L 745.55 706.14 L 743.15 705.91 L 740.74 705.68 L 738.34 705.45 L 735.94 705.22 L 733.54 704.99 L 731.14 704.76 L 728.74 704.54 L 726.34 704.31 L 723.93 704.08 L 721.53 703.86 L 719.13 703.64 L 716.73 703.42 L 714.33 703.19 L 711.92 702.97 L 709.52 702.75 L 707.12 702.54 L 704.72 702.32 L 702.32 702.10 L 699.91 701.88 L 697.51 701.67 L 695.11 701.45 L 692.71 701.24 L 690.30 701.03 L 687.90 700.81 L 685.50 700.60 L 683.10 700.39 L 680.69 700.18 L 678.29 699.97 L 675.89 699.76 L 673.48 699.55 L 671.08 699.34 L 668.68 699.13 L 666.28 698.92 L 663.87 698.71 L 661.47 698.51 L 659.07 698.30 L 656.66 698.09 L 654.26 697.89 L 651.86 697.68 L 649.45 697.48 L 647.05 697.27 L 644.65 697.07 L 642.24 696.86 L 639.84 696.66 L 637.43 696.46 L 635.03 696.25 L 632.63 696.05 L 630.22 695.85 L 627.82 695.64 L 625.42 695.44 L 623.01 695.24 L 620.61 695.04 L 618.21 694.83 L 615.80 694.63 L 613.40 694.43 L 610.99 694.23 L 608.59 694.02 L 606.19 693.82 L 603.78 693.62 L 601.38 693.42 L 598.98 693.22 L 596.57 693.01 L 594.17 692.81 L 591.76 692.61 L 589.36 692.41 L 586.96 692.20 L 584.55 692.00 L 582.15 691.80 L 579.74 691.60 L 577.34 691.39 L 574.94 691.19 L 572.53 690.99 L 570.13 690.78 L 567.73 690.58 L 565.32 690.37 L 562.92 690.17 L 560.51 689.96 L 558.11 689.76 L 555.71 689.55 L 553.30 689.34 L 550.90 689.14 L 548.50 688.93 L 546.09 688.73 L 543.69 688.52 L 541.28 688.31 L 538.88 688.10 L 536.48 687.90 L 534.07 687.69 L 531.67 687.48 L 529.27 687.28 L 526.86 687.07 L 524.46 686.86 L 522.06 686.66 L 519.66 686.45 L 517.25 686.24 L 514.85 686.04 L 512.45 685.83 L 510.04 685.63 L 507.64 685.42 L 505.24 685.22 L 502.84 685.01 L 500.43 684.81 L 498.03 684.60 L 495.63 684.40 L 493.23 684.20 L 490.83 683.99 L 488.42 683.79 L 486.02 683.59 L 483.62 683.39 L 481.22 683.19 L 478.82 682.99 L 476.42 682.79 L 474.01 682.60 L 471.58 682.40 L 469.09 682.20 L 466.64 681.86 L 464.55 681.03 L 463.11 679.44 L 462.51 677.23 L 462.62 674.77 L 463.09 672.30 L 463.50 669.89 L 463.52 667.55 L 462.87 665.27 L 461.44 663.14 L 459.54 661.53 L 457.43 660.70 L 455.19 660.50 L 452.86 660.75 L 450.49 661.26 L 448.12 661.84 L 445.75 662.43 L 443.40 663.05 L 441.05 663.67 L 438.71 664.31 L 436.38 664.95 L 434.05 665.59 L 431.73 666.24 L 429.41 666.88 L 427.09 667.52 L 424.76 668.15 L 422.44 668.78 L 420.12 669.39 L 417.79 669.98 L 415.45 670.56 L 413.11 671.12 L 410.77 671.65 L 408.41 672.16 L 406.04 672.64 L 403.67 673.08 L 401.29 673.50 L 398.90 673.87 L 396.50 674.21 L 394.10 674.51 L 391.70 674.76 L 389.29 674.97 L 386.89 675.13 L 384.48 675.23 L 382.07 675.29 L 379.66 675.30 L 377.26 675.27 L 374.85 675.21 L 372.45 675.11 L 370.04 674.99 L 367.63 674.84 L 365.23 674.68 L 362.82 674.50 L 360.41 674.32 L 358.00 674.13 L 355.60 673.93 L 353.19 673.73 L 350.78 673.53 L 348.38 673.33 L 345.97 673.13 L 343.57 672.94 L 341.16 672.76 L 338.76 672.59 L 336.36 672.43 L 333.95 672.27 L 331.55 672.11 L 329.15 671.95 L 326.74 671.79 L 324.34 671.62 L 321.94 671.45 L 319.53 671.26 L 317.12 671.06 L 314.72 670.84 L 312.31 670.60 L 309.91 670.34 L 307.50 670.06 L 305.11 669.75 L 302.72 669.41 L 300.33 669.03 L 297.96 668.63 L 295.59 668.19 L 293.23 667.70 L 290.88 667.18 L 288.55 666.61 L 286.22 665.99 L 283.91 665.32 L 281.62 664.61 L 279.34 663.83 L 277.08 663.00 L 274.84 662.11 L 272.61 661.18 L 270.40 660.19 L 268.20 659.18 L 266.02 658.13 L 263.84 657.06 L 261.68 655.97 L 259.53 654.87 L 257.39 653.77 L 255.25 652.67 L 253.13 651.54 L 251.03 650.39 L 248.95 649.19 L 246.91 647.92 L 244.90 646.59 L 242.91 645.20 L 240.96 643.77 L 239.04 642.29 L 237.15 640.79 L 235.29 639.25 L 233.46 637.68 L 231.66 636.08 L 229.88 634.45 L 228.14 632.79 L 226.42 631.10 L 224.73 629.38 L 223.07 627.64 L 221.43 625.88 L 219.82 624.08 L 218.24 622.27 L 216.69 620.43 L 215.16 618.56 L 213.65 616.68 L 212.17 614.77 L 210.72 612.85 L 209.29 610.90 L 207.89 608.94 L 206.51 606.96 L 205.16 604.96 L 203.83 602.94 L 202.53 600.90 L 201.26 598.85 L 200.02 596.78 L 198.81 594.69 L 197.62 592.59 L 196.47 590.47 L 195.35 588.34 L 194.27 586.18 L 193.21 584.02 L 192.19 581.83 L 191.21 579.64 L 190.26 577.42 L 189.35 575.20 L 188.47 572.95 L 187.63 570.70 L 186.83 568.43 L 186.06 566.15 L 185.32 563.85 L 184.60 561.55 L 183.91 559.24 L 183.24 556.92 L 182.59 554.60 L 181.96 552.27 L 181.34 549.93 L 180.74 547.59 L 180.15 545.25 L 179.57 542.90 L 179.02 540.56 L 178.48 538.20 L 177.97 535.84 L 177.48 533.48 L 177.02 531.12 L 176.58 528.75 L 176.16 526.37 L 175.77 523.99 L 175.41 521.61 L 175.06 519.23 L 174.73 516.84 L 174.42 514.45 L 174.13 512.06 L 173.86 509.66 L 173.60 507.27 L 173.35 504.87 L 173.12 502.47 L 172.89 500.07 L 172.67 497.66 L 172.47 495.26 L 172.26 492.85 L 172.07 490.45 L 171.88 488.04 L 171.69 485.64 L 171.50 483.23 L 171.31 480.82 L 171.13 478.42 L 170.94 476.01 L 170.76 473.61 L 170.58 471.20 L 170.40 468.79 L 170.22 466.39 L 170.04 463.98 L 169.85 461.58 L 169.67 459.17 L 169.48 456.77 L 169.30 454.36 L 169.11 451.96 L 168.92 449.55 L 168.73 447.15 L 168.53 444.75 L 168.33 442.34 L 168.13 439.94 L 167.92 437.54 L 167.71 435.14 L 167.51 432.73 L 167.30 430.33 L 167.09 427.93 L 166.88 425.53 L 166.67 423.13 L 166.47 420.72 L 166.26 418.32 L 166.06 415.92 L 165.86 413.51 L 165.67 411.11 L 165.48 408.71 L 165.30 406.30 L 165.12 403.89 L 164.95 401.49 L 164.78 399.08 L 164.62 396.67 L 164.47 394.26 L 164.32 391.85 L 164.18 389.44 L 164.05 387.02 L 163.92 384.61 L 163.80 382.20 L 163.68 379.79 L 163.56 377.38 L 163.45 374.97 L 163.34 372.56 L 163.24 370.15 L 163.14 367.74 L 163.04 365.34 L 162.95 362.93 L 162.85 360.53 L 162.76 358.13 L 162.67 355.73 L 162.58 353.34 L 162.48 350.94 L 162.39 348.53 L 162.29 346.12 L 162.18 343.71 L 162.06 341.28 L 161.93 338.84 L 161.78 336.39 L 161.62 333.91 L 161.39 331.46 L 160.97 329.12 L 160.22 327.00 L 159.01 325.19 L 157.25 323.77 L 155.05 322.69 L 152.61 321.87 L 150.09 321.22 L 147.68 320.64 L 145.44 319.98 L 143.35 319.04 L 141.46 317.63 L 140.08 315.74 L 139.31 313.51 L 138.96 311.09 L 138.73 308.64 L 138.42 306.24 L 138.04 303.86 L 137.62 301.49 L 137.14 299.13 L 136.62 296.78 L 136.06 294.44 L 135.46 292.11 L 134.84 289.78 L 134.18 287.46 L 133.51 285.14 L 132.81 282.83 L 132.11 280.52 L 131.39 278.22 L 130.66 275.92 L 129.91 273.62 L 129.16 271.33 L 128.40 269.04 L 127.63 266.76 L 126.86 264.47 L 126.08 262.19 L 125.29 259.91 L 124.50 257.63 L 123.71 255.35 L 122.92 253.07 L 122.13 250.79 L 121.34 248.51 L 120.55 246.23 L 119.76 243.95 L 118.98 241.67 L 118.20 239.39 L 117.43 237.10 L 116.66 234.82 L 115.90 232.53 L 115.13 230.24 L 114.37 227.95 L 113.62 225.66 L 112.86 223.37 L 112.11 221.08 L 111.35 218.79 L 110.60 216.50 L 109.85 214.21 L 109.09 211.92 L 108.34 209.62 L 107.58 207.33 L 106.82 205.04 L 106.06 202.75 L 105.30 200.46 L 104.54 198.17 L 103.77 195.89 L 103.01 193.60 L 102.25 191.31 L 101.49 189.02 L 100.75 186.72 L 100.02 184.42 L 99.30 182.12 L 98.60 179.82 L 97.92 177.51 L 97.29 175.19 L 96.75 172.85 L 96.34 170.48 L 96.08 168.08 L 96.00 165.65 L 96.09 163.22 L 96.36 160.80 L 96.79 158.43 L 97.39 156.10 L 98.15 153.83 L 99.07 151.63 L 100.13 149.49 L 101.34 147.43 L 102.68 145.44 L 104.15 143.53 L 105.73 141.70 L 107.44 139.96 L 109.25 138.31 L 111.16 136.79 L 113.16 135.41 L 115.26 134.22 L 117.44 133.24 L 119.70 132.48 L 122.02 131.90 L 124.39 131.45 L 126.77 131.09 L 129.16 130.76 L 131.56 130.45 L 133.95 130.15 L 136.35 129.87 L 138.75 129.60 L 141.14 129.34 L 143.54 129.09 L 145.94 128.85 L 148.34 128.62 L 150.74 128.40 L 153.15 128.18 L 155.55 127.97 L 157.95 127.76 L 160.35 127.55 L 162.76 127.34 L 165.16 127.13 L 167.56 126.92 L 169.96 126.71 L 172.37 126.49 L 174.77 126.27 L 177.17 126.05 L 179.58 125.82 L 181.98 125.59 L 184.38 125.35 L 186.78 125.12 L 189.18 124.88 L 191.59 124.65 L 193.99 124.41 L 196.39 124.17 L 198.79 123.94 L 201.19 123.70 L 203.59 123.47 L 205.99 123.24 L 208.39 123.02 L 210.79 122.79 L 213.19 122.57 L 215.59 122.36 L 217.99 122.15 L 220.39 121.94 L 222.79 121.72 L 225.19 121.51 L 227.59 121.29 L 230.00 121.07 L 232.41 120.84 L 234.82 120.59 L 237.24 120.34 L 239.65 120.12 L 242.06 120.00 L 244.44 120.07 L 246.79 120.41 L 249.10 121.08 L 251.31 122.05 L 253.38 123.31 L 255.26 124.82 L 256.90 126.55 L 258.32 128.47 L 259.59 130.51 L 260.77 132.64 L 261.90 134.79 L 263.05 136.92 L 264.22 139.04 L 265.40 141.14 L 266.59 143.23 L 267.78 145.32 L 268.96 147.42 L 270.15 149.51 L 271.33 151.62 L 272.52 153.72 L 273.70 155.82 L 274.88 157.93 L 276.05 160.03 L 277.23 162.14 L 278.41 164.25 L 279.58 166.35 L 280.76 168.46 L 281.94 170.57 L 283.11 172.67 L 284.29 174.78 L 285.46 176.89 L 286.64 178.99 L 287.82 181.10 L 288.99 183.21 L 290.17 185.31 L 291.35 187.42 L 292.52 189.52 L 293.70 191.63 L 294.88 193.73 L 296.06 195.84 L 297.23 197.94 L 298.41 200.04 L 299.59 202.15 L 300.78 204.25 L 301.96 206.35 L 303.14 208.46 L 304.32 210.56 L 305.50 212.66 L 306.69 214.76 L 307.87 216.87 L 309.05 218.97 L 310.23 221.07 L 311.41 223.18 L 312.60 225.28 L 313.77 227.38 L 314.95 229.49 L 316.13 231.60 L 317.31 233.70 L 318.48 235.81 L 319.65 237.92 L 320.82 240.03 L 321.99 242.14 L 323.16 244.25 L 324.32 246.36 L 325.49 248.47 L 326.66 250.58 L 327.83 252.69 L 329.01 254.80 L 330.19 256.90 L 331.37 259.00 L 332.56 261.10 L 333.76 263.19 L 334.97 265.28 L 336.18 267.36 L 337.41 269.43 L 338.65 271.50 L 339.89 273.57 L 341.15 275.62 L 342.43 277.67 L 343.72 279.71 L 345.02 281.74 L 346.35 283.76 L 347.68 285.77 L 349.04 287.76 L 350.41 289.75 L 351.80 291.72 L 353.21 293.68 L 354.64 295.62 L 356.09 297.54 L 357.56 299.45 L 359.05 301.35 L 360.55 303.23 L 362.07 305.10 L 363.61 306.96 L 365.16 308.81 L 366.72 310.65 L 368.29 312.48 L 369.87 314.30 L 371.46 316.11 L 373.06 317.92 L 374.66 319.72 L 376.27 321.52 L 377.88 323.32 L 379.49 325.12 L 381.10 326.91 L 382.70 328.71 L 384.31 330.51 L 385.91 332.32 L 387.51 334.12 L 389.10 335.93 L 390.70 337.75 L 392.29 339.56 L 393.87 341.38 L 395.46 343.19 L 397.05 345.01 L 398.64 346.82 L 400.23 348.64 L 401.82 350.45 L 403.40 352.27 L 404.99 354.08 L 406.58 355.90 L 408.17 357.71 L 409.76 359.53 L 411.35 361.34 L 412.94 363.15 L 414.53 364.97 L 416.13 366.78 L 417.72 368.59 L 419.31 370.40 L 420.90 372.22 L 422.49 374.03 L 424.08 375.84 L 425.68 377.65 L 427.27 379.47 L 428.86 381.28 L 430.45 383.09 L 432.05 384.90 L 433.64 386.71 L 435.23 388.52 L 436.82 390.34 L 438.42 392.15 L 440.01 393.96 L 441.60 395.77 L 443.19 397.58 L 444.79 399.39 L 446.38 401.21 L 447.97 403.02 L 449.56 404.83 L 451.16 406.64 L 452.75 408.45 L 454.34 410.27 L 455.93 412.08 L 457.52 413.89 L 459.12 415.70 L 460.71 417.52 L 462.30 419.33 L 463.89 421.14 L 465.48 422.96 L 467.07 424.77 L 468.67 426.58 L 470.26 428.39 L 471.85 430.21 L 473.44 432.02 L 475.03 433.83 L 476.62 435.65 L 478.21 437.46 L 479.80 439.27 L 481.39 441.09 L 482.98 442.90 L 484.58 444.71 L 486.17 446.52 L 487.76 448.34 L 489.35 450.15 L 490.94 451.96 L 492.53 453.78 L 494.12 455.59 L 495.71 457.40 L 497.31 459.21 L 498.90 461.03 L 500.49 462.84 L 502.08 464.65 L 503.67 466.46 L 505.26 468.27 L 506.86 470.09 L 508.45 471.90 L 510.04 473.71 L 511.63 475.52 L 513.23 477.33 L 514.82 479.15 L 516.41 480.96 L 518.01 482.77 L 519.60 484.58 L 521.19 486.39 L 522.79 488.21 L 524.38 490.02 L 525.97 491.83 L 527.56 493.64 L 529.16 495.46 L 530.75 497.27 L 532.34 499.08 L 533.93 500.89 L 535.52 502.71 L 537.11 504.52 L 538.69 506.34 L 540.28 508.15 L 541.87 509.97 L 543.45 511.78 L 545.04 513.60 L 546.63 515.41 L 548.22 517.22 L 549.82 519.03 L 551.42 520.84 L 553.03 522.64 L 554.65 524.44 L 556.28 526.23 L 557.94 527.99 L 559.71 529.59 L 561.73 530.85 L 563.99 531.66 L 566.37 532.04 L 568.80 532.04 L 571.22 531.82 L 573.60 531.52 L 575.98 531.18 L 578.36 530.86 L 580.76 530.57 L 583.16 530.33 L 585.58 530.13 L 587.99 530.00 L 590.40 529.94 L 592.81 529.97 L 595.22 530.09 L 597.61 530.32 L 599.99 530.66 L 602.35 531.11 L 604.68 531.68 L 607.00 532.35 L 609.28 533.13 L 611.52 534.02 L 613.73 535.01 L 615.89 536.09 L 618.01 537.27 L 620.08 538.54 L 622.08 539.91 L 624.02 541.35 L 625.87 542.88 L 627.64 544.49 L 629.31 546.17 L 630.89 547.93 L 632.41 549.77 L 633.87 551.70 L 635.31 553.71 L 636.76 555.76 L 638.26 557.73 L 639.89 559.51 L 641.70 560.99 L 643.73 562.09 L 645.93 562.88 L 648.25 563.44 L 650.64 563.88 L 653.05 564.26 L 655.45 564.63 L 657.86 564.99 L 660.26 565.33 L 662.66 565.66 L 665.06 565.99 L 667.45 566.30 L 669.85 566.61 L 672.25 566.91 L 674.64 567.20 L 677.03 567.49 L 679.43 567.77 L 681.82 568.05 L 684.21 568.33 L 686.60 568.61 L 689.00 568.88 L 691.39 569.16 L 693.78 569.44 L 696.17 569.71 L 698.56 570.00 L 700.96 570.28 L 703.35 570.57 L 705.74 570.85 L 708.14 571.14 L 710.53 571.43 L 712.93 571.72 L 715.32 572.01 L 717.72 572.30 L 720.11 572.60 L 722.51 572.89 L 724.90 573.17 L 727.30 573.46 L 729.70 573.75 L 732.09 574.03 L 734.49 574.32 L 736.89 574.60 L 739.28 574.88 L 741.68 575.15 L 744.08 575.42 L 746.48 575.69 L 748.88 575.96 L 751.27 576.23 L 753.67 576.49 L 756.07 576.75 L 758.47 577.01 L 760.87 577.27 L 763.27 577.53 L 765.67 577.78 L 768.06 578.03 L 770.46 578.28 L 772.86 578.53 L 775.26 578.78 L 777.66 579.03 L 780.06 579.27 L 782.46 579.51 L 784.86 579.76 L 787.26 580.00 L 789.66 580.24 L 792.06 580.48 L 794.46 580.72 L 796.86 580.96 L 799.26 581.19 L 801.66 581.43 L 804.06 581.67 L 806.46 581.91 L 808.86 582.14 L 811.26 582.38 L 813.66 582.61 L 816.06 582.85 L 818.46 583.09 L 820.86 583.32 L 823.26 583.56 L 825.66 583.80 L 828.06 584.03 L 830.46 584.27 L 832.86 584.51 L 835.26 584.75 L 837.66 584.99 L 840.06 585.23 L 842.46 585.47 L 844.86 585.71 L 847.26 585.95 L 849.67 586.19 L 852.07 586.43 L 854.47 586.67 L 856.87 586.91 L 859.27 587.15 L 861.67 587.39 L 864.07 587.63 L 866.47 587.88 L 868.87 588.12 L 871.27 588.36 L 873.67 588.60 L 876.07 588.85 L 878.47 589.09 L 880.87 589.33 L 883.27 589.57 L 885.67 589.82 L 888.07 590.06 L 890.47 590.30 L 892.87 590.54 L 895.27 590.79 L 897.67 591.03 L 900.07 591.27 L 902.47 591.52 L 904.87 591.76 L 907.27 592.00 L 909.67 592.24 L 912.07 592.49 L 914.47 592.73 L 916.87 592.97 L 919.27 593.21 L 921.67 593.46 L 924.07 593.70 L 926.47 593.94 L 928.87 594.18 L 931.27 594.42 L 933.67 594.67 L 936.07 594.91 L 938.47 595.15 L 940.87 595.39 L 943.27 595.63 L 945.67 595.87 L 948.07 596.11 L 950.47 596.35 L 952.87 596.60 L 955.27 596.84 L 957.67 597.08 L 960.07 597.32 L 962.47 597.56 L 964.87 597.80 L 967.27 598.04 L 969.67 598.28 L 972.07 598.52 L 974.47 598.76 L 976.87 599.00 L 979.27 599.24 L 981.67 599.48 L 984.07 599.72 L 986.47 599.96 L 988.87 600.20 L 991.27 600.44 L 993.67 600.68 L 996.07 600.92 L 998.47 601.16 L 1000.87 601.40 L 1003.27 601.64 L 1005.67 601.88 L 1008.07 602.12 L 1010.47 602.36 L 1012.87 602.60 L 1015.27 602.84 L 1017.67 603.08 L 1020.07 603.32 L 1022.47 603.56 L 1024.87 603.80 L 1027.27 604.04 L 1029.68 604.28 L 1032.08 604.52 L 1034.48 604.75 L 1036.88 604.99 L 1039.28 605.23 L 1041.68 605.47 L 1044.08 605.71 L 1046.48 605.95 L 1048.88 606.19 L 1051.28 606.43 L 1053.68 606.67 L 1056.08 606.91 L 1058.48 607.15 L 1060.88 607.39 L 1063.28 607.63 L 1065.68 607.87 L 1068.08 608.11 L 1070.48 608.34 L 1072.88 608.58 L 1075.28 608.82 L 1077.68 609.06 L 1080.08 609.30 L 1082.48 609.54 L 1084.89 609.78 L 1087.29 610.02 L 1089.69 610.26 L 1092.09 610.51 L 1094.49 610.75 L 1096.89 611.01 L 1099.28 611.26 L 1101.68 611.53 L 1104.08 611.81 L 1106.47 612.10 L 1108.86 612.40 L 1111.24 612.74 L 1113.61 613.15 L 1115.94 613.69 L 1118.23 614.40 L 1120.47 615.29 L 1122.64 616.38 L 1124.74 617.63 L 1126.75 619.02 L 1128.66 620.52 L 1130.47 622.11 L 1132.18 623.80 L 1133.78 625.58 L 1135.27 627.44 L 1136.66 629.38 L 1137.95 631.39 L 1139.13 633.48 L 1140.21 635.64 L 1141.18 637.86 L 1142.05 640.14 L 1142.78 642.47 L 1143.36 644.83 L 1143.76 647.21 L 1143.97 649.60 L 1144.00 651.99 L 1143.86 654.38 L 1143.58 656.76 L 1143.17 659.12 L 1142.65 661.47 L 1142.02 663.79 L 1141.29 666.08 L 1140.46 668.34 L 1139.54 670.58 L 1138.54 672.78 L 1137.46 674.95 L 1136.31 677.08 L 1135.09 679.17 L 1133.81 681.22 L 1132.46 683.23 L 1131.05 685.19 L 1129.59 687.10 L 1128.07 688.97 L 1126.50 690.79 L 1124.87 692.56 L 1123.19 694.28 L 1121.46 695.95 L 1119.68 697.57 L 1117.85 699.13 L 1115.98 700.65 L 1114.07 702.11 L 1112.12 703.52 L 1110.13 704.88 L 1108.11 706.19 L 1106.05 707.45 L 1103.96 708.65 L 1101.84 709.81 L 1099.69 710.92 L 1097.51 711.97 L 1095.31 712.98 L 1093.09 713.94 L 1090.85 714.84 L 1088.59 715.70 L 1086.31 716.51 L 1084.02 717.27 L 1081.72 717.98 L 1079.41 718.65 L 1077.08 719.27 L 1074.75 719.85 L 1072.40 720.38 L 1070.05 720.88 L 1067.68 721.33 L 1065.31 721.75 L 1062.93 722.13 L 1060.55 722.48 L 1058.16 722.80 L 1055.77 723.08 L 1053.37 723.34 L 1050.96 723.57 L 1048.56 723.77 L 1046.15 723.95 L 1043.74 724.10 L 1041.33 724.23 L 1038.92 724.34 L 1036.51 724.44 L 1034.10 724.51 L 1031.69 724.57 L 1029.28 724.62 L 1026.86 724.66 L 1024.45 724.68 L 1022.04 724.70 L 1019.63 724.71 L 1017.22 724.71 L 1014.80 724.72 L 1012.39 724.72 L 1009.98 724.71 L 1007.57 724.72 L 1005.15 724.72 L 1002.74 724.73 L 1000.33 724.74 L 997.92 724.77 L 995.51 724.80 L 993.09 724.84 L 990.68 724.88 L 988.27 724.93 L 985.86 724.98 L 983.45 725.03 L 981.03 725.08 L 978.62 725.12 L 976.21 725.16 L 973.80 725.19 L 971.39 725.22 L 968.97 725.23 L 966.56 725.23 L 964.15 725.23 L 961.74 725.22 L 959.33 725.21 L 956.92 725.18 L 954.50 725.15 L 952.09 725.11 L 949.68 725.07 L 947.27 725.01 L 944.86 724.94 L 942.44 724.87 L 940.03 724.77 L 937.62 724.67 L 935.22 724.54 L 932.81 724.40 L 930.40 724.24 L 928.00 724.07 L 925.59 723.88 L 923.19 723.67 L 920.79 723.46 L 918.38 723.23 L 915.98 723.00 L 913.58 722.77 L 911.18 722.54 L 908.78 722.30 L 906.38 722.06 L 903.98 721.83 L 901.58 721.59 L 899.18 721.36 L 896.78 721.12 L 894.37 720.89 L 891.97 720.66 L 889.57 720.42 L 887.17 720.19 L 884.77 719.95 L 882.49 719.73" stroke="#121528" stroke-width="19.44"/>
  <path class="sector" d="M 882.49 719.73 L 882.37 719.72 L 879.97 719.48 L 877.57 719.25 L 875.17 719.02 L 872.77 718.78 L 870.37 718.55 L 867.97 718.31 L 865.57 718.08 L 863.16 717.84 L 860.76 717.61 L 858.36 717.38 L 855.96 717.14 L 853.56 716.91 L 851.16 716.67 L 848.76 716.43 L 846.36 716.20 L 843.96 715.96 L 841.56 715.73 L 839.16 715.49 L 836.76 715.25 L 834.36 715.01 L 831.96 714.78 L 829.56 714.54 L 827.16 714.30 L 824.76 714.06 L 822.36 713.82 L 819.96 713.58 L 817.56 713.34 L 815.16 713.10 L 812.76 712.86 L 810.36 712.62 L 807.96 712.37 L 805.56 712.13 L 803.16 711.89 L 800.76 711.65 L 798.36 711.41 L 795.95 711.16 L 793.55 710.92 L 791.15 710.68 L 788.75 710.44 L 786.35 710.20 L 783.95 709.95 L 781.55 709.71 L 779.15 709.47 L 776.75 709.23 L 774.35 708.99 L 771.95 708.75 L 769.96 708.55" stroke="#fd0000" stroke-width="4"/>
  <path class="sector" d="M 674.14 699.60 L 673.48 699.55 L 671.08 699.34 L 668.68 699.13 L 666.28 698.92 L 663.87 698.71 L 661.47 698.51 L 659.07 698.30 L 656.66 698.09 L 654.26 697.89 L 651.86 697.68 L 649.45 697.48 L 647.05 697.27 L 644.65 697.07 L 642.24 696.86 L 639.84 696.66 L 637.43 696.46 L 635.03 696.25 L 632.63 696.05 L 630.22 695.85 L 627.82 695.64 L 625.42 695.44 L 623.01 695.24 L 620.61 695.04 L 618.21 694.83 L 615.80 694.63 L 613.40 694.43 L 610.99 694.23 L 608.59 694.02 L 606.19 693.82 L 603.78 693.62 L 601.38 693.42 L 598.98 693.22 L 596.57 693.01 L 594.17 692.81 L 591.76 692.61 L 589.36 692.41 L 586.96 692.20 L 584.55 692.00 L 582.15 691.80 L 579.74 691.60 L 577.34 691.39 L 574.94 691.19 L 572.53 690.99 L 570.13 690.78 L 567.73 690.58 L 565.32 690.37 L 562.92 690.17 L 560.51 689.96 L 558.11 689.76 L 555.71 689.55 L 553.30 689.34 L 550.90 689.14 L 548.50 688.93 L 546.09 688.73 L 543.69 688.52 L 541.28 688.31 L 538.88 688.10 L 536.48 687.90 L 534.07 687.69 L 531.67 687.48 L 529.27 687.28 L 526.86 687.07 L 524.46 686.86 L 522.06 686.66 L 519.66 686.45 L 517.25 686.24 L 514.85 686.04 L 512.45 685.83 L 510.04 685.63 L 507.64 685.42 L 505.24 685.22 L 502.84 685.01 L 500.43 684.81 L 498.03 684.60 L 495.63 684.40 L 493.23 684.20 L 490.83 683.99 L 488.42 683.79 L 486.02 683.59 L 483.62 683.39 L 481.22 683.19 L 478.82 682.99 L 476.42 682.79 L 474.01 682.60 L 471.58 682.40 L 469.09 682.20 L 466.64 681.86 L 464.55 681.03 L 463.11 679.44 L 462.51 677.23 L 462.62 674.77 L 463.09 672.30 L 463.50 669.89 L 463.52 667.55 L 462.87 665.27 L 461.44 663.14 L 459.54 661.53 L 457.43 660.70 L 455.19 660.50 L 452.86 660.75 L 450.49 661.26 L 448.12 661.84 L 445.75 662.43 L 443.40 663.05 L 441.05 663.67 L 438.71 664.31 L 436.38 664.95 L 434.05 665.59 L 431.73 666.24 L 429.41 666.88 L 427.09 667.52 L 424.76 668.15 L 422.44 668.78 L 420.12 669.39 L 417.79 669.98 L 415.45 670.56 L 413.11 671.12 L 410.77 671.65 L 408.41 672.16 L 406.04 672.64 L 403.67 673.08 L 401.29 673.50 L 398.90 673.87 L 396.50 674.21 L 394.10 674.51 L 391.70 674.76 L 389.29 674.97 L 386.89 675.13 L 384.48 675.23 L 382.07 675.29 L 379.66 675.30 L 377.26 675.27 L 374.85 675.21 L 372.45 675.11 L 370.04 674.99 L 367.63 674.84 L 365.23 674.68 L 362.82 674.50 L 360.41 674.32 L 358.00 674.13 L 355.60 673.93 L 353.19 673.73 L 350.78 673.53 L 348.38 673.33 L 345.97 673.13 L 343.57 672.94 L 341.16 672.76 L 338.76 672.59 L 336.36 672.43 L 333.95 672.27 L 331.55 672.11 L 329.15 671.95 L 326.74 671.79 L 324.34 671.62 L 321.94 671.45 L 319.53 671.26 L 317.12 671.06 L 314.72 670.84 L 312.31 670.60 L 309.91 670.34 L 307.50 670.06 L 305.11 669.75 L 302.72 669.41 L 300.33 669.03 L 297.96 668.63 L 295.59 668.19 L 293.23 667.70 L 290.88 667.18 L 288.55 666.61 L 286.22 665.99 L 283.91 665.32 L 281.62 664.61 L 279.34 663.83 L 277.08 663.00 L 274.84 662.11 L 272.61 661.18 L 270.40 660.19 L 268.20 659.18 L 266.02 658.13 L 263.84 657.06 L 261.68 655.97 L 259.53 654.87 L 257.39 653.77 L 255.25 652.67 L 253.13 651.54 L 251.03 650.39 L 248.95 649.19 L 246.91 647.92 L 244.90 646.59 L 242.91 645.20 L 240.96 643.77 L 239.04 642.29 L 237.15 640.79 L 235.29 639.25 L 233.46 637.68 L 231.66 636.08 L 229.88 634.45 L 228.14 632.79 L 226.42 631.10 L 224.73 629.38 L 223.07 627.64 L 221.43 625.88 L 219.82 624.08 L 218.24 622.27 L 216.69 620.43 L 215.16 618.56 L 213.65 616.68 L 212.17 614.77 L 210.72 612.85 L 209.29 610.90 L 207.89 608.94 L 206.51 606.96 L 205.16 604.96 L 203.83 602.94 L 202.53 600.90 L 201.26 598.85 L 200.02 596.78 L 198.81 594.69 L 197.62 592.59 L 196.47 590.47 L 195.35 588.34 L 194.27 586.18 L 193.21 584.02 L 192.19 581.83 L 191.21 579.64 L 190.26 577.42 L 189.35 575.20 L 188.47 572.95 L 187.63 570.70 L 186.83 568.43 L 186.06 566.15 L 185.32 563.85 L 184.60 561.55 L 183.91 559.24 L 183.24 556.92 L 182.59 554.60 L 181.96 552.27 L 181.34 549.93 L 180.74 547.59 L 180.15 545.25 L 179.57 542.90 L 179.02 540.56 L 178.48 538.20 L 177.97 535.84 L 177.48 533.48 L 177.02 531.12 L 176.58 528.75 L 176.16 526.37 L 175.77 523.99 L 175.41 521.61 L 175.06 519.23 L 174.73 516.84 L 174.42 514.45 L 174.13 512.06 L 173.86 509.66 L 173.60 507.27 L 173.35 504.87 L 173.12 502.47 L 172.89 500.07 L 172.67 497.66 L 172.47 495.26 L 172.26 492.85 L 172.07 490.45 L 171.88 488.04 L 171.69 485.64 L 171.50 483.23 L 171.31 480.82 L 171.13 478.42 L 170.94 476.01 L 170.76 473.61 L 170.58 471.20 L 170.40 468.79 L 170.22 466.39 L 170.04 463.98 L 169.85 461.58 L 169.67 459.17 L 169.48 456.77 L 169.30 454.36 L 169.11 451.96 L 168.92 449.55 L 168.73 447.15 L 168.53 444.75 L 168.33 442.34 L 168.13 439.94 L 167.92 437.54 L 167.71 435.14 L 167.51 432.73 L 167.30 430.33 L 167.09 427.93 L 166.88 425.53 L 166.70 423.46" stroke="#fd0000" stroke-width="4"/>
  <path class="sector" d="M 166.70 423.46 L 166.67 423.13 L 166.47 420.72 L 166.26 418.32 L 166.06 415.92 L 165.86 413.51 L 165.67 411.11 L 165.48 408.71 L 165.30 406.30 L 165.12 403.89 L 164.95 401.49 L 164.78 399.08 L 164.62 396.67 L 164.47 394.26 L 164.32 391.85 L 164.18 389.44 L 164.05 387.02 L 163.92 384.61 L 163.80 382.20 L 163.68 379.79 L 163.56 377.38 L 163.45 374.97 L 163.34 372.56 L 163.24 370.15 L 163.14 367.74 L 163.04 365.34 L 162.95 362.93 L 162.85 360.53 L 162.76 358.13 L 162.67 355.73 L 162.58 353.34 L 162.48 350.94 L 162.39 348.53 L 162.29 346.12 L 162.18 343.71 L 162.06 341.28 L 161.93 338.84 L 161.78 336.39 L 161.62 333.91 L 161.39 331.46 L 160.97 329.12 L 160.22 327.00 L 159.01 325.19 L 157.25 323.77 L 155.05 322.69 L 152.61 321.87 L 150.09 321.22 L 147.68 320.64 L 145.44 319.98 L 143.35 319.04 L 141.46 317.63 L 140.08 315.74 L 139.31 313.51 L 138.96 311.09 L 138.73 308.64 L 138.42 306.24 L 138.04 303.86 L 137.62 301.49 L 137.14 299.13 L 136.62 296.78 L 136.06 294.44 L 135.46 292.11 L 134.84 289.78 L 134.18 287.46 L 133.51 285.14 L 132.81 282.83 L 132.11 280.52 L 131.39 278.22 L 130.66 275.92 L 129.91 273.62 L 129.16 271.33 L 128.40 269.04 L 127.63 266.76 L 126.86 264.47 L 126.08 262.19 L 125.29 259.91 L 124.50 257.63 L 123.71 255.35 L 122.92 253.07 L 122.13 250.79 L 121.34 248.51 L 120.55 246.23 L 119.76 243.95 L 118.98 241.67 L 118.20 239.39 L 117.43 237.10 L 116.66 234.82 L 115.90 232.53 L 115.13 230.24 L 114.37 227.95 L 113.62 225.66 L 112.86 223.37 L 112.11 221.08 L 111.35 218.79 L 110.60 216.50 L 109.85 214.21 L 109.09 211.92 L 108.34 209.62 L 107.58 207.33 L 106.82 205.04 L 106.06 202.75 L 105.30 200.46 L 104.54 198.17 L 103.77 195.89 L 103.01 193.60 L 102.25 191.31 L 101.49 189.02 L 100.75 186.72 L 100.02 184.42 L 99.30 182.12 L 98.60 179.82 L 97.92 177.51 L 97.29 175.19 L 96.75 172.85 L 96.34 170.48 L 96.08 168.08 L 96.00 165.65 L 96.09 163.22 L 96.36 160.80 L 96.79 158.43 L 97.39 156.10 L 98.15 153.83 L 99.07 151.63 L 100.13 149.49 L 101.34 147.43 L 102.68 145.44 L 104.15 143.53 L 105.73 141.70 L 107.44 139.96 L 109.25 138.31 L 111.16 136.79 L 113.16 135.41 L 115.26 134.22 L 117.44 133.24 L 119.70 132.48 L 122.02 131.90 L 124.39 131.45 L 126.77 131.09 L 129.16 130.76 L 131.56 130.45 L 133.95 130.15 L 136.35 129.87 L 138.75 129.60 L 141.14 129.34 L 143.54 129.09 L 145.94 128.85 L 148.34 128.62 L 150.74 128.40 L 153.15 128.18 L 155.55 127.97 L 157.95 127.76 L 160.35 127.55 L 162.76 127.34 L 165.16 127.13 L 167.56 126.92 L 169.96 126.71 L 172.37 126.49 L 174.77 126.27 L 177.17 126.05 L 179.58 125.82 L 181.98 125.59 L 184.38 125.35 L 186.78 125.12 L 189.18 124.88 L 191.59 124.65 L 193.99 124.41 L 196.39 124.17 L 198.79 123.94 L 201.19 123.70 L 203.59 123.47 L 205.99 123.24 L 208.39 123.02 L 210.79 122.79 L 213.19 122.57 L 215.59 122.36 L 217.99 122.15 L 220.39 121.94 L 222.79 121.72 L 225.19 121.51 L 227.59 121.29 L 230.00 121.07 L 232.41 120.84 L 234.82 120.59 L 237.24 120.34 L 239.65 120.12 L 242.06 120.00 L 244.44 120.07 L 246.79 120.41 L 249.10 121.08 L 251.31 122.05 L 253.38 123.31 L 255.26 124.82 L 256.90 126.55 L 258.32 128.47 L 259.59 130.51 L 260.77 132.64 L 261.90 134.79 L 263.05 136.92 L 264.22 139.04 L 265.40 141.14 L 266.59 143.23 L 267.78 145.32 L 268.96 147.42 L 270.15 149.51 L 271.33 151.62 L 272.52 153.72 L 273.70 155.82 L 274.88 157.93 L 276.05 160.03 L 277.23 162.14 L 278.41 164.25 L 279.58 166.35 L 280.76 168.46 L 281.94 170.57 L 283.11 172.67 L 284.29 174.78 L 285.46 176.89 L 286.64 178.99 L 287.82 181.10 L 288.99 183.21 L 290.17 185.31 L 291.35 187.42 L 292.52 189.52 L 293.70 191.63 L 294.88 193.73 L 296.06 195.84 L 297.23 197.94 L 298.41 200.04 L 299.59 202.15 L 300.78 204.25 L 301.96 206.35 L 303.14 208.46 L 304.32 210.56 L 305.50 212.66 L 306.69 214.76 L 307.87 216.87 L 309.05 218.97 L 310.23 221.07 L 311.41 223.18 L 312.60 225.28 L 313.77 227.38 L 314.95 229.49 L 316.13 231.60 L 317.31 233.70 L 318.48 235.81 L 319.65 237.92 L 320.82 240.03 L 321.99 242.14 L 323.16 244.25 L 324.32 246.36 L 325.49 248.47 L 326.66 250.58 L 327.44 251.99" stroke="#02a5d5" stroke-width="4"/>
  <path class="sector" d="M 383.62 329.74 L 384.31 330.51 L 385.91 332.32 L 387.51 334.12 L 389.10 335.93 L 390.70 337.75 L 392.29 339.56 L 393.87 341.38 L 395.46 343.19 L 397.05 345.01 L 398.64 346.82 L 400.23 348.64 L 401.82 350.45 L 403.40 352.27 L 404.99 354.08 L 406.58 355.90 L 408.17 357.71 L 409.76 359.53 L 411.35 361.34 L 412.94 363.15 L 414.53 364.97 L 416.13 366.78 L 417.72 368.59 L 419.31 370.40 L 420.90 372.22 L 422.49 374.03 L 424.08 375.84 L 425.68 377.65 L 427.27 379.47 L 428.86 381.28 L 430.45 383.09 L 432.05 384.90 L 433.64 386.71 L 435.23 388.52 L 436.82 390.34 L 438.42 392.15 L 440.01 393.96 L 441.60 395.77 L 443.19 397.58 L 444.79 399.39 L 446.38 401.21 L 447.97 403.02 L 449.56 404.83 L 451.16 406.64 L 452.75 408.45 L 454.34 410.27 L 455.93 412.08 L 457.52 413.89 L 459.12 415.70 L 460.71 417.52 L 462.30 419.33 L 463.89 421.14 L 465.48 422.96 L 467.07 424.77 L 468.67 426.58 L 470.26 428.39 L 471.85 430.21 L 473.44 432.02 L 475.03 433.83 L 476.62 435.65 L 478.21 437.46 L 479.80 439.27 L 481.39 441.09 L 482.98 442.90 L 484.58 444.71 L 486.17 446.52 L 487.76 448.34 L 489.35 450.15 L 490.94 451.96 L 492.53 453.78 L 494.12 455.59 L 495.71 457.40 L 497.31 459.21 L 498.90 461.03 L 500.49 462.84 L 500.52 462.87" stroke="#02a5d5" stroke-width="4"/>
  <path class="sector" d="M 500.52 462.87 L 502.08 464.65 L 503.67 466.46 L 505.26 468.27 L 506.86 470.09 L 508.45 471.90 L 510.04 473.71 L 511.63 475.52 L 513.23 477.33 L 514.82 479.15 L 516.41 480.96 L 518.01 482.77 L 519.60 484.58 L 521.19 486.39 L 522.79 488.21 L 524.38 490.02 L 525.97 491.83 L 527.56 493.64 L 529.16 495.46 L 530.75 497.27 L 532.34 499.08 L 533.93 500.89 L 535.52 502.71 L 537.11 504.52 L 538.69 506.34 L 540.28 508.15 L 541.87 509.97 L 543.45 511.78 L 545.04 513.60 L 546.63 515.41 L 548.22 517.22 L 549.82 519.03 L 551.42 520.84 L 553.03 522.64 L 554.65 524.44 L 556.28 526.23 L 557.94 527.99 L 559.71 529.59 L 561.73 530.85 L 563.99 531.66 L 566.37 532.04 L 568.80 532.04 L 571.22 531.82 L 573.60 531.52 L 575.98 531.18 L 578.36 530.86 L 580.76 530.57 L 583.16 530.33 L 585.58 530.13 L 587.99 530.00 L 590.40 529.94 L 592.81 529.97 L 595.22 530.09 L 597.61 530.32 L 599.99 530.66 L 602.35 531.11 L 604.68 531.68 L 607.00 532.35 L 609.28 533.13 L 611.52 534.02 L 613.73 535.01 L 615.89 536.09 L 618.01 537.27 L 620.08 538.54 L 622.08 539.91 L 624.02 541.35 L 625.87 542.88 L 627.64 544.49 L 629.31 546.17 L 630.89 547.93 L 632.41 549.77 L 633.87 551.70 L 635.31 553.71 L 636.76 555.76 L 638.26 557.73 L 639.89 559.51 L 641.70 560.99 L 643.73 562.09 L 645.93 562.88 L 648.25 563.44 L 650.64 563.88 L 653.05 564.26 L 655.45 564.63 L 657.86 564.99 L 660.26 565.33 L 662.66 565.66 L 665.06 565.99 L 667.45 566.30 L 669.85 566.61 L 672.25 566.91 L 674.64 567.20 L 677.03 567.49 L 679.43 567.77 L 681.82 568.05 L 684.21 568.33 L 686.60 568.61 L 689.00 568.88 L 691.39 569.16 L 693.78 569.44 L 696.17 569.71 L 698.56 570.00 L 700.96 570.28 L 703.35 570.57 L 705.74 570.85 L 708.14 571.14 L 710.53 571.43 L 712.93 571.72 L 715.32 572.01 L 717.72 572.30 L 720.11 572.60 L 722.51 572.89 L 724.90 573.17 L 727.30 573.46 L 729.70 573.75 L 732.09 574.03 L 734.49 574.32 L 736.89 574.60 L 739.28 574.88 L 741.68 575.15 L 744.08 575.42 L 746.48 575.69 L 748.88 575.96 L 751.27 576.23 L 753.67 576.49 L 756.07 576.75 L 758.47 577.01 L 760.87 577.27 L 763.27 577.53 L 765.67 577.78 L 768.06 578.03 L 770.46 578.28 L 772.86 578.53 L 775.26 578.78 L 777.66 579.03 L 780.06 579.27 L 782.46 579.51 L 784.86 579.76 L 787.26 580.00 L 789.66 580.24 L 792.06 580.48 L 794.46 580.72 L 796.86 580.96 L 799.26 581.19 L 801.66 581.43 L 802.38 581.50" stroke="#eecc03" stroke-width="4"/>
  <path class="sector" d="M 898.14 591.08 L 900.07 591.27 L 902.47 591.52 L 904.87 591.76 L 907.27 592.00 L 909.67 592.24 L 912.07 592.49 L 914.47 592.73 L 916.87 592.97 L 919.27 593.21 L 921.67 593.46 L 924.07 593.70 L 926.47 593.94 L 928.87 594.18 L 931.27 594.42 L 933.67 594.67 L 936.07 594.91 L 938.47 595.15 L 940.87 595.39 L 943.27 595.63 L 945.67 595.87 L 948.07 596.11 L 950.47 596.35 L 952.87 596.60 L 955.27 596.84 L 957.67 597.08 L 960.07 597.32 L 962.47 597.56 L 964.87 597.80 L 967.27 598.04 L 969.67 598.28 L 972.07 598.52 L 974.47 598.76 L 976.87 599.00 L 979.27 599.24 L 981.67 599.48 L 984.07 599.72 L 986.47 599.96 L 988.87 600.20 L 991.27 600.44 L 993.67 600.68 L 996.07 600.92 L 998.47 601.16 L 1000.87 601.40 L 1003.27 601.64 L 1005.67 601.88 L 1008.07 602.12 L 1010.47 602.36 L 1012.87 602.60 L 1015.27 602.84 L 1017.67 603.08 L 1020.07 603.32 L 1022.47 603.56 L 1024.87 603.80 L 1027.27 604.04 L 1029.68 604.28 L 1032.08 604.52 L 1034.48 604.75 L 1036.88 604.99 L 1039.28 605.23 L 1041.68 605.47 L 1044.08 605.71 L 1046.48 605.95 L 1048.88 606.19 L 1051.28 606.43 L 1053.68 606.67 L 1056.08 606.91 L 1058.48 607.15 L 1060.88 607.39 L 1063.28 607.63 L 1065.68 607.87 L 1068.08 608.11 L 1070.48 608.34 L 1072.88 608.58 L 1075.28 608.82 L 1077.68 609.06 L 1080.08 609.30 L 1082.48 609.54 L 1084.89 609.78 L 1087.29 610.02 L 1089.69 610.26 L 1092.09 610.51 L 1094.49 610.75 L 1096.89 611.01 L 1099.28 611.26 L 1101.68 611.53 L 1104.08 611.81 L 1106.47 612.10 L 1108.86 612.40 L 1111.24 612.74 L 1113.61 613.15 L 1115.94 613.69 L 1118.23 614.40 L 1120.47 615.29 L 1122.64 616.38 L 1124.74 617.63 L 1126.75 619.02 L 1128.66 620.52 L 1130.47 622.11 L 1132.18 623.80 L 1133.78 625.58 L 1135.27 627.44 L 1136.66 629.38 L 1137.95 631.39 L 1139.13 633.48 L 1140.21 635.64 L 1141.18 637.86 L 1142.05 640.14 L 1142.78 642.47 L 1143.36 644.83 L 1143.76 647.21 L 1143.97 649.60 L 1144.00 651.99 L 1143.86 654.38 L 1143.58 656.76 L 1143.17 659.12 L 1142.65 661.47 L 1142.02 663.79 L 1141.29 666.08 L 1140.46 668.34 L 1139.54 670.58 L 1138.54 672.78 L 1137.46 674.95 L 1136.31 677.08 L 1135.09 679.17 L 1133.81 681.22 L 1132.46 683.23 L 1131.05 685.19 L 1129.59 687.10 L 1128.07 688.97 L 1126.50 690.79 L 1124.87 692.56 L 1123.19 694.28 L 1121.46 695.95 L 1119.68 697.57 L 1117.85 699.13 L 1115.98 700.65 L 1114.07 702.11 L 1112.12 703.52 L 1110.13 704.88 L 1108.11 706.19 L 1106.05 707.45 L 1103.96 708.65 L 1101.84 709.81 L 1099.69 710.92 L 1097.51 711.97 L 1095.31 712.98 L 1093.09 713.94 L 1090.85 714.84 L 1088.59 715.70 L 1086.31 716.51 L 1084.02 717.27 L 1081.72 717.98 L 1079.41 718.65 L 1077.08 719.27 L 1074.75 719.85 L 1072.40 720.38 L 1070.05 720.88 L 1067.68 721.33 L 1065.31 721.75 L 1062.93 722.13 L 1060.55 722.48 L 1058.16 722.80 L 1055.77 723.08 L 1053.37 723.34 L 1050.96 723.57 L 1048.56 723.77 L 1046.15 723.95 L 1043.74 724.10 L 1041.33 724.23 L 1038.92 724.34 L 1036.51 724.44 L 1034.10 724.51 L 1031.69 724.57 L 1029.28 724.62 L 1026.86 724.66 L 1024.45 724.68 L 1022.04 724.70 L 1019.63 724.71 L 1017.22 724.71 L 1014.80 724.72 L 1012.39 724.72 L 1009.98 724.71 L 1007.57 724.72 L 1005.15 724.72 L 1002.74 724.73 L 1000.33 724.74 L 997.92 724.77 L 995.51 724.80 L 993.09 724.84 L 990.68 724.88 L 988.27 724.93 L 985.86 724.98 L 983.45 725.03 L 981.03 725.08 L 978.62 725.12 L 976.21 725.16 L 973.80 725.19 L 971.39 725.22 L 968.97 725.23 L 966.56 725.23 L 964.15 725.23 L 961.74 725.22 L 959.33 725.21 L 956.92 725.18 L 954.50 725.15 L 952.09 725.11 L 949.68 725.07 L 947.27 725.01 L 944.86 724.94 L 942.44 724.87 L 940.03 724.77 L 937.62 724.67 L 935.22 724.54 L 932.81 724.40 L 930.40 724.24 L 928.00 724.07 L 925.59 723.88 L 923.19 723.67 L 920.79 723.46 L 918.38 723.23 L 915.98 723.00 L 913.58 722.77 L 911.18 722.54 L 908.78 722.30 L 906.38 722.06 L 903.98 721.83 L 901.58 721.59 L 899.18 721.36 L 896.78 721.12 L 894.37 720.89 L 891.97 720.66 L 889.57 720.42 L 887.17 720.19 L 882.49 719.73" stroke="#eecc03" stroke-width="4"/>
  <line class="start-line-outline" x1="879.49" y1="747.86" x2="884.27" y2="704.12"/>
  <line class="start-line-inner" x1="879.49" y1="747.86" x2="884.27" y2="704.12"/>
  <line class="arrow-shaft" x1="885.58" y1="692.19" x2="869.27" y2="690.41"/>
  <polygon class="arrow-head" points="861.72,689.58 870.37,684.09 868.97,696.81"/>
  
  
  
  
  
  
  
  
  
  
  
  
  
  
  
  
  
  
  
  
  
  
  <text class="sector-label" fill="#fd0000" stroke="#000000" stroke-width="3" transform="rotate(5.25121 722.06 703.91)" x="722.06" y="703.91" text-anchor="middle" dominant-baseline="middle">SECTOR 1</text>
  <text class="sector-label" fill="#02a5d5" stroke="#000000" stroke-width="3" transform="rotate(54.4716 352.67 292.93)" x="352.67" y="292.93" text-anchor="middle" dominant-baseline="middle">SECTOR 2</text>
  <text class="sector-label" fill="#eecc03" stroke="#000000" stroke-width="3" transform="rotate(6.18279 850.26 586.25)" x="850.26" y="586.25" text-anchor="middle" dominant-baseline="middle">SECTOR 3</text>
  
  
  
  
  
  
  
<g data-editor-layer="title"><g class="editor-title is-selected" data-title="true"><text class="title" data-title="true" x="522.90" y="78.43" style="font-family: Orbitron, Inter, Arial, sans-serif; font-weight: 700; font-size: 44px;">Monza</text></g></g><g data-editor-layer="markers"><g class="editor-marker" data-turn="01"><circle class="marker" data-turn="01" cx="456.36" cy="710.02" r="18"/><text class="marker-text" data-turn="01" x="456.36" y="710.52">01</text></g><g class="editor-marker" data-turn="02"><circle class="marker" data-turn="02" cx="458.30" cy="631.00" r="18"/><text class="marker-text" data-turn="02" x="458.30" y="631.50">02</text></g><g class="editor-marker" data-turn="03"><circle class="marker" data-turn="03" cx="190.23" cy="635.64" r="18"/><text class="marker-text" data-turn="03" x="190.23" y="636.14">03</text></g><g class="editor-marker" data-turn="04"><circle class="marker" data-turn="04" cx="190.66" cy="320.02" r="18"/><text class="marker-text" data-turn="04" x="190.66" y="320.52">04</text></g><g class="editor-marker" data-turn="05"><circle class="marker" data-turn="05" cx="108.61" cy="322.57" r="18"/><text class="marker-text" data-turn="05" x="108.61" y="323.07">05</text></g><g class="editor-marker" data-turn="06"><circle class="marker" data-turn="06" cx="77.75" cy="129.86" r="18"/><text class="marker-text" data-turn="06" x="77.75" y="130.36">06</text></g><g class="editor-marker" data-turn="07"><circle class="marker" data-turn="07" cx="267.11" cy="96.40" r="18"/><text class="marker-text" data-turn="07" x="267.11" y="96.90">07</text></g><g class="editor-marker" data-turn="08"><circle class="marker" data-turn="08" cx="546.78" cy="557.45" r="18"/><text class="marker-text" data-turn="08" x="546.78" y="557.95">08</text></g><g class="editor-marker" data-turn="09"><circle class="marker" data-turn="09" cx="621.32" cy="505.19" r="18"/><text class="marker-text" data-turn="09" x="621.32" y="505.69">09</text></g><g class="editor-marker" data-turn="10"><circle class="marker" data-turn="10" cx="630.52" cy="590.83" r="18"/><text class="marker-text" data-turn="10" x="630.52" y="591.33">10</text></g><g class="editor-marker" data-turn="11"><circle class="marker" data-turn="11" cx="1173.32" cy="660.43" r="18"/><text class="marker-text" data-turn="11" x="1173.32" y="660.93">11</text></g></g><g data-editor-layer="labels"><g class="editor-label" data-label-index="0"><text class="label" data-label-index="0" x="541.51" y="645.58" text-anchor="middle" style="font-family: Orbitron, Inter, Arial, sans-serif; font-weight: 600; font-size: 16px;"><tspan x="541.51" y="637.18">Variante </tspan><tspan x="541.51" y="653.98">del Rettifilo</tspan></text></g><g class="editor-label" data-label-index="1"><text class="label" data-label-index="1" x="301.87" y="619.70" text-anchor="middle" style="font-family: Orbitron, Inter, Arial, sans-serif; font-weight: 600; font-size: 16px;">Biassono</text></g><g class="editor-label" data-label-index="2"><text class="label" data-label-index="2" x="234.35" y="376.08" text-anchor="middle" style="font-family: Orbitron, Inter, Arial, sans-serif; font-weight: 600; font-size: 16px;"><tspan x="234.35" y="367.68">Seconda </tspan><tspan x="234.35" y="384.48">Variante</tspan></text></g><g class="editor-label" data-label-index="3"><text class="label" data-label-index="3" x="75.50" y="100.47" text-anchor="middle" style="font-family: Orbitron, Inter, Arial, sans-serif; font-weight: 600; font-size: 16px;">Lesmo 1</text></g><g class="editor-label" data-label-index="4"><text class="label" data-label-index="4" x="286.33" y="70.02" text-anchor="middle" style="font-family: Orbitron, Inter, Arial, sans-serif; font-weight: 600; font-size: 16px;">Lesmo 2</text></g><g class="editor-label" data-label-index="5"><text class="label" data-label-index="5" x="696.47" y="523.31" text-anchor="middle" style="font-family: Orbitron, Inter, Arial, sans-serif; font-weight: 600; font-size: 16px;"><tspan x="696.47" y="514.91">Variante </tspan><tspan x="696.47" y="531.71">Ascari</tspan></text></g><g class="editor-label" data-label-index="6"><text class="label" data-label-index="6" x="1056.53" y="666.73" text-anchor="middle" style="font-family: Orbitron, Inter, Arial, sans-serif; font-weight: 600; font-size: 16px;">Parabolica</text></g></g></svg>
